<?xml version="1.0" encoding="utf-8" standalone="no"?>
<!DOCTYPE svg PUBLIC "-//W3C//DTD SVG 1.1//EN"
  "http://www.w3.org/Graphics/SVG/1.1/DTD/svg11.dtd">
<!-- Created with matplotlib (http://matplotlib.org/) -->
<svg height="288pt" version="1.1" viewBox="0 0 432 288" width="432pt" xmlns="http://www.w3.org/2000/svg" xmlns:xlink="http://www.w3.org/1999/xlink">
 <defs>
  <style type="text/css">
*{stroke-linecap:butt;stroke-linejoin:round;}
  </style>
 </defs>
 <g id="figure_1">
  <g id="patch_1">
   <path d="M 0 288 
L 432 288 
L 432 0 
L 0 0 
z
" style="fill:#ffffff;"/>
  </g>
  <g id="axes_1">
   <g id="patch_2">
    <path d="M 95.474646 229.312854 
L 429.165354 229.312854 
L 429.165354 9.674646 
L 95.474646 9.674646 
z
" style="fill:#ffffff;"/>
   </g>
   <g id="patch_3">
    <path clip-path="url(#p83b2f507e7)" d="M 117.164542 228.241997 
L 117.164542 229.312854 
L 120.501449 229.312854 
L 120.501449 228.241997 
L 117.164542 228.241997 
" style="fill:#c1946a;"/>
   </g>
   <g id="patch_4">
    <path clip-path="url(#p83b2f507e7)" d="M 125.506809 225.457768 
L 125.506809 229.312854 
L 128.843717 229.312854 
L 128.843717 225.457768 
L 125.506809 225.457768 
" style="fill:#c1946a;"/>
   </g>
   <g id="patch_5">
    <path clip-path="url(#p83b2f507e7)" d="M 133.849077 221.174338 
L 133.849077 229.312854 
L 137.185984 229.312854 
L 137.185984 221.174338 
L 133.849077 221.174338 
" style="fill:#c1946a;"/>
   </g>
   <g id="patch_6">
    <path clip-path="url(#p83b2f507e7)" d="M 142.191345 212.44685 
L 142.191345 229.312854 
L 145.528252 229.312854 
L 145.528252 212.44685 
L 142.191345 212.44685 
" style="fill:#c1946a;"/>
   </g>
   <g id="patch_7">
    <path clip-path="url(#p83b2f507e7)" d="M 150.533613 195.47376 
L 150.533613 229.312854 
L 153.87052 229.312854 
L 153.87052 195.47376 
L 150.533613 195.47376 
" style="fill:#c1946a;"/>
   </g>
   <g id="patch_8">
    <path clip-path="url(#p83b2f507e7)" d="M 158.87588 169.71964 
L 158.87588 229.312854 
L 162.212787 229.312854 
L 162.212787 169.71964 
L 158.87588 169.71964 
" style="fill:#c1946a;"/>
   </g>
   <g id="patch_9">
    <path clip-path="url(#p83b2f507e7)" d="M 167.218148 151.836321 
L 167.218148 229.312854 
L 170.555055 229.312854 
L 170.555055 151.836321 
L 167.218148 151.836321 
" style="fill:#c1946a;"/>
   </g>
   <g id="patch_10">
    <path clip-path="url(#p83b2f507e7)" d="M 175.560416 115.694883 
L 175.560416 229.312854 
L 178.897323 229.312854 
L 178.897323 115.694883 
L 175.560416 115.694883 
" style="fill:#c1946a;"/>
   </g>
   <g id="patch_11">
    <path clip-path="url(#p83b2f507e7)" d="M 183.902683 86.72819 
L 183.902683 229.312854 
L 187.239591 229.312854 
L 187.239591 86.72819 
L 183.902683 86.72819 
" style="fill:#c1946a;"/>
   </g>
   <g id="patch_12">
    <path clip-path="url(#p83b2f507e7)" d="M 192.244951 62.152013 
L 192.244951 229.312854 
L 195.581858 229.312854 
L 195.581858 62.152013 
L 192.244951 62.152013 
" style="fill:#c1946a;"/>
   </g>
   <g id="patch_13">
    <path clip-path="url(#p83b2f507e7)" d="M 200.587219 62.740985 
L 200.587219 229.312854 
L 203.924126 229.312854 
L 203.924126 62.740985 
L 200.587219 62.740985 
" style="fill:#c1946a;"/>
   </g>
   <g id="patch_14">
    <path clip-path="url(#p83b2f507e7)" d="M 208.929487 16.58703 
L 208.929487 229.312854 
L 212.266394 229.312854 
L 212.266394 16.58703 
L 208.929487 16.58703 
" style="fill:#c1946a;"/>
   </g>
   <g id="patch_15">
    <path clip-path="url(#p83b2f507e7)" d="M 217.271754 40.574236 
L 217.271754 229.312854 
L 220.608661 229.312854 
L 220.608661 40.574236 
L 217.271754 40.574236 
" style="fill:#c1946a;"/>
   </g>
   <g id="patch_16">
    <path clip-path="url(#p83b2f507e7)" d="M 225.614022 48.445038 
L 225.614022 229.312854 
L 228.950929 229.312854 
L 228.950929 48.445038 
L 225.614022 48.445038 
" style="fill:#c1946a;"/>
   </g>
   <g id="patch_17">
    <path clip-path="url(#p83b2f507e7)" d="M 233.95629 79.874703 
L 233.95629 229.312854 
L 237.293197 229.312854 
L 237.293197 79.874703 
L 233.95629 79.874703 
" style="fill:#c1946a;"/>
   </g>
   <g id="patch_18">
    <path clip-path="url(#p83b2f507e7)" d="M 242.298557 93.956478 
L 242.298557 229.312854 
L 245.635465 229.312854 
L 245.635465 93.956478 
L 242.298557 93.956478 
" style="fill:#c1946a;"/>
   </g>
   <g id="patch_19">
    <path clip-path="url(#p83b2f507e7)" d="M 250.640825 112.375225 
L 250.640825 229.312854 
L 253.977732 229.312854 
L 253.977732 112.375225 
L 250.640825 112.375225 
" style="fill:#c1946a;"/>
   </g>
   <g id="patch_20">
    <path clip-path="url(#p83b2f507e7)" d="M 258.983093 138.129346 
L 258.983093 229.312854 
L 262.32 229.312854 
L 262.32 138.129346 
L 258.983093 138.129346 
" style="fill:#c1946a;"/>
   </g>
   <g id="patch_21">
    <path clip-path="url(#p83b2f507e7)" d="M 267.325361 158.689808 
L 267.325361 229.312854 
L 270.662268 229.312854 
L 270.662268 158.689808 
L 267.325361 158.689808 
" style="fill:#c1946a;"/>
   </g>
   <g id="patch_22">
    <path clip-path="url(#p83b2f507e7)" d="M 275.667628 171.540097 
L 275.667628 229.312854 
L 279.004535 229.312854 
L 279.004535 171.540097 
L 275.667628 171.540097 
" style="fill:#c1946a;"/>
   </g>
   <g id="patch_23">
    <path clip-path="url(#p83b2f507e7)" d="M 284.009896 183.105357 
L 284.009896 229.312854 
L 287.346803 229.312854 
L 287.346803 183.105357 
L 284.009896 183.105357 
" style="fill:#c1946a;"/>
   </g>
   <g id="patch_24">
    <path clip-path="url(#p83b2f507e7)" d="M 292.352164 199.275304 
L 292.352164 229.312854 
L 295.689071 229.312854 
L 295.689071 199.275304 
L 292.352164 199.275304 
" style="fill:#c1946a;"/>
   </g>
   <g id="patch_25">
    <path clip-path="url(#p83b2f507e7)" d="M 300.694431 202.380791 
L 300.694431 229.312854 
L 304.031339 229.312854 
L 304.031339 202.380791 
L 300.694431 202.380791 
" style="fill:#c1946a;"/>
   </g>
   <g id="patch_26">
    <path clip-path="url(#p83b2f507e7)" d="M 309.036699 203.451648 
L 309.036699 229.312854 
L 312.373606 229.312854 
L 312.373606 203.451648 
L 309.036699 203.451648 
" style="fill:#c1946a;"/>
   </g>
   <g id="patch_27">
    <path clip-path="url(#p83b2f507e7)" d="M 317.378967 211.054736 
L 317.378967 229.312854 
L 320.715874 229.312854 
L 320.715874 211.054736 
L 317.378967 211.054736 
" style="fill:#c1946a;"/>
   </g>
   <g id="patch_28">
    <path clip-path="url(#p83b2f507e7)" d="M 325.721235 217.908223 
L 325.721235 229.312854 
L 329.058142 229.312854 
L 329.058142 217.908223 
L 325.721235 217.908223 
" style="fill:#c1946a;"/>
   </g>
   <g id="patch_29">
    <path clip-path="url(#p83b2f507e7)" d="M 334.063502 219.35388 
L 334.063502 229.312854 
L 337.400409 229.312854 
L 337.400409 219.35388 
L 334.063502 219.35388 
" style="fill:#c1946a;"/>
   </g>
   <g id="patch_30">
    <path clip-path="url(#p83b2f507e7)" d="M 342.40577 221.602681 
L 342.40577 229.312854 
L 345.742677 229.312854 
L 345.742677 221.602681 
L 342.40577 221.602681 
" style="fill:#c1946a;"/>
   </g>
   <g id="patch_31">
    <path clip-path="url(#p83b2f507e7)" d="M 350.748038 220.853081 
L 350.748038 229.312854 
L 354.084945 229.312854 
L 354.084945 220.853081 
L 350.748038 220.853081 
" style="fill:#c1946a;"/>
   </g>
   <g id="patch_32">
    <path clip-path="url(#p83b2f507e7)" d="M 359.090306 224.065653 
L 359.090306 229.312854 
L 362.427213 229.312854 
L 362.427213 224.065653 
L 359.090306 224.065653 
" style="fill:#c1946a;"/>
   </g>
   <g id="patch_33">
    <path clip-path="url(#p83b2f507e7)" d="M 367.432573 225.297139 
L 367.432573 229.312854 
L 370.76948 229.312854 
L 370.76948 225.297139 
L 367.432573 225.297139 
" style="fill:#c1946a;"/>
   </g>
   <g id="patch_34">
    <path clip-path="url(#p83b2f507e7)" d="M 375.774841 225.939653 
L 375.774841 229.312854 
L 379.111748 229.312854 
L 379.111748 225.939653 
L 375.774841 225.939653 
" style="fill:#c1946a;"/>
   </g>
   <g id="patch_35">
    <path clip-path="url(#p83b2f507e7)" d="M 384.117109 227.54594 
L 384.117109 229.312854 
L 387.454016 229.312854 
L 387.454016 227.54594 
L 384.117109 227.54594 
" style="fill:#c1946a;"/>
   </g>
   <g id="patch_36">
    <path clip-path="url(#p83b2f507e7)" d="M 392.459376 227.974283 
L 392.459376 229.312854 
L 395.796283 229.312854 
L 395.796283 227.974283 
L 392.459376 227.974283 
" style="fill:#c1946a;"/>
   </g>
   <g id="patch_37">
    <path clip-path="url(#p83b2f507e7)" d="M 400.801644 227.92074 
L 400.801644 229.312854 
L 404.138551 229.312854 
L 404.138551 227.92074 
L 400.801644 227.92074 
" style="fill:#c1946a;"/>
   </g>
   <g id="matplotlib.axis_1">
    <g id="xtick_1">
     <g id="line2d_1">
      <defs>
       <path d="M 0 0 
L 0 -3.5 
" id="mc995f067de" style="stroke:#000000;stroke-width:0.8;"/>
      </defs>
      <g>
       <use style="stroke:#000000;stroke-width:0.8;" x="158.041654" xlink:href="#mc995f067de" y="229.312854"/>
      </g>
     </g>
     <g id="text_1">
      <!-- 1000 -->
      <defs>
       <path d="M 12.40625 8.296875 
L 28.515625 8.296875 
L 28.515625 63.921875 
L 10.984375 60.40625 
L 10.984375 69.390625 
L 28.421875 72.90625 
L 38.28125 72.90625 
L 38.28125 8.296875 
L 54.390625 8.296875 
L 54.390625 0 
L 12.40625 0 
z
" id="DejaVuSans-31"/>
       <path d="M 31.78125 66.40625 
Q 24.171875 66.40625 20.328125 58.90625 
Q 16.5 51.421875 16.5 36.375 
Q 16.5 21.390625 20.328125 13.890625 
Q 24.171875 6.390625 31.78125 6.390625 
Q 39.453125 6.390625 43.28125 13.890625 
Q 47.125 21.390625 47.125 36.375 
Q 47.125 51.421875 43.28125 58.90625 
Q 39.453125 66.40625 31.78125 66.40625 
z
M 31.78125 74.21875 
Q 44.046875 74.21875 50.515625 64.515625 
Q 56.984375 54.828125 56.984375 36.375 
Q 56.984375 17.96875 50.515625 8.265625 
Q 44.046875 -1.421875 31.78125 -1.421875 
Q 19.53125 -1.421875 13.0625 8.265625 
Q 6.59375 17.96875 6.59375 36.375 
Q 6.59375 54.828125 13.0625 64.515625 
Q 19.53125 74.21875 31.78125 74.21875 
z
" id="DejaVuSans-30"/>
      </defs>
      <g transform="translate(130.046654 249.529417)scale(0.22 -0.22)">
       <use xlink:href="#DejaVuSans-31"/>
       <use x="63.623047" xlink:href="#DejaVuSans-30"/>
       <use x="127.246094" xlink:href="#DejaVuSans-30"/>
       <use x="190.869141" xlink:href="#DejaVuSans-30"/>
      </g>
     </g>
    </g>
    <g id="xtick_2">
     <g id="line2d_2">
      <g>
       <use style="stroke:#000000;stroke-width:0.8;" x="220.608661" xlink:href="#mc995f067de" y="229.312854"/>
      </g>
     </g>
     <g id="text_2">
      <!-- 1300 -->
      <defs>
       <path d="M 40.578125 39.3125 
Q 47.65625 37.796875 51.625 33 
Q 55.609375 28.21875 55.609375 21.1875 
Q 55.609375 10.40625 48.1875 4.484375 
Q 40.765625 -1.421875 27.09375 -1.421875 
Q 22.515625 -1.421875 17.65625 -0.515625 
Q 12.796875 0.390625 7.625 2.203125 
L 7.625 11.71875 
Q 11.71875 9.328125 16.59375 8.109375 
Q 21.484375 6.890625 26.8125 6.890625 
Q 36.078125 6.890625 40.9375 10.546875 
Q 45.796875 14.203125 45.796875 21.1875 
Q 45.796875 27.640625 41.28125 31.265625 
Q 36.765625 34.90625 28.71875 34.90625 
L 20.21875 34.90625 
L 20.21875 43.015625 
L 29.109375 43.015625 
Q 36.375 43.015625 40.234375 45.921875 
Q 44.09375 48.828125 44.09375 54.296875 
Q 44.09375 59.90625 40.109375 62.90625 
Q 36.140625 65.921875 28.71875 65.921875 
Q 24.65625 65.921875 20.015625 65.03125 
Q 15.375 64.15625 9.8125 62.3125 
L 9.8125 71.09375 
Q 15.4375 72.65625 20.34375 73.4375 
Q 25.25 74.21875 29.59375 74.21875 
Q 40.828125 74.21875 47.359375 69.109375 
Q 53.90625 64.015625 53.90625 55.328125 
Q 53.90625 49.265625 50.4375 45.09375 
Q 46.96875 40.921875 40.578125 39.3125 
z
" id="DejaVuSans-33"/>
      </defs>
      <g transform="translate(192.613661 249.529417)scale(0.22 -0.22)">
       <use xlink:href="#DejaVuSans-31"/>
       <use x="63.623047" xlink:href="#DejaVuSans-33"/>
       <use x="127.246094" xlink:href="#DejaVuSans-30"/>
       <use x="190.869141" xlink:href="#DejaVuSans-30"/>
      </g>
     </g>
    </g>
    <g id="xtick_3">
     <g id="line2d_3">
      <g>
       <use style="stroke:#000000;stroke-width:0.8;" x="283.175669" xlink:href="#mc995f067de" y="229.312854"/>
      </g>
     </g>
     <g id="text_3">
      <!-- 1600 -->
      <defs>
       <path d="M 33.015625 40.375 
Q 26.375 40.375 22.484375 35.828125 
Q 18.609375 31.296875 18.609375 23.390625 
Q 18.609375 15.53125 22.484375 10.953125 
Q 26.375 6.390625 33.015625 6.390625 
Q 39.65625 6.390625 43.53125 10.953125 
Q 47.40625 15.53125 47.40625 23.390625 
Q 47.40625 31.296875 43.53125 35.828125 
Q 39.65625 40.375 33.015625 40.375 
z
M 52.59375 71.296875 
L 52.59375 62.3125 
Q 48.875 64.0625 45.09375 64.984375 
Q 41.3125 65.921875 37.59375 65.921875 
Q 27.828125 65.921875 22.671875 59.328125 
Q 17.53125 52.734375 16.796875 39.40625 
Q 19.671875 43.65625 24.015625 45.921875 
Q 28.375 48.1875 33.59375 48.1875 
Q 44.578125 48.1875 50.953125 41.515625 
Q 57.328125 34.859375 57.328125 23.390625 
Q 57.328125 12.15625 50.6875 5.359375 
Q 44.046875 -1.421875 33.015625 -1.421875 
Q 20.359375 -1.421875 13.671875 8.265625 
Q 6.984375 17.96875 6.984375 36.375 
Q 6.984375 53.65625 15.1875 63.9375 
Q 23.390625 74.21875 37.203125 74.21875 
Q 40.921875 74.21875 44.703125 73.484375 
Q 48.484375 72.75 52.59375 71.296875 
z
" id="DejaVuSans-36"/>
      </defs>
      <g transform="translate(255.180669 249.529417)scale(0.22 -0.22)">
       <use xlink:href="#DejaVuSans-31"/>
       <use x="63.623047" xlink:href="#DejaVuSans-36"/>
       <use x="127.246094" xlink:href="#DejaVuSans-30"/>
       <use x="190.869141" xlink:href="#DejaVuSans-30"/>
      </g>
     </g>
    </g>
    <g id="xtick_4">
     <g id="line2d_4">
      <g>
       <use style="stroke:#000000;stroke-width:0.8;" x="345.742677" xlink:href="#mc995f067de" y="229.312854"/>
      </g>
     </g>
     <g id="text_4">
      <!-- 1900 -->
      <defs>
       <path d="M 10.984375 1.515625 
L 10.984375 10.5 
Q 14.703125 8.734375 18.5 7.8125 
Q 22.3125 6.890625 25.984375 6.890625 
Q 35.75 6.890625 40.890625 13.453125 
Q 46.046875 20.015625 46.78125 33.40625 
Q 43.953125 29.203125 39.59375 26.953125 
Q 35.25 24.703125 29.984375 24.703125 
Q 19.046875 24.703125 12.671875 31.3125 
Q 6.296875 37.9375 6.296875 49.421875 
Q 6.296875 60.640625 12.9375 67.421875 
Q 19.578125 74.21875 30.609375 74.21875 
Q 43.265625 74.21875 49.921875 64.515625 
Q 56.59375 54.828125 56.59375 36.375 
Q 56.59375 19.140625 48.40625 8.859375 
Q 40.234375 -1.421875 26.421875 -1.421875 
Q 22.703125 -1.421875 18.890625 -0.6875 
Q 15.09375 0.046875 10.984375 1.515625 
z
M 30.609375 32.421875 
Q 37.25 32.421875 41.125 36.953125 
Q 45.015625 41.5 45.015625 49.421875 
Q 45.015625 57.28125 41.125 61.84375 
Q 37.25 66.40625 30.609375 66.40625 
Q 23.96875 66.40625 20.09375 61.84375 
Q 16.21875 57.28125 16.21875 49.421875 
Q 16.21875 41.5 20.09375 36.953125 
Q 23.96875 32.421875 30.609375 32.421875 
z
" id="DejaVuSans-39"/>
      </defs>
      <g transform="translate(317.747677 249.529417)scale(0.22 -0.22)">
       <use xlink:href="#DejaVuSans-31"/>
       <use x="63.623047" xlink:href="#DejaVuSans-39"/>
       <use x="127.246094" xlink:href="#DejaVuSans-30"/>
       <use x="190.869141" xlink:href="#DejaVuSans-30"/>
      </g>
     </g>
    </g>
    <g id="text_5">
     <!-- Volume $[\AA^3]$  -->
     <defs>
      <path d="M 28.609375 0 
L 0.78125 72.90625 
L 11.078125 72.90625 
L 34.1875 11.53125 
L 57.328125 72.90625 
L 67.578125 72.90625 
L 39.796875 0 
z
" id="DejaVuSans-56"/>
      <path d="M 30.609375 48.390625 
Q 23.390625 48.390625 19.1875 42.75 
Q 14.984375 37.109375 14.984375 27.296875 
Q 14.984375 17.484375 19.15625 11.84375 
Q 23.34375 6.203125 30.609375 6.203125 
Q 37.796875 6.203125 41.984375 11.859375 
Q 46.1875 17.53125 46.1875 27.296875 
Q 46.1875 37.015625 41.984375 42.703125 
Q 37.796875 48.390625 30.609375 48.390625 
z
M 30.609375 56 
Q 42.328125 56 49.015625 48.375 
Q 55.71875 40.765625 55.71875 27.296875 
Q 55.71875 13.875 49.015625 6.21875 
Q 42.328125 -1.421875 30.609375 -1.421875 
Q 18.84375 -1.421875 12.171875 6.21875 
Q 5.515625 13.875 5.515625 27.296875 
Q 5.515625 40.765625 12.171875 48.375 
Q 18.84375 56 30.609375 56 
z
" id="DejaVuSans-6f"/>
      <path d="M 9.421875 75.984375 
L 18.40625 75.984375 
L 18.40625 0 
L 9.421875 0 
z
" id="DejaVuSans-6c"/>
      <path d="M 8.5 21.578125 
L 8.5 54.6875 
L 17.484375 54.6875 
L 17.484375 21.921875 
Q 17.484375 14.15625 20.5 10.265625 
Q 23.53125 6.390625 29.59375 6.390625 
Q 36.859375 6.390625 41.078125 11.03125 
Q 45.3125 15.671875 45.3125 23.6875 
L 45.3125 54.6875 
L 54.296875 54.6875 
L 54.296875 0 
L 45.3125 0 
L 45.3125 8.40625 
Q 42.046875 3.421875 37.71875 1 
Q 33.40625 -1.421875 27.6875 -1.421875 
Q 18.265625 -1.421875 13.375 4.4375 
Q 8.5 10.296875 8.5 21.578125 
z
M 31.109375 56 
z
" id="DejaVuSans-75"/>
      <path d="M 52 44.1875 
Q 55.375 50.25 60.0625 53.125 
Q 64.75 56 71.09375 56 
Q 79.640625 56 84.28125 50.015625 
Q 88.921875 44.046875 88.921875 33.015625 
L 88.921875 0 
L 79.890625 0 
L 79.890625 32.71875 
Q 79.890625 40.578125 77.09375 44.375 
Q 74.3125 48.1875 68.609375 48.1875 
Q 61.625 48.1875 57.5625 43.546875 
Q 53.515625 38.921875 53.515625 30.90625 
L 53.515625 0 
L 44.484375 0 
L 44.484375 32.71875 
Q 44.484375 40.625 41.703125 44.40625 
Q 38.921875 48.1875 33.109375 48.1875 
Q 26.21875 48.1875 22.15625 43.53125 
Q 18.109375 38.875 18.109375 30.90625 
L 18.109375 0 
L 9.078125 0 
L 9.078125 54.6875 
L 18.109375 54.6875 
L 18.109375 46.1875 
Q 21.1875 51.21875 25.484375 53.609375 
Q 29.78125 56 35.6875 56 
Q 41.65625 56 45.828125 52.96875 
Q 50 49.953125 52 44.1875 
z
" id="DejaVuSans-6d"/>
      <path d="M 56.203125 29.59375 
L 56.203125 25.203125 
L 14.890625 25.203125 
Q 15.484375 15.921875 20.484375 11.0625 
Q 25.484375 6.203125 34.421875 6.203125 
Q 39.59375 6.203125 44.453125 7.46875 
Q 49.3125 8.734375 54.109375 11.28125 
L 54.109375 2.78125 
Q 49.265625 0.734375 44.1875 -0.34375 
Q 39.109375 -1.421875 33.890625 -1.421875 
Q 20.796875 -1.421875 13.15625 6.1875 
Q 5.515625 13.8125 5.515625 26.8125 
Q 5.515625 40.234375 12.765625 48.109375 
Q 20.015625 56 32.328125 56 
Q 43.359375 56 49.78125 48.890625 
Q 56.203125 41.796875 56.203125 29.59375 
z
M 47.21875 32.234375 
Q 47.125 39.59375 43.09375 43.984375 
Q 39.0625 48.390625 32.421875 48.390625 
Q 24.90625 48.390625 20.390625 44.140625 
Q 15.875 39.890625 15.1875 32.171875 
z
" id="DejaVuSans-65"/>
      <path id="DejaVuSans-20"/>
      <path d="M 8.59375 75.984375 
L 29.296875 75.984375 
L 29.296875 69 
L 17.578125 69 
L 17.578125 -6.203125 
L 29.296875 -6.203125 
L 29.296875 -13.1875 
L 8.59375 -13.1875 
z
" id="DejaVuSans-5b"/>
      <path d="M 49.8125 79.390625 
Q 49.8125 82.46875 47.625 84.640625 
Q 45.453125 86.8125 42.390625 86.8125 
Q 39.265625 86.8125 37.140625 84.6875 
Q 35.015625 82.5625 35.015625 79.390625 
Q 35.015625 76.3125 37.140625 74.15625 
Q 39.265625 72.015625 42.390625 72.015625 
Q 45.453125 72.015625 47.625 74.15625 
Q 49.8125 76.3125 49.8125 79.390625 
z
M 34.421875 68.703125 
Q 31.78125 70.515625 30.390625 73.265625 
Q 29 76.03125 29 79.390625 
Q 29 84.96875 32.90625 88.890625 
Q 36.8125 92.828125 42.390625 92.828125 
Q 47.953125 92.828125 51.875 88.890625 
Q 55.8125 84.96875 55.8125 79.390625 
Q 55.8125 75.53125 54.03125 72.546875 
Q 52.25 69.578125 48.875 67.828125 
L 61.53125 0 
L 51.21875 0 
L 48.1875 18.703125 
L 15.375 18.703125 
L 5.078125 0 
L -5.328125 0 
z
M 40.375 63.1875 
L 19.921875 26.90625 
L 46.6875 26.90625 
z
" id="DejaVuSans-Oblique-c5"/>
      <path d="M 30.421875 75.984375 
L 30.421875 -13.1875 
L 9.71875 -13.1875 
L 9.71875 -6.203125 
L 21.390625 -6.203125 
L 21.390625 69 
L 9.71875 69 
L 9.71875 75.984375 
z
" id="DejaVuSans-5d"/>
     </defs>
     <g transform="translate(184.68 278.793479)scale(0.24 -0.24)">
      <use transform="translate(0 0.171875)" xlink:href="#DejaVuSans-56"/>
      <use transform="translate(68.408203 0.171875)" xlink:href="#DejaVuSans-6f"/>
      <use transform="translate(129.589844 0.171875)" xlink:href="#DejaVuSans-6c"/>
      <use transform="translate(157.373047 0.171875)" xlink:href="#DejaVuSans-75"/>
      <use transform="translate(220.751953 0.171875)" xlink:href="#DejaVuSans-6d"/>
      <use transform="translate(318.164062 0.171875)" xlink:href="#DejaVuSans-65"/>
      <use transform="translate(379.6875 0.171875)" xlink:href="#DejaVuSans-20"/>
      <use transform="translate(411.474609 0.171875)" xlink:href="#DejaVuSans-5b"/>
      <use transform="translate(450.488281 0.171875)" xlink:href="#DejaVuSans-Oblique-c5"/>
      <use transform="translate(528.702318 38.453125)scale(0.7)" xlink:href="#DejaVuSans-33"/>
      <use transform="translate(575.972826 0.171875)" xlink:href="#DejaVuSans-5d"/>
      <use transform="translate(614.986497 0.171875)" xlink:href="#DejaVuSans-20"/>
     </g>
    </g>
   </g>
   <g id="matplotlib.axis_2">
    <g id="ytick_1">
     <g id="line2d_5">
      <defs>
       <path d="M 0 0 
L 3.5 0 
" id="ma101afa07a" style="stroke:#000000;stroke-width:0.8;"/>
      </defs>
      <g>
       <use style="stroke:#000000;stroke-width:0.8;" x="95.474646" xlink:href="#ma101afa07a" y="174.403302"/>
      </g>
     </g>
     <g id="text_6">
      <!-- 0.025 -->
      <defs>
       <path d="M 10.6875 12.40625 
L 21 12.40625 
L 21 0 
L 10.6875 0 
z
" id="DejaVuSans-2e"/>
       <path d="M 19.1875 8.296875 
L 53.609375 8.296875 
L 53.609375 0 
L 7.328125 0 
L 7.328125 8.296875 
Q 12.9375 14.109375 22.625 23.890625 
Q 32.328125 33.6875 34.8125 36.53125 
Q 39.546875 41.84375 41.421875 45.53125 
Q 43.3125 49.21875 43.3125 52.78125 
Q 43.3125 58.59375 39.234375 62.25 
Q 35.15625 65.921875 28.609375 65.921875 
Q 23.96875 65.921875 18.8125 64.3125 
Q 13.671875 62.703125 7.8125 59.421875 
L 7.8125 69.390625 
Q 13.765625 71.78125 18.9375 73 
Q 24.125 74.21875 28.421875 74.21875 
Q 39.75 74.21875 46.484375 68.546875 
Q 53.21875 62.890625 53.21875 53.421875 
Q 53.21875 48.921875 51.53125 44.890625 
Q 49.859375 40.875 45.40625 35.40625 
Q 44.1875 33.984375 37.640625 27.21875 
Q 31.109375 20.453125 19.1875 8.296875 
z
" id="DejaVuSans-32"/>
       <path d="M 10.796875 72.90625 
L 49.515625 72.90625 
L 49.515625 64.59375 
L 19.828125 64.59375 
L 19.828125 46.734375 
Q 21.96875 47.46875 24.109375 47.828125 
Q 26.265625 48.1875 28.421875 48.1875 
Q 40.625 48.1875 47.75 41.5 
Q 54.890625 34.8125 54.890625 23.390625 
Q 54.890625 11.625 47.5625 5.09375 
Q 40.234375 -1.421875 26.90625 -1.421875 
Q 22.3125 -1.421875 17.546875 -0.640625 
Q 12.796875 0.140625 7.71875 1.703125 
L 7.71875 11.625 
Q 12.109375 9.234375 16.796875 8.0625 
Q 21.484375 6.890625 26.703125 6.890625 
Q 35.15625 6.890625 40.078125 11.328125 
Q 45.015625 15.765625 45.015625 23.390625 
Q 45.015625 31 40.078125 35.4375 
Q 35.15625 39.890625 26.703125 39.890625 
Q 22.75 39.890625 18.8125 39.015625 
Q 14.890625 38.140625 10.796875 36.28125 
z
" id="DejaVuSans-35"/>
      </defs>
      <g transform="translate(28.992771 182.761583)scale(0.22 -0.22)">
       <use xlink:href="#DejaVuSans-30"/>
       <use x="63.623047" xlink:href="#DejaVuSans-2e"/>
       <use x="95.410156" xlink:href="#DejaVuSans-30"/>
       <use x="159.033203" xlink:href="#DejaVuSans-32"/>
       <use x="222.65625" xlink:href="#DejaVuSans-35"/>
      </g>
     </g>
    </g>
    <g id="ytick_2">
     <g id="line2d_6">
      <g>
       <use style="stroke:#000000;stroke-width:0.8;" x="95.474646" xlink:href="#ma101afa07a" y="119.49375"/>
      </g>
     </g>
     <g id="text_7">
      <!-- 0.050 -->
      <g transform="translate(28.992771 127.852031)scale(0.22 -0.22)">
       <use xlink:href="#DejaVuSans-30"/>
       <use x="63.623047" xlink:href="#DejaVuSans-2e"/>
       <use x="95.410156" xlink:href="#DejaVuSans-30"/>
       <use x="159.033203" xlink:href="#DejaVuSans-35"/>
       <use x="222.65625" xlink:href="#DejaVuSans-30"/>
      </g>
     </g>
    </g>
    <g id="ytick_3">
     <g id="line2d_7">
      <g>
       <use style="stroke:#000000;stroke-width:0.8;" x="95.474646" xlink:href="#ma101afa07a" y="64.584198"/>
      </g>
     </g>
     <g id="text_8">
      <!-- 0.075 -->
      <defs>
       <path d="M 8.203125 72.90625 
L 55.078125 72.90625 
L 55.078125 68.703125 
L 28.609375 0 
L 18.3125 0 
L 43.21875 64.59375 
L 8.203125 64.59375 
z
" id="DejaVuSans-37"/>
      </defs>
      <g transform="translate(28.992771 72.942479)scale(0.22 -0.22)">
       <use xlink:href="#DejaVuSans-30"/>
       <use x="63.623047" xlink:href="#DejaVuSans-2e"/>
       <use x="95.410156" xlink:href="#DejaVuSans-30"/>
       <use x="159.033203" xlink:href="#DejaVuSans-37"/>
       <use x="222.65625" xlink:href="#DejaVuSans-35"/>
      </g>
     </g>
    </g>
    <g id="ytick_4">
     <g id="line2d_8">
      <g>
       <use style="stroke:#000000;stroke-width:0.8;" x="95.474646" xlink:href="#ma101afa07a" y="9.674646"/>
      </g>
     </g>
     <g id="text_9">
      <!-- 0.100 -->
      <g transform="translate(28.992771 18.032927)scale(0.22 -0.22)">
       <use xlink:href="#DejaVuSans-30"/>
       <use x="63.623047" xlink:href="#DejaVuSans-2e"/>
       <use x="95.410156" xlink:href="#DejaVuSans-31"/>
       <use x="159.033203" xlink:href="#DejaVuSans-30"/>
       <use x="222.65625" xlink:href="#DejaVuSans-30"/>
      </g>
     </g>
    </g>
    <g id="text_10">
     <!-- Relative probability -->
     <defs>
      <path d="M 44.390625 34.1875 
Q 47.5625 33.109375 50.5625 29.59375 
Q 53.5625 26.078125 56.59375 19.921875 
L 66.609375 0 
L 56 0 
L 46.6875 18.703125 
Q 43.0625 26.03125 39.671875 28.421875 
Q 36.28125 30.8125 30.421875 30.8125 
L 19.671875 30.8125 
L 19.671875 0 
L 9.8125 0 
L 9.8125 72.90625 
L 32.078125 72.90625 
Q 44.578125 72.90625 50.734375 67.671875 
Q 56.890625 62.453125 56.890625 51.90625 
Q 56.890625 45.015625 53.6875 40.46875 
Q 50.484375 35.9375 44.390625 34.1875 
z
M 19.671875 64.796875 
L 19.671875 38.921875 
L 32.078125 38.921875 
Q 39.203125 38.921875 42.84375 42.21875 
Q 46.484375 45.515625 46.484375 51.90625 
Q 46.484375 58.296875 42.84375 61.546875 
Q 39.203125 64.796875 32.078125 64.796875 
z
" id="DejaVuSans-52"/>
      <path d="M 34.28125 27.484375 
Q 23.390625 27.484375 19.1875 25 
Q 14.984375 22.515625 14.984375 16.5 
Q 14.984375 11.71875 18.140625 8.90625 
Q 21.296875 6.109375 26.703125 6.109375 
Q 34.1875 6.109375 38.703125 11.40625 
Q 43.21875 16.703125 43.21875 25.484375 
L 43.21875 27.484375 
z
M 52.203125 31.203125 
L 52.203125 0 
L 43.21875 0 
L 43.21875 8.296875 
Q 40.140625 3.328125 35.546875 0.953125 
Q 30.953125 -1.421875 24.3125 -1.421875 
Q 15.921875 -1.421875 10.953125 3.296875 
Q 6 8.015625 6 15.921875 
Q 6 25.140625 12.171875 29.828125 
Q 18.359375 34.515625 30.609375 34.515625 
L 43.21875 34.515625 
L 43.21875 35.40625 
Q 43.21875 41.609375 39.140625 45 
Q 35.0625 48.390625 27.6875 48.390625 
Q 23 48.390625 18.546875 47.265625 
Q 14.109375 46.140625 10.015625 43.890625 
L 10.015625 52.203125 
Q 14.9375 54.109375 19.578125 55.046875 
Q 24.21875 56 28.609375 56 
Q 40.484375 56 46.34375 49.84375 
Q 52.203125 43.703125 52.203125 31.203125 
z
" id="DejaVuSans-61"/>
      <path d="M 18.3125 70.21875 
L 18.3125 54.6875 
L 36.8125 54.6875 
L 36.8125 47.703125 
L 18.3125 47.703125 
L 18.3125 18.015625 
Q 18.3125 11.328125 20.140625 9.421875 
Q 21.96875 7.515625 27.59375 7.515625 
L 36.8125 7.515625 
L 36.8125 0 
L 27.59375 0 
Q 17.1875 0 13.234375 3.875 
Q 9.28125 7.765625 9.28125 18.015625 
L 9.28125 47.703125 
L 2.6875 47.703125 
L 2.6875 54.6875 
L 9.28125 54.6875 
L 9.28125 70.21875 
z
" id="DejaVuSans-74"/>
      <path d="M 9.421875 54.6875 
L 18.40625 54.6875 
L 18.40625 0 
L 9.421875 0 
z
M 9.421875 75.984375 
L 18.40625 75.984375 
L 18.40625 64.59375 
L 9.421875 64.59375 
z
" id="DejaVuSans-69"/>
      <path d="M 2.984375 54.6875 
L 12.5 54.6875 
L 29.59375 8.796875 
L 46.6875 54.6875 
L 56.203125 54.6875 
L 35.6875 0 
L 23.484375 0 
z
" id="DejaVuSans-76"/>
      <path d="M 18.109375 8.203125 
L 18.109375 -20.796875 
L 9.078125 -20.796875 
L 9.078125 54.6875 
L 18.109375 54.6875 
L 18.109375 46.390625 
Q 20.953125 51.265625 25.265625 53.625 
Q 29.59375 56 35.59375 56 
Q 45.5625 56 51.78125 48.09375 
Q 58.015625 40.1875 58.015625 27.296875 
Q 58.015625 14.40625 51.78125 6.484375 
Q 45.5625 -1.421875 35.59375 -1.421875 
Q 29.59375 -1.421875 25.265625 0.953125 
Q 20.953125 3.328125 18.109375 8.203125 
z
M 48.6875 27.296875 
Q 48.6875 37.203125 44.609375 42.84375 
Q 40.53125 48.484375 33.40625 48.484375 
Q 26.265625 48.484375 22.1875 42.84375 
Q 18.109375 37.203125 18.109375 27.296875 
Q 18.109375 17.390625 22.1875 11.75 
Q 26.265625 6.109375 33.40625 6.109375 
Q 40.53125 6.109375 44.609375 11.75 
Q 48.6875 17.390625 48.6875 27.296875 
z
" id="DejaVuSans-70"/>
      <path d="M 41.109375 46.296875 
Q 39.59375 47.171875 37.8125 47.578125 
Q 36.03125 48 33.890625 48 
Q 26.265625 48 22.1875 43.046875 
Q 18.109375 38.09375 18.109375 28.8125 
L 18.109375 0 
L 9.078125 0 
L 9.078125 54.6875 
L 18.109375 54.6875 
L 18.109375 46.1875 
Q 20.953125 51.171875 25.484375 53.578125 
Q 30.03125 56 36.53125 56 
Q 37.453125 56 38.578125 55.875 
Q 39.703125 55.765625 41.0625 55.515625 
z
" id="DejaVuSans-72"/>
      <path d="M 48.6875 27.296875 
Q 48.6875 37.203125 44.609375 42.84375 
Q 40.53125 48.484375 33.40625 48.484375 
Q 26.265625 48.484375 22.1875 42.84375 
Q 18.109375 37.203125 18.109375 27.296875 
Q 18.109375 17.390625 22.1875 11.75 
Q 26.265625 6.109375 33.40625 6.109375 
Q 40.53125 6.109375 44.609375 11.75 
Q 48.6875 17.390625 48.6875 27.296875 
z
M 18.109375 46.390625 
Q 20.953125 51.265625 25.265625 53.625 
Q 29.59375 56 35.59375 56 
Q 45.5625 56 51.78125 48.09375 
Q 58.015625 40.1875 58.015625 27.296875 
Q 58.015625 14.40625 51.78125 6.484375 
Q 45.5625 -1.421875 35.59375 -1.421875 
Q 29.59375 -1.421875 25.265625 0.953125 
Q 20.953125 3.328125 18.109375 8.203125 
L 18.109375 0 
L 9.078125 0 
L 9.078125 75.984375 
L 18.109375 75.984375 
z
" id="DejaVuSans-62"/>
      <path d="M 32.171875 -5.078125 
Q 28.375 -14.84375 24.75 -17.8125 
Q 21.140625 -20.796875 15.09375 -20.796875 
L 7.90625 -20.796875 
L 7.90625 -13.28125 
L 13.1875 -13.28125 
Q 16.890625 -13.28125 18.9375 -11.515625 
Q 21 -9.765625 23.484375 -3.21875 
L 25.09375 0.875 
L 2.984375 54.6875 
L 12.5 54.6875 
L 29.59375 11.921875 
L 46.6875 54.6875 
L 56.203125 54.6875 
z
" id="DejaVuSans-79"/>
     </defs>
     <g transform="translate(20.001521 236.521875)rotate(-90)scale(0.24 -0.24)">
      <use xlink:href="#DejaVuSans-52"/>
      <use x="69.419922" xlink:href="#DejaVuSans-65"/>
      <use x="130.943359" xlink:href="#DejaVuSans-6c"/>
      <use x="158.726562" xlink:href="#DejaVuSans-61"/>
      <use x="220.005859" xlink:href="#DejaVuSans-74"/>
      <use x="259.214844" xlink:href="#DejaVuSans-69"/>
      <use x="286.998047" xlink:href="#DejaVuSans-76"/>
      <use x="346.177734" xlink:href="#DejaVuSans-65"/>
      <use x="407.701172" xlink:href="#DejaVuSans-20"/>
      <use x="439.488281" xlink:href="#DejaVuSans-70"/>
      <use x="502.964844" xlink:href="#DejaVuSans-72"/>
      <use x="544.046875" xlink:href="#DejaVuSans-6f"/>
      <use x="605.228516" xlink:href="#DejaVuSans-62"/>
      <use x="668.705078" xlink:href="#DejaVuSans-61"/>
      <use x="729.984375" xlink:href="#DejaVuSans-62"/>
      <use x="793.460938" xlink:href="#DejaVuSans-69"/>
      <use x="821.244141" xlink:href="#DejaVuSans-6c"/>
      <use x="849.027344" xlink:href="#DejaVuSans-69"/>
      <use x="876.810547" xlink:href="#DejaVuSans-74"/>
      <use x="916.019531" xlink:href="#DejaVuSans-79"/>
     </g>
    </g>
   </g>
   <g id="patch_38">
    <path clip-path="url(#p83b2f507e7)" d="M 120.501449 229.312854 
L 120.501449 229.312854 
L 123.838356 229.312854 
L 123.838356 229.312854 
L 120.501449 229.312854 
" style="fill:#86af49;"/>
   </g>
   <g id="patch_39">
    <path clip-path="url(#p83b2f507e7)" d="M 128.843717 229.168019 
L 128.843717 229.312854 
L 132.180624 229.312854 
L 132.180624 229.168019 
L 128.843717 229.168019 
" style="fill:#86af49;"/>
   </g>
   <g id="patch_40">
    <path clip-path="url(#p83b2f507e7)" d="M 137.185984 229.216297 
L 137.185984 229.312854 
L 140.522891 229.312854 
L 140.522891 229.216297 
L 137.185984 229.216297 
" style="fill:#86af49;"/>
   </g>
   <g id="patch_41">
    <path clip-path="url(#p83b2f507e7)" d="M 145.528252 228.540398 
L 145.528252 229.312854 
L 148.865159 229.312854 
L 148.865159 228.540398 
L 145.528252 228.540398 
" style="fill:#86af49;"/>
   </g>
   <g id="patch_42">
    <path clip-path="url(#p83b2f507e7)" d="M 153.87052 227.961056 
L 153.87052 229.312854 
L 157.207427 229.312854 
L 157.207427 227.961056 
L 153.87052 227.961056 
" style="fill:#86af49;"/>
   </g>
   <g id="patch_43">
    <path clip-path="url(#p83b2f507e7)" d="M 162.212787 227.912778 
L 162.212787 229.312854 
L 165.549694 229.312854 
L 165.549694 227.912778 
L 162.212787 227.912778 
" style="fill:#86af49;"/>
   </g>
   <g id="patch_44">
    <path clip-path="url(#p83b2f507e7)" d="M 170.555055 225.836802 
L 170.555055 229.312854 
L 173.891962 229.312854 
L 173.891962 225.836802 
L 170.555055 225.836802 
" style="fill:#86af49;"/>
   </g>
   <g id="patch_45">
    <path clip-path="url(#p83b2f507e7)" d="M 178.897323 223.374599 
L 178.897323 229.312854 
L 182.23423 229.312854 
L 182.23423 223.374599 
L 178.897323 223.374599 
" style="fill:#86af49;"/>
   </g>
   <g id="patch_46">
    <path clip-path="url(#p83b2f507e7)" d="M 187.239591 215.022418 
L 187.239591 229.312854 
L 190.576498 229.312854 
L 190.576498 215.022418 
L 187.239591 215.022418 
" style="fill:#86af49;"/>
   </g>
   <g id="patch_47">
    <path clip-path="url(#p83b2f507e7)" d="M 195.581858 201.311324 
L 195.581858 229.312854 
L 198.918765 229.312854 
L 198.918765 201.311324 
L 195.581858 201.311324 
" style="fill:#86af49;"/>
   </g>
   <g id="patch_48">
    <path clip-path="url(#p83b2f507e7)" d="M 203.924126 180.599848 
L 203.924126 229.312854 
L 207.261033 229.312854 
L 207.261033 180.599848 
L 203.924126 180.599848 
" style="fill:#86af49;"/>
   </g>
   <g id="patch_49">
    <path clip-path="url(#p83b2f507e7)" d="M 212.266394 158.00551 
L 212.266394 229.312854 
L 215.603301 229.312854 
L 215.603301 158.00551 
L 212.266394 158.00551 
" style="fill:#86af49;"/>
   </g>
   <g id="patch_50">
    <path clip-path="url(#p83b2f507e7)" d="M 220.608661 122.134584 
L 220.608661 229.312854 
L 223.945569 229.312854 
L 223.945569 122.134584 
L 220.608661 122.134584 
" style="fill:#86af49;"/>
   </g>
   <g id="patch_51">
    <path clip-path="url(#p83b2f507e7)" d="M 228.950929 94.133054 
L 228.950929 229.312854 
L 232.287836 229.312854 
L 232.287836 94.133054 
L 228.950929 94.133054 
" style="fill:#86af49;"/>
   </g>
   <g id="patch_52">
    <path clip-path="url(#p83b2f507e7)" d="M 237.293197 81.194416 
L 237.293197 229.312854 
L 240.630104 229.312854 
L 240.630104 81.194416 
L 237.293197 81.194416 
" style="fill:#86af49;"/>
   </g>
   <g id="patch_53">
    <path clip-path="url(#p83b2f507e7)" d="M 245.635465 53.868785 
L 245.635465 229.312854 
L 248.972372 229.312854 
L 248.972372 53.868785 
L 245.635465 53.868785 
" style="fill:#86af49;"/>
   </g>
   <g id="patch_54">
    <path clip-path="url(#p83b2f507e7)" d="M 253.977732 71.200766 
L 253.977732 229.312854 
L 257.314639 229.312854 
L 257.314639 71.200766 
L 253.977732 71.200766 
" style="fill:#86af49;"/>
   </g>
   <g id="patch_55">
    <path clip-path="url(#p83b2f507e7)" d="M 262.32 85.153253 
L 262.32 229.312854 
L 265.656907 229.312854 
L 265.656907 85.153253 
L 262.32 85.153253 
" style="fill:#86af49;"/>
   </g>
   <g id="patch_56">
    <path clip-path="url(#p83b2f507e7)" d="M 270.662268 100.795487 
L 270.662268 229.312854 
L 273.999175 229.312854 
L 273.999175 100.795487 
L 270.662268 100.795487 
" style="fill:#86af49;"/>
   </g>
   <g id="patch_57">
    <path clip-path="url(#p83b2f507e7)" d="M 279.004535 99.202296 
L 279.004535 229.312854 
L 282.341443 229.312854 
L 282.341443 99.202296 
L 279.004535 99.202296 
" style="fill:#86af49;"/>
   </g>
   <g id="patch_58">
    <path clip-path="url(#p83b2f507e7)" d="M 287.346803 116.389442 
L 287.346803 229.312854 
L 290.68371 229.312854 
L 290.68371 116.389442 
L 287.346803 116.389442 
" style="fill:#86af49;"/>
   </g>
   <g id="patch_59">
    <path clip-path="url(#p83b2f507e7)" d="M 295.689071 126.527927 
L 295.689071 229.312854 
L 299.025978 229.312854 
L 299.025978 126.527927 
L 295.689071 126.527927 
" style="fill:#86af49;"/>
   </g>
   <g id="patch_60">
    <path clip-path="url(#p83b2f507e7)" d="M 304.031339 134.252488 
L 304.031339 229.312854 
L 307.368246 229.312854 
L 307.368246 134.252488 
L 304.031339 134.252488 
" style="fill:#86af49;"/>
   </g>
   <g id="patch_61">
    <path clip-path="url(#p83b2f507e7)" d="M 312.373606 124.355395 
L 312.373606 229.312854 
L 315.710513 229.312854 
L 315.710513 124.355395 
L 312.373606 124.355395 
" style="fill:#86af49;"/>
   </g>
   <g id="patch_62">
    <path clip-path="url(#p83b2f507e7)" d="M 320.715874 141.494263 
L 320.715874 229.312854 
L 324.052781 229.312854 
L 324.052781 141.494263 
L 320.715874 141.494263 
" style="fill:#86af49;"/>
   </g>
   <g id="patch_63">
    <path clip-path="url(#p83b2f507e7)" d="M 329.058142 140.818364 
L 329.058142 229.312854 
L 332.395049 229.312854 
L 332.395049 140.818364 
L 329.058142 140.818364 
" style="fill:#86af49;"/>
   </g>
   <g id="patch_64">
    <path clip-path="url(#p83b2f507e7)" d="M 337.400409 150.329228 
L 337.400409 229.312854 
L 340.737317 229.312854 
L 340.737317 150.329228 
L 337.400409 150.329228 
" style="fill:#86af49;"/>
   </g>
   <g id="patch_65">
    <path clip-path="url(#p83b2f507e7)" d="M 345.742677 163.702373 
L 345.742677 229.312854 
L 349.079584 229.312854 
L 349.079584 163.702373 
L 345.742677 163.702373 
" style="fill:#86af49;"/>
   </g>
   <g id="patch_66">
    <path clip-path="url(#p83b2f507e7)" d="M 354.084945 187.117445 
L 354.084945 229.312854 
L 357.421852 229.312854 
L 357.421852 187.117445 
L 354.084945 187.117445 
" style="fill:#86af49;"/>
   </g>
   <g id="patch_67">
    <path clip-path="url(#p83b2f507e7)" d="M 362.427213 188.227851 
L 362.427213 229.312854 
L 365.76412 229.312854 
L 365.76412 188.227851 
L 362.427213 188.227851 
" style="fill:#86af49;"/>
   </g>
   <g id="patch_68">
    <path clip-path="url(#p83b2f507e7)" d="M 370.76948 202.952793 
L 370.76948 229.312854 
L 374.106387 229.312854 
L 374.106387 202.952793 
L 370.76948 202.952793 
" style="fill:#86af49;"/>
   </g>
   <g id="patch_69">
    <path clip-path="url(#p83b2f507e7)" d="M 379.111748 212.608493 
L 379.111748 229.312854 
L 382.448655 229.312854 
L 382.448655 212.608493 
L 379.111748 212.608493 
" style="fill:#86af49;"/>
   </g>
   <g id="patch_70">
    <path clip-path="url(#p83b2f507e7)" d="M 387.454016 213.67062 
L 387.454016 229.312854 
L 390.790923 229.312854 
L 390.790923 213.67062 
L 387.454016 213.67062 
" style="fill:#86af49;"/>
   </g>
   <g id="patch_71">
    <path clip-path="url(#p83b2f507e7)" d="M 395.796283 219.80199 
L 395.796283 229.312854 
L 399.133191 229.312854 
L 399.133191 219.80199 
L 395.796283 219.80199 
" style="fill:#86af49;"/>
   </g>
   <g id="patch_72">
    <path clip-path="url(#p83b2f507e7)" d="M 404.138551 223.374599 
L 404.138551 229.312854 
L 407.475458 229.312854 
L 407.475458 223.374599 
L 404.138551 223.374599 
" style="fill:#86af49;"/>
   </g>
   <g id="patch_73">
    <path d="M 95.474646 229.312854 
L 95.474646 9.674646 
" style="fill:none;stroke:#000000;stroke-linecap:square;stroke-linejoin:miter;"/>
   </g>
   <g id="patch_74">
    <path d="M 95.474646 229.312854 
L 429.165354 229.312854 
" style="fill:none;stroke:#000000;stroke-linecap:square;stroke-linejoin:miter;"/>
   </g>
  </g>
 </g>
 <defs>
  <clipPath id="p83b2f507e7">
   <rect height="219.638209" width="333.690709" x="95.474646" y="9.674646"/>
  </clipPath>
 </defs>
</svg>
