<?xml version="1.0" encoding="utf-8" standalone="no"?>
<!DOCTYPE svg PUBLIC "-//W3C//DTD SVG 1.1//EN"
  "http://www.w3.org/Graphics/SVG/1.1/DTD/svg11.dtd">
<!-- Created with matplotlib (http://matplotlib.org/) -->
<svg height="288pt" version="1.1" viewBox="0 0 432 288" width="432pt" xmlns="http://www.w3.org/2000/svg" xmlns:xlink="http://www.w3.org/1999/xlink">
 <defs>
  <style type="text/css">
*{stroke-linecap:butt;stroke-linejoin:round;}
  </style>
 </defs>
 <g id="figure_1">
  <g id="patch_1">
   <path d="M 0 288 
L 432 288 
L 432 0 
L 0 0 
z
" style="fill:#ffffff;"/>
  </g>
  <g id="axes_1">
   <g id="patch_2">
    <path d="M 81.524646 229.312854 
L 429.165354 229.312854 
L 429.165354 9.674646 
L 81.524646 9.674646 
z
" style="fill:#ffffff;"/>
   </g>
   <g id="patch_3">
    <path clip-path="url(#pce6c389d61)" d="M 80.903859 229.312854 
L 80.903859 229.312854 
L 84.628581 229.312854 
L 84.628581 229.312854 
L 80.903859 229.312854 
" style="fill:#d64161;"/>
   </g>
   <g id="patch_4">
    <path clip-path="url(#pce6c389d61)" d="M 90.83645 229.312854 
L 90.83645 229.312854 
L 94.561172 229.312854 
L 94.561172 229.312854 
L 90.83645 229.312854 
" style="fill:#d64161;"/>
   </g>
   <g id="patch_5">
    <path clip-path="url(#pce6c389d61)" d="M 100.769042 229.312854 
L 100.769042 229.312854 
L 104.493764 229.312854 
L 104.493764 229.312854 
L 100.769042 229.312854 
" style="fill:#d64161;"/>
   </g>
   <g id="patch_6">
    <path clip-path="url(#pce6c389d61)" d="M 110.701634 229.181362 
L 110.701634 229.312854 
L 114.426356 229.312854 
L 114.426356 229.181362 
L 110.701634 229.181362 
" style="fill:#d64161;"/>
   </g>
   <g id="patch_7">
    <path clip-path="url(#pce6c389d61)" d="M 120.634225 228.76497 
L 120.634225 229.312854 
L 124.358947 229.312854 
L 124.358947 228.76497 
L 120.634225 228.76497 
" style="fill:#d64161;"/>
   </g>
   <g id="patch_8">
    <path clip-path="url(#pce6c389d61)" d="M 130.566817 227.734946 
L 130.566817 229.312854 
L 134.291539 229.312854 
L 134.291539 227.734946 
L 130.566817 227.734946 
" style="fill:#d64161;"/>
   </g>
   <g id="patch_9">
    <path clip-path="url(#pce6c389d61)" d="M 140.499409 226.485769 
L 140.499409 229.312854 
L 144.224131 229.312854 
L 144.224131 226.485769 
L 140.499409 226.485769 
" style="fill:#d64161;"/>
   </g>
   <g id="patch_10">
    <path clip-path="url(#pce6c389d61)" d="M 150.432 222.803984 
L 150.432 229.312854 
L 154.156722 229.312854 
L 154.156722 222.803984 
L 150.432 222.803984 
" style="fill:#d64161;"/>
   </g>
   <g id="patch_11">
    <path clip-path="url(#pce6c389d61)" d="M 160.364592 217.763445 
L 160.364592 229.312854 
L 164.089314 229.312854 
L 164.089314 217.763445 
L 160.364592 217.763445 
" style="fill:#d64161;"/>
   </g>
   <g id="patch_12">
    <path clip-path="url(#pce6c389d61)" d="M 170.297184 206.411274 
L 170.297184 229.312854 
L 174.021906 229.312854 
L 174.021906 206.411274 
L 170.297184 206.411274 
" style="fill:#d64161;"/>
   </g>
   <g id="patch_13">
    <path clip-path="url(#pce6c389d61)" d="M 180.229775 200.910512 
L 180.229775 229.312854 
L 183.954497 229.312854 
L 183.954497 200.910512 
L 180.229775 200.910512 
" style="fill:#d64161;"/>
   </g>
   <g id="patch_14">
    <path clip-path="url(#pce6c389d61)" d="M 190.162367 182.72074 
L 190.162367 229.312854 
L 193.887089 229.312854 
L 193.887089 182.72074 
L 190.162367 182.72074 
" style="fill:#d64161;"/>
   </g>
   <g id="patch_15">
    <path clip-path="url(#pce6c389d61)" d="M 200.094959 167.204645 
L 200.094959 229.312854 
L 203.819681 229.312854 
L 203.819681 167.204645 
L 200.094959 167.204645 
" style="fill:#d64161;"/>
   </g>
   <g id="patch_16">
    <path clip-path="url(#pce6c389d61)" d="M 210.02755 149.212112 
L 210.02755 229.312854 
L 213.752272 229.312854 
L 213.752272 149.212112 
L 210.02755 149.212112 
" style="fill:#d64161;"/>
   </g>
   <g id="patch_17">
    <path clip-path="url(#pce6c389d61)" d="M 219.960142 139.459764 
L 219.960142 229.312854 
L 223.684864 229.312854 
L 223.684864 139.459764 
L 219.960142 139.459764 
" style="fill:#d64161;"/>
   </g>
   <g id="patch_18">
    <path clip-path="url(#pce6c389d61)" d="M 229.892734 124.2724 
L 229.892734 229.312854 
L 233.617456 229.312854 
L 233.617456 124.2724 
L 229.892734 124.2724 
" style="fill:#d64161;"/>
   </g>
   <g id="patch_19">
    <path clip-path="url(#pce6c389d61)" d="M 239.825326 122.190438 
L 239.825326 229.312854 
L 243.550047 229.312854 
L 243.550047 122.190438 
L 239.825326 122.190438 
" style="fill:#d64161;"/>
   </g>
   <g id="patch_20">
    <path clip-path="url(#pce6c389d61)" d="M 249.757917 121.028923 
L 249.757917 229.312854 
L 253.482639 229.312854 
L 253.482639 121.028923 
L 249.757917 121.028923 
" style="fill:#d64161;"/>
   </g>
   <g id="patch_21">
    <path clip-path="url(#pce6c389d61)" d="M 259.690509 127.976101 
L 259.690509 229.312854 
L 263.415231 229.312854 
L 263.415231 127.976101 
L 259.690509 127.976101 
" style="fill:#d64161;"/>
   </g>
   <g id="patch_22">
    <path clip-path="url(#pce6c389d61)" d="M 269.623101 141.125334 
L 269.623101 229.312854 
L 273.347822 229.312854 
L 273.347822 141.125334 
L 269.623101 141.125334 
" style="fill:#d64161;"/>
   </g>
   <g id="patch_23">
    <path clip-path="url(#pce6c389d61)" d="M 279.555692 137.662702 
L 279.555692 229.312854 
L 283.280414 229.312854 
L 283.280414 137.662702 
L 279.555692 137.662702 
" style="fill:#d64161;"/>
   </g>
   <g id="patch_24">
    <path clip-path="url(#pce6c389d61)" d="M 289.488284 150.088727 
L 289.488284 229.312854 
L 293.213006 229.312854 
L 293.213006 150.088727 
L 289.488284 150.088727 
" style="fill:#d64161;"/>
   </g>
   <g id="patch_25">
    <path clip-path="url(#pce6c389d61)" d="M 299.420876 158.526152 
L 299.420876 229.312854 
L 303.145597 229.312854 
L 303.145597 158.526152 
L 299.420876 158.526152 
" style="fill:#d64161;"/>
   </g>
   <g id="patch_26">
    <path clip-path="url(#pce6c389d61)" d="M 309.353467 153.595189 
L 309.353467 229.312854 
L 313.078189 229.312854 
L 313.078189 153.595189 
L 309.353467 153.595189 
" style="fill:#d64161;"/>
   </g>
   <g id="patch_27">
    <path clip-path="url(#pce6c389d61)" d="M 319.286059 172.223269 
L 319.286059 229.312854 
L 323.010781 229.312854 
L 323.010781 172.223269 
L 319.286059 172.223269 
" style="fill:#d64161;"/>
   </g>
   <g id="patch_28">
    <path clip-path="url(#pce6c389d61)" d="M 329.218651 177.154231 
L 329.218651 229.312854 
L 332.943372 229.312854 
L 332.943372 177.154231 
L 329.218651 177.154231 
" style="fill:#d64161;"/>
   </g>
   <g id="patch_29">
    <path clip-path="url(#pce6c389d61)" d="M 339.151242 183.948001 
L 339.151242 229.312854 
L 342.875964 229.312854 
L 342.875964 183.948001 
L 339.151242 183.948001 
" style="fill:#d64161;"/>
   </g>
   <g id="patch_30">
    <path clip-path="url(#pce6c389d61)" d="M 349.083834 193.240126 
L 349.083834 229.312854 
L 352.808556 229.312854 
L 352.808556 193.240126 
L 349.083834 193.240126 
" style="fill:#d64161;"/>
   </g>
   <g id="patch_31">
    <path clip-path="url(#pce6c389d61)" d="M 359.016426 202.619912 
L 359.016426 229.312854 
L 362.741147 229.312854 
L 362.741147 202.619912 
L 359.016426 202.619912 
" style="fill:#d64161;"/>
   </g>
   <g id="patch_32">
    <path clip-path="url(#pce6c389d61)" d="M 368.949017 207.682367 
L 368.949017 229.312854 
L 372.673739 229.312854 
L 372.673739 207.682367 
L 368.949017 207.682367 
" style="fill:#d64161;"/>
   </g>
   <g id="patch_33">
    <path clip-path="url(#pce6c389d61)" d="M 378.881609 211.955867 
L 378.881609 229.312854 
L 382.606331 229.312854 
L 382.606331 211.955867 
L 378.881609 211.955867 
" style="fill:#d64161;"/>
   </g>
   <g id="patch_34">
    <path clip-path="url(#pce6c389d61)" d="M 388.814201 219.275607 
L 388.814201 229.312854 
L 392.538923 229.312854 
L 392.538923 219.275607 
L 388.814201 219.275607 
" style="fill:#d64161;"/>
   </g>
   <g id="patch_35">
    <path clip-path="url(#pce6c389d61)" d="M 398.746792 220.897345 
L 398.746792 229.312854 
L 402.471514 229.312854 
L 402.471514 220.897345 
L 398.746792 220.897345 
" style="fill:#d64161;"/>
   </g>
   <g id="patch_36">
    <path clip-path="url(#pce6c389d61)" d="M 408.679384 223.834007 
L 408.679384 229.312854 
L 412.404106 229.312854 
L 412.404106 223.834007 
L 408.679384 223.834007 
" style="fill:#d64161;"/>
   </g>
   <g id="patch_37">
    <path clip-path="url(#pce6c389d61)" d="M 418.611976 225.806392 
L 418.611976 229.312854 
L 422.336698 229.312854 
L 422.336698 225.806392 
L 418.611976 225.806392 
" style="fill:#d64161;"/>
   </g>
   <g id="matplotlib.axis_1">
    <g id="xtick_1">
     <g id="line2d_1">
      <defs>
       <path d="M 0 0 
L 0 -3.5 
" id="m971c202420" style="stroke:#000000;stroke-width:0.8;"/>
      </defs>
      <g>
       <use style="stroke:#000000;stroke-width:0.8;" x="131.187604" xlink:href="#m971c202420" y="229.312854"/>
      </g>
     </g>
     <g id="text_1">
      <!-- 1000 -->
      <defs>
       <path d="M 12.40625 8.296875 
L 28.515625 8.296875 
L 28.515625 63.921875 
L 10.984375 60.40625 
L 10.984375 69.390625 
L 28.421875 72.90625 
L 38.28125 72.90625 
L 38.28125 8.296875 
L 54.390625 8.296875 
L 54.390625 0 
L 12.40625 0 
z
" id="DejaVuSans-31"/>
       <path d="M 31.78125 66.40625 
Q 24.171875 66.40625 20.328125 58.90625 
Q 16.5 51.421875 16.5 36.375 
Q 16.5 21.390625 20.328125 13.890625 
Q 24.171875 6.390625 31.78125 6.390625 
Q 39.453125 6.390625 43.28125 13.890625 
Q 47.125 21.390625 47.125 36.375 
Q 47.125 51.421875 43.28125 58.90625 
Q 39.453125 66.40625 31.78125 66.40625 
z
M 31.78125 74.21875 
Q 44.046875 74.21875 50.515625 64.515625 
Q 56.984375 54.828125 56.984375 36.375 
Q 56.984375 17.96875 50.515625 8.265625 
Q 44.046875 -1.421875 31.78125 -1.421875 
Q 19.53125 -1.421875 13.0625 8.265625 
Q 6.59375 17.96875 6.59375 36.375 
Q 6.59375 54.828125 13.0625 64.515625 
Q 19.53125 74.21875 31.78125 74.21875 
z
" id="DejaVuSans-30"/>
      </defs>
      <g transform="translate(103.192604 249.529417)scale(0.22 -0.22)">
       <use xlink:href="#DejaVuSans-31"/>
       <use x="63.623047" xlink:href="#DejaVuSans-30"/>
       <use x="127.246094" xlink:href="#DejaVuSans-30"/>
       <use x="190.869141" xlink:href="#DejaVuSans-30"/>
      </g>
     </g>
    </g>
    <g id="xtick_2">
     <g id="line2d_2">
      <g>
       <use style="stroke:#000000;stroke-width:0.8;" x="193.266302" xlink:href="#m971c202420" y="229.312854"/>
      </g>
     </g>
     <g id="text_2">
      <!-- 1250 -->
      <defs>
       <path d="M 19.1875 8.296875 
L 53.609375 8.296875 
L 53.609375 0 
L 7.328125 0 
L 7.328125 8.296875 
Q 12.9375 14.109375 22.625 23.890625 
Q 32.328125 33.6875 34.8125 36.53125 
Q 39.546875 41.84375 41.421875 45.53125 
Q 43.3125 49.21875 43.3125 52.78125 
Q 43.3125 58.59375 39.234375 62.25 
Q 35.15625 65.921875 28.609375 65.921875 
Q 23.96875 65.921875 18.8125 64.3125 
Q 13.671875 62.703125 7.8125 59.421875 
L 7.8125 69.390625 
Q 13.765625 71.78125 18.9375 73 
Q 24.125 74.21875 28.421875 74.21875 
Q 39.75 74.21875 46.484375 68.546875 
Q 53.21875 62.890625 53.21875 53.421875 
Q 53.21875 48.921875 51.53125 44.890625 
Q 49.859375 40.875 45.40625 35.40625 
Q 44.1875 33.984375 37.640625 27.21875 
Q 31.109375 20.453125 19.1875 8.296875 
z
" id="DejaVuSans-32"/>
       <path d="M 10.796875 72.90625 
L 49.515625 72.90625 
L 49.515625 64.59375 
L 19.828125 64.59375 
L 19.828125 46.734375 
Q 21.96875 47.46875 24.109375 47.828125 
Q 26.265625 48.1875 28.421875 48.1875 
Q 40.625 48.1875 47.75 41.5 
Q 54.890625 34.8125 54.890625 23.390625 
Q 54.890625 11.625 47.5625 5.09375 
Q 40.234375 -1.421875 26.90625 -1.421875 
Q 22.3125 -1.421875 17.546875 -0.640625 
Q 12.796875 0.140625 7.71875 1.703125 
L 7.71875 11.625 
Q 12.109375 9.234375 16.796875 8.0625 
Q 21.484375 6.890625 26.703125 6.890625 
Q 35.15625 6.890625 40.078125 11.328125 
Q 45.015625 15.765625 45.015625 23.390625 
Q 45.015625 31 40.078125 35.4375 
Q 35.15625 39.890625 26.703125 39.890625 
Q 22.75 39.890625 18.8125 39.015625 
Q 14.890625 38.140625 10.796875 36.28125 
z
" id="DejaVuSans-35"/>
      </defs>
      <g transform="translate(165.271302 249.529417)scale(0.22 -0.22)">
       <use xlink:href="#DejaVuSans-31"/>
       <use x="63.623047" xlink:href="#DejaVuSans-32"/>
       <use x="127.246094" xlink:href="#DejaVuSans-35"/>
       <use x="190.869141" xlink:href="#DejaVuSans-30"/>
      </g>
     </g>
    </g>
    <g id="xtick_3">
     <g id="line2d_3">
      <g>
       <use style="stroke:#000000;stroke-width:0.8;" x="255.345" xlink:href="#m971c202420" y="229.312854"/>
      </g>
     </g>
     <g id="text_3">
      <!-- 1500 -->
      <g transform="translate(227.35 249.529417)scale(0.22 -0.22)">
       <use xlink:href="#DejaVuSans-31"/>
       <use x="63.623047" xlink:href="#DejaVuSans-35"/>
       <use x="127.246094" xlink:href="#DejaVuSans-30"/>
       <use x="190.869141" xlink:href="#DejaVuSans-30"/>
      </g>
     </g>
    </g>
    <g id="xtick_4">
     <g id="line2d_4">
      <g>
       <use style="stroke:#000000;stroke-width:0.8;" x="317.423698" xlink:href="#m971c202420" y="229.312854"/>
      </g>
     </g>
     <g id="text_4">
      <!-- 1750 -->
      <defs>
       <path d="M 8.203125 72.90625 
L 55.078125 72.90625 
L 55.078125 68.703125 
L 28.609375 0 
L 18.3125 0 
L 43.21875 64.59375 
L 8.203125 64.59375 
z
" id="DejaVuSans-37"/>
      </defs>
      <g transform="translate(289.428698 249.529417)scale(0.22 -0.22)">
       <use xlink:href="#DejaVuSans-31"/>
       <use x="63.623047" xlink:href="#DejaVuSans-37"/>
       <use x="127.246094" xlink:href="#DejaVuSans-35"/>
       <use x="190.869141" xlink:href="#DejaVuSans-30"/>
      </g>
     </g>
    </g>
    <g id="xtick_5">
     <g id="line2d_5">
      <g>
       <use style="stroke:#000000;stroke-width:0.8;" x="379.502396" xlink:href="#m971c202420" y="229.312854"/>
      </g>
     </g>
     <g id="text_5">
      <!-- 2000 -->
      <g transform="translate(351.507396 249.529417)scale(0.22 -0.22)">
       <use xlink:href="#DejaVuSans-32"/>
       <use x="63.623047" xlink:href="#DejaVuSans-30"/>
       <use x="127.246094" xlink:href="#DejaVuSans-30"/>
       <use x="190.869141" xlink:href="#DejaVuSans-30"/>
      </g>
     </g>
    </g>
    <g id="text_6">
     <!-- Volume $[\AA^3]$  -->
     <defs>
      <path d="M 28.609375 0 
L 0.78125 72.90625 
L 11.078125 72.90625 
L 34.1875 11.53125 
L 57.328125 72.90625 
L 67.578125 72.90625 
L 39.796875 0 
z
" id="DejaVuSans-56"/>
      <path d="M 30.609375 48.390625 
Q 23.390625 48.390625 19.1875 42.75 
Q 14.984375 37.109375 14.984375 27.296875 
Q 14.984375 17.484375 19.15625 11.84375 
Q 23.34375 6.203125 30.609375 6.203125 
Q 37.796875 6.203125 41.984375 11.859375 
Q 46.1875 17.53125 46.1875 27.296875 
Q 46.1875 37.015625 41.984375 42.703125 
Q 37.796875 48.390625 30.609375 48.390625 
z
M 30.609375 56 
Q 42.328125 56 49.015625 48.375 
Q 55.71875 40.765625 55.71875 27.296875 
Q 55.71875 13.875 49.015625 6.21875 
Q 42.328125 -1.421875 30.609375 -1.421875 
Q 18.84375 -1.421875 12.171875 6.21875 
Q 5.515625 13.875 5.515625 27.296875 
Q 5.515625 40.765625 12.171875 48.375 
Q 18.84375 56 30.609375 56 
z
" id="DejaVuSans-6f"/>
      <path d="M 9.421875 75.984375 
L 18.40625 75.984375 
L 18.40625 0 
L 9.421875 0 
z
" id="DejaVuSans-6c"/>
      <path d="M 8.5 21.578125 
L 8.5 54.6875 
L 17.484375 54.6875 
L 17.484375 21.921875 
Q 17.484375 14.15625 20.5 10.265625 
Q 23.53125 6.390625 29.59375 6.390625 
Q 36.859375 6.390625 41.078125 11.03125 
Q 45.3125 15.671875 45.3125 23.6875 
L 45.3125 54.6875 
L 54.296875 54.6875 
L 54.296875 0 
L 45.3125 0 
L 45.3125 8.40625 
Q 42.046875 3.421875 37.71875 1 
Q 33.40625 -1.421875 27.6875 -1.421875 
Q 18.265625 -1.421875 13.375 4.4375 
Q 8.5 10.296875 8.5 21.578125 
z
M 31.109375 56 
z
" id="DejaVuSans-75"/>
      <path d="M 52 44.1875 
Q 55.375 50.25 60.0625 53.125 
Q 64.75 56 71.09375 56 
Q 79.640625 56 84.28125 50.015625 
Q 88.921875 44.046875 88.921875 33.015625 
L 88.921875 0 
L 79.890625 0 
L 79.890625 32.71875 
Q 79.890625 40.578125 77.09375 44.375 
Q 74.3125 48.1875 68.609375 48.1875 
Q 61.625 48.1875 57.5625 43.546875 
Q 53.515625 38.921875 53.515625 30.90625 
L 53.515625 0 
L 44.484375 0 
L 44.484375 32.71875 
Q 44.484375 40.625 41.703125 44.40625 
Q 38.921875 48.1875 33.109375 48.1875 
Q 26.21875 48.1875 22.15625 43.53125 
Q 18.109375 38.875 18.109375 30.90625 
L 18.109375 0 
L 9.078125 0 
L 9.078125 54.6875 
L 18.109375 54.6875 
L 18.109375 46.1875 
Q 21.1875 51.21875 25.484375 53.609375 
Q 29.78125 56 35.6875 56 
Q 41.65625 56 45.828125 52.96875 
Q 50 49.953125 52 44.1875 
z
" id="DejaVuSans-6d"/>
      <path d="M 56.203125 29.59375 
L 56.203125 25.203125 
L 14.890625 25.203125 
Q 15.484375 15.921875 20.484375 11.0625 
Q 25.484375 6.203125 34.421875 6.203125 
Q 39.59375 6.203125 44.453125 7.46875 
Q 49.3125 8.734375 54.109375 11.28125 
L 54.109375 2.78125 
Q 49.265625 0.734375 44.1875 -0.34375 
Q 39.109375 -1.421875 33.890625 -1.421875 
Q 20.796875 -1.421875 13.15625 6.1875 
Q 5.515625 13.8125 5.515625 26.8125 
Q 5.515625 40.234375 12.765625 48.109375 
Q 20.015625 56 32.328125 56 
Q 43.359375 56 49.78125 48.890625 
Q 56.203125 41.796875 56.203125 29.59375 
z
M 47.21875 32.234375 
Q 47.125 39.59375 43.09375 43.984375 
Q 39.0625 48.390625 32.421875 48.390625 
Q 24.90625 48.390625 20.390625 44.140625 
Q 15.875 39.890625 15.1875 32.171875 
z
" id="DejaVuSans-65"/>
      <path id="DejaVuSans-20"/>
      <path d="M 8.59375 75.984375 
L 29.296875 75.984375 
L 29.296875 69 
L 17.578125 69 
L 17.578125 -6.203125 
L 29.296875 -6.203125 
L 29.296875 -13.1875 
L 8.59375 -13.1875 
z
" id="DejaVuSans-5b"/>
      <path d="M 49.8125 79.390625 
Q 49.8125 82.46875 47.625 84.640625 
Q 45.453125 86.8125 42.390625 86.8125 
Q 39.265625 86.8125 37.140625 84.6875 
Q 35.015625 82.5625 35.015625 79.390625 
Q 35.015625 76.3125 37.140625 74.15625 
Q 39.265625 72.015625 42.390625 72.015625 
Q 45.453125 72.015625 47.625 74.15625 
Q 49.8125 76.3125 49.8125 79.390625 
z
M 34.421875 68.703125 
Q 31.78125 70.515625 30.390625 73.265625 
Q 29 76.03125 29 79.390625 
Q 29 84.96875 32.90625 88.890625 
Q 36.8125 92.828125 42.390625 92.828125 
Q 47.953125 92.828125 51.875 88.890625 
Q 55.8125 84.96875 55.8125 79.390625 
Q 55.8125 75.53125 54.03125 72.546875 
Q 52.25 69.578125 48.875 67.828125 
L 61.53125 0 
L 51.21875 0 
L 48.1875 18.703125 
L 15.375 18.703125 
L 5.078125 0 
L -5.328125 0 
z
M 40.375 63.1875 
L 19.921875 26.90625 
L 46.6875 26.90625 
z
" id="DejaVuSans-Oblique-c5"/>
      <path d="M 40.578125 39.3125 
Q 47.65625 37.796875 51.625 33 
Q 55.609375 28.21875 55.609375 21.1875 
Q 55.609375 10.40625 48.1875 4.484375 
Q 40.765625 -1.421875 27.09375 -1.421875 
Q 22.515625 -1.421875 17.65625 -0.515625 
Q 12.796875 0.390625 7.625 2.203125 
L 7.625 11.71875 
Q 11.71875 9.328125 16.59375 8.109375 
Q 21.484375 6.890625 26.8125 6.890625 
Q 36.078125 6.890625 40.9375 10.546875 
Q 45.796875 14.203125 45.796875 21.1875 
Q 45.796875 27.640625 41.28125 31.265625 
Q 36.765625 34.90625 28.71875 34.90625 
L 20.21875 34.90625 
L 20.21875 43.015625 
L 29.109375 43.015625 
Q 36.375 43.015625 40.234375 45.921875 
Q 44.09375 48.828125 44.09375 54.296875 
Q 44.09375 59.90625 40.109375 62.90625 
Q 36.140625 65.921875 28.71875 65.921875 
Q 24.65625 65.921875 20.015625 65.03125 
Q 15.375 64.15625 9.8125 62.3125 
L 9.8125 71.09375 
Q 15.4375 72.65625 20.34375 73.4375 
Q 25.25 74.21875 29.59375 74.21875 
Q 40.828125 74.21875 47.359375 69.109375 
Q 53.90625 64.015625 53.90625 55.328125 
Q 53.90625 49.265625 50.4375 45.09375 
Q 46.96875 40.921875 40.578125 39.3125 
z
" id="DejaVuSans-33"/>
      <path d="M 30.421875 75.984375 
L 30.421875 -13.1875 
L 9.71875 -13.1875 
L 9.71875 -6.203125 
L 21.390625 -6.203125 
L 21.390625 69 
L 9.71875 69 
L 9.71875 75.984375 
z
" id="DejaVuSans-5d"/>
     </defs>
     <g transform="translate(177.705 278.793479)scale(0.24 -0.24)">
      <use transform="translate(0 0.171875)" xlink:href="#DejaVuSans-56"/>
      <use transform="translate(68.408203 0.171875)" xlink:href="#DejaVuSans-6f"/>
      <use transform="translate(129.589844 0.171875)" xlink:href="#DejaVuSans-6c"/>
      <use transform="translate(157.373047 0.171875)" xlink:href="#DejaVuSans-75"/>
      <use transform="translate(220.751953 0.171875)" xlink:href="#DejaVuSans-6d"/>
      <use transform="translate(318.164062 0.171875)" xlink:href="#DejaVuSans-65"/>
      <use transform="translate(379.6875 0.171875)" xlink:href="#DejaVuSans-20"/>
      <use transform="translate(411.474609 0.171875)" xlink:href="#DejaVuSans-5b"/>
      <use transform="translate(450.488281 0.171875)" xlink:href="#DejaVuSans-Oblique-c5"/>
      <use transform="translate(528.702318 38.453125)scale(0.7)" xlink:href="#DejaVuSans-33"/>
      <use transform="translate(575.972826 0.171875)" xlink:href="#DejaVuSans-5d"/>
      <use transform="translate(614.986497 0.171875)" xlink:href="#DejaVuSans-20"/>
     </g>
    </g>
   </g>
   <g id="matplotlib.axis_2">
    <g id="ytick_1">
     <g id="line2d_6">
      <defs>
       <path d="M 0 0 
L 3.5 0 
" id="m780f266846" style="stroke:#000000;stroke-width:0.8;"/>
      </defs>
      <g>
       <use style="stroke:#000000;stroke-width:0.8;" x="81.524646" xlink:href="#m780f266846" y="156.100118"/>
      </g>
     </g>
     <g id="text_7">
      <!-- 0.05 -->
      <defs>
       <path d="M 10.6875 12.40625 
L 21 12.40625 
L 21 0 
L 10.6875 0 
z
" id="DejaVuSans-2e"/>
      </defs>
      <g transform="translate(29.040271 164.458399)scale(0.22 -0.22)">
       <use xlink:href="#DejaVuSans-30"/>
       <use x="63.623047" xlink:href="#DejaVuSans-2e"/>
       <use x="95.410156" xlink:href="#DejaVuSans-30"/>
       <use x="159.033203" xlink:href="#DejaVuSans-35"/>
      </g>
     </g>
    </g>
    <g id="ytick_2">
     <g id="line2d_7">
      <g>
       <use style="stroke:#000000;stroke-width:0.8;" x="81.524646" xlink:href="#m780f266846" y="82.887382"/>
      </g>
     </g>
     <g id="text_8">
      <!-- 0.10 -->
      <g transform="translate(29.040271 91.245663)scale(0.22 -0.22)">
       <use xlink:href="#DejaVuSans-30"/>
       <use x="63.623047" xlink:href="#DejaVuSans-2e"/>
       <use x="95.410156" xlink:href="#DejaVuSans-31"/>
       <use x="159.033203" xlink:href="#DejaVuSans-30"/>
      </g>
     </g>
    </g>
    <g id="ytick_3">
     <g id="line2d_8">
      <g>
       <use style="stroke:#000000;stroke-width:0.8;" x="81.524646" xlink:href="#m780f266846" y="9.674646"/>
      </g>
     </g>
     <g id="text_9">
      <!-- 0.15 -->
      <g transform="translate(29.040271 18.032927)scale(0.22 -0.22)">
       <use xlink:href="#DejaVuSans-30"/>
       <use x="63.623047" xlink:href="#DejaVuSans-2e"/>
       <use x="95.410156" xlink:href="#DejaVuSans-31"/>
       <use x="159.033203" xlink:href="#DejaVuSans-35"/>
      </g>
     </g>
    </g>
    <g id="text_10">
     <!-- Relative probability -->
     <defs>
      <path d="M 44.390625 34.1875 
Q 47.5625 33.109375 50.5625 29.59375 
Q 53.5625 26.078125 56.59375 19.921875 
L 66.609375 0 
L 56 0 
L 46.6875 18.703125 
Q 43.0625 26.03125 39.671875 28.421875 
Q 36.28125 30.8125 30.421875 30.8125 
L 19.671875 30.8125 
L 19.671875 0 
L 9.8125 0 
L 9.8125 72.90625 
L 32.078125 72.90625 
Q 44.578125 72.90625 50.734375 67.671875 
Q 56.890625 62.453125 56.890625 51.90625 
Q 56.890625 45.015625 53.6875 40.46875 
Q 50.484375 35.9375 44.390625 34.1875 
z
M 19.671875 64.796875 
L 19.671875 38.921875 
L 32.078125 38.921875 
Q 39.203125 38.921875 42.84375 42.21875 
Q 46.484375 45.515625 46.484375 51.90625 
Q 46.484375 58.296875 42.84375 61.546875 
Q 39.203125 64.796875 32.078125 64.796875 
z
" id="DejaVuSans-52"/>
      <path d="M 34.28125 27.484375 
Q 23.390625 27.484375 19.1875 25 
Q 14.984375 22.515625 14.984375 16.5 
Q 14.984375 11.71875 18.140625 8.90625 
Q 21.296875 6.109375 26.703125 6.109375 
Q 34.1875 6.109375 38.703125 11.40625 
Q 43.21875 16.703125 43.21875 25.484375 
L 43.21875 27.484375 
z
M 52.203125 31.203125 
L 52.203125 0 
L 43.21875 0 
L 43.21875 8.296875 
Q 40.140625 3.328125 35.546875 0.953125 
Q 30.953125 -1.421875 24.3125 -1.421875 
Q 15.921875 -1.421875 10.953125 3.296875 
Q 6 8.015625 6 15.921875 
Q 6 25.140625 12.171875 29.828125 
Q 18.359375 34.515625 30.609375 34.515625 
L 43.21875 34.515625 
L 43.21875 35.40625 
Q 43.21875 41.609375 39.140625 45 
Q 35.0625 48.390625 27.6875 48.390625 
Q 23 48.390625 18.546875 47.265625 
Q 14.109375 46.140625 10.015625 43.890625 
L 10.015625 52.203125 
Q 14.9375 54.109375 19.578125 55.046875 
Q 24.21875 56 28.609375 56 
Q 40.484375 56 46.34375 49.84375 
Q 52.203125 43.703125 52.203125 31.203125 
z
" id="DejaVuSans-61"/>
      <path d="M 18.3125 70.21875 
L 18.3125 54.6875 
L 36.8125 54.6875 
L 36.8125 47.703125 
L 18.3125 47.703125 
L 18.3125 18.015625 
Q 18.3125 11.328125 20.140625 9.421875 
Q 21.96875 7.515625 27.59375 7.515625 
L 36.8125 7.515625 
L 36.8125 0 
L 27.59375 0 
Q 17.1875 0 13.234375 3.875 
Q 9.28125 7.765625 9.28125 18.015625 
L 9.28125 47.703125 
L 2.6875 47.703125 
L 2.6875 54.6875 
L 9.28125 54.6875 
L 9.28125 70.21875 
z
" id="DejaVuSans-74"/>
      <path d="M 9.421875 54.6875 
L 18.40625 54.6875 
L 18.40625 0 
L 9.421875 0 
z
M 9.421875 75.984375 
L 18.40625 75.984375 
L 18.40625 64.59375 
L 9.421875 64.59375 
z
" id="DejaVuSans-69"/>
      <path d="M 2.984375 54.6875 
L 12.5 54.6875 
L 29.59375 8.796875 
L 46.6875 54.6875 
L 56.203125 54.6875 
L 35.6875 0 
L 23.484375 0 
z
" id="DejaVuSans-76"/>
      <path d="M 18.109375 8.203125 
L 18.109375 -20.796875 
L 9.078125 -20.796875 
L 9.078125 54.6875 
L 18.109375 54.6875 
L 18.109375 46.390625 
Q 20.953125 51.265625 25.265625 53.625 
Q 29.59375 56 35.59375 56 
Q 45.5625 56 51.78125 48.09375 
Q 58.015625 40.1875 58.015625 27.296875 
Q 58.015625 14.40625 51.78125 6.484375 
Q 45.5625 -1.421875 35.59375 -1.421875 
Q 29.59375 -1.421875 25.265625 0.953125 
Q 20.953125 3.328125 18.109375 8.203125 
z
M 48.6875 27.296875 
Q 48.6875 37.203125 44.609375 42.84375 
Q 40.53125 48.484375 33.40625 48.484375 
Q 26.265625 48.484375 22.1875 42.84375 
Q 18.109375 37.203125 18.109375 27.296875 
Q 18.109375 17.390625 22.1875 11.75 
Q 26.265625 6.109375 33.40625 6.109375 
Q 40.53125 6.109375 44.609375 11.75 
Q 48.6875 17.390625 48.6875 27.296875 
z
" id="DejaVuSans-70"/>
      <path d="M 41.109375 46.296875 
Q 39.59375 47.171875 37.8125 47.578125 
Q 36.03125 48 33.890625 48 
Q 26.265625 48 22.1875 43.046875 
Q 18.109375 38.09375 18.109375 28.8125 
L 18.109375 0 
L 9.078125 0 
L 9.078125 54.6875 
L 18.109375 54.6875 
L 18.109375 46.1875 
Q 20.953125 51.171875 25.484375 53.578125 
Q 30.03125 56 36.53125 56 
Q 37.453125 56 38.578125 55.875 
Q 39.703125 55.765625 41.0625 55.515625 
z
" id="DejaVuSans-72"/>
      <path d="M 48.6875 27.296875 
Q 48.6875 37.203125 44.609375 42.84375 
Q 40.53125 48.484375 33.40625 48.484375 
Q 26.265625 48.484375 22.1875 42.84375 
Q 18.109375 37.203125 18.109375 27.296875 
Q 18.109375 17.390625 22.1875 11.75 
Q 26.265625 6.109375 33.40625 6.109375 
Q 40.53125 6.109375 44.609375 11.75 
Q 48.6875 17.390625 48.6875 27.296875 
z
M 18.109375 46.390625 
Q 20.953125 51.265625 25.265625 53.625 
Q 29.59375 56 35.59375 56 
Q 45.5625 56 51.78125 48.09375 
Q 58.015625 40.1875 58.015625 27.296875 
Q 58.015625 14.40625 51.78125 6.484375 
Q 45.5625 -1.421875 35.59375 -1.421875 
Q 29.59375 -1.421875 25.265625 0.953125 
Q 20.953125 3.328125 18.109375 8.203125 
L 18.109375 0 
L 9.078125 0 
L 9.078125 75.984375 
L 18.109375 75.984375 
z
" id="DejaVuSans-62"/>
      <path d="M 32.171875 -5.078125 
Q 28.375 -14.84375 24.75 -17.8125 
Q 21.140625 -20.796875 15.09375 -20.796875 
L 7.90625 -20.796875 
L 7.90625 -13.28125 
L 13.1875 -13.28125 
Q 16.890625 -13.28125 18.9375 -11.515625 
Q 21 -9.765625 23.484375 -3.21875 
L 25.09375 0.875 
L 2.984375 54.6875 
L 12.5 54.6875 
L 29.59375 11.921875 
L 46.6875 54.6875 
L 56.203125 54.6875 
z
" id="DejaVuSans-79"/>
     </defs>
     <g transform="translate(20.049021 236.521875)rotate(-90)scale(0.24 -0.24)">
      <use xlink:href="#DejaVuSans-52"/>
      <use x="69.419922" xlink:href="#DejaVuSans-65"/>
      <use x="130.943359" xlink:href="#DejaVuSans-6c"/>
      <use x="158.726562" xlink:href="#DejaVuSans-61"/>
      <use x="220.005859" xlink:href="#DejaVuSans-74"/>
      <use x="259.214844" xlink:href="#DejaVuSans-69"/>
      <use x="286.998047" xlink:href="#DejaVuSans-76"/>
      <use x="346.177734" xlink:href="#DejaVuSans-65"/>
      <use x="407.701172" xlink:href="#DejaVuSans-20"/>
      <use x="439.488281" xlink:href="#DejaVuSans-70"/>
      <use x="502.964844" xlink:href="#DejaVuSans-72"/>
      <use x="544.046875" xlink:href="#DejaVuSans-6f"/>
      <use x="605.228516" xlink:href="#DejaVuSans-62"/>
      <use x="668.705078" xlink:href="#DejaVuSans-61"/>
      <use x="729.984375" xlink:href="#DejaVuSans-62"/>
      <use x="793.460938" xlink:href="#DejaVuSans-69"/>
      <use x="821.244141" xlink:href="#DejaVuSans-6c"/>
      <use x="849.027344" xlink:href="#DejaVuSans-69"/>
      <use x="876.810547" xlink:href="#DejaVuSans-74"/>
      <use x="916.019531" xlink:href="#DejaVuSans-79"/>
     </g>
    </g>
   </g>
   <g id="patch_38">
    <path clip-path="url(#pce6c389d61)" d="M 84.628581 225.070586 
L 84.628581 229.312854 
L 88.353302 229.312854 
L 88.353302 225.070586 
L 84.628581 225.070586 
" style="fill:#feb236;"/>
   </g>
   <g id="patch_39">
    <path clip-path="url(#pce6c389d61)" d="M 94.561172 222.004392 
L 94.561172 229.312854 
L 98.285894 229.312854 
L 98.285894 222.004392 
L 94.561172 222.004392 
" style="fill:#feb236;"/>
   </g>
   <g id="patch_40">
    <path clip-path="url(#pce6c389d61)" d="M 104.493764 214.065889 
L 104.493764 229.312854 
L 108.218486 229.312854 
L 108.218486 214.065889 
L 104.493764 214.065889 
" style="fill:#feb236;"/>
   </g>
   <g id="patch_41">
    <path clip-path="url(#pce6c389d61)" d="M 114.426356 199.86899 
L 114.426356 229.312854 
L 118.151077 229.312854 
L 118.151077 199.86899 
L 114.426356 199.86899 
" style="fill:#feb236;"/>
   </g>
   <g id="patch_42">
    <path clip-path="url(#pce6c389d61)" d="M 124.358947 178.86766 
L 124.358947 229.312854 
L 128.083669 229.312854 
L 128.083669 178.86766 
L 124.358947 178.86766 
" style="fill:#feb236;"/>
   </g>
   <g id="patch_43">
    <path clip-path="url(#pce6c389d61)" d="M 134.291539 156.102218 
L 134.291539 229.312854 
L 138.016261 229.312854 
L 138.016261 156.102218 
L 134.291539 156.102218 
" style="fill:#feb236;"/>
   </g>
   <g id="patch_44">
    <path clip-path="url(#pce6c389d61)" d="M 144.224131 135.226896 
L 144.224131 229.312854 
L 147.948853 229.312854 
L 147.948853 135.226896 
L 144.224131 135.226896 
" style="fill:#feb236;"/>
   </g>
   <g id="patch_45">
    <path clip-path="url(#pce6c389d61)" d="M 154.156722 98.054542 
L 154.156722 229.312854 
L 157.881444 229.312854 
L 157.881444 98.054542 
L 154.156722 98.054542 
" style="fill:#feb236;"/>
   </g>
   <g id="patch_46">
    <path clip-path="url(#pce6c389d61)" d="M 164.089314 77.305228 
L 164.089314 229.312854 
L 167.814036 229.312854 
L 167.814036 77.305228 
L 164.089314 77.305228 
" style="fill:#feb236;"/>
   </g>
   <g id="patch_47">
    <path clip-path="url(#pce6c389d61)" d="M 174.021906 72.768941 
L 174.021906 229.312854 
L 177.746628 229.312854 
L 177.746628 72.768941 
L 174.021906 72.768941 
" style="fill:#feb236;"/>
   </g>
   <g id="patch_48">
    <path clip-path="url(#pce6c389d61)" d="M 183.954497 77.095215 
L 183.954497 229.312854 
L 187.679219 229.312854 
L 187.679219 77.095215 
L 183.954497 77.095215 
" style="fill:#feb236;"/>
   </g>
   <g id="patch_49">
    <path clip-path="url(#pce6c389d61)" d="M 193.887089 88.267923 
L 193.887089 229.312854 
L 197.611811 229.312854 
L 197.611811 88.267923 
L 193.887089 88.267923 
" style="fill:#feb236;"/>
   </g>
   <g id="patch_50">
    <path clip-path="url(#pce6c389d61)" d="M 203.819681 100.952726 
L 203.819681 229.312854 
L 207.544403 229.312854 
L 207.544403 100.952726 
L 203.819681 100.952726 
" style="fill:#feb236;"/>
   </g>
   <g id="patch_51">
    <path clip-path="url(#pce6c389d61)" d="M 213.752272 128.758487 
L 213.752272 229.312854 
L 217.476994 229.312854 
L 217.476994 128.758487 
L 213.752272 128.758487 
" style="fill:#feb236;"/>
   </g>
   <g id="patch_52">
    <path clip-path="url(#pce6c389d61)" d="M 223.684864 156.228226 
L 223.684864 229.312854 
L 227.409586 229.312854 
L 227.409586 156.228226 
L 223.684864 156.228226 
" style="fill:#feb236;"/>
   </g>
   <g id="patch_53">
    <path clip-path="url(#pce6c389d61)" d="M 233.617456 175.507447 
L 233.617456 229.312854 
L 237.342178 229.312854 
L 237.342178 175.507447 
L 233.617456 175.507447 
" style="fill:#feb236;"/>
   </g>
   <g id="patch_54">
    <path clip-path="url(#pce6c389d61)" d="M 243.550047 192.182503 
L 243.550047 229.312854 
L 247.274769 229.312854 
L 247.274769 192.182503 
L 243.550047 192.182503 
" style="fill:#feb236;"/>
   </g>
   <g id="patch_55">
    <path clip-path="url(#pce6c389d61)" d="M 253.482639 207.009442 
L 253.482639 229.312854 
L 257.207361 229.312854 
L 257.207361 207.009442 
L 253.482639 207.009442 
" style="fill:#feb236;"/>
   </g>
   <g id="patch_56">
    <path clip-path="url(#pce6c389d61)" d="M 263.415231 209.739615 
L 263.415231 229.312854 
L 267.139953 229.312854 
L 267.139953 209.739615 
L 263.415231 209.739615 
" style="fill:#feb236;"/>
   </g>
   <g id="patch_57">
    <path clip-path="url(#pce6c389d61)" d="M 273.347822 220.660306 
L 273.347822 229.312854 
L 277.072544 229.312854 
L 277.072544 220.660306 
L 273.347822 220.660306 
" style="fill:#feb236;"/>
   </g>
   <g id="patch_58">
    <path clip-path="url(#pce6c389d61)" d="M 283.280414 223.474485 
L 283.280414 229.312854 
L 287.005136 229.312854 
L 287.005136 223.474485 
L 283.280414 223.474485 
" style="fill:#feb236;"/>
   </g>
   <g id="patch_59">
    <path clip-path="url(#pce6c389d61)" d="M 293.213006 225.742628 
L 293.213006 229.312854 
L 296.937728 229.312854 
L 296.937728 225.742628 
L 293.213006 225.742628 
" style="fill:#feb236;"/>
   </g>
   <g id="patch_60">
    <path clip-path="url(#pce6c389d61)" d="M 303.145597 228.262788 
L 303.145597 229.312854 
L 306.870319 229.312854 
L 306.870319 228.262788 
L 303.145597 228.262788 
" style="fill:#feb236;"/>
   </g>
   <g id="patch_61">
    <path clip-path="url(#pce6c389d61)" d="M 313.078189 228.010772 
L 313.078189 229.312854 
L 316.802911 229.312854 
L 316.802911 228.010772 
L 313.078189 228.010772 
" style="fill:#feb236;"/>
   </g>
   <g id="patch_62">
    <path clip-path="url(#pce6c389d61)" d="M 323.010781 228.13678 
L 323.010781 229.312854 
L 326.735503 229.312854 
L 326.735503 228.13678 
L 323.010781 228.13678 
" style="fill:#feb236;"/>
   </g>
   <g id="patch_63">
    <path clip-path="url(#pce6c389d61)" d="M 332.943372 228.892828 
L 332.943372 229.312854 
L 336.668094 229.312854 
L 336.668094 228.892828 
L 332.943372 228.892828 
" style="fill:#feb236;"/>
   </g>
   <g id="patch_64">
    <path clip-path="url(#pce6c389d61)" d="M 342.875964 229.312854 
L 342.875964 229.312854 
L 346.600686 229.312854 
L 346.600686 229.312854 
L 342.875964 229.312854 
" style="fill:#feb236;"/>
   </g>
   <g id="patch_65">
    <path clip-path="url(#pce6c389d61)" d="M 352.808556 229.312854 
L 352.808556 229.312854 
L 356.533278 229.312854 
L 356.533278 229.312854 
L 352.808556 229.312854 
" style="fill:#feb236;"/>
   </g>
   <g id="patch_66">
    <path clip-path="url(#pce6c389d61)" d="M 362.741147 228.93483 
L 362.741147 229.312854 
L 366.465869 229.312854 
L 366.465869 228.93483 
L 362.741147 228.93483 
" style="fill:#feb236;"/>
   </g>
   <g id="patch_67">
    <path clip-path="url(#pce6c389d61)" d="M 372.673739 229.312854 
L 372.673739 229.312854 
L 376.398461 229.312854 
L 376.398461 229.312854 
L 372.673739 229.312854 
" style="fill:#feb236;"/>
   </g>
   <g id="patch_68">
    <path clip-path="url(#pce6c389d61)" d="M 382.606331 229.312854 
L 382.606331 229.312854 
L 386.331053 229.312854 
L 386.331053 229.312854 
L 382.606331 229.312854 
" style="fill:#feb236;"/>
   </g>
   <g id="patch_69">
    <path clip-path="url(#pce6c389d61)" d="M 392.538923 229.312854 
L 392.538923 229.312854 
L 396.263644 229.312854 
L 396.263644 229.312854 
L 392.538923 229.312854 
" style="fill:#feb236;"/>
   </g>
   <g id="patch_70">
    <path clip-path="url(#pce6c389d61)" d="M 402.471514 229.312854 
L 402.471514 229.312854 
L 406.196236 229.312854 
L 406.196236 229.312854 
L 402.471514 229.312854 
" style="fill:#feb236;"/>
   </g>
   <g id="patch_71">
    <path clip-path="url(#pce6c389d61)" d="M 412.404106 229.312854 
L 412.404106 229.312854 
L 416.128828 229.312854 
L 416.128828 229.312854 
L 412.404106 229.312854 
" style="fill:#feb236;"/>
   </g>
   <g id="patch_72">
    <path clip-path="url(#pce6c389d61)" d="M 422.336698 229.312854 
L 422.336698 229.312854 
L 426.061419 229.312854 
L 426.061419 229.312854 
L 422.336698 229.312854 
" style="fill:#feb236;"/>
   </g>
   <g id="patch_73">
    <path d="M 81.524646 229.312854 
L 81.524646 9.674646 
" style="fill:none;stroke:#000000;stroke-linecap:square;stroke-linejoin:miter;"/>
   </g>
   <g id="patch_74">
    <path d="M 81.524646 229.312854 
L 429.165354 229.312854 
" style="fill:none;stroke:#000000;stroke-linecap:square;stroke-linejoin:miter;"/>
   </g>
   <g id="patch_75">
    <path clip-path="url(#pce6c389d61)" d="M 88.353302 225.165987 
L 88.353302 229.312854 
L 92.078024 229.312854 
L 92.078024 225.165987 
L 88.353302 225.165987 
" style="fill:#6b5b95;"/>
   </g>
   <g id="patch_76">
    <path clip-path="url(#pce6c389d61)" d="M 98.285894 218.268228 
L 98.285894 229.312854 
L 102.010616 229.312854 
L 102.010616 218.268228 
L 98.285894 218.268228 
" style="fill:#6b5b95;"/>
   </g>
   <g id="patch_77">
    <path clip-path="url(#pce6c389d61)" d="M 108.218486 194.782999 
L 108.218486 229.312854 
L 111.943208 229.312854 
L 111.943208 194.782999 
L 108.218486 194.782999 
" style="fill:#6b5b95;"/>
   </g>
   <g id="patch_78">
    <path clip-path="url(#pce6c389d61)" d="M 118.151077 177.004846 
L 118.151077 229.312854 
L 121.875799 229.312854 
L 121.875799 177.004846 
L 118.151077 177.004846 
" style="fill:#6b5b95;"/>
   </g>
   <g id="patch_79">
    <path clip-path="url(#pce6c389d61)" d="M 128.083669 127.570903 
L 128.083669 229.312854 
L 131.808391 229.312854 
L 131.808391 127.570903 
L 128.083669 127.570903 
" style="fill:#6b5b95;"/>
   </g>
   <g id="patch_80">
    <path clip-path="url(#pce6c389d61)" d="M 138.016261 80.230923 
L 138.016261 229.312854 
L 141.740983 229.312854 
L 141.740983 80.230923 
L 138.016261 80.230923 
" style="fill:#6b5b95;"/>
   </g>
   <g id="patch_81">
    <path clip-path="url(#pce6c389d61)" d="M 147.948853 45.45472 
L 147.948853 229.312854 
L 151.673574 229.312854 
L 151.673574 45.45472 
L 147.948853 45.45472 
" style="fill:#6b5b95;"/>
   </g>
   <g id="patch_82">
    <path clip-path="url(#pce6c389d61)" d="M 157.881444 33.958454 
L 157.881444 229.312854 
L 161.606166 229.312854 
L 161.606166 33.958454 
L 157.881444 33.958454 
" style="fill:#6b5b95;"/>
   </g>
   <g id="patch_83">
    <path clip-path="url(#pce6c389d61)" d="M 167.814036 49.847935 
L 167.814036 229.312854 
L 171.538758 229.312854 
L 171.538758 49.847935 
L 167.814036 49.847935 
" style="fill:#6b5b95;"/>
   </g>
   <g id="patch_84">
    <path clip-path="url(#pce6c389d61)" d="M 177.746628 67.749263 
L 177.746628 229.312854 
L 181.471349 229.312854 
L 181.471349 67.749263 
L 177.746628 67.749263 
" style="fill:#6b5b95;"/>
   </g>
   <g id="patch_85">
    <path clip-path="url(#pce6c389d61)" d="M 187.679219 104.455197 
L 187.679219 229.312854 
L 191.403941 229.312854 
L 191.403941 104.455197 
L 187.679219 104.455197 
" style="fill:#6b5b95;"/>
   </g>
   <g id="patch_86">
    <path clip-path="url(#pce6c389d61)" d="M 197.611811 137.342729 
L 197.611811 229.312854 
L 201.336533 229.312854 
L 201.336533 137.342729 
L 197.611811 137.342729 
" style="fill:#6b5b95;"/>
   </g>
   <g id="patch_87">
    <path clip-path="url(#pce6c389d61)" d="M 207.544403 158.241298 
L 207.544403 229.312854 
L 211.269124 229.312854 
L 211.269124 158.241298 
L 207.544403 158.241298 
" style="fill:#6b5b95;"/>
   </g>
   <g id="patch_88">
    <path clip-path="url(#pce6c389d61)" d="M 217.476994 189.363331 
L 217.476994 229.312854 
L 221.201716 229.312854 
L 221.201716 189.363331 
L 217.476994 189.363331 
" style="fill:#6b5b95;"/>
   </g>
   <g id="patch_89">
    <path clip-path="url(#pce6c389d61)" d="M 227.409586 203.487315 
L 227.409586 229.312854 
L 231.134308 229.312854 
L 231.134308 203.487315 
L 227.409586 203.487315 
" style="fill:#6b5b95;"/>
   </g>
   <g id="patch_90">
    <path clip-path="url(#pce6c389d61)" d="M 237.342178 212.109514 
L 237.342178 229.312854 
L 241.066899 229.312854 
L 241.066899 212.109514 
L 237.342178 212.109514 
" style="fill:#6b5b95;"/>
   </g>
   <g id="patch_91">
    <path clip-path="url(#pce6c389d61)" d="M 247.274769 221.470759 
L 247.274769 229.312854 
L 250.999491 229.312854 
L 250.999491 221.470759 
L 247.274769 221.470759 
" style="fill:#6b5b95;"/>
   </g>
   <g id="patch_92">
    <path clip-path="url(#pce6c389d61)" d="M 257.207361 224.632232 
L 257.207361 229.312854 
L 260.932083 229.312854 
L 260.932083 224.632232 
L 257.207361 224.632232 
" style="fill:#6b5b95;"/>
   </g>
   <g id="patch_93">
    <path clip-path="url(#pce6c389d61)" d="M 267.139953 226.315614 
L 267.139953 229.312854 
L 270.864674 229.312854 
L 270.864674 226.315614 
L 267.139953 226.315614 
" style="fill:#6b5b95;"/>
   </g>
   <g id="patch_94">
    <path clip-path="url(#pce6c389d61)" d="M 277.072544 227.670531 
L 277.072544 229.312854 
L 280.797266 229.312854 
L 280.797266 227.670531 
L 277.072544 227.670531 
" style="fill:#6b5b95;"/>
   </g>
   <g id="patch_95">
    <path clip-path="url(#pce6c389d61)" d="M 287.005136 227.834763 
L 287.005136 229.312854 
L 290.729858 229.312854 
L 290.729858 227.834763 
L 287.005136 227.834763 
" style="fill:#6b5b95;"/>
   </g>
   <g id="patch_96">
    <path clip-path="url(#pce6c389d61)" d="M 296.937728 228.738041 
L 296.937728 229.312854 
L 300.66245 229.312854 
L 300.66245 228.738041 
L 296.937728 228.738041 
" style="fill:#6b5b95;"/>
   </g>
   <g id="patch_97">
    <path clip-path="url(#pce6c389d61)" d="M 306.870319 228.738041 
L 306.870319 229.312854 
L 310.595041 229.312854 
L 310.595041 228.738041 
L 306.870319 228.738041 
" style="fill:#6b5b95;"/>
   </g>
   <g id="patch_98">
    <path clip-path="url(#pce6c389d61)" d="M 316.802911 229.312854 
L 316.802911 229.312854 
L 320.527633 229.312854 
L 320.527633 229.312854 
L 316.802911 229.312854 
" style="fill:#6b5b95;"/>
   </g>
   <g id="patch_99">
    <path clip-path="url(#pce6c389d61)" d="M 326.735503 228.820157 
L 326.735503 229.312854 
L 330.460225 229.312854 
L 330.460225 228.820157 
L 326.735503 228.820157 
" style="fill:#6b5b95;"/>
   </g>
   <g id="patch_100">
    <path clip-path="url(#pce6c389d61)" d="M 336.668094 229.312854 
L 336.668094 229.312854 
L 340.392816 229.312854 
L 340.392816 229.312854 
L 336.668094 229.312854 
" style="fill:#6b5b95;"/>
   </g>
   <g id="patch_101">
    <path clip-path="url(#pce6c389d61)" d="M 346.600686 229.312854 
L 346.600686 229.312854 
L 350.325408 229.312854 
L 350.325408 229.312854 
L 346.600686 229.312854 
" style="fill:#6b5b95;"/>
   </g>
   <g id="patch_102">
    <path clip-path="url(#pce6c389d61)" d="M 356.533278 229.312854 
L 356.533278 229.312854 
L 360.258 229.312854 
L 360.258 229.312854 
L 356.533278 229.312854 
" style="fill:#6b5b95;"/>
   </g>
   <g id="patch_103">
    <path clip-path="url(#pce6c389d61)" d="M 366.465869 229.312854 
L 366.465869 229.312854 
L 370.190591 229.312854 
L 370.190591 229.312854 
L 366.465869 229.312854 
" style="fill:#6b5b95;"/>
   </g>
   <g id="patch_104">
    <path clip-path="url(#pce6c389d61)" d="M 376.398461 229.312854 
L 376.398461 229.312854 
L 380.123183 229.312854 
L 380.123183 229.312854 
L 376.398461 229.312854 
" style="fill:#6b5b95;"/>
   </g>
   <g id="patch_105">
    <path clip-path="url(#pce6c389d61)" d="M 386.331053 229.312854 
L 386.331053 229.312854 
L 390.055775 229.312854 
L 390.055775 229.312854 
L 386.331053 229.312854 
" style="fill:#6b5b95;"/>
   </g>
   <g id="patch_106">
    <path clip-path="url(#pce6c389d61)" d="M 396.263644 229.312854 
L 396.263644 229.312854 
L 399.988366 229.312854 
L 399.988366 229.312854 
L 396.263644 229.312854 
" style="fill:#6b5b95;"/>
   </g>
   <g id="patch_107">
    <path clip-path="url(#pce6c389d61)" d="M 406.196236 229.312854 
L 406.196236 229.312854 
L 409.920958 229.312854 
L 409.920958 229.312854 
L 406.196236 229.312854 
" style="fill:#6b5b95;"/>
   </g>
   <g id="patch_108">
    <path clip-path="url(#pce6c389d61)" d="M 416.128828 229.312854 
L 416.128828 229.312854 
L 419.85355 229.312854 
L 419.85355 229.312854 
L 416.128828 229.312854 
" style="fill:#6b5b95;"/>
   </g>
   <g id="patch_109">
    <path clip-path="url(#pce6c389d61)" d="M 426.061419 229.312854 
L 426.061419 229.312854 
L 429.786141 229.312854 
L 429.786141 229.312854 
L 426.061419 229.312854 
" style="fill:#6b5b95;"/>
   </g>
  </g>
 </g>
 <defs>
  <clipPath id="pce6c389d61">
   <rect height="219.638209" width="347.640709" x="81.524646" y="9.674646"/>
  </clipPath>
 </defs>
</svg>
