<?xml version="1.0" encoding="utf-8" standalone="no"?>
<!DOCTYPE svg PUBLIC "-//W3C//DTD SVG 1.1//EN"
  "http://www.w3.org/Graphics/SVG/1.1/DTD/svg11.dtd">
<!-- Created with matplotlib (http://matplotlib.org/) -->
<svg height="288pt" version="1.1" viewBox="0 0 432 288" width="432pt" xmlns="http://www.w3.org/2000/svg" xmlns:xlink="http://www.w3.org/1999/xlink">
 <defs>
  <style type="text/css">
*{stroke-linecap:butt;stroke-linejoin:round;}
  </style>
 </defs>
 <g id="figure_1">
  <g id="patch_1">
   <path d="M 0 288 
L 432 288 
L 432 0 
L 0 0 
z
" style="fill:#ffffff;"/>
  </g>
  <g id="axes_1">
   <g id="patch_2">
    <path d="M 81.524646 229.312854 
L 429.165354 229.312854 
L 429.165354 9.674646 
L 81.524646 9.674646 
z
" style="fill:#ffffff;"/>
   </g>
   <g id="patch_3">
    <path clip-path="url(#pd35721255f)" d="M 81.16252 229.312854 
L 81.16252 229.312854 
L 83.335274 229.312854 
L 83.335274 229.312854 
L 81.16252 229.312854 
" style="fill:#d64161;"/>
   </g>
   <g id="patch_4">
    <path clip-path="url(#pd35721255f)" d="M 86.956532 229.312854 
L 86.956532 229.312854 
L 89.129286 229.312854 
L 89.129286 229.312854 
L 86.956532 229.312854 
" style="fill:#d64161;"/>
   </g>
   <g id="patch_5">
    <path clip-path="url(#pd35721255f)" d="M 92.750544 229.312854 
L 92.750544 229.312854 
L 94.923298 229.312854 
L 94.923298 229.312854 
L 92.750544 229.312854 
" style="fill:#d64161;"/>
   </g>
   <g id="patch_6">
    <path clip-path="url(#pd35721255f)" d="M 98.544555 229.181362 
L 98.544555 229.312854 
L 100.71731 229.312854 
L 100.71731 229.181362 
L 98.544555 229.181362 
" style="fill:#d64161;"/>
   </g>
   <g id="patch_7">
    <path clip-path="url(#pd35721255f)" d="M 104.338567 228.76497 
L 104.338567 229.312854 
L 106.511322 229.312854 
L 106.511322 228.76497 
L 104.338567 228.76497 
" style="fill:#d64161;"/>
   </g>
   <g id="patch_8">
    <path clip-path="url(#pd35721255f)" d="M 110.132579 227.734946 
L 110.132579 229.312854 
L 112.305333 229.312854 
L 112.305333 227.734946 
L 110.132579 227.734946 
" style="fill:#d64161;"/>
   </g>
   <g id="patch_9">
    <path clip-path="url(#pd35721255f)" d="M 115.926591 226.485769 
L 115.926591 229.312854 
L 118.099345 229.312854 
L 118.099345 226.485769 
L 115.926591 226.485769 
" style="fill:#d64161;"/>
   </g>
   <g id="patch_10">
    <path clip-path="url(#pd35721255f)" d="M 121.720603 222.803984 
L 121.720603 229.312854 
L 123.893357 229.312854 
L 123.893357 222.803984 
L 121.720603 222.803984 
" style="fill:#d64161;"/>
   </g>
   <g id="patch_11">
    <path clip-path="url(#pd35721255f)" d="M 127.514614 217.763445 
L 127.514614 229.312854 
L 129.687369 229.312854 
L 129.687369 217.763445 
L 127.514614 217.763445 
" style="fill:#d64161;"/>
   </g>
   <g id="patch_12">
    <path clip-path="url(#pd35721255f)" d="M 133.308626 206.411274 
L 133.308626 229.312854 
L 135.481381 229.312854 
L 135.481381 206.411274 
L 133.308626 206.411274 
" style="fill:#d64161;"/>
   </g>
   <g id="patch_13">
    <path clip-path="url(#pd35721255f)" d="M 139.102638 200.910512 
L 139.102638 229.312854 
L 141.275392 229.312854 
L 141.275392 200.910512 
L 139.102638 200.910512 
" style="fill:#d64161;"/>
   </g>
   <g id="patch_14">
    <path clip-path="url(#pd35721255f)" d="M 144.89665 182.72074 
L 144.89665 229.312854 
L 147.069404 229.312854 
L 147.069404 182.72074 
L 144.89665 182.72074 
" style="fill:#d64161;"/>
   </g>
   <g id="patch_15">
    <path clip-path="url(#pd35721255f)" d="M 150.690662 167.204645 
L 150.690662 229.312854 
L 152.863416 229.312854 
L 152.863416 167.204645 
L 150.690662 167.204645 
" style="fill:#d64161;"/>
   </g>
   <g id="patch_16">
    <path clip-path="url(#pd35721255f)" d="M 156.484673 149.212112 
L 156.484673 229.312854 
L 158.657428 229.312854 
L 158.657428 149.212112 
L 156.484673 149.212112 
" style="fill:#d64161;"/>
   </g>
   <g id="patch_17">
    <path clip-path="url(#pd35721255f)" d="M 162.278685 139.459764 
L 162.278685 229.312854 
L 164.45144 229.312854 
L 164.45144 139.459764 
L 162.278685 139.459764 
" style="fill:#d64161;"/>
   </g>
   <g id="patch_18">
    <path clip-path="url(#pd35721255f)" d="M 168.072697 124.2724 
L 168.072697 229.312854 
L 170.245452 229.312854 
L 170.245452 124.2724 
L 168.072697 124.2724 
" style="fill:#d64161;"/>
   </g>
   <g id="patch_19">
    <path clip-path="url(#pd35721255f)" d="M 173.866709 122.190438 
L 173.866709 229.312854 
L 176.039463 229.312854 
L 176.039463 122.190438 
L 173.866709 122.190438 
" style="fill:#d64161;"/>
   </g>
   <g id="patch_20">
    <path clip-path="url(#pd35721255f)" d="M 179.660721 121.028923 
L 179.660721 229.312854 
L 181.833475 229.312854 
L 181.833475 121.028923 
L 179.660721 121.028923 
" style="fill:#d64161;"/>
   </g>
   <g id="patch_21">
    <path clip-path="url(#pd35721255f)" d="M 185.454733 127.976101 
L 185.454733 229.312854 
L 187.627487 229.312854 
L 187.627487 127.976101 
L 185.454733 127.976101 
" style="fill:#d64161;"/>
   </g>
   <g id="patch_22">
    <path clip-path="url(#pd35721255f)" d="M 191.248744 141.125334 
L 191.248744 229.312854 
L 193.421499 229.312854 
L 193.421499 141.125334 
L 191.248744 141.125334 
" style="fill:#d64161;"/>
   </g>
   <g id="patch_23">
    <path clip-path="url(#pd35721255f)" d="M 197.042756 137.662702 
L 197.042756 229.312854 
L 199.215511 229.312854 
L 199.215511 137.662702 
L 197.042756 137.662702 
" style="fill:#d64161;"/>
   </g>
   <g id="patch_24">
    <path clip-path="url(#pd35721255f)" d="M 202.836768 150.088727 
L 202.836768 229.312854 
L 205.009522 229.312854 
L 205.009522 150.088727 
L 202.836768 150.088727 
" style="fill:#d64161;"/>
   </g>
   <g id="patch_25">
    <path clip-path="url(#pd35721255f)" d="M 208.63078 158.526152 
L 208.63078 229.312854 
L 210.803534 229.312854 
L 210.803534 158.526152 
L 208.63078 158.526152 
" style="fill:#d64161;"/>
   </g>
   <g id="patch_26">
    <path clip-path="url(#pd35721255f)" d="M 214.424792 153.595189 
L 214.424792 229.312854 
L 216.597546 229.312854 
L 216.597546 153.595189 
L 214.424792 153.595189 
" style="fill:#d64161;"/>
   </g>
   <g id="patch_27">
    <path clip-path="url(#pd35721255f)" d="M 220.218803 172.223269 
L 220.218803 229.312854 
L 222.391558 229.312854 
L 222.391558 172.223269 
L 220.218803 172.223269 
" style="fill:#d64161;"/>
   </g>
   <g id="patch_28">
    <path clip-path="url(#pd35721255f)" d="M 226.012815 177.154231 
L 226.012815 229.312854 
L 228.18557 229.312854 
L 228.18557 177.154231 
L 226.012815 177.154231 
" style="fill:#d64161;"/>
   </g>
   <g id="patch_29">
    <path clip-path="url(#pd35721255f)" d="M 231.806827 183.948001 
L 231.806827 229.312854 
L 233.979581 229.312854 
L 233.979581 183.948001 
L 231.806827 183.948001 
" style="fill:#d64161;"/>
   </g>
   <g id="patch_30">
    <path clip-path="url(#pd35721255f)" d="M 237.600839 193.240126 
L 237.600839 229.312854 
L 239.773593 229.312854 
L 239.773593 193.240126 
L 237.600839 193.240126 
" style="fill:#d64161;"/>
   </g>
   <g id="patch_31">
    <path clip-path="url(#pd35721255f)" d="M 243.394851 202.619912 
L 243.394851 229.312854 
L 245.567605 229.312854 
L 245.567605 202.619912 
L 243.394851 202.619912 
" style="fill:#d64161;"/>
   </g>
   <g id="patch_32">
    <path clip-path="url(#pd35721255f)" d="M 249.188862 207.682367 
L 249.188862 229.312854 
L 251.361617 229.312854 
L 251.361617 207.682367 
L 249.188862 207.682367 
" style="fill:#d64161;"/>
   </g>
   <g id="patch_33">
    <path clip-path="url(#pd35721255f)" d="M 254.982874 211.955867 
L 254.982874 229.312854 
L 257.155629 229.312854 
L 257.155629 211.955867 
L 254.982874 211.955867 
" style="fill:#d64161;"/>
   </g>
   <g id="patch_34">
    <path clip-path="url(#pd35721255f)" d="M 260.776886 219.275607 
L 260.776886 229.312854 
L 262.949641 229.312854 
L 262.949641 219.275607 
L 260.776886 219.275607 
" style="fill:#d64161;"/>
   </g>
   <g id="patch_35">
    <path clip-path="url(#pd35721255f)" d="M 266.570898 220.897345 
L 266.570898 229.312854 
L 268.743652 229.312854 
L 268.743652 220.897345 
L 266.570898 220.897345 
" style="fill:#d64161;"/>
   </g>
   <g id="patch_36">
    <path clip-path="url(#pd35721255f)" d="M 272.36491 223.834007 
L 272.36491 229.312854 
L 274.537664 229.312854 
L 274.537664 223.834007 
L 272.36491 223.834007 
" style="fill:#d64161;"/>
   </g>
   <g id="patch_37">
    <path clip-path="url(#pd35721255f)" d="M 278.158922 225.806392 
L 278.158922 229.312854 
L 280.331676 229.312854 
L 280.331676 225.806392 
L 278.158922 225.806392 
" style="fill:#d64161;"/>
   </g>
   <g id="matplotlib.axis_1">
    <g id="xtick_1">
     <g id="line2d_1">
      <defs>
       <path d="M 0 0 
L 0 -3.5 
" id="ma79b24543a" style="stroke:#000000;stroke-width:0.8;"/>
      </defs>
      <g>
       <use style="stroke:#000000;stroke-width:0.8;" x="110.494705" xlink:href="#ma79b24543a" y="229.312854"/>
      </g>
     </g>
     <g id="text_1">
      <!-- 1000 -->
      <defs>
       <path d="M 12.40625 8.296875 
L 28.515625 8.296875 
L 28.515625 63.921875 
L 10.984375 60.40625 
L 10.984375 69.390625 
L 28.421875 72.90625 
L 38.28125 72.90625 
L 38.28125 8.296875 
L 54.390625 8.296875 
L 54.390625 0 
L 12.40625 0 
z
" id="DejaVuSans-31"/>
       <path d="M 31.78125 66.40625 
Q 24.171875 66.40625 20.328125 58.90625 
Q 16.5 51.421875 16.5 36.375 
Q 16.5 21.390625 20.328125 13.890625 
Q 24.171875 6.390625 31.78125 6.390625 
Q 39.453125 6.390625 43.28125 13.890625 
Q 47.125 21.390625 47.125 36.375 
Q 47.125 51.421875 43.28125 58.90625 
Q 39.453125 66.40625 31.78125 66.40625 
z
M 31.78125 74.21875 
Q 44.046875 74.21875 50.515625 64.515625 
Q 56.984375 54.828125 56.984375 36.375 
Q 56.984375 17.96875 50.515625 8.265625 
Q 44.046875 -1.421875 31.78125 -1.421875 
Q 19.53125 -1.421875 13.0625 8.265625 
Q 6.59375 17.96875 6.59375 36.375 
Q 6.59375 54.828125 13.0625 64.515625 
Q 19.53125 74.21875 31.78125 74.21875 
z
" id="DejaVuSans-30"/>
      </defs>
      <g transform="translate(82.499705 249.529417)scale(0.22 -0.22)">
       <use xlink:href="#DejaVuSans-31"/>
       <use x="63.623047" xlink:href="#DejaVuSans-30"/>
       <use x="127.246094" xlink:href="#DejaVuSans-30"/>
       <use x="190.869141" xlink:href="#DejaVuSans-30"/>
      </g>
     </g>
    </g>
    <g id="xtick_2">
     <g id="line2d_2">
      <g>
       <use style="stroke:#000000;stroke-width:0.8;" x="146.707279" xlink:href="#ma79b24543a" y="229.312854"/>
      </g>
     </g>
     <g id="text_2">
      <!-- 1250 -->
      <defs>
       <path d="M 19.1875 8.296875 
L 53.609375 8.296875 
L 53.609375 0 
L 7.328125 0 
L 7.328125 8.296875 
Q 12.9375 14.109375 22.625 23.890625 
Q 32.328125 33.6875 34.8125 36.53125 
Q 39.546875 41.84375 41.421875 45.53125 
Q 43.3125 49.21875 43.3125 52.78125 
Q 43.3125 58.59375 39.234375 62.25 
Q 35.15625 65.921875 28.609375 65.921875 
Q 23.96875 65.921875 18.8125 64.3125 
Q 13.671875 62.703125 7.8125 59.421875 
L 7.8125 69.390625 
Q 13.765625 71.78125 18.9375 73 
Q 24.125 74.21875 28.421875 74.21875 
Q 39.75 74.21875 46.484375 68.546875 
Q 53.21875 62.890625 53.21875 53.421875 
Q 53.21875 48.921875 51.53125 44.890625 
Q 49.859375 40.875 45.40625 35.40625 
Q 44.1875 33.984375 37.640625 27.21875 
Q 31.109375 20.453125 19.1875 8.296875 
z
" id="DejaVuSans-32"/>
       <path d="M 10.796875 72.90625 
L 49.515625 72.90625 
L 49.515625 64.59375 
L 19.828125 64.59375 
L 19.828125 46.734375 
Q 21.96875 47.46875 24.109375 47.828125 
Q 26.265625 48.1875 28.421875 48.1875 
Q 40.625 48.1875 47.75 41.5 
Q 54.890625 34.8125 54.890625 23.390625 
Q 54.890625 11.625 47.5625 5.09375 
Q 40.234375 -1.421875 26.90625 -1.421875 
Q 22.3125 -1.421875 17.546875 -0.640625 
Q 12.796875 0.140625 7.71875 1.703125 
L 7.71875 11.625 
Q 12.109375 9.234375 16.796875 8.0625 
Q 21.484375 6.890625 26.703125 6.890625 
Q 35.15625 6.890625 40.078125 11.328125 
Q 45.015625 15.765625 45.015625 23.390625 
Q 45.015625 31 40.078125 35.4375 
Q 35.15625 39.890625 26.703125 39.890625 
Q 22.75 39.890625 18.8125 39.015625 
Q 14.890625 38.140625 10.796875 36.28125 
z
" id="DejaVuSans-35"/>
      </defs>
      <g transform="translate(118.712279 249.529417)scale(0.22 -0.22)">
       <use xlink:href="#DejaVuSans-31"/>
       <use x="63.623047" xlink:href="#DejaVuSans-32"/>
       <use x="127.246094" xlink:href="#DejaVuSans-35"/>
       <use x="190.869141" xlink:href="#DejaVuSans-30"/>
      </g>
     </g>
    </g>
    <g id="xtick_3">
     <g id="line2d_3">
      <g>
       <use style="stroke:#000000;stroke-width:0.8;" x="182.919852" xlink:href="#ma79b24543a" y="229.312854"/>
      </g>
     </g>
     <g id="text_3">
      <!-- 1500 -->
      <g transform="translate(154.924852 249.529417)scale(0.22 -0.22)">
       <use xlink:href="#DejaVuSans-31"/>
       <use x="63.623047" xlink:href="#DejaVuSans-35"/>
       <use x="127.246094" xlink:href="#DejaVuSans-30"/>
       <use x="190.869141" xlink:href="#DejaVuSans-30"/>
      </g>
     </g>
    </g>
    <g id="xtick_4">
     <g id="line2d_4">
      <g>
       <use style="stroke:#000000;stroke-width:0.8;" x="219.132426" xlink:href="#ma79b24543a" y="229.312854"/>
      </g>
     </g>
     <g id="text_4">
      <!-- 1750 -->
      <defs>
       <path d="M 8.203125 72.90625 
L 55.078125 72.90625 
L 55.078125 68.703125 
L 28.609375 0 
L 18.3125 0 
L 43.21875 64.59375 
L 8.203125 64.59375 
z
" id="DejaVuSans-37"/>
      </defs>
      <g transform="translate(191.137426 249.529417)scale(0.22 -0.22)">
       <use xlink:href="#DejaVuSans-31"/>
       <use x="63.623047" xlink:href="#DejaVuSans-37"/>
       <use x="127.246094" xlink:href="#DejaVuSans-35"/>
       <use x="190.869141" xlink:href="#DejaVuSans-30"/>
      </g>
     </g>
    </g>
    <g id="xtick_5">
     <g id="line2d_5">
      <g>
       <use style="stroke:#000000;stroke-width:0.8;" x="255.345" xlink:href="#ma79b24543a" y="229.312854"/>
      </g>
     </g>
     <g id="text_5">
      <!-- 2000 -->
      <g transform="translate(227.35 249.529417)scale(0.22 -0.22)">
       <use xlink:href="#DejaVuSans-32"/>
       <use x="63.623047" xlink:href="#DejaVuSans-30"/>
       <use x="127.246094" xlink:href="#DejaVuSans-30"/>
       <use x="190.869141" xlink:href="#DejaVuSans-30"/>
      </g>
     </g>
    </g>
    <g id="text_6">
     <!-- Volume $[\AA^3]$  -->
     <defs>
      <path d="M 28.609375 0 
L 0.78125 72.90625 
L 11.078125 72.90625 
L 34.1875 11.53125 
L 57.328125 72.90625 
L 67.578125 72.90625 
L 39.796875 0 
z
" id="DejaVuSans-56"/>
      <path d="M 30.609375 48.390625 
Q 23.390625 48.390625 19.1875 42.75 
Q 14.984375 37.109375 14.984375 27.296875 
Q 14.984375 17.484375 19.15625 11.84375 
Q 23.34375 6.203125 30.609375 6.203125 
Q 37.796875 6.203125 41.984375 11.859375 
Q 46.1875 17.53125 46.1875 27.296875 
Q 46.1875 37.015625 41.984375 42.703125 
Q 37.796875 48.390625 30.609375 48.390625 
z
M 30.609375 56 
Q 42.328125 56 49.015625 48.375 
Q 55.71875 40.765625 55.71875 27.296875 
Q 55.71875 13.875 49.015625 6.21875 
Q 42.328125 -1.421875 30.609375 -1.421875 
Q 18.84375 -1.421875 12.171875 6.21875 
Q 5.515625 13.875 5.515625 27.296875 
Q 5.515625 40.765625 12.171875 48.375 
Q 18.84375 56 30.609375 56 
z
" id="DejaVuSans-6f"/>
      <path d="M 9.421875 75.984375 
L 18.40625 75.984375 
L 18.40625 0 
L 9.421875 0 
z
" id="DejaVuSans-6c"/>
      <path d="M 8.5 21.578125 
L 8.5 54.6875 
L 17.484375 54.6875 
L 17.484375 21.921875 
Q 17.484375 14.15625 20.5 10.265625 
Q 23.53125 6.390625 29.59375 6.390625 
Q 36.859375 6.390625 41.078125 11.03125 
Q 45.3125 15.671875 45.3125 23.6875 
L 45.3125 54.6875 
L 54.296875 54.6875 
L 54.296875 0 
L 45.3125 0 
L 45.3125 8.40625 
Q 42.046875 3.421875 37.71875 1 
Q 33.40625 -1.421875 27.6875 -1.421875 
Q 18.265625 -1.421875 13.375 4.4375 
Q 8.5 10.296875 8.5 21.578125 
z
M 31.109375 56 
z
" id="DejaVuSans-75"/>
      <path d="M 52 44.1875 
Q 55.375 50.25 60.0625 53.125 
Q 64.75 56 71.09375 56 
Q 79.640625 56 84.28125 50.015625 
Q 88.921875 44.046875 88.921875 33.015625 
L 88.921875 0 
L 79.890625 0 
L 79.890625 32.71875 
Q 79.890625 40.578125 77.09375 44.375 
Q 74.3125 48.1875 68.609375 48.1875 
Q 61.625 48.1875 57.5625 43.546875 
Q 53.515625 38.921875 53.515625 30.90625 
L 53.515625 0 
L 44.484375 0 
L 44.484375 32.71875 
Q 44.484375 40.625 41.703125 44.40625 
Q 38.921875 48.1875 33.109375 48.1875 
Q 26.21875 48.1875 22.15625 43.53125 
Q 18.109375 38.875 18.109375 30.90625 
L 18.109375 0 
L 9.078125 0 
L 9.078125 54.6875 
L 18.109375 54.6875 
L 18.109375 46.1875 
Q 21.1875 51.21875 25.484375 53.609375 
Q 29.78125 56 35.6875 56 
Q 41.65625 56 45.828125 52.96875 
Q 50 49.953125 52 44.1875 
z
" id="DejaVuSans-6d"/>
      <path d="M 56.203125 29.59375 
L 56.203125 25.203125 
L 14.890625 25.203125 
Q 15.484375 15.921875 20.484375 11.0625 
Q 25.484375 6.203125 34.421875 6.203125 
Q 39.59375 6.203125 44.453125 7.46875 
Q 49.3125 8.734375 54.109375 11.28125 
L 54.109375 2.78125 
Q 49.265625 0.734375 44.1875 -0.34375 
Q 39.109375 -1.421875 33.890625 -1.421875 
Q 20.796875 -1.421875 13.15625 6.1875 
Q 5.515625 13.8125 5.515625 26.8125 
Q 5.515625 40.234375 12.765625 48.109375 
Q 20.015625 56 32.328125 56 
Q 43.359375 56 49.78125 48.890625 
Q 56.203125 41.796875 56.203125 29.59375 
z
M 47.21875 32.234375 
Q 47.125 39.59375 43.09375 43.984375 
Q 39.0625 48.390625 32.421875 48.390625 
Q 24.90625 48.390625 20.390625 44.140625 
Q 15.875 39.890625 15.1875 32.171875 
z
" id="DejaVuSans-65"/>
      <path id="DejaVuSans-20"/>
      <path d="M 8.59375 75.984375 
L 29.296875 75.984375 
L 29.296875 69 
L 17.578125 69 
L 17.578125 -6.203125 
L 29.296875 -6.203125 
L 29.296875 -13.1875 
L 8.59375 -13.1875 
z
" id="DejaVuSans-5b"/>
      <path d="M 49.8125 79.390625 
Q 49.8125 82.46875 47.625 84.640625 
Q 45.453125 86.8125 42.390625 86.8125 
Q 39.265625 86.8125 37.140625 84.6875 
Q 35.015625 82.5625 35.015625 79.390625 
Q 35.015625 76.3125 37.140625 74.15625 
Q 39.265625 72.015625 42.390625 72.015625 
Q 45.453125 72.015625 47.625 74.15625 
Q 49.8125 76.3125 49.8125 79.390625 
z
M 34.421875 68.703125 
Q 31.78125 70.515625 30.390625 73.265625 
Q 29 76.03125 29 79.390625 
Q 29 84.96875 32.90625 88.890625 
Q 36.8125 92.828125 42.390625 92.828125 
Q 47.953125 92.828125 51.875 88.890625 
Q 55.8125 84.96875 55.8125 79.390625 
Q 55.8125 75.53125 54.03125 72.546875 
Q 52.25 69.578125 48.875 67.828125 
L 61.53125 0 
L 51.21875 0 
L 48.1875 18.703125 
L 15.375 18.703125 
L 5.078125 0 
L -5.328125 0 
z
M 40.375 63.1875 
L 19.921875 26.90625 
L 46.6875 26.90625 
z
" id="DejaVuSans-Oblique-c5"/>
      <path d="M 40.578125 39.3125 
Q 47.65625 37.796875 51.625 33 
Q 55.609375 28.21875 55.609375 21.1875 
Q 55.609375 10.40625 48.1875 4.484375 
Q 40.765625 -1.421875 27.09375 -1.421875 
Q 22.515625 -1.421875 17.65625 -0.515625 
Q 12.796875 0.390625 7.625 2.203125 
L 7.625 11.71875 
Q 11.71875 9.328125 16.59375 8.109375 
Q 21.484375 6.890625 26.8125 6.890625 
Q 36.078125 6.890625 40.9375 10.546875 
Q 45.796875 14.203125 45.796875 21.1875 
Q 45.796875 27.640625 41.28125 31.265625 
Q 36.765625 34.90625 28.71875 34.90625 
L 20.21875 34.90625 
L 20.21875 43.015625 
L 29.109375 43.015625 
Q 36.375 43.015625 40.234375 45.921875 
Q 44.09375 48.828125 44.09375 54.296875 
Q 44.09375 59.90625 40.109375 62.90625 
Q 36.140625 65.921875 28.71875 65.921875 
Q 24.65625 65.921875 20.015625 65.03125 
Q 15.375 64.15625 9.8125 62.3125 
L 9.8125 71.09375 
Q 15.4375 72.65625 20.34375 73.4375 
Q 25.25 74.21875 29.59375 74.21875 
Q 40.828125 74.21875 47.359375 69.109375 
Q 53.90625 64.015625 53.90625 55.328125 
Q 53.90625 49.265625 50.4375 45.09375 
Q 46.96875 40.921875 40.578125 39.3125 
z
" id="DejaVuSans-33"/>
      <path d="M 30.421875 75.984375 
L 30.421875 -13.1875 
L 9.71875 -13.1875 
L 9.71875 -6.203125 
L 21.390625 -6.203125 
L 21.390625 69 
L 9.71875 69 
L 9.71875 75.984375 
z
" id="DejaVuSans-5d"/>
     </defs>
     <g transform="translate(177.705 278.793479)scale(0.24 -0.24)">
      <use transform="translate(0 0.171875)" xlink:href="#DejaVuSans-56"/>
      <use transform="translate(68.408203 0.171875)" xlink:href="#DejaVuSans-6f"/>
      <use transform="translate(129.589844 0.171875)" xlink:href="#DejaVuSans-6c"/>
      <use transform="translate(157.373047 0.171875)" xlink:href="#DejaVuSans-75"/>
      <use transform="translate(220.751953 0.171875)" xlink:href="#DejaVuSans-6d"/>
      <use transform="translate(318.164062 0.171875)" xlink:href="#DejaVuSans-65"/>
      <use transform="translate(379.6875 0.171875)" xlink:href="#DejaVuSans-20"/>
      <use transform="translate(411.474609 0.171875)" xlink:href="#DejaVuSans-5b"/>
      <use transform="translate(450.488281 0.171875)" xlink:href="#DejaVuSans-Oblique-c5"/>
      <use transform="translate(528.702318 38.453125)scale(0.7)" xlink:href="#DejaVuSans-33"/>
      <use transform="translate(575.972826 0.171875)" xlink:href="#DejaVuSans-5d"/>
      <use transform="translate(614.986497 0.171875)" xlink:href="#DejaVuSans-20"/>
     </g>
    </g>
   </g>
   <g id="matplotlib.axis_2">
    <g id="ytick_1">
     <g id="line2d_6">
      <defs>
       <path d="M 0 0 
L 3.5 0 
" id="medf2b96e68" style="stroke:#000000;stroke-width:0.8;"/>
      </defs>
      <g>
       <use style="stroke:#000000;stroke-width:0.8;" x="81.524646" xlink:href="#medf2b96e68" y="156.100118"/>
      </g>
     </g>
     <g id="text_7">
      <!-- 0.05 -->
      <defs>
       <path d="M 10.6875 12.40625 
L 21 12.40625 
L 21 0 
L 10.6875 0 
z
" id="DejaVuSans-2e"/>
      </defs>
      <g transform="translate(29.040271 164.458399)scale(0.22 -0.22)">
       <use xlink:href="#DejaVuSans-30"/>
       <use x="63.623047" xlink:href="#DejaVuSans-2e"/>
       <use x="95.410156" xlink:href="#DejaVuSans-30"/>
       <use x="159.033203" xlink:href="#DejaVuSans-35"/>
      </g>
     </g>
    </g>
    <g id="ytick_2">
     <g id="line2d_7">
      <g>
       <use style="stroke:#000000;stroke-width:0.8;" x="81.524646" xlink:href="#medf2b96e68" y="82.887382"/>
      </g>
     </g>
     <g id="text_8">
      <!-- 0.10 -->
      <g transform="translate(29.040271 91.245663)scale(0.22 -0.22)">
       <use xlink:href="#DejaVuSans-30"/>
       <use x="63.623047" xlink:href="#DejaVuSans-2e"/>
       <use x="95.410156" xlink:href="#DejaVuSans-31"/>
       <use x="159.033203" xlink:href="#DejaVuSans-30"/>
      </g>
     </g>
    </g>
    <g id="ytick_3">
     <g id="line2d_8">
      <g>
       <use style="stroke:#000000;stroke-width:0.8;" x="81.524646" xlink:href="#medf2b96e68" y="9.674646"/>
      </g>
     </g>
     <g id="text_9">
      <!-- 0.15 -->
      <g transform="translate(29.040271 18.032927)scale(0.22 -0.22)">
       <use xlink:href="#DejaVuSans-30"/>
       <use x="63.623047" xlink:href="#DejaVuSans-2e"/>
       <use x="95.410156" xlink:href="#DejaVuSans-31"/>
       <use x="159.033203" xlink:href="#DejaVuSans-35"/>
      </g>
     </g>
    </g>
    <g id="text_10">
     <!-- Density -->
     <defs>
      <path d="M 19.671875 64.796875 
L 19.671875 8.109375 
L 31.59375 8.109375 
Q 46.6875 8.109375 53.6875 14.9375 
Q 60.6875 21.78125 60.6875 36.53125 
Q 60.6875 51.171875 53.6875 57.984375 
Q 46.6875 64.796875 31.59375 64.796875 
z
M 9.8125 72.90625 
L 30.078125 72.90625 
Q 51.265625 72.90625 61.171875 64.09375 
Q 71.09375 55.28125 71.09375 36.53125 
Q 71.09375 17.671875 61.125 8.828125 
Q 51.171875 0 30.078125 0 
L 9.8125 0 
z
" id="DejaVuSans-44"/>
      <path d="M 54.890625 33.015625 
L 54.890625 0 
L 45.90625 0 
L 45.90625 32.71875 
Q 45.90625 40.484375 42.875 44.328125 
Q 39.84375 48.1875 33.796875 48.1875 
Q 26.515625 48.1875 22.3125 43.546875 
Q 18.109375 38.921875 18.109375 30.90625 
L 18.109375 0 
L 9.078125 0 
L 9.078125 54.6875 
L 18.109375 54.6875 
L 18.109375 46.1875 
Q 21.34375 51.125 25.703125 53.5625 
Q 30.078125 56 35.796875 56 
Q 45.21875 56 50.046875 50.171875 
Q 54.890625 44.34375 54.890625 33.015625 
z
" id="DejaVuSans-6e"/>
      <path d="M 44.28125 53.078125 
L 44.28125 44.578125 
Q 40.484375 46.53125 36.375 47.5 
Q 32.28125 48.484375 27.875 48.484375 
Q 21.1875 48.484375 17.84375 46.4375 
Q 14.5 44.390625 14.5 40.28125 
Q 14.5 37.15625 16.890625 35.375 
Q 19.28125 33.59375 26.515625 31.984375 
L 29.59375 31.296875 
Q 39.15625 29.25 43.1875 25.515625 
Q 47.21875 21.78125 47.21875 15.09375 
Q 47.21875 7.46875 41.1875 3.015625 
Q 35.15625 -1.421875 24.609375 -1.421875 
Q 20.21875 -1.421875 15.453125 -0.5625 
Q 10.6875 0.296875 5.421875 2 
L 5.421875 11.28125 
Q 10.40625 8.6875 15.234375 7.390625 
Q 20.0625 6.109375 24.8125 6.109375 
Q 31.15625 6.109375 34.5625 8.28125 
Q 37.984375 10.453125 37.984375 14.40625 
Q 37.984375 18.0625 35.515625 20.015625 
Q 33.0625 21.96875 24.703125 23.78125 
L 21.578125 24.515625 
Q 13.234375 26.265625 9.515625 29.90625 
Q 5.8125 33.546875 5.8125 39.890625 
Q 5.8125 47.609375 11.28125 51.796875 
Q 16.75 56 26.8125 56 
Q 31.78125 56 36.171875 55.265625 
Q 40.578125 54.546875 44.28125 53.078125 
z
" id="DejaVuSans-73"/>
      <path d="M 9.421875 54.6875 
L 18.40625 54.6875 
L 18.40625 0 
L 9.421875 0 
z
M 9.421875 75.984375 
L 18.40625 75.984375 
L 18.40625 64.59375 
L 9.421875 64.59375 
z
" id="DejaVuSans-69"/>
      <path d="M 18.3125 70.21875 
L 18.3125 54.6875 
L 36.8125 54.6875 
L 36.8125 47.703125 
L 18.3125 47.703125 
L 18.3125 18.015625 
Q 18.3125 11.328125 20.140625 9.421875 
Q 21.96875 7.515625 27.59375 7.515625 
L 36.8125 7.515625 
L 36.8125 0 
L 27.59375 0 
Q 17.1875 0 13.234375 3.875 
Q 9.28125 7.765625 9.28125 18.015625 
L 9.28125 47.703125 
L 2.6875 47.703125 
L 2.6875 54.6875 
L 9.28125 54.6875 
L 9.28125 70.21875 
z
" id="DejaVuSans-74"/>
      <path d="M 32.171875 -5.078125 
Q 28.375 -14.84375 24.75 -17.8125 
Q 21.140625 -20.796875 15.09375 -20.796875 
L 7.90625 -20.796875 
L 7.90625 -13.28125 
L 13.1875 -13.28125 
Q 16.890625 -13.28125 18.9375 -11.515625 
Q 21 -9.765625 23.484375 -3.21875 
L 25.09375 0.875 
L 2.984375 54.6875 
L 12.5 54.6875 
L 29.59375 11.921875 
L 46.6875 54.6875 
L 56.203125 54.6875 
z
" id="DejaVuSans-79"/>
     </defs>
     <g transform="translate(20.049021 165.114375)rotate(-90)scale(0.24 -0.24)">
      <use xlink:href="#DejaVuSans-44"/>
      <use x="77.001953" xlink:href="#DejaVuSans-65"/>
      <use x="138.525391" xlink:href="#DejaVuSans-6e"/>
      <use x="201.904297" xlink:href="#DejaVuSans-73"/>
      <use x="254.003906" xlink:href="#DejaVuSans-69"/>
      <use x="281.787109" xlink:href="#DejaVuSans-74"/>
      <use x="320.996094" xlink:href="#DejaVuSans-79"/>
     </g>
    </g>
   </g>
   <g id="patch_38">
    <path clip-path="url(#pd35721255f)" d="M 83.335274 225.070586 
L 83.335274 229.312854 
L 85.508029 229.312854 
L 85.508029 225.070586 
L 83.335274 225.070586 
" style="fill:#feb236;"/>
   </g>
   <g id="patch_39">
    <path clip-path="url(#pd35721255f)" d="M 89.129286 222.004392 
L 89.129286 229.312854 
L 91.302041 229.312854 
L 91.302041 222.004392 
L 89.129286 222.004392 
" style="fill:#feb236;"/>
   </g>
   <g id="patch_40">
    <path clip-path="url(#pd35721255f)" d="M 94.923298 214.065889 
L 94.923298 229.312854 
L 97.096052 229.312854 
L 97.096052 214.065889 
L 94.923298 214.065889 
" style="fill:#feb236;"/>
   </g>
   <g id="patch_41">
    <path clip-path="url(#pd35721255f)" d="M 100.71731 199.86899 
L 100.71731 229.312854 
L 102.890064 229.312854 
L 102.890064 199.86899 
L 100.71731 199.86899 
" style="fill:#feb236;"/>
   </g>
   <g id="patch_42">
    <path clip-path="url(#pd35721255f)" d="M 106.511322 178.86766 
L 106.511322 229.312854 
L 108.684076 229.312854 
L 108.684076 178.86766 
L 106.511322 178.86766 
" style="fill:#feb236;"/>
   </g>
   <g id="patch_43">
    <path clip-path="url(#pd35721255f)" d="M 112.305333 156.102218 
L 112.305333 229.312854 
L 114.478088 229.312854 
L 114.478088 156.102218 
L 112.305333 156.102218 
" style="fill:#feb236;"/>
   </g>
   <g id="patch_44">
    <path clip-path="url(#pd35721255f)" d="M 118.099345 135.226896 
L 118.099345 229.312854 
L 120.2721 229.312854 
L 120.2721 135.226896 
L 118.099345 135.226896 
" style="fill:#feb236;"/>
   </g>
   <g id="patch_45">
    <path clip-path="url(#pd35721255f)" d="M 123.893357 98.054542 
L 123.893357 229.312854 
L 126.066111 229.312854 
L 126.066111 98.054542 
L 123.893357 98.054542 
" style="fill:#feb236;"/>
   </g>
   <g id="patch_46">
    <path clip-path="url(#pd35721255f)" d="M 129.687369 77.305228 
L 129.687369 229.312854 
L 131.860123 229.312854 
L 131.860123 77.305228 
L 129.687369 77.305228 
" style="fill:#feb236;"/>
   </g>
   <g id="patch_47">
    <path clip-path="url(#pd35721255f)" d="M 135.481381 72.768941 
L 135.481381 229.312854 
L 137.654135 229.312854 
L 137.654135 72.768941 
L 135.481381 72.768941 
" style="fill:#feb236;"/>
   </g>
   <g id="patch_48">
    <path clip-path="url(#pd35721255f)" d="M 141.275392 77.095215 
L 141.275392 229.312854 
L 143.448147 229.312854 
L 143.448147 77.095215 
L 141.275392 77.095215 
" style="fill:#feb236;"/>
   </g>
   <g id="patch_49">
    <path clip-path="url(#pd35721255f)" d="M 147.069404 88.267923 
L 147.069404 229.312854 
L 149.242159 229.312854 
L 149.242159 88.267923 
L 147.069404 88.267923 
" style="fill:#feb236;"/>
   </g>
   <g id="patch_50">
    <path clip-path="url(#pd35721255f)" d="M 152.863416 100.952726 
L 152.863416 229.312854 
L 155.036171 229.312854 
L 155.036171 100.952726 
L 152.863416 100.952726 
" style="fill:#feb236;"/>
   </g>
   <g id="patch_51">
    <path clip-path="url(#pd35721255f)" d="M 158.657428 128.758487 
L 158.657428 229.312854 
L 160.830182 229.312854 
L 160.830182 128.758487 
L 158.657428 128.758487 
" style="fill:#feb236;"/>
   </g>
   <g id="patch_52">
    <path clip-path="url(#pd35721255f)" d="M 164.45144 156.228226 
L 164.45144 229.312854 
L 166.624194 229.312854 
L 166.624194 156.228226 
L 164.45144 156.228226 
" style="fill:#feb236;"/>
   </g>
   <g id="patch_53">
    <path clip-path="url(#pd35721255f)" d="M 170.245452 175.507447 
L 170.245452 229.312854 
L 172.418206 229.312854 
L 172.418206 175.507447 
L 170.245452 175.507447 
" style="fill:#feb236;"/>
   </g>
   <g id="patch_54">
    <path clip-path="url(#pd35721255f)" d="M 176.039463 192.182503 
L 176.039463 229.312854 
L 178.212218 229.312854 
L 178.212218 192.182503 
L 176.039463 192.182503 
" style="fill:#feb236;"/>
   </g>
   <g id="patch_55">
    <path clip-path="url(#pd35721255f)" d="M 181.833475 207.009442 
L 181.833475 229.312854 
L 184.00623 229.312854 
L 184.00623 207.009442 
L 181.833475 207.009442 
" style="fill:#feb236;"/>
   </g>
   <g id="patch_56">
    <path clip-path="url(#pd35721255f)" d="M 187.627487 209.739615 
L 187.627487 229.312854 
L 189.800241 229.312854 
L 189.800241 209.739615 
L 187.627487 209.739615 
" style="fill:#feb236;"/>
   </g>
   <g id="patch_57">
    <path clip-path="url(#pd35721255f)" d="M 193.421499 220.660306 
L 193.421499 229.312854 
L 195.594253 229.312854 
L 195.594253 220.660306 
L 193.421499 220.660306 
" style="fill:#feb236;"/>
   </g>
   <g id="patch_58">
    <path clip-path="url(#pd35721255f)" d="M 199.215511 223.474485 
L 199.215511 229.312854 
L 201.388265 229.312854 
L 201.388265 223.474485 
L 199.215511 223.474485 
" style="fill:#feb236;"/>
   </g>
   <g id="patch_59">
    <path clip-path="url(#pd35721255f)" d="M 205.009522 225.742628 
L 205.009522 229.312854 
L 207.182277 229.312854 
L 207.182277 225.742628 
L 205.009522 225.742628 
" style="fill:#feb236;"/>
   </g>
   <g id="patch_60">
    <path clip-path="url(#pd35721255f)" d="M 210.803534 228.262788 
L 210.803534 229.312854 
L 212.976289 229.312854 
L 212.976289 228.262788 
L 210.803534 228.262788 
" style="fill:#feb236;"/>
   </g>
   <g id="patch_61">
    <path clip-path="url(#pd35721255f)" d="M 216.597546 228.010772 
L 216.597546 229.312854 
L 218.7703 229.312854 
L 218.7703 228.010772 
L 216.597546 228.010772 
" style="fill:#feb236;"/>
   </g>
   <g id="patch_62">
    <path clip-path="url(#pd35721255f)" d="M 222.391558 228.13678 
L 222.391558 229.312854 
L 224.564312 229.312854 
L 224.564312 228.13678 
L 222.391558 228.13678 
" style="fill:#feb236;"/>
   </g>
   <g id="patch_63">
    <path clip-path="url(#pd35721255f)" d="M 228.18557 228.892828 
L 228.18557 229.312854 
L 230.358324 229.312854 
L 230.358324 228.892828 
L 228.18557 228.892828 
" style="fill:#feb236;"/>
   </g>
   <g id="patch_64">
    <path clip-path="url(#pd35721255f)" d="M 233.979581 229.312854 
L 233.979581 229.312854 
L 236.152336 229.312854 
L 236.152336 229.312854 
L 233.979581 229.312854 
" style="fill:#feb236;"/>
   </g>
   <g id="patch_65">
    <path clip-path="url(#pd35721255f)" d="M 239.773593 229.312854 
L 239.773593 229.312854 
L 241.946348 229.312854 
L 241.946348 229.312854 
L 239.773593 229.312854 
" style="fill:#feb236;"/>
   </g>
   <g id="patch_66">
    <path clip-path="url(#pd35721255f)" d="M 245.567605 228.93483 
L 245.567605 229.312854 
L 247.740359 229.312854 
L 247.740359 228.93483 
L 245.567605 228.93483 
" style="fill:#feb236;"/>
   </g>
   <g id="patch_67">
    <path clip-path="url(#pd35721255f)" d="M 251.361617 229.312854 
L 251.361617 229.312854 
L 253.534371 229.312854 
L 253.534371 229.312854 
L 251.361617 229.312854 
" style="fill:#feb236;"/>
   </g>
   <g id="patch_68">
    <path clip-path="url(#pd35721255f)" d="M 257.155629 229.312854 
L 257.155629 229.312854 
L 259.328383 229.312854 
L 259.328383 229.312854 
L 257.155629 229.312854 
" style="fill:#feb236;"/>
   </g>
   <g id="patch_69">
    <path clip-path="url(#pd35721255f)" d="M 262.949641 229.312854 
L 262.949641 229.312854 
L 265.122395 229.312854 
L 265.122395 229.312854 
L 262.949641 229.312854 
" style="fill:#feb236;"/>
   </g>
   <g id="patch_70">
    <path clip-path="url(#pd35721255f)" d="M 268.743652 229.312854 
L 268.743652 229.312854 
L 270.916407 229.312854 
L 270.916407 229.312854 
L 268.743652 229.312854 
" style="fill:#feb236;"/>
   </g>
   <g id="patch_71">
    <path clip-path="url(#pd35721255f)" d="M 274.537664 229.312854 
L 274.537664 229.312854 
L 276.710419 229.312854 
L 276.710419 229.312854 
L 274.537664 229.312854 
" style="fill:#feb236;"/>
   </g>
   <g id="patch_72">
    <path clip-path="url(#pd35721255f)" d="M 280.331676 229.312854 
L 280.331676 229.312854 
L 282.50443 229.312854 
L 282.50443 229.312854 
L 280.331676 229.312854 
" style="fill:#feb236;"/>
   </g>
   <g id="patch_73">
    <path d="M 81.524646 229.312854 
L 81.524646 9.674646 
" style="fill:none;stroke:#000000;stroke-linecap:square;stroke-linejoin:miter;"/>
   </g>
   <g id="patch_74">
    <path d="M 81.524646 229.312854 
L 429.165354 229.312854 
" style="fill:none;stroke:#000000;stroke-linecap:square;stroke-linejoin:miter;"/>
   </g>
   <g id="patch_75">
    <path clip-path="url(#pd35721255f)" d="M 85.508029 225.165987 
L 85.508029 229.312854 
L 87.680783 229.312854 
L 87.680783 225.165987 
L 85.508029 225.165987 
" style="fill:#6b5b95;"/>
   </g>
   <g id="patch_76">
    <path clip-path="url(#pd35721255f)" d="M 91.302041 218.268228 
L 91.302041 229.312854 
L 93.474795 229.312854 
L 93.474795 218.268228 
L 91.302041 218.268228 
" style="fill:#6b5b95;"/>
   </g>
   <g id="patch_77">
    <path clip-path="url(#pd35721255f)" d="M 97.096052 194.782999 
L 97.096052 229.312854 
L 99.268807 229.312854 
L 99.268807 194.782999 
L 97.096052 194.782999 
" style="fill:#6b5b95;"/>
   </g>
   <g id="patch_78">
    <path clip-path="url(#pd35721255f)" d="M 102.890064 177.004846 
L 102.890064 229.312854 
L 105.062819 229.312854 
L 105.062819 177.004846 
L 102.890064 177.004846 
" style="fill:#6b5b95;"/>
   </g>
   <g id="patch_79">
    <path clip-path="url(#pd35721255f)" d="M 108.684076 127.570903 
L 108.684076 229.312854 
L 110.85683 229.312854 
L 110.85683 127.570903 
L 108.684076 127.570903 
" style="fill:#6b5b95;"/>
   </g>
   <g id="patch_80">
    <path clip-path="url(#pd35721255f)" d="M 114.478088 80.230923 
L 114.478088 229.312854 
L 116.650842 229.312854 
L 116.650842 80.230923 
L 114.478088 80.230923 
" style="fill:#6b5b95;"/>
   </g>
   <g id="patch_81">
    <path clip-path="url(#pd35721255f)" d="M 120.2721 45.45472 
L 120.2721 229.312854 
L 122.444854 229.312854 
L 122.444854 45.45472 
L 120.2721 45.45472 
" style="fill:#6b5b95;"/>
   </g>
   <g id="patch_82">
    <path clip-path="url(#pd35721255f)" d="M 126.066111 33.958454 
L 126.066111 229.312854 
L 128.238866 229.312854 
L 128.238866 33.958454 
L 126.066111 33.958454 
" style="fill:#6b5b95;"/>
   </g>
   <g id="patch_83">
    <path clip-path="url(#pd35721255f)" d="M 131.860123 49.847935 
L 131.860123 229.312854 
L 134.032878 229.312854 
L 134.032878 49.847935 
L 131.860123 49.847935 
" style="fill:#6b5b95;"/>
   </g>
   <g id="patch_84">
    <path clip-path="url(#pd35721255f)" d="M 137.654135 67.749263 
L 137.654135 229.312854 
L 139.82689 229.312854 
L 139.82689 67.749263 
L 137.654135 67.749263 
" style="fill:#6b5b95;"/>
   </g>
   <g id="patch_85">
    <path clip-path="url(#pd35721255f)" d="M 143.448147 104.455197 
L 143.448147 229.312854 
L 145.620901 229.312854 
L 145.620901 104.455197 
L 143.448147 104.455197 
" style="fill:#6b5b95;"/>
   </g>
   <g id="patch_86">
    <path clip-path="url(#pd35721255f)" d="M 149.242159 137.342729 
L 149.242159 229.312854 
L 151.414913 229.312854 
L 151.414913 137.342729 
L 149.242159 137.342729 
" style="fill:#6b5b95;"/>
   </g>
   <g id="patch_87">
    <path clip-path="url(#pd35721255f)" d="M 155.036171 158.241298 
L 155.036171 229.312854 
L 157.208925 229.312854 
L 157.208925 158.241298 
L 155.036171 158.241298 
" style="fill:#6b5b95;"/>
   </g>
   <g id="patch_88">
    <path clip-path="url(#pd35721255f)" d="M 160.830182 189.363331 
L 160.830182 229.312854 
L 163.002937 229.312854 
L 163.002937 189.363331 
L 160.830182 189.363331 
" style="fill:#6b5b95;"/>
   </g>
   <g id="patch_89">
    <path clip-path="url(#pd35721255f)" d="M 166.624194 203.487315 
L 166.624194 229.312854 
L 168.796949 229.312854 
L 168.796949 203.487315 
L 166.624194 203.487315 
" style="fill:#6b5b95;"/>
   </g>
   <g id="patch_90">
    <path clip-path="url(#pd35721255f)" d="M 172.418206 212.109514 
L 172.418206 229.312854 
L 174.59096 229.312854 
L 174.59096 212.109514 
L 172.418206 212.109514 
" style="fill:#6b5b95;"/>
   </g>
   <g id="patch_91">
    <path clip-path="url(#pd35721255f)" d="M 178.212218 221.470759 
L 178.212218 229.312854 
L 180.384972 229.312854 
L 180.384972 221.470759 
L 178.212218 221.470759 
" style="fill:#6b5b95;"/>
   </g>
   <g id="patch_92">
    <path clip-path="url(#pd35721255f)" d="M 184.00623 224.632232 
L 184.00623 229.312854 
L 186.178984 229.312854 
L 186.178984 224.632232 
L 184.00623 224.632232 
" style="fill:#6b5b95;"/>
   </g>
   <g id="patch_93">
    <path clip-path="url(#pd35721255f)" d="M 189.800241 226.315614 
L 189.800241 229.312854 
L 191.972996 229.312854 
L 191.972996 226.315614 
L 189.800241 226.315614 
" style="fill:#6b5b95;"/>
   </g>
   <g id="patch_94">
    <path clip-path="url(#pd35721255f)" d="M 195.594253 227.670531 
L 195.594253 229.312854 
L 197.767008 229.312854 
L 197.767008 227.670531 
L 195.594253 227.670531 
" style="fill:#6b5b95;"/>
   </g>
   <g id="patch_95">
    <path clip-path="url(#pd35721255f)" d="M 201.388265 227.834763 
L 201.388265 229.312854 
L 203.561019 229.312854 
L 203.561019 227.834763 
L 201.388265 227.834763 
" style="fill:#6b5b95;"/>
   </g>
   <g id="patch_96">
    <path clip-path="url(#pd35721255f)" d="M 207.182277 228.738041 
L 207.182277 229.312854 
L 209.355031 229.312854 
L 209.355031 228.738041 
L 207.182277 228.738041 
" style="fill:#6b5b95;"/>
   </g>
   <g id="patch_97">
    <path clip-path="url(#pd35721255f)" d="M 212.976289 228.738041 
L 212.976289 229.312854 
L 215.149043 229.312854 
L 215.149043 228.738041 
L 212.976289 228.738041 
" style="fill:#6b5b95;"/>
   </g>
   <g id="patch_98">
    <path clip-path="url(#pd35721255f)" d="M 218.7703 229.312854 
L 218.7703 229.312854 
L 220.943055 229.312854 
L 220.943055 229.312854 
L 218.7703 229.312854 
" style="fill:#6b5b95;"/>
   </g>
   <g id="patch_99">
    <path clip-path="url(#pd35721255f)" d="M 224.564312 228.820157 
L 224.564312 229.312854 
L 226.737067 229.312854 
L 226.737067 228.820157 
L 224.564312 228.820157 
" style="fill:#6b5b95;"/>
   </g>
   <g id="patch_100">
    <path clip-path="url(#pd35721255f)" d="M 230.358324 229.312854 
L 230.358324 229.312854 
L 232.531078 229.312854 
L 232.531078 229.312854 
L 230.358324 229.312854 
" style="fill:#6b5b95;"/>
   </g>
   <g id="patch_101">
    <path clip-path="url(#pd35721255f)" d="M 236.152336 229.312854 
L 236.152336 229.312854 
L 238.32509 229.312854 
L 238.32509 229.312854 
L 236.152336 229.312854 
" style="fill:#6b5b95;"/>
   </g>
   <g id="patch_102">
    <path clip-path="url(#pd35721255f)" d="M 241.946348 229.312854 
L 241.946348 229.312854 
L 244.119102 229.312854 
L 244.119102 229.312854 
L 241.946348 229.312854 
" style="fill:#6b5b95;"/>
   </g>
   <g id="patch_103">
    <path clip-path="url(#pd35721255f)" d="M 247.740359 229.312854 
L 247.740359 229.312854 
L 249.913114 229.312854 
L 249.913114 229.312854 
L 247.740359 229.312854 
" style="fill:#6b5b95;"/>
   </g>
   <g id="patch_104">
    <path clip-path="url(#pd35721255f)" d="M 253.534371 229.312854 
L 253.534371 229.312854 
L 255.707126 229.312854 
L 255.707126 229.312854 
L 253.534371 229.312854 
" style="fill:#6b5b95;"/>
   </g>
   <g id="patch_105">
    <path clip-path="url(#pd35721255f)" d="M 259.328383 229.312854 
L 259.328383 229.312854 
L 261.501138 229.312854 
L 261.501138 229.312854 
L 259.328383 229.312854 
" style="fill:#6b5b95;"/>
   </g>
   <g id="patch_106">
    <path clip-path="url(#pd35721255f)" d="M 265.122395 229.312854 
L 265.122395 229.312854 
L 267.295149 229.312854 
L 267.295149 229.312854 
L 265.122395 229.312854 
" style="fill:#6b5b95;"/>
   </g>
   <g id="patch_107">
    <path clip-path="url(#pd35721255f)" d="M 270.916407 229.312854 
L 270.916407 229.312854 
L 273.089161 229.312854 
L 273.089161 229.312854 
L 270.916407 229.312854 
" style="fill:#6b5b95;"/>
   </g>
   <g id="patch_108">
    <path clip-path="url(#pd35721255f)" d="M 276.710419 229.312854 
L 276.710419 229.312854 
L 278.883173 229.312854 
L 278.883173 229.312854 
L 276.710419 229.312854 
" style="fill:#6b5b95;"/>
   </g>
   <g id="patch_109">
    <path clip-path="url(#pd35721255f)" d="M 282.50443 229.312854 
L 282.50443 229.312854 
L 284.677185 229.312854 
L 284.677185 229.312854 
L 282.50443 229.312854 
" style="fill:#6b5b95;"/>
   </g>
   <g id="legend_1">
    <g id="patch_110">
     <path d="M 203.988479 124.150271 
L 413.765354 124.150271 
Q 418.165354 124.150271 418.165354 119.750271 
L 418.165354 25.074646 
Q 418.165354 20.674646 413.765354 20.674646 
L 203.988479 20.674646 
Q 199.588479 20.674646 199.588479 25.074646 
L 199.588479 119.750271 
Q 199.588479 124.150271 203.988479 124.150271 
z
" style="fill:#ffffff;stroke:#000000;stroke-linejoin:miter;"/>
    </g>
    <g id="patch_111">
     <path d="M 208.388479 46.191208 
L 252.388479 46.191208 
L 252.388479 30.791208 
L 208.388479 30.791208 
z
" style="fill:#d64161;"/>
    </g>
    <g id="text_11">
     <!-- Conformer A -->
     <defs>
      <path d="M 64.40625 67.28125 
L 64.40625 56.890625 
Q 59.421875 61.53125 53.78125 63.8125 
Q 48.140625 66.109375 41.796875 66.109375 
Q 29.296875 66.109375 22.65625 58.46875 
Q 16.015625 50.828125 16.015625 36.375 
Q 16.015625 21.96875 22.65625 14.328125 
Q 29.296875 6.6875 41.796875 6.6875 
Q 48.140625 6.6875 53.78125 8.984375 
Q 59.421875 11.28125 64.40625 15.921875 
L 64.40625 5.609375 
Q 59.234375 2.09375 53.4375 0.328125 
Q 47.65625 -1.421875 41.21875 -1.421875 
Q 24.65625 -1.421875 15.125 8.703125 
Q 5.609375 18.84375 5.609375 36.375 
Q 5.609375 53.953125 15.125 64.078125 
Q 24.65625 74.21875 41.21875 74.21875 
Q 47.75 74.21875 53.53125 72.484375 
Q 59.328125 70.75 64.40625 67.28125 
z
" id="DejaVuSans-43"/>
      <path d="M 37.109375 75.984375 
L 37.109375 68.5 
L 28.515625 68.5 
Q 23.6875 68.5 21.796875 66.546875 
Q 19.921875 64.59375 19.921875 59.515625 
L 19.921875 54.6875 
L 34.71875 54.6875 
L 34.71875 47.703125 
L 19.921875 47.703125 
L 19.921875 0 
L 10.890625 0 
L 10.890625 47.703125 
L 2.296875 47.703125 
L 2.296875 54.6875 
L 10.890625 54.6875 
L 10.890625 58.5 
Q 10.890625 67.625 15.140625 71.796875 
Q 19.390625 75.984375 28.609375 75.984375 
z
" id="DejaVuSans-66"/>
      <path d="M 41.109375 46.296875 
Q 39.59375 47.171875 37.8125 47.578125 
Q 36.03125 48 33.890625 48 
Q 26.265625 48 22.1875 43.046875 
Q 18.109375 38.09375 18.109375 28.8125 
L 18.109375 0 
L 9.078125 0 
L 9.078125 54.6875 
L 18.109375 54.6875 
L 18.109375 46.1875 
Q 20.953125 51.171875 25.484375 53.578125 
Q 30.03125 56 36.53125 56 
Q 37.453125 56 38.578125 55.875 
Q 39.703125 55.765625 41.0625 55.515625 
z
" id="DejaVuSans-72"/>
      <path d="M 34.1875 63.1875 
L 20.796875 26.90625 
L 47.609375 26.90625 
z
M 28.609375 72.90625 
L 39.796875 72.90625 
L 67.578125 0 
L 57.328125 0 
L 50.6875 18.703125 
L 17.828125 18.703125 
L 11.1875 0 
L 0.78125 0 
z
" id="DejaVuSans-41"/>
     </defs>
     <g transform="translate(269.988479 46.191208)scale(0.22 -0.22)">
      <use xlink:href="#DejaVuSans-43"/>
      <use x="69.824219" xlink:href="#DejaVuSans-6f"/>
      <use x="131.005859" xlink:href="#DejaVuSans-6e"/>
      <use x="194.384766" xlink:href="#DejaVuSans-66"/>
      <use x="229.589844" xlink:href="#DejaVuSans-6f"/>
      <use x="290.771484" xlink:href="#DejaVuSans-72"/>
      <use x="331.869141" xlink:href="#DejaVuSans-6d"/>
      <use x="429.28125" xlink:href="#DejaVuSans-65"/>
      <use x="490.804688" xlink:href="#DejaVuSans-72"/>
      <use x="531.917969" xlink:href="#DejaVuSans-20"/>
      <use x="563.705078" xlink:href="#DejaVuSans-41"/>
     </g>
    </g>
    <g id="patch_112">
     <path d="M 208.388479 78.483083 
L 252.388479 78.483083 
L 252.388479 63.083083 
L 208.388479 63.083083 
z
" style="fill:#feb236;"/>
    </g>
    <g id="text_12">
     <!-- Conformer B -->
     <defs>
      <path d="M 19.671875 34.8125 
L 19.671875 8.109375 
L 35.5 8.109375 
Q 43.453125 8.109375 47.28125 11.40625 
Q 51.125 14.703125 51.125 21.484375 
Q 51.125 28.328125 47.28125 31.5625 
Q 43.453125 34.8125 35.5 34.8125 
z
M 19.671875 64.796875 
L 19.671875 42.828125 
L 34.28125 42.828125 
Q 41.5 42.828125 45.03125 45.53125 
Q 48.578125 48.25 48.578125 53.8125 
Q 48.578125 59.328125 45.03125 62.0625 
Q 41.5 64.796875 34.28125 64.796875 
z
M 9.8125 72.90625 
L 35.015625 72.90625 
Q 46.296875 72.90625 52.390625 68.21875 
Q 58.5 63.53125 58.5 54.890625 
Q 58.5 48.1875 55.375 44.234375 
Q 52.25 40.28125 46.1875 39.3125 
Q 53.46875 37.75 57.5 32.78125 
Q 61.53125 27.828125 61.53125 20.40625 
Q 61.53125 10.640625 54.890625 5.3125 
Q 48.25 0 35.984375 0 
L 9.8125 0 
z
" id="DejaVuSans-42"/>
     </defs>
     <g transform="translate(269.988479 78.483083)scale(0.22 -0.22)">
      <use xlink:href="#DejaVuSans-43"/>
      <use x="69.824219" xlink:href="#DejaVuSans-6f"/>
      <use x="131.005859" xlink:href="#DejaVuSans-6e"/>
      <use x="194.384766" xlink:href="#DejaVuSans-66"/>
      <use x="229.589844" xlink:href="#DejaVuSans-6f"/>
      <use x="290.771484" xlink:href="#DejaVuSans-72"/>
      <use x="331.869141" xlink:href="#DejaVuSans-6d"/>
      <use x="429.28125" xlink:href="#DejaVuSans-65"/>
      <use x="490.804688" xlink:href="#DejaVuSans-72"/>
      <use x="531.917969" xlink:href="#DejaVuSans-20"/>
      <use x="563.705078" xlink:href="#DejaVuSans-42"/>
     </g>
    </g>
    <g id="patch_113">
     <path d="M 208.388479 110.774958 
L 252.388479 110.774958 
L 252.388479 95.374958 
L 208.388479 95.374958 
z
" style="fill:#6b5b95;"/>
    </g>
    <g id="text_13">
     <!-- Conformer C -->
     <g transform="translate(269.988479 110.774958)scale(0.22 -0.22)">
      <use xlink:href="#DejaVuSans-43"/>
      <use x="69.824219" xlink:href="#DejaVuSans-6f"/>
      <use x="131.005859" xlink:href="#DejaVuSans-6e"/>
      <use x="194.384766" xlink:href="#DejaVuSans-66"/>
      <use x="229.589844" xlink:href="#DejaVuSans-6f"/>
      <use x="290.771484" xlink:href="#DejaVuSans-72"/>
      <use x="331.869141" xlink:href="#DejaVuSans-6d"/>
      <use x="429.28125" xlink:href="#DejaVuSans-65"/>
      <use x="490.804688" xlink:href="#DejaVuSans-72"/>
      <use x="531.917969" xlink:href="#DejaVuSans-20"/>
      <use x="563.705078" xlink:href="#DejaVuSans-43"/>
     </g>
    </g>
   </g>
  </g>
 </g>
 <defs>
  <clipPath id="pd35721255f">
   <rect height="219.638209" width="347.640709" x="81.524646" y="9.674646"/>
  </clipPath>
 </defs>
</svg>
