<?xml version="1.0" encoding="utf-8" standalone="no"?>
<!DOCTYPE svg PUBLIC "-//W3C//DTD SVG 1.1//EN"
  "http://www.w3.org/Graphics/SVG/1.1/DTD/svg11.dtd">
<!-- Created with matplotlib (http://matplotlib.org/) -->
<svg height="288pt" version="1.1" viewBox="0 0 432 288" width="432pt" xmlns="http://www.w3.org/2000/svg" xmlns:xlink="http://www.w3.org/1999/xlink">
 <defs>
  <style type="text/css">
*{stroke-linecap:butt;stroke-linejoin:round;}
  </style>
 </defs>
 <g id="figure_1">
  <g id="patch_1">
   <path d="M 0 288 
L 432 288 
L 432 0 
L 0 0 
z
" style="fill:#ffffff;"/>
  </g>
  <g id="axes_1">
   <g id="patch_2">
    <path d="M 36.794646 251.745354 
L 429.165354 251.745354 
L 429.165354 2.834646 
L 36.794646 2.834646 
z
" style="fill:#ffffff;"/>
   </g>
   <g id="line2d_1">
    <path clip-path="url(#pa694875160)" d="M 59.46701 213.976429 
L 62.358893 216.275578 
L 65.250776 212.103049 
L 68.142659 208.86721 
L 71.034542 209.286428 
L 73.926426 215.961165 
L 76.818309 214.670759 
L 79.710192 213.210046 
L 82.602075 201.334386 
L 85.493958 204.989443 
L 88.385841 211.382518 
L 91.277725 203.096411 
L 94.169608 200.699008 
L 97.061491 197.594175 
L 99.953374 188.613738 
L 102.845257 184.624617 
L 105.73714 185.725064 
L 108.629024 167.475979 
L 111.520907 166.408283 
L 114.41279 153.674535 
L 117.304673 167.26637 
L 120.196556 184.906279 
L 123.088439 149.207243 
L 125.980323 132.124108 
L 128.872206 153.379772 
L 131.764089 163.866774 
L 134.655972 180.622394 
L 137.547855 201.052723 
L 140.439739 202.035266 
L 143.331622 206.954527 
L 146.223505 204.491621 
L 149.115388 204.995993 
L 152.007271 203.672836 
L 154.899154 205.100798 
L 157.791038 196.808141 
L 160.682921 190.768781 
L 163.574804 158.128727 
L 166.466687 126.445014 
L 169.35857 145.231222 
L 172.250453 195.209872 
L 175.142337 203.220867 
L 178.03422 200.613855 
L 180.926103 201.550545 
L 183.817986 197.771032 
L 186.709869 195.819048 
L 189.601752 188.495833 
L 192.493636 189.321169 
L 195.385519 177.949879 
L 198.277402 156.635262 
L 201.169285 158.574146 
L 204.061168 163.54581 
L 206.953051 163.742318 
L 209.844935 182.109308 
L 212.736818 181.460831 
L 215.628701 189.242565 
L 218.520584 199.231745 
L 221.412467 209.548439 
L 224.30435 214.205689 
L 227.196234 200.417346 
L 230.088117 193.382343 
L 232.98 192.792818 
L 235.871883 191.607217 
L 238.763766 174.045912 
L 241.65565 158.600347 
L 244.547533 161.194259 
L 247.439416 150.477998 
L 250.331299 109.217772 
L 253.223182 130.558591 
L 256.115065 141.333804 
L 259.006949 164.161536 
L 261.898832 180.321082 
L 264.790715 193.356142 
L 267.682598 199.428254 
L 270.574481 205.225253 
L 273.466364 203.574582 
L 276.358248 212.384711 
L 279.250131 214.434949 
L 282.142014 203.784191 
L 285.033897 180.144224 
L 287.92578 152.744395 
L 290.817663 157.807763 
L 293.709547 198.223002 
L 296.60143 211.474222 
L 299.493313 211.736233 
L 302.385196 195.753545 
L 305.277079 206.954527 
L 308.168962 211.186009 
L 311.060846 205.945784 
L 313.952729 185.456502 
L 316.844612 152.757496 
L 319.736495 140.089251 
L 322.628378 165.451942 
L 325.520261 165.098227 
L 328.412145 189.936895 
L 331.304028 206.581161 
L 334.195911 208.297335 
L 337.087794 213.347602 
L 339.979677 206.889025 
L 342.871561 211.65763 
L 345.763444 211.244962 
L 348.655327 209.463285 
L 351.54721 199.447904 
L 354.439093 178.460801 
L 357.330976 149.541307 
L 360.22286 185.829869 
L 363.114743 210.806093 
L 366.006626 214.972072 
L 368.898509 213.76027 
L 371.790392 215.240634 
L 374.682275 218.849839 
L 377.574159 216.956808 
L 380.466042 216.31488 
L 383.357925 210.170716 
L 386.249808 194.522092 
L 389.141691 184.297103 
L 392.033574 208.834458 
L 394.925458 214.382547 
L 397.817341 221.273443 
L 400.709224 218.86949 
L 403.601107 217.041961 
" style="fill:none;stroke:#0000ff;stroke-linecap:round;"/>
   </g>
   <g id="matplotlib.axis_1">
    <g id="xtick_1">
     <g id="line2d_2">
      <defs>
       <path d="M 0 0 
L 0 -3.5 
" id="ma3d359ff95" style="stroke:#000000;stroke-width:0.8;"/>
      </defs>
      <g>
       <use style="stroke:#000000;stroke-width:0.8;" x="42.115711" xlink:href="#ma3d359ff95" y="251.745354"/>
      </g>
     </g>
     <g id="text_1">
      <!-- 1 -->
      <defs>
       <path d="M 12.40625 8.296875 
L 28.515625 8.296875 
L 28.515625 63.921875 
L 10.984375 60.40625 
L 10.984375 69.390625 
L 28.421875 72.90625 
L 38.28125 72.90625 
L 38.28125 8.296875 
L 54.390625 8.296875 
L 54.390625 0 
L 12.40625 0 
z
" id="DejaVuSans-31"/>
      </defs>
      <g transform="translate(38.616336 263.603636)scale(0.11 -0.11)">
       <use xlink:href="#DejaVuSans-31"/>
      </g>
     </g>
    </g>
    <g id="xtick_2">
     <g id="line2d_3">
      <g>
       <use style="stroke:#000000;stroke-width:0.8;" x="99.953374" xlink:href="#ma3d359ff95" y="251.745354"/>
      </g>
     </g>
     <g id="text_2">
      <!-- 21 -->
      <defs>
       <path d="M 19.1875 8.296875 
L 53.609375 8.296875 
L 53.609375 0 
L 7.328125 0 
L 7.328125 8.296875 
Q 12.9375 14.109375 22.625 23.890625 
Q 32.328125 33.6875 34.8125 36.53125 
Q 39.546875 41.84375 41.421875 45.53125 
Q 43.3125 49.21875 43.3125 52.78125 
Q 43.3125 58.59375 39.234375 62.25 
Q 35.15625 65.921875 28.609375 65.921875 
Q 23.96875 65.921875 18.8125 64.3125 
Q 13.671875 62.703125 7.8125 59.421875 
L 7.8125 69.390625 
Q 13.765625 71.78125 18.9375 73 
Q 24.125 74.21875 28.421875 74.21875 
Q 39.75 74.21875 46.484375 68.546875 
Q 53.21875 62.890625 53.21875 53.421875 
Q 53.21875 48.921875 51.53125 44.890625 
Q 49.859375 40.875 45.40625 35.40625 
Q 44.1875 33.984375 37.640625 27.21875 
Q 31.109375 20.453125 19.1875 8.296875 
z
" id="DejaVuSans-32"/>
      </defs>
      <g transform="translate(92.954624 263.603636)scale(0.11 -0.11)">
       <use xlink:href="#DejaVuSans-32"/>
       <use x="63.623047" xlink:href="#DejaVuSans-31"/>
      </g>
     </g>
    </g>
    <g id="xtick_3">
     <g id="line2d_4">
      <g>
       <use style="stroke:#000000;stroke-width:0.8;" x="157.791038" xlink:href="#ma3d359ff95" y="251.745354"/>
      </g>
     </g>
     <g id="text_3">
      <!-- 41 -->
      <defs>
       <path d="M 37.796875 64.3125 
L 12.890625 25.390625 
L 37.796875 25.390625 
z
M 35.203125 72.90625 
L 47.609375 72.90625 
L 47.609375 25.390625 
L 58.015625 25.390625 
L 58.015625 17.1875 
L 47.609375 17.1875 
L 47.609375 0 
L 37.796875 0 
L 37.796875 17.1875 
L 4.890625 17.1875 
L 4.890625 26.703125 
z
" id="DejaVuSans-34"/>
      </defs>
      <g transform="translate(150.792288 263.603636)scale(0.11 -0.11)">
       <use xlink:href="#DejaVuSans-34"/>
       <use x="63.623047" xlink:href="#DejaVuSans-31"/>
      </g>
     </g>
    </g>
    <g id="xtick_4">
     <g id="line2d_5">
      <g>
       <use style="stroke:#000000;stroke-width:0.8;" x="215.628701" xlink:href="#ma3d359ff95" y="251.745354"/>
      </g>
     </g>
     <g id="text_4">
      <!-- 61 -->
      <defs>
       <path d="M 33.015625 40.375 
Q 26.375 40.375 22.484375 35.828125 
Q 18.609375 31.296875 18.609375 23.390625 
Q 18.609375 15.53125 22.484375 10.953125 
Q 26.375 6.390625 33.015625 6.390625 
Q 39.65625 6.390625 43.53125 10.953125 
Q 47.40625 15.53125 47.40625 23.390625 
Q 47.40625 31.296875 43.53125 35.828125 
Q 39.65625 40.375 33.015625 40.375 
z
M 52.59375 71.296875 
L 52.59375 62.3125 
Q 48.875 64.0625 45.09375 64.984375 
Q 41.3125 65.921875 37.59375 65.921875 
Q 27.828125 65.921875 22.671875 59.328125 
Q 17.53125 52.734375 16.796875 39.40625 
Q 19.671875 43.65625 24.015625 45.921875 
Q 28.375 48.1875 33.59375 48.1875 
Q 44.578125 48.1875 50.953125 41.515625 
Q 57.328125 34.859375 57.328125 23.390625 
Q 57.328125 12.15625 50.6875 5.359375 
Q 44.046875 -1.421875 33.015625 -1.421875 
Q 20.359375 -1.421875 13.671875 8.265625 
Q 6.984375 17.96875 6.984375 36.375 
Q 6.984375 53.65625 15.1875 63.9375 
Q 23.390625 74.21875 37.203125 74.21875 
Q 40.921875 74.21875 44.703125 73.484375 
Q 48.484375 72.75 52.59375 71.296875 
z
" id="DejaVuSans-36"/>
      </defs>
      <g transform="translate(208.629951 263.603636)scale(0.11 -0.11)">
       <use xlink:href="#DejaVuSans-36"/>
       <use x="63.623047" xlink:href="#DejaVuSans-31"/>
      </g>
     </g>
    </g>
    <g id="xtick_5">
     <g id="line2d_6">
      <g>
       <use style="stroke:#000000;stroke-width:0.8;" x="273.466364" xlink:href="#ma3d359ff95" y="251.745354"/>
      </g>
     </g>
     <g id="text_5">
      <!-- 81 -->
      <defs>
       <path d="M 31.78125 34.625 
Q 24.75 34.625 20.71875 30.859375 
Q 16.703125 27.09375 16.703125 20.515625 
Q 16.703125 13.921875 20.71875 10.15625 
Q 24.75 6.390625 31.78125 6.390625 
Q 38.8125 6.390625 42.859375 10.171875 
Q 46.921875 13.96875 46.921875 20.515625 
Q 46.921875 27.09375 42.890625 30.859375 
Q 38.875 34.625 31.78125 34.625 
z
M 21.921875 38.8125 
Q 15.578125 40.375 12.03125 44.71875 
Q 8.5 49.078125 8.5 55.328125 
Q 8.5 64.0625 14.71875 69.140625 
Q 20.953125 74.21875 31.78125 74.21875 
Q 42.671875 74.21875 48.875 69.140625 
Q 55.078125 64.0625 55.078125 55.328125 
Q 55.078125 49.078125 51.53125 44.71875 
Q 48 40.375 41.703125 38.8125 
Q 48.828125 37.15625 52.796875 32.3125 
Q 56.78125 27.484375 56.78125 20.515625 
Q 56.78125 9.90625 50.3125 4.234375 
Q 43.84375 -1.421875 31.78125 -1.421875 
Q 19.734375 -1.421875 13.25 4.234375 
Q 6.78125 9.90625 6.78125 20.515625 
Q 6.78125 27.484375 10.78125 32.3125 
Q 14.796875 37.15625 21.921875 38.8125 
z
M 18.3125 54.390625 
Q 18.3125 48.734375 21.84375 45.5625 
Q 25.390625 42.390625 31.78125 42.390625 
Q 38.140625 42.390625 41.71875 45.5625 
Q 45.3125 48.734375 45.3125 54.390625 
Q 45.3125 60.0625 41.71875 63.234375 
Q 38.140625 66.40625 31.78125 66.40625 
Q 25.390625 66.40625 21.84375 63.234375 
Q 18.3125 60.0625 18.3125 54.390625 
z
" id="DejaVuSans-38"/>
      </defs>
      <g transform="translate(266.467614 263.603636)scale(0.11 -0.11)">
       <use xlink:href="#DejaVuSans-38"/>
       <use x="63.623047" xlink:href="#DejaVuSans-31"/>
      </g>
     </g>
    </g>
    <g id="xtick_6">
     <g id="line2d_7">
      <g>
       <use style="stroke:#000000;stroke-width:0.8;" x="331.304028" xlink:href="#ma3d359ff95" y="251.745354"/>
      </g>
     </g>
     <g id="text_6">
      <!-- 101 -->
      <defs>
       <path d="M 31.78125 66.40625 
Q 24.171875 66.40625 20.328125 58.90625 
Q 16.5 51.421875 16.5 36.375 
Q 16.5 21.390625 20.328125 13.890625 
Q 24.171875 6.390625 31.78125 6.390625 
Q 39.453125 6.390625 43.28125 13.890625 
Q 47.125 21.390625 47.125 36.375 
Q 47.125 51.421875 43.28125 58.90625 
Q 39.453125 66.40625 31.78125 66.40625 
z
M 31.78125 74.21875 
Q 44.046875 74.21875 50.515625 64.515625 
Q 56.984375 54.828125 56.984375 36.375 
Q 56.984375 17.96875 50.515625 8.265625 
Q 44.046875 -1.421875 31.78125 -1.421875 
Q 19.53125 -1.421875 13.0625 8.265625 
Q 6.59375 17.96875 6.59375 36.375 
Q 6.59375 54.828125 13.0625 64.515625 
Q 19.53125 74.21875 31.78125 74.21875 
z
" id="DejaVuSans-30"/>
      </defs>
      <g transform="translate(320.805903 263.603636)scale(0.11 -0.11)">
       <use xlink:href="#DejaVuSans-31"/>
       <use x="63.623047" xlink:href="#DejaVuSans-30"/>
       <use x="127.246094" xlink:href="#DejaVuSans-31"/>
      </g>
     </g>
    </g>
    <g id="xtick_7">
     <g id="line2d_8">
      <g>
       <use style="stroke:#000000;stroke-width:0.8;" x="389.141691" xlink:href="#ma3d359ff95" y="251.745354"/>
      </g>
     </g>
     <g id="text_7">
      <!-- 121 -->
      <g transform="translate(378.643566 263.603636)scale(0.11 -0.11)">
       <use xlink:href="#DejaVuSans-31"/>
       <use x="63.623047" xlink:href="#DejaVuSans-32"/>
       <use x="127.246094" xlink:href="#DejaVuSans-31"/>
      </g>
     </g>
    </g>
    <g id="text_8">
     <!-- Residue # -->
     <defs>
      <path d="M 44.390625 34.1875 
Q 47.5625 33.109375 50.5625 29.59375 
Q 53.5625 26.078125 56.59375 19.921875 
L 66.609375 0 
L 56 0 
L 46.6875 18.703125 
Q 43.0625 26.03125 39.671875 28.421875 
Q 36.28125 30.8125 30.421875 30.8125 
L 19.671875 30.8125 
L 19.671875 0 
L 9.8125 0 
L 9.8125 72.90625 
L 32.078125 72.90625 
Q 44.578125 72.90625 50.734375 67.671875 
Q 56.890625 62.453125 56.890625 51.90625 
Q 56.890625 45.015625 53.6875 40.46875 
Q 50.484375 35.9375 44.390625 34.1875 
z
M 19.671875 64.796875 
L 19.671875 38.921875 
L 32.078125 38.921875 
Q 39.203125 38.921875 42.84375 42.21875 
Q 46.484375 45.515625 46.484375 51.90625 
Q 46.484375 58.296875 42.84375 61.546875 
Q 39.203125 64.796875 32.078125 64.796875 
z
" id="DejaVuSans-52"/>
      <path d="M 56.203125 29.59375 
L 56.203125 25.203125 
L 14.890625 25.203125 
Q 15.484375 15.921875 20.484375 11.0625 
Q 25.484375 6.203125 34.421875 6.203125 
Q 39.59375 6.203125 44.453125 7.46875 
Q 49.3125 8.734375 54.109375 11.28125 
L 54.109375 2.78125 
Q 49.265625 0.734375 44.1875 -0.34375 
Q 39.109375 -1.421875 33.890625 -1.421875 
Q 20.796875 -1.421875 13.15625 6.1875 
Q 5.515625 13.8125 5.515625 26.8125 
Q 5.515625 40.234375 12.765625 48.109375 
Q 20.015625 56 32.328125 56 
Q 43.359375 56 49.78125 48.890625 
Q 56.203125 41.796875 56.203125 29.59375 
z
M 47.21875 32.234375 
Q 47.125 39.59375 43.09375 43.984375 
Q 39.0625 48.390625 32.421875 48.390625 
Q 24.90625 48.390625 20.390625 44.140625 
Q 15.875 39.890625 15.1875 32.171875 
z
" id="DejaVuSans-65"/>
      <path d="M 44.28125 53.078125 
L 44.28125 44.578125 
Q 40.484375 46.53125 36.375 47.5 
Q 32.28125 48.484375 27.875 48.484375 
Q 21.1875 48.484375 17.84375 46.4375 
Q 14.5 44.390625 14.5 40.28125 
Q 14.5 37.15625 16.890625 35.375 
Q 19.28125 33.59375 26.515625 31.984375 
L 29.59375 31.296875 
Q 39.15625 29.25 43.1875 25.515625 
Q 47.21875 21.78125 47.21875 15.09375 
Q 47.21875 7.46875 41.1875 3.015625 
Q 35.15625 -1.421875 24.609375 -1.421875 
Q 20.21875 -1.421875 15.453125 -0.5625 
Q 10.6875 0.296875 5.421875 2 
L 5.421875 11.28125 
Q 10.40625 8.6875 15.234375 7.390625 
Q 20.0625 6.109375 24.8125 6.109375 
Q 31.15625 6.109375 34.5625 8.28125 
Q 37.984375 10.453125 37.984375 14.40625 
Q 37.984375 18.0625 35.515625 20.015625 
Q 33.0625 21.96875 24.703125 23.78125 
L 21.578125 24.515625 
Q 13.234375 26.265625 9.515625 29.90625 
Q 5.8125 33.546875 5.8125 39.890625 
Q 5.8125 47.609375 11.28125 51.796875 
Q 16.75 56 26.8125 56 
Q 31.78125 56 36.171875 55.265625 
Q 40.578125 54.546875 44.28125 53.078125 
z
" id="DejaVuSans-73"/>
      <path d="M 9.421875 54.6875 
L 18.40625 54.6875 
L 18.40625 0 
L 9.421875 0 
z
M 9.421875 75.984375 
L 18.40625 75.984375 
L 18.40625 64.59375 
L 9.421875 64.59375 
z
" id="DejaVuSans-69"/>
      <path d="M 45.40625 46.390625 
L 45.40625 75.984375 
L 54.390625 75.984375 
L 54.390625 0 
L 45.40625 0 
L 45.40625 8.203125 
Q 42.578125 3.328125 38.25 0.953125 
Q 33.9375 -1.421875 27.875 -1.421875 
Q 17.96875 -1.421875 11.734375 6.484375 
Q 5.515625 14.40625 5.515625 27.296875 
Q 5.515625 40.1875 11.734375 48.09375 
Q 17.96875 56 27.875 56 
Q 33.9375 56 38.25 53.625 
Q 42.578125 51.265625 45.40625 46.390625 
z
M 14.796875 27.296875 
Q 14.796875 17.390625 18.875 11.75 
Q 22.953125 6.109375 30.078125 6.109375 
Q 37.203125 6.109375 41.296875 11.75 
Q 45.40625 17.390625 45.40625 27.296875 
Q 45.40625 37.203125 41.296875 42.84375 
Q 37.203125 48.484375 30.078125 48.484375 
Q 22.953125 48.484375 18.875 42.84375 
Q 14.796875 37.203125 14.796875 27.296875 
z
" id="DejaVuSans-64"/>
      <path d="M 8.5 21.578125 
L 8.5 54.6875 
L 17.484375 54.6875 
L 17.484375 21.921875 
Q 17.484375 14.15625 20.5 10.265625 
Q 23.53125 6.390625 29.59375 6.390625 
Q 36.859375 6.390625 41.078125 11.03125 
Q 45.3125 15.671875 45.3125 23.6875 
L 45.3125 54.6875 
L 54.296875 54.6875 
L 54.296875 0 
L 45.3125 0 
L 45.3125 8.40625 
Q 42.046875 3.421875 37.71875 1 
Q 33.40625 -1.421875 27.6875 -1.421875 
Q 18.265625 -1.421875 13.375 4.4375 
Q 8.5 10.296875 8.5 21.578125 
z
M 31.109375 56 
z
" id="DejaVuSans-75"/>
      <path id="DejaVuSans-20"/>
      <path d="M 51.125 44 
L 36.921875 44 
L 32.8125 27.6875 
L 47.125 27.6875 
z
M 43.796875 71.78125 
L 38.71875 51.515625 
L 52.984375 51.515625 
L 58.109375 71.78125 
L 65.921875 71.78125 
L 60.890625 51.515625 
L 76.125 51.515625 
L 76.125 44 
L 58.984375 44 
L 54.984375 27.6875 
L 70.515625 27.6875 
L 70.515625 20.21875 
L 53.078125 20.21875 
L 48 0 
L 40.1875 0 
L 45.21875 20.21875 
L 30.90625 20.21875 
L 25.875 0 
L 18.015625 0 
L 23.09375 20.21875 
L 7.71875 20.21875 
L 7.71875 27.6875 
L 24.90625 27.6875 
L 29 44 
L 13.28125 44 
L 13.28125 51.515625 
L 30.90625 51.515625 
L 35.890625 71.78125 
z
" id="DejaVuSans-23"/>
     </defs>
     <g transform="translate(191.79625 282.048792)scale(0.16 -0.16)">
      <use xlink:href="#DejaVuSans-52"/>
      <use x="69.419922" xlink:href="#DejaVuSans-65"/>
      <use x="130.943359" xlink:href="#DejaVuSans-73"/>
      <use x="183.042969" xlink:href="#DejaVuSans-69"/>
      <use x="210.826172" xlink:href="#DejaVuSans-64"/>
      <use x="274.302734" xlink:href="#DejaVuSans-75"/>
      <use x="337.681641" xlink:href="#DejaVuSans-65"/>
      <use x="399.205078" xlink:href="#DejaVuSans-20"/>
      <use x="430.992188" xlink:href="#DejaVuSans-23"/>
     </g>
    </g>
   </g>
   <g id="matplotlib.axis_2">
    <g id="ytick_1">
     <g id="line2d_9">
      <defs>
       <path d="M 0 0 
L 3.5 0 
" id="m090c428582" style="stroke:#000000;stroke-width:0.8;"/>
      </defs>
      <g>
       <use style="stroke:#000000;stroke-width:0.8;" x="36.794646" xlink:href="#m090c428582" y="251.745354"/>
      </g>
     </g>
     <g id="text_9">
      <!-- 0 -->
      <g transform="translate(26.295896 255.924495)scale(0.11 -0.11)">
       <use xlink:href="#DejaVuSans-30"/>
      </g>
     </g>
    </g>
    <g id="ytick_2">
     <g id="line2d_10">
      <g>
       <use style="stroke:#000000;stroke-width:0.8;" x="36.794646" xlink:href="#m090c428582" y="186.242536"/>
      </g>
     </g>
     <g id="text_10">
      <!-- 1 -->
      <g transform="translate(26.295896 190.421677)scale(0.11 -0.11)">
       <use xlink:href="#DejaVuSans-31"/>
      </g>
     </g>
    </g>
    <g id="ytick_3">
     <g id="line2d_11">
      <g>
       <use style="stroke:#000000;stroke-width:0.8;" x="36.794646" xlink:href="#m090c428582" y="120.739718"/>
      </g>
     </g>
     <g id="text_11">
      <!-- 2 -->
      <g transform="translate(26.295896 124.918859)scale(0.11 -0.11)">
       <use xlink:href="#DejaVuSans-32"/>
      </g>
     </g>
    </g>
    <g id="ytick_4">
     <g id="line2d_12">
      <g>
       <use style="stroke:#000000;stroke-width:0.8;" x="36.794646" xlink:href="#m090c428582" y="55.2369"/>
      </g>
     </g>
     <g id="text_12">
      <!-- 3 -->
      <defs>
       <path d="M 40.578125 39.3125 
Q 47.65625 37.796875 51.625 33 
Q 55.609375 28.21875 55.609375 21.1875 
Q 55.609375 10.40625 48.1875 4.484375 
Q 40.765625 -1.421875 27.09375 -1.421875 
Q 22.515625 -1.421875 17.65625 -0.515625 
Q 12.796875 0.390625 7.625 2.203125 
L 7.625 11.71875 
Q 11.71875 9.328125 16.59375 8.109375 
Q 21.484375 6.890625 26.8125 6.890625 
Q 36.078125 6.890625 40.9375 10.546875 
Q 45.796875 14.203125 45.796875 21.1875 
Q 45.796875 27.640625 41.28125 31.265625 
Q 36.765625 34.90625 28.71875 34.90625 
L 20.21875 34.90625 
L 20.21875 43.015625 
L 29.109375 43.015625 
Q 36.375 43.015625 40.234375 45.921875 
Q 44.09375 48.828125 44.09375 54.296875 
Q 44.09375 59.90625 40.109375 62.90625 
Q 36.140625 65.921875 28.71875 65.921875 
Q 24.65625 65.921875 20.015625 65.03125 
Q 15.375 64.15625 9.8125 62.3125 
L 9.8125 71.09375 
Q 15.4375 72.65625 20.34375 73.4375 
Q 25.25 74.21875 29.59375 74.21875 
Q 40.828125 74.21875 47.359375 69.109375 
Q 53.90625 64.015625 53.90625 55.328125 
Q 53.90625 49.265625 50.4375 45.09375 
Q 46.96875 40.921875 40.578125 39.3125 
z
" id="DejaVuSans-33"/>
      </defs>
      <g transform="translate(26.295896 59.416041)scale(0.11 -0.11)">
       <use xlink:href="#DejaVuSans-33"/>
      </g>
     </g>
    </g>
    <g id="text_13">
     <!-- Fluctuation $[\AA]$ -->
     <defs>
      <path d="M 9.8125 72.90625 
L 51.703125 72.90625 
L 51.703125 64.59375 
L 19.671875 64.59375 
L 19.671875 43.109375 
L 48.578125 43.109375 
L 48.578125 34.8125 
L 19.671875 34.8125 
L 19.671875 0 
L 9.8125 0 
z
" id="DejaVuSans-46"/>
      <path d="M 9.421875 75.984375 
L 18.40625 75.984375 
L 18.40625 0 
L 9.421875 0 
z
" id="DejaVuSans-6c"/>
      <path d="M 48.78125 52.59375 
L 48.78125 44.1875 
Q 44.96875 46.296875 41.140625 47.34375 
Q 37.3125 48.390625 33.40625 48.390625 
Q 24.65625 48.390625 19.8125 42.84375 
Q 14.984375 37.3125 14.984375 27.296875 
Q 14.984375 17.28125 19.8125 11.734375 
Q 24.65625 6.203125 33.40625 6.203125 
Q 37.3125 6.203125 41.140625 7.25 
Q 44.96875 8.296875 48.78125 10.40625 
L 48.78125 2.09375 
Q 45.015625 0.34375 40.984375 -0.53125 
Q 36.96875 -1.421875 32.421875 -1.421875 
Q 20.0625 -1.421875 12.78125 6.34375 
Q 5.515625 14.109375 5.515625 27.296875 
Q 5.515625 40.671875 12.859375 48.328125 
Q 20.21875 56 33.015625 56 
Q 37.15625 56 41.109375 55.140625 
Q 45.0625 54.296875 48.78125 52.59375 
z
" id="DejaVuSans-63"/>
      <path d="M 18.3125 70.21875 
L 18.3125 54.6875 
L 36.8125 54.6875 
L 36.8125 47.703125 
L 18.3125 47.703125 
L 18.3125 18.015625 
Q 18.3125 11.328125 20.140625 9.421875 
Q 21.96875 7.515625 27.59375 7.515625 
L 36.8125 7.515625 
L 36.8125 0 
L 27.59375 0 
Q 17.1875 0 13.234375 3.875 
Q 9.28125 7.765625 9.28125 18.015625 
L 9.28125 47.703125 
L 2.6875 47.703125 
L 2.6875 54.6875 
L 9.28125 54.6875 
L 9.28125 70.21875 
z
" id="DejaVuSans-74"/>
      <path d="M 34.28125 27.484375 
Q 23.390625 27.484375 19.1875 25 
Q 14.984375 22.515625 14.984375 16.5 
Q 14.984375 11.71875 18.140625 8.90625 
Q 21.296875 6.109375 26.703125 6.109375 
Q 34.1875 6.109375 38.703125 11.40625 
Q 43.21875 16.703125 43.21875 25.484375 
L 43.21875 27.484375 
z
M 52.203125 31.203125 
L 52.203125 0 
L 43.21875 0 
L 43.21875 8.296875 
Q 40.140625 3.328125 35.546875 0.953125 
Q 30.953125 -1.421875 24.3125 -1.421875 
Q 15.921875 -1.421875 10.953125 3.296875 
Q 6 8.015625 6 15.921875 
Q 6 25.140625 12.171875 29.828125 
Q 18.359375 34.515625 30.609375 34.515625 
L 43.21875 34.515625 
L 43.21875 35.40625 
Q 43.21875 41.609375 39.140625 45 
Q 35.0625 48.390625 27.6875 48.390625 
Q 23 48.390625 18.546875 47.265625 
Q 14.109375 46.140625 10.015625 43.890625 
L 10.015625 52.203125 
Q 14.9375 54.109375 19.578125 55.046875 
Q 24.21875 56 28.609375 56 
Q 40.484375 56 46.34375 49.84375 
Q 52.203125 43.703125 52.203125 31.203125 
z
" id="DejaVuSans-61"/>
      <path d="M 30.609375 48.390625 
Q 23.390625 48.390625 19.1875 42.75 
Q 14.984375 37.109375 14.984375 27.296875 
Q 14.984375 17.484375 19.15625 11.84375 
Q 23.34375 6.203125 30.609375 6.203125 
Q 37.796875 6.203125 41.984375 11.859375 
Q 46.1875 17.53125 46.1875 27.296875 
Q 46.1875 37.015625 41.984375 42.703125 
Q 37.796875 48.390625 30.609375 48.390625 
z
M 30.609375 56 
Q 42.328125 56 49.015625 48.375 
Q 55.71875 40.765625 55.71875 27.296875 
Q 55.71875 13.875 49.015625 6.21875 
Q 42.328125 -1.421875 30.609375 -1.421875 
Q 18.84375 -1.421875 12.171875 6.21875 
Q 5.515625 13.875 5.515625 27.296875 
Q 5.515625 40.765625 12.171875 48.375 
Q 18.84375 56 30.609375 56 
z
" id="DejaVuSans-6f"/>
      <path d="M 54.890625 33.015625 
L 54.890625 0 
L 45.90625 0 
L 45.90625 32.71875 
Q 45.90625 40.484375 42.875 44.328125 
Q 39.84375 48.1875 33.796875 48.1875 
Q 26.515625 48.1875 22.3125 43.546875 
Q 18.109375 38.921875 18.109375 30.90625 
L 18.109375 0 
L 9.078125 0 
L 9.078125 54.6875 
L 18.109375 54.6875 
L 18.109375 46.1875 
Q 21.34375 51.125 25.703125 53.5625 
Q 30.078125 56 35.796875 56 
Q 45.21875 56 50.046875 50.171875 
Q 54.890625 44.34375 54.890625 33.015625 
z
" id="DejaVuSans-6e"/>
      <path d="M 8.59375 75.984375 
L 29.296875 75.984375 
L 29.296875 69 
L 17.578125 69 
L 17.578125 -6.203125 
L 29.296875 -6.203125 
L 29.296875 -13.1875 
L 8.59375 -13.1875 
z
" id="DejaVuSans-5b"/>
      <path d="M 49.8125 79.390625 
Q 49.8125 82.46875 47.625 84.640625 
Q 45.453125 86.8125 42.390625 86.8125 
Q 39.265625 86.8125 37.140625 84.6875 
Q 35.015625 82.5625 35.015625 79.390625 
Q 35.015625 76.3125 37.140625 74.15625 
Q 39.265625 72.015625 42.390625 72.015625 
Q 45.453125 72.015625 47.625 74.15625 
Q 49.8125 76.3125 49.8125 79.390625 
z
M 34.421875 68.703125 
Q 31.78125 70.515625 30.390625 73.265625 
Q 29 76.03125 29 79.390625 
Q 29 84.96875 32.90625 88.890625 
Q 36.8125 92.828125 42.390625 92.828125 
Q 47.953125 92.828125 51.875 88.890625 
Q 55.8125 84.96875 55.8125 79.390625 
Q 55.8125 75.53125 54.03125 72.546875 
Q 52.25 69.578125 48.875 67.828125 
L 61.53125 0 
L 51.21875 0 
L 48.1875 18.703125 
L 15.375 18.703125 
L 5.078125 0 
L -5.328125 0 
z
M 40.375 63.1875 
L 19.921875 26.90625 
L 46.6875 26.90625 
z
" id="DejaVuSans-Oblique-c5"/>
      <path d="M 30.421875 75.984375 
L 30.421875 -13.1875 
L 9.71875 -13.1875 
L 9.71875 -6.203125 
L 21.390625 -6.203125 
L 21.390625 69 
L 9.71875 69 
L 9.71875 75.984375 
z
" id="DejaVuSans-5d"/>
     </defs>
     <g transform="translate(18.968396 186.33)rotate(-90)scale(0.16 -0.16)">
      <use transform="translate(0 0.171875)" xlink:href="#DejaVuSans-46"/>
      <use transform="translate(57.519531 0.171875)" xlink:href="#DejaVuSans-6c"/>
      <use transform="translate(85.302734 0.171875)" xlink:href="#DejaVuSans-75"/>
      <use transform="translate(148.681641 0.171875)" xlink:href="#DejaVuSans-63"/>
      <use transform="translate(203.662109 0.171875)" xlink:href="#DejaVuSans-74"/>
      <use transform="translate(242.871094 0.171875)" xlink:href="#DejaVuSans-75"/>
      <use transform="translate(306.25 0.171875)" xlink:href="#DejaVuSans-61"/>
      <use transform="translate(367.529297 0.171875)" xlink:href="#DejaVuSans-74"/>
      <use transform="translate(406.738281 0.171875)" xlink:href="#DejaVuSans-69"/>
      <use transform="translate(434.521484 0.171875)" xlink:href="#DejaVuSans-6f"/>
      <use transform="translate(495.703125 0.171875)" xlink:href="#DejaVuSans-6e"/>
      <use transform="translate(559.082031 0.171875)" xlink:href="#DejaVuSans-20"/>
      <use transform="translate(590.869141 0.171875)" xlink:href="#DejaVuSans-5b"/>
      <use transform="translate(629.882812 0.171875)" xlink:href="#DejaVuSans-Oblique-c5"/>
      <use transform="translate(698.291016 0.171875)" xlink:href="#DejaVuSans-5d"/>
     </g>
    </g>
   </g>
   <g id="line2d_13">
    <path clip-path="url(#pa694875160)" d="M 59.46701 221.135887 
L 62.358893 223.723249 
L 65.250776 219.373862 
L 68.142659 219.478666 
L 71.034542 220.304002 
L 73.926426 221.961223 
L 76.818309 221.148988 
L 79.710192 222.373891 
L 82.602075 211.710032 
L 85.493958 211.408719 
L 88.385841 217.146766 
L 91.277725 213.52446 
L 94.169608 207.629206 
L 97.061491 204.105155 
L 99.953374 196.683685 
L 102.845257 189.281867 
L 105.73714 191.554815 
L 108.629024 174.091764 
L 111.520907 173.973858 
L 114.41279 165.727054 
L 117.304673 180.307981 
L 120.196556 195.452232 
L 123.088439 180.360383 
L 125.980323 180.890956 
L 128.872206 197.640027 
L 131.764089 195.989356 
L 134.655972 201.478492 
L 137.547855 216.963358 
L 140.439739 212.627071 
L 143.331622 219.544169 
L 146.223505 216.956808 
L 149.115388 213.648915 
L 152.007271 215.404391 
L 154.899154 215.587799 
L 157.791038 207.472 
L 160.682921 205.664122 
L 163.574804 193.087581 
L 166.466687 180.301431 
L 169.35857 198.963184 
L 172.250453 213.124893 
L 175.142337 218.306166 
L 178.03422 213.720968 
L 180.926103 214.487351 
L 183.817986 212.345409 
L 186.709869 212.502616 
L 189.601752 211.461121 
L 192.493636 211.330116 
L 195.385519 201.740503 
L 198.277402 181.519783 
L 201.169285 181.716292 
L 204.061168 190.107203 
L 206.953051 193.624704 
L 209.844935 205.474164 
L 212.736818 208.041874 
L 215.628701 212.528817 
L 218.520584 215.718804 
L 221.412467 218.070356 
L 224.30435 219.956837 
L 227.196234 215.135829 
L 230.088117 212.948035 
L 232.98 214.664209 
L 235.871883 215.057226 
L 238.763766 207.183787 
L 241.65565 210.707839 
L 244.547533 206.358452 
L 247.439416 196.126912 
L 250.331299 175.893091 
L 253.223182 163.231396 
L 256.115065 168.831887 
L 259.006949 192.078837 
L 261.898832 203.404275 
L 264.790715 208.6445 
L 267.682598 215.600899 
L 270.574481 198.085446 
L 273.466364 219.878233 
L 276.358248 224.640288 
L 279.250131 222.334589 
L 282.142014 210.642336 
L 285.033897 189.982747 
L 287.92578 163.77507 
L 290.817663 167.561133 
L 293.709547 205.041845 
L 296.60143 220.72977 
L 299.493313 222.701405 
L 302.385196 210.49823 
L 305.277079 213.236248 
L 308.168962 212.902183 
L 311.060846 213.177295 
L 313.952729 203.954498 
L 316.844612 185.86262 
L 319.736495 164.973771 
L 322.628378 168.720532 
L 325.520261 193.369243 
L 328.412145 201.930461 
L 331.304028 209.817 
L 334.195911 213.891276 
L 337.087794 217.23847 
L 339.979677 216.930607 
L 342.871561 221.65336 
L 345.763444 218.155509 
L 348.655327 217.00921 
L 351.54721 208.068075 
L 354.439093 193.31029 
L 357.330976 183.334211 
L 360.22286 194.68585 
L 363.114743 217.788693 
L 366.006626 223.068221 
L 368.898509 221.771265 
L 371.790392 222.871712 
L 374.682275 224.502732 
L 377.574159 219.432814 
L 380.466042 219.242856 
L 383.357925 214.749363 
L 386.249808 203.175015 
L 389.141691 190.198906 
L 392.033574 215.122729 
L 394.925458 219.000496 
L 397.817341 225.62283 
L 400.709224 225.125009 
L 403.601107 225.465624 
" style="fill:none;stroke:#ff0000;stroke-linecap:round;"/>
   </g>
   <g id="patch_3">
    <path d="M 36.794646 251.745354 
L 36.794646 2.834646 
" style="fill:none;stroke:#000000;stroke-linecap:square;stroke-linejoin:miter;"/>
   </g>
   <g id="patch_4">
    <path d="M 36.794646 251.745354 
L 429.165354 251.745354 
" style="fill:none;stroke:#000000;stroke-linecap:square;stroke-linejoin:miter;"/>
   </g>
   <g id="line2d_14">
    <path clip-path="url(#pa694875160)" d="M 76.818309 232.094509 
L 79.710192 232.094509 
L 82.602075 232.094509 
L 85.493958 232.094509 
L 88.385841 232.094509 
L 91.277725 232.094509 
L 94.169608 232.094509 
L 97.061491 232.094509 
L 99.953374 232.094509 
" style="fill:none;stroke:#8a2be2;stroke-linecap:round;stroke-width:5;"/>
   </g>
   <g id="line2d_15">
    <path clip-path="url(#pa694875160)" d="M 108.629024 232.094509 
L 111.520907 232.094509 
L 114.41279 232.094509 
L 117.304673 232.094509 
L 120.196556 232.094509 
L 123.088439 232.094509 
L 125.980323 232.094509 
L 128.872206 232.094509 
L 131.764089 232.094509 
L 134.655972 232.094509 
" style="fill:none;stroke:#8a2be2;stroke-linecap:round;stroke-width:5;"/>
   </g>
   <g id="PathCollection_1">
    <defs>
     <path d="M 0 0.5 
C 0.132602 0.5 0.25979 0.447317 0.353553 0.353553 
C 0.447317 0.25979 0.5 0.132602 0.5 0 
C 0.5 -0.132602 0.447317 -0.25979 0.353553 -0.353553 
C 0.25979 -0.447317 0.132602 -0.5 0 -0.5 
C -0.132602 -0.5 -0.25979 -0.447317 -0.353553 -0.353553 
C -0.447317 -0.25979 -0.5 -0.132602 -0.5 0 
C -0.5 0.132602 -0.447317 0.25979 -0.353553 0.353553 
C -0.25979 0.447317 -0.132602 0.5 0 0.5 
z
" id="m857ae0ec71" style="stroke:#000000;"/>
    </defs>
    <g clip-path="url(#pa694875160)">
     <use style="fill:#ac8e18;stroke:#000000;" x="47.899477" xlink:href="#m857ae0ec71" y="232.094509"/>
     <use style="fill:#ac8e18;stroke:#000000;" x="50.79136" xlink:href="#m857ae0ec71" y="232.094509"/>
     <use style="fill:#ac8e18;stroke:#000000;" x="53.683243" xlink:href="#m857ae0ec71" y="232.094509"/>
     <use style="fill:#ac8e18;stroke:#000000;" x="56.575127" xlink:href="#m857ae0ec71" y="232.094509"/>
     <use style="fill:#ac8e18;stroke:#000000;" x="59.46701" xlink:href="#m857ae0ec71" y="232.094509"/>
     <use style="fill:#ac8e18;stroke:#000000;" x="62.358893" xlink:href="#m857ae0ec71" y="232.094509"/>
     <use style="fill:#ac8e18;stroke:#000000;" x="65.250776" xlink:href="#m857ae0ec71" y="232.094509"/>
     <use style="fill:#ac8e18;stroke:#000000;" x="68.142659" xlink:href="#m857ae0ec71" y="232.094509"/>
     <use style="fill:#ac8e18;stroke:#000000;" x="71.034542" xlink:href="#m857ae0ec71" y="232.094509"/>
     <use style="fill:#ac8e18;stroke:#000000;" x="73.926426" xlink:href="#m857ae0ec71" y="232.094509"/>
    </g>
   </g>
   <g id="PathCollection_2">
    <defs>
     <path d="M 0 0.5 
C 0.132602 0.5 0.25979 0.447317 0.353553 0.353553 
C 0.447317 0.25979 0.5 0.132602 0.5 0 
C 0.5 -0.132602 0.447317 -0.25979 0.353553 -0.353553 
C 0.25979 -0.447317 0.132602 -0.5 0 -0.5 
C -0.132602 -0.5 -0.25979 -0.447317 -0.353553 -0.353553 
C -0.447317 -0.25979 -0.5 -0.132602 -0.5 0 
C -0.5 0.132602 -0.447317 0.25979 -0.353553 0.353553 
C -0.25979 0.447317 -0.132602 0.5 0 0.5 
z
" id="ma9901d5363" style="stroke:#000000;"/>
    </defs>
    <g clip-path="url(#pa694875160)">
     <use style="fill:#00aaae;stroke:#000000;" x="137.547855" xlink:href="#ma9901d5363" y="232.094509"/>
     <use style="fill:#00aaae;stroke:#000000;" x="140.439739" xlink:href="#ma9901d5363" y="232.094509"/>
     <use style="fill:#00aaae;stroke:#000000;" x="143.331622" xlink:href="#ma9901d5363" y="232.094509"/>
     <use style="fill:#00aaae;stroke:#000000;" x="146.223505" xlink:href="#ma9901d5363" y="232.094509"/>
     <use style="fill:#00aaae;stroke:#000000;" x="149.115388" xlink:href="#ma9901d5363" y="232.094509"/>
     <use style="fill:#00aaae;stroke:#000000;" x="152.007271" xlink:href="#ma9901d5363" y="232.094509"/>
     <use style="fill:#00aaae;stroke:#000000;" x="154.899154" xlink:href="#ma9901d5363" y="232.094509"/>
     <use style="fill:#00aaae;stroke:#000000;" x="157.791038" xlink:href="#ma9901d5363" y="232.094509"/>
     <use style="fill:#00aaae;stroke:#000000;" x="160.682921" xlink:href="#ma9901d5363" y="232.094509"/>
     <use style="fill:#00aaae;stroke:#000000;" x="163.574804" xlink:href="#ma9901d5363" y="232.094509"/>
    </g>
   </g>
   <g id="PathCollection_3">
    <defs>
     <path d="M 0 0.5 
C 0.132602 0.5 0.25979 0.447317 0.353553 0.353553 
C 0.447317 0.25979 0.5 0.132602 0.5 0 
C 0.5 -0.132602 0.447317 -0.25979 0.353553 -0.353553 
C 0.25979 -0.447317 0.132602 -0.5 0 -0.5 
C -0.132602 -0.5 -0.25979 -0.447317 -0.353553 -0.353553 
C -0.447317 -0.25979 -0.5 -0.132602 -0.5 0 
C -0.5 0.132602 -0.447317 0.25979 -0.353553 0.353553 
C -0.25979 0.447317 -0.132602 0.5 0 0.5 
z
" id="ma102d0dbb8" style="stroke:#000000;"/>
    </defs>
    <g clip-path="url(#pa694875160)">
     <use style="fill:#ed5e93;stroke:#000000;" x="172.250453" xlink:href="#ma102d0dbb8" y="232.094509"/>
     <use style="fill:#ed5e93;stroke:#000000;" x="175.142337" xlink:href="#ma102d0dbb8" y="232.094509"/>
     <use style="fill:#ed5e93;stroke:#000000;" x="178.03422" xlink:href="#ma102d0dbb8" y="232.094509"/>
     <use style="fill:#ed5e93;stroke:#000000;" x="180.926103" xlink:href="#ma102d0dbb8" y="232.094509"/>
     <use style="fill:#ed5e93;stroke:#000000;" x="183.817986" xlink:href="#ma102d0dbb8" y="232.094509"/>
     <use style="fill:#ed5e93;stroke:#000000;" x="186.709869" xlink:href="#ma102d0dbb8" y="232.094509"/>
     <use style="fill:#ed5e93;stroke:#000000;" x="189.601752" xlink:href="#ma102d0dbb8" y="232.094509"/>
     <use style="fill:#ed5e93;stroke:#000000;" x="192.493636" xlink:href="#ma102d0dbb8" y="232.094509"/>
    </g>
   </g>
   <g id="PathCollection_4">
    <defs>
     <path d="M 0 0.5 
C 0.132602 0.5 0.25979 0.447317 0.353553 0.353553 
C 0.447317 0.25979 0.5 0.132602 0.5 0 
C 0.5 -0.132602 0.447317 -0.25979 0.353553 -0.353553 
C 0.25979 -0.447317 0.132602 -0.5 0 -0.5 
C -0.132602 -0.5 -0.25979 -0.447317 -0.353553 -0.353553 
C -0.447317 -0.25979 -0.5 -0.132602 -0.5 0 
C -0.5 0.132602 -0.447317 0.25979 -0.353553 0.353553 
C -0.25979 0.447317 -0.132602 0.5 0 0.5 
z
" id="meb119b7390" style="stroke:#000000;"/>
    </defs>
    <g clip-path="url(#pa694875160)">
     <use style="fill:#c68225;stroke:#000000;" x="198.277402" xlink:href="#meb119b7390" y="232.094509"/>
     <use style="fill:#c68225;stroke:#000000;" x="201.169285" xlink:href="#meb119b7390" y="232.094509"/>
     <use style="fill:#c68225;stroke:#000000;" x="204.061168" xlink:href="#meb119b7390" y="232.094509"/>
     <use style="fill:#c68225;stroke:#000000;" x="206.953051" xlink:href="#meb119b7390" y="232.094509"/>
     <use style="fill:#c68225;stroke:#000000;" x="209.844935" xlink:href="#meb119b7390" y="232.094509"/>
     <use style="fill:#c68225;stroke:#000000;" x="212.736818" xlink:href="#meb119b7390" y="232.094509"/>
     <use style="fill:#c68225;stroke:#000000;" x="215.628701" xlink:href="#meb119b7390" y="232.094509"/>
     <use style="fill:#c68225;stroke:#000000;" x="218.520584" xlink:href="#meb119b7390" y="232.094509"/>
     <use style="fill:#c68225;stroke:#000000;" x="221.412467" xlink:href="#meb119b7390" y="232.094509"/>
    </g>
   </g>
   <g id="PathCollection_5">
    <defs>
     <path d="M 0 0.5 
C 0.132602 0.5 0.25979 0.447317 0.353553 0.353553 
C 0.447317 0.25979 0.5 0.132602 0.5 0 
C 0.5 -0.132602 0.447317 -0.25979 0.353553 -0.353553 
C 0.25979 -0.447317 0.132602 -0.5 0 -0.5 
C -0.132602 -0.5 -0.25979 -0.447317 -0.353553 -0.353553 
C -0.447317 -0.25979 -0.5 -0.132602 -0.5 0 
C -0.5 0.132602 -0.447317 0.25979 -0.353553 0.353553 
C -0.25979 0.447317 -0.132602 0.5 0 0.5 
z
" id="md7a5bcccb3" style="stroke:#000000;"/>
    </defs>
    <g clip-path="url(#pa694875160)">
     <use style="fill:#00a98d;stroke:#000000;" x="232.98" xlink:href="#md7a5bcccb3" y="232.094509"/>
     <use style="fill:#00a98d;stroke:#000000;" x="235.871883" xlink:href="#md7a5bcccb3" y="232.094509"/>
     <use style="fill:#00a98d;stroke:#000000;" x="238.763766" xlink:href="#md7a5bcccb3" y="232.094509"/>
     <use style="fill:#00a98d;stroke:#000000;" x="241.65565" xlink:href="#md7a5bcccb3" y="232.094509"/>
     <use style="fill:#00a98d;stroke:#000000;" x="244.547533" xlink:href="#md7a5bcccb3" y="232.094509"/>
     <use style="fill:#00a98d;stroke:#000000;" x="247.439416" xlink:href="#md7a5bcccb3" y="232.094509"/>
     <use style="fill:#00a98d;stroke:#000000;" x="250.331299" xlink:href="#md7a5bcccb3" y="232.094509"/>
    </g>
   </g>
   <g id="PathCollection_6">
    <defs>
     <path d="M 0 0.5 
C 0.132602 0.5 0.25979 0.447317 0.353553 0.353553 
C 0.447317 0.25979 0.5 0.132602 0.5 0 
C 0.5 -0.132602 0.447317 -0.25979 0.353553 -0.353553 
C 0.25979 -0.447317 0.132602 -0.5 0 -0.5 
C -0.132602 -0.5 -0.25979 -0.447317 -0.353553 -0.353553 
C -0.447317 -0.25979 -0.5 -0.132602 -0.5 0 
C -0.5 0.132602 -0.447317 0.25979 -0.353553 0.353553 
C -0.25979 0.447317 -0.132602 0.5 0 0.5 
z
" id="m1923787f38" style="stroke:#000000;"/>
    </defs>
    <g clip-path="url(#pa694875160)">
     <use style="fill:#8e971e;stroke:#000000;" x="256.115065" xlink:href="#m1923787f38" y="232.094509"/>
     <use style="fill:#8e971e;stroke:#000000;" x="259.006949" xlink:href="#m1923787f38" y="232.094509"/>
     <use style="fill:#8e971e;stroke:#000000;" x="261.898832" xlink:href="#m1923787f38" y="232.094509"/>
     <use style="fill:#8e971e;stroke:#000000;" x="264.790715" xlink:href="#m1923787f38" y="232.094509"/>
     <use style="fill:#8e971e;stroke:#000000;" x="267.682598" xlink:href="#m1923787f38" y="232.094509"/>
     <use style="fill:#8e971e;stroke:#000000;" x="270.574481" xlink:href="#m1923787f38" y="232.094509"/>
    </g>
   </g>
   <g id="PathCollection_7">
    <defs>
     <path d="M 0 0.5 
C 0.132602 0.5 0.25979 0.447317 0.353553 0.353553 
C 0.447317 0.25979 0.5 0.132602 0.5 0 
C 0.5 -0.132602 0.447317 -0.25979 0.353553 -0.353553 
C 0.25979 -0.447317 0.132602 -0.5 0 -0.5 
C -0.132602 -0.5 -0.25979 -0.447317 -0.353553 -0.353553 
C -0.447317 -0.25979 -0.5 -0.132602 -0.5 0 
C -0.5 0.132602 -0.447317 0.25979 -0.353553 0.353553 
C -0.25979 0.447317 -0.132602 0.5 0 0.5 
z
" id="m066c73e370" style="stroke:#000000;"/>
    </defs>
    <g clip-path="url(#pa694875160)">
     <use style="fill:#00a9cc;stroke:#000000;" x="273.466364" xlink:href="#m066c73e370" y="232.094509"/>
     <use style="fill:#00a9cc;stroke:#000000;" x="276.358248" xlink:href="#m066c73e370" y="232.094509"/>
     <use style="fill:#00a9cc;stroke:#000000;" x="279.250131" xlink:href="#m066c73e370" y="232.094509"/>
     <use style="fill:#00a9cc;stroke:#000000;" x="282.142014" xlink:href="#m066c73e370" y="232.094509"/>
     <use style="fill:#00a9cc;stroke:#000000;" x="285.033897" xlink:href="#m066c73e370" y="232.094509"/>
    </g>
   </g>
   <g id="PathCollection_8">
    <defs>
     <path d="M 0 0.5 
C 0.132602 0.5 0.25979 0.447317 0.353553 0.353553 
C 0.447317 0.25979 0.5 0.132602 0.5 0 
C 0.5 -0.132602 0.447317 -0.25979 0.353553 -0.353553 
C 0.25979 -0.447317 0.132602 -0.5 0 -0.5 
C -0.132602 -0.5 -0.25979 -0.447317 -0.353553 -0.353553 
C -0.447317 -0.25979 -0.5 -0.132602 -0.5 0 
C -0.5 0.132602 -0.447317 0.25979 -0.353553 0.353553 
C -0.25979 0.447317 -0.132602 0.5 0 0.5 
z
" id="m49cd987eae" style="stroke:#000000;"/>
    </defs>
    <g clip-path="url(#pa694875160)">
     <use style="fill:#9b7fe9;stroke:#000000;" x="293.709547" xlink:href="#m49cd987eae" y="232.094509"/>
     <use style="fill:#9b7fe9;stroke:#000000;" x="296.60143" xlink:href="#m49cd987eae" y="232.094509"/>
     <use style="fill:#9b7fe9;stroke:#000000;" x="299.493313" xlink:href="#m49cd987eae" y="232.094509"/>
     <use style="fill:#9b7fe9;stroke:#000000;" x="302.385196" xlink:href="#m49cd987eae" y="232.094509"/>
     <use style="fill:#9b7fe9;stroke:#000000;" x="305.277079" xlink:href="#m49cd987eae" y="232.094509"/>
     <use style="fill:#9b7fe9;stroke:#000000;" x="308.168962" xlink:href="#m49cd987eae" y="232.094509"/>
     <use style="fill:#9b7fe9;stroke:#000000;" x="311.060846" xlink:href="#m49cd987eae" y="232.094509"/>
     <use style="fill:#9b7fe9;stroke:#000000;" x="313.952729" xlink:href="#m49cd987eae" y="232.094509"/>
     <use style="fill:#9b7fe9;stroke:#000000;" x="316.844612" xlink:href="#m49cd987eae" y="232.094509"/>
    </g>
   </g>
   <g id="PathCollection_9">
    <defs>
     <path d="M 0 0.5 
C 0.132602 0.5 0.25979 0.447317 0.353553 0.353553 
C 0.447317 0.25979 0.5 0.132602 0.5 0 
C 0.5 -0.132602 0.447317 -0.25979 0.353553 -0.353553 
C 0.25979 -0.447317 0.132602 -0.5 0 -0.5 
C -0.132602 -0.5 -0.25979 -0.447317 -0.353553 -0.353553 
C -0.447317 -0.25979 -0.5 -0.132602 -0.5 0 
C -0.5 0.132602 -0.447317 0.25979 -0.353553 0.353553 
C -0.25979 0.447317 -0.132602 0.5 0 0.5 
z
" id="mbceca71abc" style="stroke:#000000;"/>
    </defs>
    <g clip-path="url(#pa694875160)">
     <use style="fill:#618df6;stroke:#000000;" x="328.412145" xlink:href="#mbceca71abc" y="232.094509"/>
     <use style="fill:#618df6;stroke:#000000;" x="331.304028" xlink:href="#mbceca71abc" y="232.094509"/>
     <use style="fill:#618df6;stroke:#000000;" x="334.195911" xlink:href="#mbceca71abc" y="232.094509"/>
     <use style="fill:#618df6;stroke:#000000;" x="337.087794" xlink:href="#mbceca71abc" y="232.094509"/>
     <use style="fill:#618df6;stroke:#000000;" x="339.979677" xlink:href="#mbceca71abc" y="232.094509"/>
     <use style="fill:#618df6;stroke:#000000;" x="342.871561" xlink:href="#mbceca71abc" y="232.094509"/>
     <use style="fill:#618df6;stroke:#000000;" x="345.763444" xlink:href="#mbceca71abc" y="232.094509"/>
     <use style="fill:#618df6;stroke:#000000;" x="348.655327" xlink:href="#mbceca71abc" y="232.094509"/>
     <use style="fill:#618df6;stroke:#000000;" x="351.54721" xlink:href="#mbceca71abc" y="232.094509"/>
     <use style="fill:#618df6;stroke:#000000;" x="354.439093" xlink:href="#mbceca71abc" y="232.094509"/>
    </g>
   </g>
   <g id="PathCollection_10">
    <defs>
     <path d="M 0 0.5 
C 0.132602 0.5 0.25979 0.447317 0.353553 0.353553 
C 0.447317 0.25979 0.5 0.132602 0.5 0 
C 0.5 -0.132602 0.447317 -0.25979 0.353553 -0.353553 
C 0.25979 -0.447317 0.132602 -0.5 0 -0.5 
C -0.132602 -0.5 -0.25979 -0.447317 -0.353553 -0.353553 
C -0.447317 -0.25979 -0.5 -0.132602 -0.5 0 
C -0.5 0.132602 -0.447317 0.25979 -0.353553 0.353553 
C -0.25979 0.447317 -0.132602 0.5 0 0.5 
z
" id="m6eddb18c9a" style="stroke:#000000;"/>
    </defs>
    <g clip-path="url(#pa694875160)">
     <use style="fill:#f06073;stroke:#000000;" x="360.22286" xlink:href="#m6eddb18c9a" y="232.094509"/>
     <use style="fill:#f06073;stroke:#000000;" x="363.114743" xlink:href="#m6eddb18c9a" y="232.094509"/>
     <use style="fill:#f06073;stroke:#000000;" x="366.006626" xlink:href="#m6eddb18c9a" y="232.094509"/>
     <use style="fill:#f06073;stroke:#000000;" x="368.898509" xlink:href="#m6eddb18c9a" y="232.094509"/>
     <use style="fill:#f06073;stroke:#000000;" x="371.790392" xlink:href="#m6eddb18c9a" y="232.094509"/>
     <use style="fill:#f06073;stroke:#000000;" x="374.682275" xlink:href="#m6eddb18c9a" y="232.094509"/>
     <use style="fill:#f06073;stroke:#000000;" x="377.574159" xlink:href="#m6eddb18c9a" y="232.094509"/>
     <use style="fill:#f06073;stroke:#000000;" x="380.466042" xlink:href="#m6eddb18c9a" y="232.094509"/>
     <use style="fill:#f06073;stroke:#000000;" x="383.357925" xlink:href="#m6eddb18c9a" y="232.094509"/>
    </g>
   </g>
   <g id="PathCollection_11">
    <defs>
     <path d="M 0 0.5 
C 0.132602 0.5 0.25979 0.447317 0.353553 0.353553 
C 0.447317 0.25979 0.5 0.132602 0.5 0 
C 0.5 -0.132602 0.447317 -0.25979 0.353553 -0.353553 
C 0.25979 -0.447317 0.132602 -0.5 0 -0.5 
C -0.132602 -0.5 -0.25979 -0.447317 -0.353553 -0.353553 
C -0.447317 -0.25979 -0.5 -0.132602 -0.5 0 
C -0.5 0.132602 -0.447317 0.25979 -0.353553 0.353553 
C -0.25979 0.447317 -0.132602 0.5 0 0.5 
z
" id="m8d6087fc8b" style="stroke:#000000;"/>
    </defs>
    <g clip-path="url(#pa694875160)">
     <use style="fill:#dd65b6;stroke:#000000;" x="392.033574" xlink:href="#m8d6087fc8b" y="232.094509"/>
     <use style="fill:#dd65b6;stroke:#000000;" x="394.925458" xlink:href="#m8d6087fc8b" y="232.094509"/>
     <use style="fill:#dd65b6;stroke:#000000;" x="397.817341" xlink:href="#m8d6087fc8b" y="232.094509"/>
     <use style="fill:#dd65b6;stroke:#000000;" x="400.709224" xlink:href="#m8d6087fc8b" y="232.094509"/>
     <use style="fill:#dd65b6;stroke:#000000;" x="403.601107" xlink:href="#m8d6087fc8b" y="232.094509"/>
     <use style="fill:#dd65b6;stroke:#000000;" x="406.49299" xlink:href="#m8d6087fc8b" y="232.094509"/>
     <use style="fill:#dd65b6;stroke:#000000;" x="409.384873" xlink:href="#m8d6087fc8b" y="232.094509"/>
     <use style="fill:#dd65b6;stroke:#000000;" x="412.276757" xlink:href="#m8d6087fc8b" y="232.094509"/>
     <use style="fill:#dd65b6;stroke:#000000;" x="415.16864" xlink:href="#m8d6087fc8b" y="232.094509"/>
     <use style="fill:#dd65b6;stroke:#000000;" x="418.060523" xlink:href="#m8d6087fc8b" y="232.094509"/>
    </g>
   </g>
   <g id="line2d_16">
    <path clip-path="url(#pa694875160)" d="M 76.818309 245.195073 
L 79.710192 245.195073 
L 82.602075 245.195073 
L 85.493958 245.195073 
L 88.385841 245.195073 
L 91.277725 245.195073 
L 94.169608 245.195073 
L 97.061491 245.195073 
L 99.953374 245.195073 
" style="fill:none;stroke:#8a2be2;stroke-linecap:round;stroke-width:5;"/>
   </g>
   <g id="line2d_17">
    <path clip-path="url(#pa694875160)" d="M 108.629024 245.195073 
L 111.520907 245.195073 
L 114.41279 245.195073 
L 117.304673 245.195073 
L 120.196556 245.195073 
L 123.088439 245.195073 
L 125.980323 245.195073 
L 128.872206 245.195073 
L 131.764089 245.195073 
L 134.655972 245.195073 
" style="fill:none;stroke:#8a2be2;stroke-linecap:round;stroke-width:5;"/>
   </g>
   <g id="PathCollection_12">
    <defs>
     <path d="M 0 0.5 
C 0.132602 0.5 0.25979 0.447317 0.353553 0.353553 
C 0.447317 0.25979 0.5 0.132602 0.5 0 
C 0.5 -0.132602 0.447317 -0.25979 0.353553 -0.353553 
C 0.25979 -0.447317 0.132602 -0.5 0 -0.5 
C -0.132602 -0.5 -0.25979 -0.447317 -0.353553 -0.353553 
C -0.447317 -0.25979 -0.5 -0.132602 -0.5 0 
C -0.5 0.132602 -0.447317 0.25979 -0.353553 0.353553 
C -0.25979 0.447317 -0.132602 0.5 0 0.5 
z
" id="mf5faa469f8" style="stroke:#000000;"/>
    </defs>
    <g clip-path="url(#pa694875160)">
     <use style="fill:#47998c;stroke:#000000;" x="47.899477" xlink:href="#mf5faa469f8" y="245.195073"/>
     <use style="fill:#47998c;stroke:#000000;" x="50.79136" xlink:href="#mf5faa469f8" y="245.195073"/>
     <use style="fill:#47998c;stroke:#000000;" x="53.683243" xlink:href="#mf5faa469f8" y="245.195073"/>
     <use style="fill:#47998c;stroke:#000000;" x="56.575127" xlink:href="#mf5faa469f8" y="245.195073"/>
     <use style="fill:#47998c;stroke:#000000;" x="59.46701" xlink:href="#mf5faa469f8" y="245.195073"/>
     <use style="fill:#47998c;stroke:#000000;" x="62.358893" xlink:href="#mf5faa469f8" y="245.195073"/>
     <use style="fill:#47998c;stroke:#000000;" x="65.250776" xlink:href="#mf5faa469f8" y="245.195073"/>
     <use style="fill:#47998c;stroke:#000000;" x="68.142659" xlink:href="#mf5faa469f8" y="245.195073"/>
     <use style="fill:#47998c;stroke:#000000;" x="71.034542" xlink:href="#mf5faa469f8" y="245.195073"/>
     <use style="fill:#47998c;stroke:#000000;" x="73.926426" xlink:href="#mf5faa469f8" y="245.195073"/>
    </g>
   </g>
   <g id="PathCollection_13">
    <defs>
     <path d="M 0 0.5 
C 0.132602 0.5 0.25979 0.447317 0.353553 0.353553 
C 0.447317 0.25979 0.5 0.132602 0.5 0 
C 0.5 -0.132602 0.447317 -0.25979 0.353553 -0.353553 
C 0.25979 -0.447317 0.132602 -0.5 0 -0.5 
C -0.132602 -0.5 -0.25979 -0.447317 -0.353553 -0.353553 
C -0.447317 -0.25979 -0.5 -0.132602 -0.5 0 
C -0.5 0.132602 -0.447317 0.25979 -0.353553 0.353553 
C -0.25979 0.447317 -0.132602 0.5 0 0.5 
z
" id="m5820ee74ed" style="stroke:#000000;"/>
    </defs>
    <g clip-path="url(#pa694875160)">
     <use style="fill:#1fa68d;stroke:#000000;" x="137.547855" xlink:href="#m5820ee74ed" y="245.195073"/>
     <use style="fill:#1fa68d;stroke:#000000;" x="140.439739" xlink:href="#m5820ee74ed" y="245.195073"/>
     <use style="fill:#1fa68d;stroke:#000000;" x="143.331622" xlink:href="#m5820ee74ed" y="245.195073"/>
     <use style="fill:#1fa68d;stroke:#000000;" x="146.223505" xlink:href="#m5820ee74ed" y="245.195073"/>
     <use style="fill:#1fa68d;stroke:#000000;" x="149.115388" xlink:href="#m5820ee74ed" y="245.195073"/>
     <use style="fill:#1fa68d;stroke:#000000;" x="152.007271" xlink:href="#m5820ee74ed" y="245.195073"/>
     <use style="fill:#1fa68d;stroke:#000000;" x="154.899154" xlink:href="#m5820ee74ed" y="245.195073"/>
     <use style="fill:#1fa68d;stroke:#000000;" x="157.791038" xlink:href="#m5820ee74ed" y="245.195073"/>
     <use style="fill:#1fa68d;stroke:#000000;" x="160.682921" xlink:href="#m5820ee74ed" y="245.195073"/>
     <use style="fill:#1fa68d;stroke:#000000;" x="163.574804" xlink:href="#m5820ee74ed" y="245.195073"/>
    </g>
   </g>
   <g id="PathCollection_14">
    <defs>
     <path d="M 0 0.5 
C 0.132602 0.5 0.25979 0.447317 0.353553 0.353553 
C 0.447317 0.25979 0.5 0.132602 0.5 0 
C 0.5 -0.132602 0.447317 -0.25979 0.353553 -0.353553 
C 0.25979 -0.447317 0.132602 -0.5 0 -0.5 
C -0.132602 -0.5 -0.25979 -0.447317 -0.353553 -0.353553 
C -0.447317 -0.25979 -0.5 -0.132602 -0.5 0 
C -0.5 0.132602 -0.447317 0.25979 -0.353553 0.353553 
C -0.25979 0.447317 -0.132602 0.5 0 0.5 
z
" id="m8b61d6a703" style="stroke:#000000;"/>
    </defs>
    <g clip-path="url(#pa694875160)">
     <use style="fill:#af78dd;stroke:#000000;" x="172.250453" xlink:href="#m8b61d6a703" y="245.195073"/>
     <use style="fill:#af78dd;stroke:#000000;" x="175.142337" xlink:href="#m8b61d6a703" y="245.195073"/>
     <use style="fill:#af78dd;stroke:#000000;" x="178.03422" xlink:href="#m8b61d6a703" y="245.195073"/>
     <use style="fill:#af78dd;stroke:#000000;" x="180.926103" xlink:href="#m8b61d6a703" y="245.195073"/>
     <use style="fill:#af78dd;stroke:#000000;" x="183.817986" xlink:href="#m8b61d6a703" y="245.195073"/>
     <use style="fill:#af78dd;stroke:#000000;" x="186.709869" xlink:href="#m8b61d6a703" y="245.195073"/>
     <use style="fill:#af78dd;stroke:#000000;" x="189.601752" xlink:href="#m8b61d6a703" y="245.195073"/>
     <use style="fill:#af78dd;stroke:#000000;" x="192.493636" xlink:href="#m8b61d6a703" y="245.195073"/>
    </g>
   </g>
   <g id="PathCollection_15">
    <defs>
     <path d="M 0 0.5 
C 0.132602 0.5 0.25979 0.447317 0.353553 0.353553 
C 0.447317 0.25979 0.5 0.132602 0.5 0 
C 0.5 -0.132602 0.447317 -0.25979 0.353553 -0.353553 
C 0.25979 -0.447317 0.132602 -0.5 0 -0.5 
C -0.132602 -0.5 -0.25979 -0.447317 -0.353553 -0.353553 
C -0.447317 -0.25979 -0.5 -0.132602 -0.5 0 
C -0.5 0.132602 -0.447317 0.25979 -0.353553 0.353553 
C -0.25979 0.447317 -0.132602 0.5 0 0.5 
z
" id="mfa1c9d1a7b" style="stroke:#000000;"/>
    </defs>
    <g clip-path="url(#pa694875160)">
     <use style="fill:#878d87;stroke:#000000;" x="198.277402" xlink:href="#mfa1c9d1a7b" y="245.195073"/>
     <use style="fill:#878d87;stroke:#000000;" x="201.169285" xlink:href="#mfa1c9d1a7b" y="245.195073"/>
     <use style="fill:#878d87;stroke:#000000;" x="204.061168" xlink:href="#mfa1c9d1a7b" y="245.195073"/>
     <use style="fill:#878d87;stroke:#000000;" x="206.953051" xlink:href="#mfa1c9d1a7b" y="245.195073"/>
     <use style="fill:#878d87;stroke:#000000;" x="209.844935" xlink:href="#mfa1c9d1a7b" y="245.195073"/>
     <use style="fill:#878d87;stroke:#000000;" x="212.736818" xlink:href="#mfa1c9d1a7b" y="245.195073"/>
     <use style="fill:#878d87;stroke:#000000;" x="215.628701" xlink:href="#mfa1c9d1a7b" y="245.195073"/>
     <use style="fill:#878d87;stroke:#000000;" x="218.520584" xlink:href="#mfa1c9d1a7b" y="245.195073"/>
     <use style="fill:#878d87;stroke:#000000;" x="221.412467" xlink:href="#mfa1c9d1a7b" y="245.195073"/>
    </g>
   </g>
   <g id="PathCollection_16">
    <defs>
     <path d="M 0 0.5 
C 0.132602 0.5 0.25979 0.447317 0.353553 0.353553 
C 0.447317 0.25979 0.5 0.132602 0.5 0 
C 0.5 -0.132602 0.447317 -0.25979 0.353553 -0.353553 
C 0.25979 -0.447317 0.132602 -0.5 0 -0.5 
C -0.132602 -0.5 -0.25979 -0.447317 -0.353553 -0.353553 
C -0.447317 -0.25979 -0.5 -0.132602 -0.5 0 
C -0.5 0.132602 -0.447317 0.25979 -0.353553 0.353553 
C -0.25979 0.447317 -0.132602 0.5 0 0.5 
z
" id="md0815adc55" style="stroke:#000000;"/>
    </defs>
    <g clip-path="url(#pa694875160)">
     <use style="fill:#47a166;stroke:#000000;" x="232.98" xlink:href="#md0815adc55" y="245.195073"/>
     <use style="fill:#47a166;stroke:#000000;" x="235.871883" xlink:href="#md0815adc55" y="245.195073"/>
     <use style="fill:#47a166;stroke:#000000;" x="238.763766" xlink:href="#md0815adc55" y="245.195073"/>
     <use style="fill:#47a166;stroke:#000000;" x="241.65565" xlink:href="#md0815adc55" y="245.195073"/>
     <use style="fill:#47a166;stroke:#000000;" x="244.547533" xlink:href="#md0815adc55" y="245.195073"/>
     <use style="fill:#47a166;stroke:#000000;" x="247.439416" xlink:href="#md0815adc55" y="245.195073"/>
     <use style="fill:#47a166;stroke:#000000;" x="250.331299" xlink:href="#md0815adc55" y="245.195073"/>
    </g>
   </g>
   <g id="PathCollection_17">
    <defs>
     <path d="M 0 0.5 
C 0.132602 0.5 0.25979 0.447317 0.353553 0.353553 
C 0.447317 0.25979 0.5 0.132602 0.5 0 
C 0.5 -0.132602 0.447317 -0.25979 0.353553 -0.353553 
C 0.25979 -0.447317 0.132602 -0.5 0 -0.5 
C -0.132602 -0.5 -0.25979 -0.447317 -0.353553 -0.353553 
C -0.447317 -0.25979 -0.5 -0.132602 -0.5 0 
C -0.5 0.132602 -0.447317 0.25979 -0.353553 0.353553 
C -0.25979 0.447317 -0.132602 0.5 0 0.5 
z
" id="m89c2326c93" style="stroke:#000000;"/>
    </defs>
    <g clip-path="url(#pa694875160)">
     <use style="fill:#7783af;stroke:#000000;" x="256.115065" xlink:href="#m89c2326c93" y="245.195073"/>
     <use style="fill:#7783af;stroke:#000000;" x="259.006949" xlink:href="#m89c2326c93" y="245.195073"/>
     <use style="fill:#7783af;stroke:#000000;" x="261.898832" xlink:href="#m89c2326c93" y="245.195073"/>
     <use style="fill:#7783af;stroke:#000000;" x="264.790715" xlink:href="#m89c2326c93" y="245.195073"/>
     <use style="fill:#7783af;stroke:#000000;" x="267.682598" xlink:href="#m89c2326c93" y="245.195073"/>
     <use style="fill:#7783af;stroke:#000000;" x="270.574481" xlink:href="#m89c2326c93" y="245.195073"/>
    </g>
   </g>
   <g id="PathCollection_18">
    <defs>
     <path d="M 0 0.5 
C 0.132602 0.5 0.25979 0.447317 0.353553 0.353553 
C 0.447317 0.25979 0.5 0.132602 0.5 0 
C 0.5 -0.132602 0.447317 -0.25979 0.353553 -0.353553 
C 0.25979 -0.447317 0.132602 -0.5 0 -0.5 
C -0.132602 -0.5 -0.25979 -0.447317 -0.353553 -0.353553 
C -0.447317 -0.25979 -0.5 -0.132602 -0.5 0 
C -0.5 0.132602 -0.447317 0.25979 -0.353553 0.353553 
C -0.25979 0.447317 -0.132602 0.5 0 0.5 
z
" id="m7ef2f92db2" style="stroke:#000000;"/>
    </defs>
    <g clip-path="url(#pa694875160)">
     <use style="fill:#b18187;stroke:#000000;" x="273.466364" xlink:href="#m7ef2f92db2" y="245.195073"/>
     <use style="fill:#b18187;stroke:#000000;" x="276.358248" xlink:href="#m7ef2f92db2" y="245.195073"/>
     <use style="fill:#b18187;stroke:#000000;" x="279.250131" xlink:href="#m7ef2f92db2" y="245.195073"/>
     <use style="fill:#b18187;stroke:#000000;" x="282.142014" xlink:href="#m7ef2f92db2" y="245.195073"/>
     <use style="fill:#b18187;stroke:#000000;" x="285.033897" xlink:href="#m7ef2f92db2" y="245.195073"/>
    </g>
   </g>
   <g id="PathCollection_19">
    <defs>
     <path d="M 0 0.5 
C 0.132602 0.5 0.25979 0.447317 0.353553 0.353553 
C 0.447317 0.25979 0.5 0.132602 0.5 0 
C 0.5 -0.132602 0.447317 -0.25979 0.353553 -0.353553 
C 0.25979 -0.447317 0.132602 -0.5 0 -0.5 
C -0.132602 -0.5 -0.25979 -0.447317 -0.353553 -0.353553 
C -0.447317 -0.25979 -0.5 -0.132602 -0.5 0 
C -0.5 0.132602 -0.447317 0.25979 -0.353553 0.353553 
C -0.25979 0.447317 -0.132602 0.5 0 0.5 
z
" id="m971827afca" style="stroke:#000000;"/>
    </defs>
    <g clip-path="url(#pa694875160)">
     <use style="fill:#309bc2;stroke:#000000;" x="293.709547" xlink:href="#m971827afca" y="245.195073"/>
     <use style="fill:#309bc2;stroke:#000000;" x="296.60143" xlink:href="#m971827afca" y="245.195073"/>
     <use style="fill:#309bc2;stroke:#000000;" x="299.493313" xlink:href="#m971827afca" y="245.195073"/>
     <use style="fill:#309bc2;stroke:#000000;" x="302.385196" xlink:href="#m971827afca" y="245.195073"/>
     <use style="fill:#309bc2;stroke:#000000;" x="305.277079" xlink:href="#m971827afca" y="245.195073"/>
     <use style="fill:#309bc2;stroke:#000000;" x="308.168962" xlink:href="#m971827afca" y="245.195073"/>
     <use style="fill:#309bc2;stroke:#000000;" x="311.060846" xlink:href="#m971827afca" y="245.195073"/>
     <use style="fill:#309bc2;stroke:#000000;" x="313.952729" xlink:href="#m971827afca" y="245.195073"/>
     <use style="fill:#309bc2;stroke:#000000;" x="316.844612" xlink:href="#m971827afca" y="245.195073"/>
    </g>
   </g>
   <g id="PathCollection_20">
    <defs>
     <path d="M 0 0.5 
C 0.132602 0.5 0.25979 0.447317 0.353553 0.353553 
C 0.447317 0.25979 0.5 0.132602 0.5 0 
C 0.5 -0.132602 0.447317 -0.25979 0.353553 -0.353553 
C 0.25979 -0.447317 0.132602 -0.5 0 -0.5 
C -0.132602 -0.5 -0.25979 -0.447317 -0.353553 -0.353553 
C -0.447317 -0.25979 -0.5 -0.132602 -0.5 0 
C -0.5 0.132602 -0.447317 0.25979 -0.353553 0.353553 
C -0.25979 0.447317 -0.132602 0.5 0 0.5 
z
" id="m6316391028" style="stroke:#000000;"/>
    </defs>
    <g clip-path="url(#pa694875160)">
     <use style="fill:#788590;stroke:#000000;" x="328.412145" xlink:href="#m6316391028" y="245.195073"/>
     <use style="fill:#788590;stroke:#000000;" x="331.304028" xlink:href="#m6316391028" y="245.195073"/>
     <use style="fill:#788590;stroke:#000000;" x="334.195911" xlink:href="#m6316391028" y="245.195073"/>
     <use style="fill:#788590;stroke:#000000;" x="337.087794" xlink:href="#m6316391028" y="245.195073"/>
     <use style="fill:#788590;stroke:#000000;" x="339.979677" xlink:href="#m6316391028" y="245.195073"/>
     <use style="fill:#788590;stroke:#000000;" x="342.871561" xlink:href="#m6316391028" y="245.195073"/>
     <use style="fill:#788590;stroke:#000000;" x="345.763444" xlink:href="#m6316391028" y="245.195073"/>
     <use style="fill:#788590;stroke:#000000;" x="348.655327" xlink:href="#m6316391028" y="245.195073"/>
     <use style="fill:#788590;stroke:#000000;" x="351.54721" xlink:href="#m6316391028" y="245.195073"/>
     <use style="fill:#788590;stroke:#000000;" x="354.439093" xlink:href="#m6316391028" y="245.195073"/>
    </g>
   </g>
   <g id="PathCollection_21">
    <defs>
     <path d="M 0 0.5 
C 0.132602 0.5 0.25979 0.447317 0.353553 0.353553 
C 0.447317 0.25979 0.5 0.132602 0.5 0 
C 0.5 -0.132602 0.447317 -0.25979 0.353553 -0.353553 
C 0.25979 -0.447317 0.132602 -0.5 0 -0.5 
C -0.132602 -0.5 -0.25979 -0.447317 -0.353553 -0.353553 
C -0.447317 -0.25979 -0.5 -0.132602 -0.5 0 
C -0.5 0.132602 -0.447317 0.25979 -0.353553 0.353553 
C -0.25979 0.447317 -0.132602 0.5 0 0.5 
z
" id="m394fad66e4" style="stroke:#000000;"/>
    </defs>
    <g clip-path="url(#pa694875160)">
     <use style="fill:#e561a4;stroke:#000000;" x="360.22286" xlink:href="#m394fad66e4" y="245.195073"/>
     <use style="fill:#e561a4;stroke:#000000;" x="363.114743" xlink:href="#m394fad66e4" y="245.195073"/>
     <use style="fill:#e561a4;stroke:#000000;" x="366.006626" xlink:href="#m394fad66e4" y="245.195073"/>
     <use style="fill:#e561a4;stroke:#000000;" x="368.898509" xlink:href="#m394fad66e4" y="245.195073"/>
     <use style="fill:#e561a4;stroke:#000000;" x="371.790392" xlink:href="#m394fad66e4" y="245.195073"/>
     <use style="fill:#e561a4;stroke:#000000;" x="374.682275" xlink:href="#m394fad66e4" y="245.195073"/>
     <use style="fill:#e561a4;stroke:#000000;" x="377.574159" xlink:href="#m394fad66e4" y="245.195073"/>
     <use style="fill:#e561a4;stroke:#000000;" x="380.466042" xlink:href="#m394fad66e4" y="245.195073"/>
     <use style="fill:#e561a4;stroke:#000000;" x="383.357925" xlink:href="#m394fad66e4" y="245.195073"/>
    </g>
   </g>
   <g id="PathCollection_22">
    <defs>
     <path d="M 0 0.5 
C 0.132602 0.5 0.25979 0.447317 0.353553 0.353553 
C 0.447317 0.25979 0.5 0.132602 0.5 0 
C 0.5 -0.132602 0.447317 -0.25979 0.353553 -0.353553 
C 0.25979 -0.447317 0.132602 -0.5 0 -0.5 
C -0.132602 -0.5 -0.25979 -0.447317 -0.353553 -0.353553 
C -0.447317 -0.25979 -0.5 -0.132602 -0.5 0 
C -0.5 0.132602 -0.447317 0.25979 -0.353553 0.353553 
C -0.25979 0.447317 -0.132602 0.5 0 0.5 
z
" id="mf8b159e445" style="stroke:#000000;"/>
    </defs>
    <g clip-path="url(#pa694875160)">
     <use style="fill:#99902c;stroke:#000000;" x="392.033574" xlink:href="#mf8b159e445" y="245.195073"/>
     <use style="fill:#99902c;stroke:#000000;" x="394.925458" xlink:href="#mf8b159e445" y="245.195073"/>
     <use style="fill:#99902c;stroke:#000000;" x="397.817341" xlink:href="#mf8b159e445" y="245.195073"/>
     <use style="fill:#99902c;stroke:#000000;" x="400.709224" xlink:href="#mf8b159e445" y="245.195073"/>
     <use style="fill:#99902c;stroke:#000000;" x="403.601107" xlink:href="#mf8b159e445" y="245.195073"/>
     <use style="fill:#99902c;stroke:#000000;" x="406.49299" xlink:href="#mf8b159e445" y="245.195073"/>
     <use style="fill:#99902c;stroke:#000000;" x="409.384873" xlink:href="#mf8b159e445" y="245.195073"/>
     <use style="fill:#99902c;stroke:#000000;" x="412.276757" xlink:href="#mf8b159e445" y="245.195073"/>
     <use style="fill:#99902c;stroke:#000000;" x="415.16864" xlink:href="#mf8b159e445" y="245.195073"/>
     <use style="fill:#99902c;stroke:#000000;" x="418.060523" xlink:href="#mf8b159e445" y="245.195073"/>
    </g>
   </g>
   <g id="legend_1">
    <g id="patch_5">
     <path d="M 380.425354 32.719646 
L 423.565354 32.719646 
Q 425.165354 32.719646 425.165354 31.119646 
L 425.165354 8.434646 
Q 425.165354 6.834646 423.565354 6.834646 
L 380.425354 6.834646 
Q 378.825354 6.834646 378.825354 8.434646 
L 378.825354 31.119646 
Q 378.825354 32.719646 380.425354 32.719646 
z
" style="fill:#ffffff;stroke:#000000;stroke-linejoin:miter;"/>
    </g>
    <g id="line2d_18">
     <path d="M 382.025354 13.313396 
L 398.025354 13.313396 
" style="fill:none;stroke:#0000ff;stroke-linecap:square;"/>
    </g>
    <g id="line2d_19"/>
    <g id="text_14">
     <!-- 1IFB -->
     <defs>
      <path d="M 9.8125 72.90625 
L 19.671875 72.90625 
L 19.671875 0 
L 9.8125 0 
z
" id="DejaVuSans-49"/>
      <path d="M 19.671875 34.8125 
L 19.671875 8.109375 
L 35.5 8.109375 
Q 43.453125 8.109375 47.28125 11.40625 
Q 51.125 14.703125 51.125 21.484375 
Q 51.125 28.328125 47.28125 31.5625 
Q 43.453125 34.8125 35.5 34.8125 
z
M 19.671875 64.796875 
L 19.671875 42.828125 
L 34.28125 42.828125 
Q 41.5 42.828125 45.03125 45.53125 
Q 48.578125 48.25 48.578125 53.8125 
Q 48.578125 59.328125 45.03125 62.0625 
Q 41.5 64.796875 34.28125 64.796875 
z
M 9.8125 72.90625 
L 35.015625 72.90625 
Q 46.296875 72.90625 52.390625 68.21875 
Q 58.5 63.53125 58.5 54.890625 
Q 58.5 48.1875 55.375 44.234375 
Q 52.25 40.28125 46.1875 39.3125 
Q 53.46875 37.75 57.5 32.78125 
Q 61.53125 27.828125 61.53125 20.40625 
Q 61.53125 10.640625 54.890625 5.3125 
Q 48.25 0 35.984375 0 
L 9.8125 0 
z
" id="DejaVuSans-42"/>
     </defs>
     <g transform="translate(404.425354 16.113396)scale(0.08 -0.08)">
      <use xlink:href="#DejaVuSans-31"/>
      <use x="63.623047" xlink:href="#DejaVuSans-49"/>
      <use x="93.115234" xlink:href="#DejaVuSans-46"/>
      <use x="150.634766" xlink:href="#DejaVuSans-42"/>
     </g>
    </g>
    <g id="line2d_20">
     <path d="M 382.025354 25.055896 
L 398.025354 25.055896 
" style="fill:none;stroke:#ff0000;stroke-linecap:square;"/>
    </g>
    <g id="line2d_21"/>
    <g id="text_15">
     <!-- 2IFB -->
     <g transform="translate(404.425354 27.855896)scale(0.08 -0.08)">
      <use xlink:href="#DejaVuSans-32"/>
      <use x="63.623047" xlink:href="#DejaVuSans-49"/>
      <use x="93.115234" xlink:href="#DejaVuSans-46"/>
      <use x="150.634766" xlink:href="#DejaVuSans-42"/>
     </g>
    </g>
   </g>
  </g>
 </g>
 <defs>
  <clipPath id="pa694875160">
   <rect height="248.910709" width="392.370709" x="36.794646" y="2.834646"/>
  </clipPath>
 </defs>
</svg>
