<?xml version="1.0" encoding="utf-8" standalone="no"?>
<!DOCTYPE svg PUBLIC "-//W3C//DTD SVG 1.1//EN"
  "http://www.w3.org/Graphics/SVG/1.1/DTD/svg11.dtd">
<!-- Created with matplotlib (http://matplotlib.org/) -->
<svg height="288pt" version="1.1" viewBox="0 0 432 288" width="432pt" xmlns="http://www.w3.org/2000/svg" xmlns:xlink="http://www.w3.org/1999/xlink">
 <defs>
  <style type="text/css">
*{stroke-linecap:butt;stroke-linejoin:round;}
  </style>
 </defs>
 <g id="figure_1">
  <g id="patch_1">
   <path d="M 0 288 
L 432 288 
L 432 0 
L 0 0 
z
" style="fill:#ffffff;"/>
  </g>
  <g id="axes_1">
   <g id="patch_2">
    <path d="M 50.024646 247.425354 
L 429.165354 247.425354 
L 429.165354 5.714646 
L 50.024646 5.714646 
z
" style="fill:#ffffff;"/>
   </g>
   <g id="patch_3">
    <path clip-path="url(#p805edfb14d)" d="M 47.655016 247.425354 
L 47.655016 247.425354 
L 54.763905 247.425354 
L 54.763905 247.425354 
L 47.655016 247.425354 
" style="fill:#d64161;"/>
   </g>
   <g id="patch_4">
    <path clip-path="url(#p805edfb14d)" d="M 57.133534 247.344183 
L 57.133534 247.425354 
L 64.242422 247.425354 
L 64.242422 247.344183 
L 57.133534 247.344183 
" style="fill:#d64161;"/>
   </g>
   <g id="patch_5">
    <path clip-path="url(#p805edfb14d)" d="M 66.612052 246.564943 
L 66.612052 247.425354 
L 73.72094 247.425354 
L 73.72094 246.564943 
L 66.612052 246.564943 
" style="fill:#d64161;"/>
   </g>
   <g id="patch_6">
    <path clip-path="url(#p805edfb14d)" d="M 76.090569 243.837601 
L 76.090569 247.425354 
L 83.199458 247.425354 
L 83.199458 243.837601 
L 76.090569 243.837601 
" style="fill:#d64161;"/>
   </g>
   <g id="patch_7">
    <path clip-path="url(#p805edfb14d)" d="M 85.569087 233.926634 
L 85.569087 247.425354 
L 92.677975 247.425354 
L 92.677975 233.926634 
L 85.569087 233.926634 
" style="fill:#d64161;"/>
   </g>
   <g id="patch_8">
    <path clip-path="url(#p805edfb14d)" d="M 95.047605 212.716677 
L 95.047605 247.425354 
L 102.156493 247.425354 
L 102.156493 212.716677 
L 95.047605 212.716677 
" style="fill:#d64161;"/>
   </g>
   <g id="patch_9">
    <path clip-path="url(#p805edfb14d)" d="M 104.526123 172.967287 
L 104.526123 247.425354 
L 111.635011 247.425354 
L 111.635011 172.967287 
L 104.526123 172.967287 
" style="fill:#d64161;"/>
   </g>
   <g id="patch_10">
    <path clip-path="url(#p805edfb14d)" d="M 114.00464 130.060349 
L 114.00464 247.425354 
L 121.113529 247.425354 
L 121.113529 130.060349 
L 114.00464 130.060349 
" style="fill:#d64161;"/>
   </g>
   <g id="patch_11">
    <path clip-path="url(#p805edfb14d)" d="M 123.483158 103.095375 
L 123.483158 247.425354 
L 130.592046 247.425354 
L 130.592046 103.095375 
L 123.483158 103.095375 
" style="fill:#d64161;"/>
   </g>
   <g id="patch_12">
    <path clip-path="url(#p805edfb14d)" d="M 132.961676 95.38414 
L 132.961676 247.425354 
L 140.070564 247.425354 
L 140.070564 95.38414 
L 132.961676 95.38414 
" style="fill:#d64161;"/>
   </g>
   <g id="patch_13">
    <path clip-path="url(#p805edfb14d)" d="M 142.440193 106.325977 
L 142.440193 247.425354 
L 149.549082 247.425354 
L 149.549082 106.325977 
L 142.440193 106.325977 
" style="fill:#d64161;"/>
   </g>
   <g id="patch_14">
    <path clip-path="url(#p805edfb14d)" d="M 151.918711 110.944602 
L 151.918711 247.425354 
L 159.027599 247.425354 
L 159.027599 110.944602 
L 151.918711 110.944602 
" style="fill:#d64161;"/>
   </g>
   <g id="patch_15">
    <path clip-path="url(#p805edfb14d)" d="M 161.397229 136.245571 
L 161.397229 247.425354 
L 168.506117 247.425354 
L 168.506117 136.245571 
L 161.397229 136.245571 
" style="fill:#d64161;"/>
   </g>
   <g id="patch_16">
    <path clip-path="url(#p805edfb14d)" d="M 170.875747 164.387523 
L 170.875747 247.425354 
L 177.984635 247.425354 
L 177.984635 164.387523 
L 170.875747 164.387523 
" style="fill:#d64161;"/>
   </g>
   <g id="patch_17">
    <path clip-path="url(#p805edfb14d)" d="M 180.354264 183.381514 
L 180.354264 247.425354 
L 187.463153 247.425354 
L 187.463153 183.381514 
L 180.354264 183.381514 
" style="fill:#d64161;"/>
   </g>
   <g id="patch_18">
    <path clip-path="url(#p805edfb14d)" d="M 189.832782 201.409571 
L 189.832782 247.425354 
L 196.94167 247.425354 
L 196.94167 201.409571 
L 189.832782 201.409571 
" style="fill:#d64161;"/>
   </g>
   <g id="patch_19">
    <path clip-path="url(#p805edfb14d)" d="M 199.3113 215.63883 
L 199.3113 247.425354 
L 206.420188 247.425354 
L 206.420188 215.63883 
L 199.3113 215.63883 
" style="fill:#d64161;"/>
   </g>
   <g id="patch_20">
    <path clip-path="url(#p805edfb14d)" d="M 208.789817 225.915066 
L 208.789817 247.425354 
L 215.898706 247.425354 
L 215.898706 225.915066 
L 208.789817 225.915066 
" style="fill:#d64161;"/>
   </g>
   <g id="patch_21">
    <path clip-path="url(#p805edfb14d)" d="M 218.268335 233.512662 
L 218.268335 247.425354 
L 225.377223 247.425354 
L 225.377223 233.512662 
L 218.268335 233.512662 
" style="fill:#d64161;"/>
   </g>
   <g id="patch_22">
    <path clip-path="url(#p805edfb14d)" d="M 227.746853 239.494957 
L 227.746853 247.425354 
L 234.855741 247.425354 
L 234.855741 239.494957 
L 227.746853 239.494957 
" style="fill:#d64161;"/>
   </g>
   <g id="patch_23">
    <path clip-path="url(#p805edfb14d)" d="M 237.225371 242.66874 
L 237.225371 247.425354 
L 244.334259 247.425354 
L 244.334259 242.66874 
L 237.225371 242.66874 
" style="fill:#d64161;"/>
   </g>
   <g id="patch_24">
    <path clip-path="url(#p805edfb14d)" d="M 246.703888 245.095749 
L 246.703888 247.425354 
L 253.812777 247.425354 
L 253.812777 245.095749 
L 246.703888 245.095749 
" style="fill:#d64161;"/>
   </g>
   <g id="patch_25">
    <path clip-path="url(#p805edfb14d)" d="M 256.182406 245.899341 
L 256.182406 247.425354 
L 263.291294 247.425354 
L 263.291294 245.899341 
L 256.182406 245.899341 
" style="fill:#d64161;"/>
   </g>
   <g id="patch_26">
    <path clip-path="url(#p805edfb14d)" d="M 265.660924 246.410718 
L 265.660924 247.425354 
L 272.769812 247.425354 
L 272.769812 246.410718 
L 265.660924 246.410718 
" style="fill:#d64161;"/>
   </g>
   <g id="patch_27">
    <path clip-path="url(#p805edfb14d)" d="M 275.139441 247.0195 
L 275.139441 247.425354 
L 282.24833 247.425354 
L 282.24833 247.0195 
L 275.139441 247.0195 
" style="fill:#d64161;"/>
   </g>
   <g id="patch_28">
    <path clip-path="url(#p805edfb14d)" d="M 284.617959 247.181842 
L 284.617959 247.425354 
L 291.726847 247.425354 
L 291.726847 247.181842 
L 284.617959 247.181842 
" style="fill:#d64161;"/>
   </g>
   <g id="patch_29">
    <path clip-path="url(#p805edfb14d)" d="M 294.096477 247.21431 
L 294.096477 247.425354 
L 301.205365 247.425354 
L 301.205365 247.21431 
L 294.096477 247.21431 
" style="fill:#d64161;"/>
   </g>
   <g id="patch_30">
    <path clip-path="url(#p805edfb14d)" d="M 303.574995 247.336066 
L 303.574995 247.425354 
L 310.683883 247.425354 
L 310.683883 247.336066 
L 303.574995 247.336066 
" style="fill:#d64161;"/>
   </g>
   <g id="patch_31">
    <path clip-path="url(#p805edfb14d)" d="M 313.053512 247.417237 
L 313.053512 247.425354 
L 320.162401 247.425354 
L 320.162401 247.417237 
L 313.053512 247.417237 
" style="fill:#d64161;"/>
   </g>
   <g id="patch_32">
    <path clip-path="url(#p805edfb14d)" d="M 322.53203 247.417237 
L 322.53203 247.425354 
L 329.640918 247.425354 
L 329.640918 247.417237 
L 322.53203 247.417237 
" style="fill:#d64161;"/>
   </g>
   <g id="patch_33">
    <path clip-path="url(#p805edfb14d)" d="M 332.010548 247.417237 
L 332.010548 247.425354 
L 339.119436 247.425354 
L 339.119436 247.417237 
L 332.010548 247.417237 
" style="fill:#d64161;"/>
   </g>
   <g id="patch_34">
    <path clip-path="url(#p805edfb14d)" d="M 341.489065 247.401003 
L 341.489065 247.425354 
L 348.597954 247.425354 
L 348.597954 247.401003 
L 341.489065 247.401003 
" style="fill:#d64161;"/>
   </g>
   <g id="patch_35">
    <path clip-path="url(#p805edfb14d)" d="M 350.967583 247.425354 
L 350.967583 247.425354 
L 358.076471 247.425354 
L 358.076471 247.425354 
L 350.967583 247.425354 
" style="fill:#d64161;"/>
   </g>
   <g id="patch_36">
    <path clip-path="url(#p805edfb14d)" d="M 360.446101 247.425354 
L 360.446101 247.425354 
L 367.554989 247.425354 
L 367.554989 247.425354 
L 360.446101 247.425354 
" style="fill:#d64161;"/>
   </g>
   <g id="patch_37">
    <path clip-path="url(#p805edfb14d)" d="M 369.924619 247.425354 
L 369.924619 247.425354 
L 377.033507 247.425354 
L 377.033507 247.425354 
L 369.924619 247.425354 
" style="fill:#d64161;"/>
   </g>
   <g id="patch_38">
    <path clip-path="url(#p805edfb14d)" d="M 379.403136 247.425354 
L 379.403136 247.425354 
L 386.512025 247.425354 
L 386.512025 247.425354 
L 379.403136 247.425354 
" style="fill:#d64161;"/>
   </g>
   <g id="patch_39">
    <path clip-path="url(#p805edfb14d)" d="M 388.881654 247.425354 
L 388.881654 247.425354 
L 395.990542 247.425354 
L 395.990542 247.425354 
L 388.881654 247.425354 
" style="fill:#d64161;"/>
   </g>
   <g id="patch_40">
    <path clip-path="url(#p805edfb14d)" d="M 398.360172 247.425354 
L 398.360172 247.425354 
L 405.46906 247.425354 
L 405.46906 247.425354 
L 398.360172 247.425354 
" style="fill:#d64161;"/>
   </g>
   <g id="patch_41">
    <path clip-path="url(#p805edfb14d)" d="M 407.838689 247.425354 
L 407.838689 247.425354 
L 414.947578 247.425354 
L 414.947578 247.425354 
L 407.838689 247.425354 
" style="fill:#d64161;"/>
   </g>
   <g id="patch_42">
    <path clip-path="url(#p805edfb14d)" d="M 417.317207 247.425354 
L 417.317207 247.425354 
L 424.426095 247.425354 
L 424.426095 247.425354 
L 417.317207 247.425354 
" style="fill:#d64161;"/>
   </g>
   <g id="matplotlib.axis_1">
    <g id="xtick_1">
     <g id="line2d_1">
      <defs>
       <path d="M 0 0 
L 0 -3.5 
" id="me26af79cd9" style="stroke:#000000;stroke-width:0.8;"/>
      </defs>
      <g>
       <use style="stroke:#000000;stroke-width:0.8;" x="81.619705" xlink:href="#me26af79cd9" y="247.425354"/>
      </g>
     </g>
     <g id="text_1">
      <!-- 300 -->
      <defs>
       <path d="M 40.578125 39.3125 
Q 47.65625 37.796875 51.625 33 
Q 55.609375 28.21875 55.609375 21.1875 
Q 55.609375 10.40625 48.1875 4.484375 
Q 40.765625 -1.421875 27.09375 -1.421875 
Q 22.515625 -1.421875 17.65625 -0.515625 
Q 12.796875 0.390625 7.625 2.203125 
L 7.625 11.71875 
Q 11.71875 9.328125 16.59375 8.109375 
Q 21.484375 6.890625 26.8125 6.890625 
Q 36.078125 6.890625 40.9375 10.546875 
Q 45.796875 14.203125 45.796875 21.1875 
Q 45.796875 27.640625 41.28125 31.265625 
Q 36.765625 34.90625 28.71875 34.90625 
L 20.21875 34.90625 
L 20.21875 43.015625 
L 29.109375 43.015625 
Q 36.375 43.015625 40.234375 45.921875 
Q 44.09375 48.828125 44.09375 54.296875 
Q 44.09375 59.90625 40.109375 62.90625 
Q 36.140625 65.921875 28.71875 65.921875 
Q 24.65625 65.921875 20.015625 65.03125 
Q 15.375 64.15625 9.8125 62.3125 
L 9.8125 71.09375 
Q 15.4375 72.65625 20.34375 73.4375 
Q 25.25 74.21875 29.59375 74.21875 
Q 40.828125 74.21875 47.359375 69.109375 
Q 53.90625 64.015625 53.90625 55.328125 
Q 53.90625 49.265625 50.4375 45.09375 
Q 46.96875 40.921875 40.578125 39.3125 
z
" id="DejaVuSans-33"/>
       <path d="M 31.78125 66.40625 
Q 24.171875 66.40625 20.328125 58.90625 
Q 16.5 51.421875 16.5 36.375 
Q 16.5 21.390625 20.328125 13.890625 
Q 24.171875 6.390625 31.78125 6.390625 
Q 39.453125 6.390625 43.28125 13.890625 
Q 47.125 21.390625 47.125 36.375 
Q 47.125 51.421875 43.28125 58.90625 
Q 39.453125 66.40625 31.78125 66.40625 
z
M 31.78125 74.21875 
Q 44.046875 74.21875 50.515625 64.515625 
Q 56.984375 54.828125 56.984375 36.375 
Q 56.984375 17.96875 50.515625 8.265625 
Q 44.046875 -1.421875 31.78125 -1.421875 
Q 19.53125 -1.421875 13.0625 8.265625 
Q 6.59375 17.96875 6.59375 36.375 
Q 6.59375 54.828125 13.0625 64.515625 
Q 19.53125 74.21875 31.78125 74.21875 
z
" id="DejaVuSans-30"/>
      </defs>
      <g transform="translate(71.12158 259.283636)scale(0.11 -0.11)">
       <use xlink:href="#DejaVuSans-33"/>
       <use x="63.623047" xlink:href="#DejaVuSans-30"/>
       <use x="127.246094" xlink:href="#DejaVuSans-30"/>
      </g>
     </g>
    </g>
    <g id="xtick_2">
     <g id="line2d_2">
      <g>
       <use style="stroke:#000000;stroke-width:0.8;" x="144.809823" xlink:href="#me26af79cd9" y="247.425354"/>
      </g>
     </g>
     <g id="text_2">
      <!-- 500 -->
      <defs>
       <path d="M 10.796875 72.90625 
L 49.515625 72.90625 
L 49.515625 64.59375 
L 19.828125 64.59375 
L 19.828125 46.734375 
Q 21.96875 47.46875 24.109375 47.828125 
Q 26.265625 48.1875 28.421875 48.1875 
Q 40.625 48.1875 47.75 41.5 
Q 54.890625 34.8125 54.890625 23.390625 
Q 54.890625 11.625 47.5625 5.09375 
Q 40.234375 -1.421875 26.90625 -1.421875 
Q 22.3125 -1.421875 17.546875 -0.640625 
Q 12.796875 0.140625 7.71875 1.703125 
L 7.71875 11.625 
Q 12.109375 9.234375 16.796875 8.0625 
Q 21.484375 6.890625 26.703125 6.890625 
Q 35.15625 6.890625 40.078125 11.328125 
Q 45.015625 15.765625 45.015625 23.390625 
Q 45.015625 31 40.078125 35.4375 
Q 35.15625 39.890625 26.703125 39.890625 
Q 22.75 39.890625 18.8125 39.015625 
Q 14.890625 38.140625 10.796875 36.28125 
z
" id="DejaVuSans-35"/>
      </defs>
      <g transform="translate(134.311698 259.283636)scale(0.11 -0.11)">
       <use xlink:href="#DejaVuSans-35"/>
       <use x="63.623047" xlink:href="#DejaVuSans-30"/>
       <use x="127.246094" xlink:href="#DejaVuSans-30"/>
      </g>
     </g>
    </g>
    <g id="xtick_3">
     <g id="line2d_3">
      <g>
       <use style="stroke:#000000;stroke-width:0.8;" x="207.999941" xlink:href="#me26af79cd9" y="247.425354"/>
      </g>
     </g>
     <g id="text_3">
      <!-- 700 -->
      <defs>
       <path d="M 8.203125 72.90625 
L 55.078125 72.90625 
L 55.078125 68.703125 
L 28.609375 0 
L 18.3125 0 
L 43.21875 64.59375 
L 8.203125 64.59375 
z
" id="DejaVuSans-37"/>
      </defs>
      <g transform="translate(197.501816 259.283636)scale(0.11 -0.11)">
       <use xlink:href="#DejaVuSans-37"/>
       <use x="63.623047" xlink:href="#DejaVuSans-30"/>
       <use x="127.246094" xlink:href="#DejaVuSans-30"/>
      </g>
     </g>
    </g>
    <g id="xtick_4">
     <g id="line2d_4">
      <g>
       <use style="stroke:#000000;stroke-width:0.8;" x="271.190059" xlink:href="#me26af79cd9" y="247.425354"/>
      </g>
     </g>
     <g id="text_4">
      <!-- 900 -->
      <defs>
       <path d="M 10.984375 1.515625 
L 10.984375 10.5 
Q 14.703125 8.734375 18.5 7.8125 
Q 22.3125 6.890625 25.984375 6.890625 
Q 35.75 6.890625 40.890625 13.453125 
Q 46.046875 20.015625 46.78125 33.40625 
Q 43.953125 29.203125 39.59375 26.953125 
Q 35.25 24.703125 29.984375 24.703125 
Q 19.046875 24.703125 12.671875 31.3125 
Q 6.296875 37.9375 6.296875 49.421875 
Q 6.296875 60.640625 12.9375 67.421875 
Q 19.578125 74.21875 30.609375 74.21875 
Q 43.265625 74.21875 49.921875 64.515625 
Q 56.59375 54.828125 56.59375 36.375 
Q 56.59375 19.140625 48.40625 8.859375 
Q 40.234375 -1.421875 26.421875 -1.421875 
Q 22.703125 -1.421875 18.890625 -0.6875 
Q 15.09375 0.046875 10.984375 1.515625 
z
M 30.609375 32.421875 
Q 37.25 32.421875 41.125 36.953125 
Q 45.015625 41.5 45.015625 49.421875 
Q 45.015625 57.28125 41.125 61.84375 
Q 37.25 66.40625 30.609375 66.40625 
Q 23.96875 66.40625 20.09375 61.84375 
Q 16.21875 57.28125 16.21875 49.421875 
Q 16.21875 41.5 20.09375 36.953125 
Q 23.96875 32.421875 30.609375 32.421875 
z
" id="DejaVuSans-39"/>
      </defs>
      <g transform="translate(260.691934 259.283636)scale(0.11 -0.11)">
       <use xlink:href="#DejaVuSans-39"/>
       <use x="63.623047" xlink:href="#DejaVuSans-30"/>
       <use x="127.246094" xlink:href="#DejaVuSans-30"/>
      </g>
     </g>
    </g>
    <g id="xtick_5">
     <g id="line2d_5">
      <g>
       <use style="stroke:#000000;stroke-width:0.8;" x="334.380177" xlink:href="#me26af79cd9" y="247.425354"/>
      </g>
     </g>
     <g id="text_5">
      <!-- 1100 -->
      <defs>
       <path d="M 12.40625 8.296875 
L 28.515625 8.296875 
L 28.515625 63.921875 
L 10.984375 60.40625 
L 10.984375 69.390625 
L 28.421875 72.90625 
L 38.28125 72.90625 
L 38.28125 8.296875 
L 54.390625 8.296875 
L 54.390625 0 
L 12.40625 0 
z
" id="DejaVuSans-31"/>
      </defs>
      <g transform="translate(320.382677 259.283636)scale(0.11 -0.11)">
       <use xlink:href="#DejaVuSans-31"/>
       <use x="63.623047" xlink:href="#DejaVuSans-31"/>
       <use x="127.246094" xlink:href="#DejaVuSans-30"/>
       <use x="190.869141" xlink:href="#DejaVuSans-30"/>
      </g>
     </g>
    </g>
    <g id="xtick_6">
     <g id="line2d_6">
      <g>
       <use style="stroke:#000000;stroke-width:0.8;" x="397.570295" xlink:href="#me26af79cd9" y="247.425354"/>
      </g>
     </g>
     <g id="text_6">
      <!-- 1300 -->
      <g transform="translate(383.572795 259.283636)scale(0.11 -0.11)">
       <use xlink:href="#DejaVuSans-31"/>
       <use x="63.623047" xlink:href="#DejaVuSans-33"/>
       <use x="127.246094" xlink:href="#DejaVuSans-30"/>
       <use x="190.869141" xlink:href="#DejaVuSans-30"/>
      </g>
     </g>
    </g>
    <g id="text_7">
     <!-- Volume $[\AA^3]$  -->
     <defs>
      <path d="M 28.609375 0 
L 0.78125 72.90625 
L 11.078125 72.90625 
L 34.1875 11.53125 
L 57.328125 72.90625 
L 67.578125 72.90625 
L 39.796875 0 
z
" id="DejaVuSans-56"/>
      <path d="M 30.609375 48.390625 
Q 23.390625 48.390625 19.1875 42.75 
Q 14.984375 37.109375 14.984375 27.296875 
Q 14.984375 17.484375 19.15625 11.84375 
Q 23.34375 6.203125 30.609375 6.203125 
Q 37.796875 6.203125 41.984375 11.859375 
Q 46.1875 17.53125 46.1875 27.296875 
Q 46.1875 37.015625 41.984375 42.703125 
Q 37.796875 48.390625 30.609375 48.390625 
z
M 30.609375 56 
Q 42.328125 56 49.015625 48.375 
Q 55.71875 40.765625 55.71875 27.296875 
Q 55.71875 13.875 49.015625 6.21875 
Q 42.328125 -1.421875 30.609375 -1.421875 
Q 18.84375 -1.421875 12.171875 6.21875 
Q 5.515625 13.875 5.515625 27.296875 
Q 5.515625 40.765625 12.171875 48.375 
Q 18.84375 56 30.609375 56 
z
" id="DejaVuSans-6f"/>
      <path d="M 9.421875 75.984375 
L 18.40625 75.984375 
L 18.40625 0 
L 9.421875 0 
z
" id="DejaVuSans-6c"/>
      <path d="M 8.5 21.578125 
L 8.5 54.6875 
L 17.484375 54.6875 
L 17.484375 21.921875 
Q 17.484375 14.15625 20.5 10.265625 
Q 23.53125 6.390625 29.59375 6.390625 
Q 36.859375 6.390625 41.078125 11.03125 
Q 45.3125 15.671875 45.3125 23.6875 
L 45.3125 54.6875 
L 54.296875 54.6875 
L 54.296875 0 
L 45.3125 0 
L 45.3125 8.40625 
Q 42.046875 3.421875 37.71875 1 
Q 33.40625 -1.421875 27.6875 -1.421875 
Q 18.265625 -1.421875 13.375 4.4375 
Q 8.5 10.296875 8.5 21.578125 
z
M 31.109375 56 
z
" id="DejaVuSans-75"/>
      <path d="M 52 44.1875 
Q 55.375 50.25 60.0625 53.125 
Q 64.75 56 71.09375 56 
Q 79.640625 56 84.28125 50.015625 
Q 88.921875 44.046875 88.921875 33.015625 
L 88.921875 0 
L 79.890625 0 
L 79.890625 32.71875 
Q 79.890625 40.578125 77.09375 44.375 
Q 74.3125 48.1875 68.609375 48.1875 
Q 61.625 48.1875 57.5625 43.546875 
Q 53.515625 38.921875 53.515625 30.90625 
L 53.515625 0 
L 44.484375 0 
L 44.484375 32.71875 
Q 44.484375 40.625 41.703125 44.40625 
Q 38.921875 48.1875 33.109375 48.1875 
Q 26.21875 48.1875 22.15625 43.53125 
Q 18.109375 38.875 18.109375 30.90625 
L 18.109375 0 
L 9.078125 0 
L 9.078125 54.6875 
L 18.109375 54.6875 
L 18.109375 46.1875 
Q 21.1875 51.21875 25.484375 53.609375 
Q 29.78125 56 35.6875 56 
Q 41.65625 56 45.828125 52.96875 
Q 50 49.953125 52 44.1875 
z
" id="DejaVuSans-6d"/>
      <path d="M 56.203125 29.59375 
L 56.203125 25.203125 
L 14.890625 25.203125 
Q 15.484375 15.921875 20.484375 11.0625 
Q 25.484375 6.203125 34.421875 6.203125 
Q 39.59375 6.203125 44.453125 7.46875 
Q 49.3125 8.734375 54.109375 11.28125 
L 54.109375 2.78125 
Q 49.265625 0.734375 44.1875 -0.34375 
Q 39.109375 -1.421875 33.890625 -1.421875 
Q 20.796875 -1.421875 13.15625 6.1875 
Q 5.515625 13.8125 5.515625 26.8125 
Q 5.515625 40.234375 12.765625 48.109375 
Q 20.015625 56 32.328125 56 
Q 43.359375 56 49.78125 48.890625 
Q 56.203125 41.796875 56.203125 29.59375 
z
M 47.21875 32.234375 
Q 47.125 39.59375 43.09375 43.984375 
Q 39.0625 48.390625 32.421875 48.390625 
Q 24.90625 48.390625 20.390625 44.140625 
Q 15.875 39.890625 15.1875 32.171875 
z
" id="DejaVuSans-65"/>
      <path id="DejaVuSans-20"/>
      <path d="M 8.59375 75.984375 
L 29.296875 75.984375 
L 29.296875 69 
L 17.578125 69 
L 17.578125 -6.203125 
L 29.296875 -6.203125 
L 29.296875 -13.1875 
L 8.59375 -13.1875 
z
" id="DejaVuSans-5b"/>
      <path d="M 49.8125 79.390625 
Q 49.8125 82.46875 47.625 84.640625 
Q 45.453125 86.8125 42.390625 86.8125 
Q 39.265625 86.8125 37.140625 84.6875 
Q 35.015625 82.5625 35.015625 79.390625 
Q 35.015625 76.3125 37.140625 74.15625 
Q 39.265625 72.015625 42.390625 72.015625 
Q 45.453125 72.015625 47.625 74.15625 
Q 49.8125 76.3125 49.8125 79.390625 
z
M 34.421875 68.703125 
Q 31.78125 70.515625 30.390625 73.265625 
Q 29 76.03125 29 79.390625 
Q 29 84.96875 32.90625 88.890625 
Q 36.8125 92.828125 42.390625 92.828125 
Q 47.953125 92.828125 51.875 88.890625 
Q 55.8125 84.96875 55.8125 79.390625 
Q 55.8125 75.53125 54.03125 72.546875 
Q 52.25 69.578125 48.875 67.828125 
L 61.53125 0 
L 51.21875 0 
L 48.1875 18.703125 
L 15.375 18.703125 
L 5.078125 0 
L -5.328125 0 
z
M 40.375 63.1875 
L 19.921875 26.90625 
L 46.6875 26.90625 
z
" id="DejaVuSans-Oblique-c5"/>
      <path d="M 30.421875 75.984375 
L 30.421875 -13.1875 
L 9.71875 -13.1875 
L 9.71875 -6.203125 
L 21.390625 -6.203125 
L 21.390625 69 
L 9.71875 69 
L 9.71875 75.984375 
z
" id="DejaVuSans-5d"/>
     </defs>
     <g transform="translate(187.835 279.363792)scale(0.16 -0.16)">
      <use transform="translate(0 0.171875)" xlink:href="#DejaVuSans-56"/>
      <use transform="translate(68.408203 0.171875)" xlink:href="#DejaVuSans-6f"/>
      <use transform="translate(129.589844 0.171875)" xlink:href="#DejaVuSans-6c"/>
      <use transform="translate(157.373047 0.171875)" xlink:href="#DejaVuSans-75"/>
      <use transform="translate(220.751953 0.171875)" xlink:href="#DejaVuSans-6d"/>
      <use transform="translate(318.164062 0.171875)" xlink:href="#DejaVuSans-65"/>
      <use transform="translate(379.6875 0.171875)" xlink:href="#DejaVuSans-20"/>
      <use transform="translate(411.474609 0.171875)" xlink:href="#DejaVuSans-5b"/>
      <use transform="translate(450.488281 0.171875)" xlink:href="#DejaVuSans-Oblique-c5"/>
      <use transform="translate(528.702318 38.453125)scale(0.7)" xlink:href="#DejaVuSans-33"/>
      <use transform="translate(575.972826 0.171875)" xlink:href="#DejaVuSans-5d"/>
      <use transform="translate(614.986497 0.171875)" xlink:href="#DejaVuSans-20"/>
     </g>
    </g>
   </g>
   <g id="matplotlib.axis_2">
    <g id="ytick_1">
     <g id="line2d_7">
      <defs>
       <path d="M 0 0 
L 3.5 0 
" id="mdd046deefb" style="stroke:#000000;stroke-width:0.8;"/>
      </defs>
      <g>
       <use style="stroke:#000000;stroke-width:0.8;" x="50.024646" xlink:href="#mdd046deefb" y="186.997677"/>
      </g>
     </g>
     <g id="text_8">
      <!-- 0.05 -->
      <defs>
       <path d="M 10.6875 12.40625 
L 21 12.40625 
L 21 0 
L 10.6875 0 
z
" id="DejaVuSans-2e"/>
      </defs>
      <g transform="translate(22.032458 191.176818)scale(0.11 -0.11)">
       <use xlink:href="#DejaVuSans-30"/>
       <use x="63.623047" xlink:href="#DejaVuSans-2e"/>
       <use x="95.410156" xlink:href="#DejaVuSans-30"/>
       <use x="159.033203" xlink:href="#DejaVuSans-35"/>
      </g>
     </g>
    </g>
    <g id="ytick_2">
     <g id="line2d_8">
      <g>
       <use style="stroke:#000000;stroke-width:0.8;" x="50.024646" xlink:href="#mdd046deefb" y="126.57"/>
      </g>
     </g>
     <g id="text_9">
      <!-- 0.10 -->
      <g transform="translate(22.032458 130.749141)scale(0.11 -0.11)">
       <use xlink:href="#DejaVuSans-30"/>
       <use x="63.623047" xlink:href="#DejaVuSans-2e"/>
       <use x="95.410156" xlink:href="#DejaVuSans-31"/>
       <use x="159.033203" xlink:href="#DejaVuSans-30"/>
      </g>
     </g>
    </g>
    <g id="ytick_3">
     <g id="line2d_9">
      <g>
       <use style="stroke:#000000;stroke-width:0.8;" x="50.024646" xlink:href="#mdd046deefb" y="66.142323"/>
      </g>
     </g>
     <g id="text_10">
      <!-- 0.15 -->
      <g transform="translate(22.032458 70.321463)scale(0.11 -0.11)">
       <use xlink:href="#DejaVuSans-30"/>
       <use x="63.623047" xlink:href="#DejaVuSans-2e"/>
       <use x="95.410156" xlink:href="#DejaVuSans-31"/>
       <use x="159.033203" xlink:href="#DejaVuSans-35"/>
      </g>
     </g>
    </g>
    <g id="ytick_4">
     <g id="line2d_10">
      <g>
       <use style="stroke:#000000;stroke-width:0.8;" x="50.024646" xlink:href="#mdd046deefb" y="5.714646"/>
      </g>
     </g>
     <g id="text_11">
      <!-- 0.20 -->
      <defs>
       <path d="M 19.1875 8.296875 
L 53.609375 8.296875 
L 53.609375 0 
L 7.328125 0 
L 7.328125 8.296875 
Q 12.9375 14.109375 22.625 23.890625 
Q 32.328125 33.6875 34.8125 36.53125 
Q 39.546875 41.84375 41.421875 45.53125 
Q 43.3125 49.21875 43.3125 52.78125 
Q 43.3125 58.59375 39.234375 62.25 
Q 35.15625 65.921875 28.609375 65.921875 
Q 23.96875 65.921875 18.8125 64.3125 
Q 13.671875 62.703125 7.8125 59.421875 
L 7.8125 69.390625 
Q 13.765625 71.78125 18.9375 73 
Q 24.125 74.21875 28.421875 74.21875 
Q 39.75 74.21875 46.484375 68.546875 
Q 53.21875 62.890625 53.21875 53.421875 
Q 53.21875 48.921875 51.53125 44.890625 
Q 49.859375 40.875 45.40625 35.40625 
Q 44.1875 33.984375 37.640625 27.21875 
Q 31.109375 20.453125 19.1875 8.296875 
z
" id="DejaVuSans-32"/>
      </defs>
      <g transform="translate(22.032458 9.893786)scale(0.11 -0.11)">
       <use xlink:href="#DejaVuSans-30"/>
       <use x="63.623047" xlink:href="#DejaVuSans-2e"/>
       <use x="95.410156" xlink:href="#DejaVuSans-32"/>
       <use x="159.033203" xlink:href="#DejaVuSans-30"/>
      </g>
     </g>
    </g>
    <g id="text_12">
     <!-- Density -->
     <defs>
      <path d="M 19.671875 64.796875 
L 19.671875 8.109375 
L 31.59375 8.109375 
Q 46.6875 8.109375 53.6875 14.9375 
Q 60.6875 21.78125 60.6875 36.53125 
Q 60.6875 51.171875 53.6875 57.984375 
Q 46.6875 64.796875 31.59375 64.796875 
z
M 9.8125 72.90625 
L 30.078125 72.90625 
Q 51.265625 72.90625 61.171875 64.09375 
Q 71.09375 55.28125 71.09375 36.53125 
Q 71.09375 17.671875 61.125 8.828125 
Q 51.171875 0 30.078125 0 
L 9.8125 0 
z
" id="DejaVuSans-44"/>
      <path d="M 54.890625 33.015625 
L 54.890625 0 
L 45.90625 0 
L 45.90625 32.71875 
Q 45.90625 40.484375 42.875 44.328125 
Q 39.84375 48.1875 33.796875 48.1875 
Q 26.515625 48.1875 22.3125 43.546875 
Q 18.109375 38.921875 18.109375 30.90625 
L 18.109375 0 
L 9.078125 0 
L 9.078125 54.6875 
L 18.109375 54.6875 
L 18.109375 46.1875 
Q 21.34375 51.125 25.703125 53.5625 
Q 30.078125 56 35.796875 56 
Q 45.21875 56 50.046875 50.171875 
Q 54.890625 44.34375 54.890625 33.015625 
z
" id="DejaVuSans-6e"/>
      <path d="M 44.28125 53.078125 
L 44.28125 44.578125 
Q 40.484375 46.53125 36.375 47.5 
Q 32.28125 48.484375 27.875 48.484375 
Q 21.1875 48.484375 17.84375 46.4375 
Q 14.5 44.390625 14.5 40.28125 
Q 14.5 37.15625 16.890625 35.375 
Q 19.28125 33.59375 26.515625 31.984375 
L 29.59375 31.296875 
Q 39.15625 29.25 43.1875 25.515625 
Q 47.21875 21.78125 47.21875 15.09375 
Q 47.21875 7.46875 41.1875 3.015625 
Q 35.15625 -1.421875 24.609375 -1.421875 
Q 20.21875 -1.421875 15.453125 -0.5625 
Q 10.6875 0.296875 5.421875 2 
L 5.421875 11.28125 
Q 10.40625 8.6875 15.234375 7.390625 
Q 20.0625 6.109375 24.8125 6.109375 
Q 31.15625 6.109375 34.5625 8.28125 
Q 37.984375 10.453125 37.984375 14.40625 
Q 37.984375 18.0625 35.515625 20.015625 
Q 33.0625 21.96875 24.703125 23.78125 
L 21.578125 24.515625 
Q 13.234375 26.265625 9.515625 29.90625 
Q 5.8125 33.546875 5.8125 39.890625 
Q 5.8125 47.609375 11.28125 51.796875 
Q 16.75 56 26.8125 56 
Q 31.78125 56 36.171875 55.265625 
Q 40.578125 54.546875 44.28125 53.078125 
z
" id="DejaVuSans-73"/>
      <path d="M 9.421875 54.6875 
L 18.40625 54.6875 
L 18.40625 0 
L 9.421875 0 
z
M 9.421875 75.984375 
L 18.40625 75.984375 
L 18.40625 64.59375 
L 9.421875 64.59375 
z
" id="DejaVuSans-69"/>
      <path d="M 18.3125 70.21875 
L 18.3125 54.6875 
L 36.8125 54.6875 
L 36.8125 47.703125 
L 18.3125 47.703125 
L 18.3125 18.015625 
Q 18.3125 11.328125 20.140625 9.421875 
Q 21.96875 7.515625 27.59375 7.515625 
L 36.8125 7.515625 
L 36.8125 0 
L 27.59375 0 
Q 17.1875 0 13.234375 3.875 
Q 9.28125 7.765625 9.28125 18.015625 
L 9.28125 47.703125 
L 2.6875 47.703125 
L 2.6875 54.6875 
L 9.28125 54.6875 
L 9.28125 70.21875 
z
" id="DejaVuSans-74"/>
      <path d="M 32.171875 -5.078125 
Q 28.375 -14.84375 24.75 -17.8125 
Q 21.140625 -20.796875 15.09375 -20.796875 
L 7.90625 -20.796875 
L 7.90625 -13.28125 
L 13.1875 -13.28125 
Q 16.890625 -13.28125 18.9375 -11.515625 
Q 21 -9.765625 23.484375 -3.21875 
L 25.09375 0.875 
L 2.984375 54.6875 
L 12.5 54.6875 
L 29.59375 11.921875 
L 46.6875 54.6875 
L 56.203125 54.6875 
z
" id="DejaVuSans-79"/>
     </defs>
     <g transform="translate(14.704958 156.98375)rotate(-90)scale(0.16 -0.16)">
      <use xlink:href="#DejaVuSans-44"/>
      <use x="77.001953" xlink:href="#DejaVuSans-65"/>
      <use x="138.525391" xlink:href="#DejaVuSans-6e"/>
      <use x="201.904297" xlink:href="#DejaVuSans-73"/>
      <use x="254.003906" xlink:href="#DejaVuSans-69"/>
      <use x="281.787109" xlink:href="#DejaVuSans-74"/>
      <use x="320.996094" xlink:href="#DejaVuSans-79"/>
     </g>
    </g>
   </g>
   <g id="patch_43">
    <path clip-path="url(#p805edfb14d)" d="M 54.763905 247.425354 
L 54.763905 247.425354 
L 61.872793 247.425354 
L 61.872793 247.425354 
L 54.763905 247.425354 
" style="fill:#6b5b95;"/>
   </g>
   <g id="patch_44">
    <path clip-path="url(#p805edfb14d)" d="M 64.242422 247.425354 
L 64.242422 247.425354 
L 71.351311 247.425354 
L 71.351311 247.425354 
L 64.242422 247.425354 
" style="fill:#6b5b95;"/>
   </g>
   <g id="patch_45">
    <path clip-path="url(#p805edfb14d)" d="M 73.72094 247.425354 
L 73.72094 247.425354 
L 80.829828 247.425354 
L 80.829828 247.425354 
L 73.72094 247.425354 
" style="fill:#6b5b95;"/>
   </g>
   <g id="patch_46">
    <path clip-path="url(#p805edfb14d)" d="M 83.199458 247.425354 
L 83.199458 247.425354 
L 90.308346 247.425354 
L 90.308346 247.425354 
L 83.199458 247.425354 
" style="fill:#6b5b95;"/>
   </g>
   <g id="patch_47">
    <path clip-path="url(#p805edfb14d)" d="M 92.677975 247.425354 
L 92.677975 247.425354 
L 99.786864 247.425354 
L 99.786864 247.425354 
L 92.677975 247.425354 
" style="fill:#6b5b95;"/>
   </g>
   <g id="patch_48">
    <path clip-path="url(#p805edfb14d)" d="M 102.156493 247.425354 
L 102.156493 247.425354 
L 109.265381 247.425354 
L 109.265381 247.425354 
L 102.156493 247.425354 
" style="fill:#6b5b95;"/>
   </g>
   <g id="patch_49">
    <path clip-path="url(#p805edfb14d)" d="M 111.635011 247.425354 
L 111.635011 247.425354 
L 118.743899 247.425354 
L 118.743899 247.425354 
L 111.635011 247.425354 
" style="fill:#6b5b95;"/>
   </g>
   <g id="patch_50">
    <path clip-path="url(#p805edfb14d)" d="M 121.113529 247.425354 
L 121.113529 247.425354 
L 128.222417 247.425354 
L 128.222417 247.425354 
L 121.113529 247.425354 
" style="fill:#6b5b95;"/>
   </g>
   <g id="patch_51">
    <path clip-path="url(#p805edfb14d)" d="M 130.592046 246.776223 
L 130.592046 247.425354 
L 137.700935 247.425354 
L 137.700935 246.776223 
L 130.592046 246.776223 
" style="fill:#6b5b95;"/>
   </g>
   <g id="patch_52">
    <path clip-path="url(#p805edfb14d)" d="M 140.070564 245.542872 
L 140.070564 247.425354 
L 147.179452 247.425354 
L 147.179452 245.542872 
L 140.070564 245.542872 
" style="fill:#6b5b95;"/>
   </g>
   <g id="patch_53">
    <path clip-path="url(#p805edfb14d)" d="M 149.549082 241.388429 
L 149.549082 247.425354 
L 156.65797 247.425354 
L 156.65797 241.388429 
L 149.549082 241.388429 
" style="fill:#6b5b95;"/>
   </g>
   <g id="patch_54">
    <path clip-path="url(#p805edfb14d)" d="M 159.027599 243.725303 
L 159.027599 247.425354 
L 166.136488 247.425354 
L 166.136488 243.725303 
L 159.027599 243.725303 
" style="fill:#6b5b95;"/>
   </g>
   <g id="patch_55">
    <path clip-path="url(#p805edfb14d)" d="M 168.506117 238.077857 
L 168.506117 247.425354 
L 175.615005 247.425354 
L 175.615005 238.077857 
L 168.506117 238.077857 
" style="fill:#6b5b95;"/>
   </g>
   <g id="patch_56">
    <path clip-path="url(#p805edfb14d)" d="M 177.984635 227.951401 
L 177.984635 247.425354 
L 185.093523 247.425354 
L 185.093523 227.951401 
L 177.984635 227.951401 
" style="fill:#6b5b95;"/>
   </g>
   <g id="patch_57">
    <path clip-path="url(#p805edfb14d)" d="M 187.463153 215.942463 
L 187.463153 247.425354 
L 194.572041 247.425354 
L 194.572041 215.942463 
L 187.463153 215.942463 
" style="fill:#6b5b95;"/>
   </g>
   <g id="patch_58">
    <path clip-path="url(#p805edfb14d)" d="M 196.94167 212.696804 
L 196.94167 247.425354 
L 204.050559 247.425354 
L 204.050559 212.696804 
L 196.94167 212.696804 
" style="fill:#6b5b95;"/>
   </g>
   <g id="patch_59">
    <path clip-path="url(#p805edfb14d)" d="M 206.420188 189.5228 
L 206.420188 247.425354 
L 213.529076 247.425354 
L 213.529076 189.5228 
L 206.420188 189.5228 
" style="fill:#6b5b95;"/>
   </g>
   <g id="patch_60">
    <path clip-path="url(#p805edfb14d)" d="M 215.898706 163.947008 
L 215.898706 247.425354 
L 223.007594 247.425354 
L 223.007594 163.947008 
L 215.898706 163.947008 
" style="fill:#6b5b95;"/>
   </g>
   <g id="patch_61">
    <path clip-path="url(#p805edfb14d)" d="M 225.377223 160.376783 
L 225.377223 247.425354 
L 232.486112 247.425354 
L 232.486112 160.376783 
L 225.377223 160.376783 
" style="fill:#6b5b95;"/>
   </g>
   <g id="patch_62">
    <path clip-path="url(#p805edfb14d)" d="M 234.855741 161.73996 
L 234.855741 247.425354 
L 241.964629 247.425354 
L 241.964629 161.73996 
L 234.855741 161.73996 
" style="fill:#6b5b95;"/>
   </g>
   <g id="patch_63">
    <path clip-path="url(#p805edfb14d)" d="M 244.334259 144.602881 
L 244.334259 247.425354 
L 251.443147 247.425354 
L 251.443147 144.602881 
L 244.334259 144.602881 
" style="fill:#6b5b95;"/>
   </g>
   <g id="patch_64">
    <path clip-path="url(#p805edfb14d)" d="M 253.812777 162.908397 
L 253.812777 247.425354 
L 260.921665 247.425354 
L 260.921665 162.908397 
L 253.812777 162.908397 
" style="fill:#6b5b95;"/>
   </g>
   <g id="patch_65">
    <path clip-path="url(#p805edfb14d)" d="M 263.291294 162.518918 
L 263.291294 247.425354 
L 270.400183 247.425354 
L 270.400183 162.518918 
L 263.291294 162.518918 
" style="fill:#6b5b95;"/>
   </g>
   <g id="patch_66">
    <path clip-path="url(#p805edfb14d)" d="M 272.769812 170.633065 
L 272.769812 247.425354 
L 279.8787 247.425354 
L 279.8787 170.633065 
L 272.769812 170.633065 
" style="fill:#6b5b95;"/>
   </g>
   <g id="patch_67">
    <path clip-path="url(#p805edfb14d)" d="M 282.24833 186.342054 
L 282.24833 247.425354 
L 289.357218 247.425354 
L 289.357218 186.342054 
L 282.24833 186.342054 
" style="fill:#6b5b95;"/>
   </g>
   <g id="patch_68">
    <path clip-path="url(#p805edfb14d)" d="M 291.726847 185.368356 
L 291.726847 247.425354 
L 298.835736 247.425354 
L 298.835736 185.368356 
L 291.726847 185.368356 
" style="fill:#6b5b95;"/>
   </g>
   <g id="patch_69">
    <path clip-path="url(#p805edfb14d)" d="M 301.205365 199.000124 
L 301.205365 247.425354 
L 308.314253 247.425354 
L 308.314253 199.000124 
L 301.205365 199.000124 
" style="fill:#6b5b95;"/>
   </g>
   <g id="patch_70">
    <path clip-path="url(#p805edfb14d)" d="M 310.683883 207.69849 
L 310.683883 247.425354 
L 317.792771 247.425354 
L 317.792771 207.69849 
L 310.683883 207.69849 
" style="fill:#6b5b95;"/>
   </g>
   <g id="patch_71">
    <path clip-path="url(#p805edfb14d)" d="M 320.162401 213.540676 
L 320.162401 247.425354 
L 327.271289 247.425354 
L 327.271289 213.540676 
L 320.162401 213.540676 
" style="fill:#6b5b95;"/>
   </g>
   <g id="patch_72">
    <path clip-path="url(#p805edfb14d)" d="M 329.640918 211.78802 
L 329.640918 247.425354 
L 336.749807 247.425354 
L 336.749807 211.78802 
L 329.640918 211.78802 
" style="fill:#6b5b95;"/>
   </g>
   <g id="patch_73">
    <path clip-path="url(#p805edfb14d)" d="M 339.119436 216.656508 
L 339.119436 247.425354 
L 346.228324 247.425354 
L 346.228324 216.656508 
L 339.119436 216.656508 
" style="fill:#6b5b95;"/>
   </g>
   <g id="patch_74">
    <path clip-path="url(#p805edfb14d)" d="M 348.597954 218.474077 
L 348.597954 247.425354 
L 355.706842 247.425354 
L 355.706842 218.474077 
L 348.597954 218.474077 
" style="fill:#6b5b95;"/>
   </g>
   <g id="patch_75">
    <path clip-path="url(#p805edfb14d)" d="M 358.076471 221.330257 
L 358.076471 247.425354 
L 365.18536 247.425354 
L 365.18536 221.330257 
L 358.076471 221.330257 
" style="fill:#6b5b95;"/>
   </g>
   <g id="patch_76">
    <path clip-path="url(#p805edfb14d)" d="M 367.554989 225.67944 
L 367.554989 247.425354 
L 374.663877 247.425354 
L 374.663877 225.67944 
L 367.554989 225.67944 
" style="fill:#6b5b95;"/>
   </g>
   <g id="patch_77">
    <path clip-path="url(#p805edfb14d)" d="M 377.033507 227.756661 
L 377.033507 247.425354 
L 384.142395 247.425354 
L 384.142395 227.756661 
L 377.033507 227.756661 
" style="fill:#6b5b95;"/>
   </g>
   <g id="patch_78">
    <path clip-path="url(#p805edfb14d)" d="M 386.512025 239.830513 
L 386.512025 247.425354 
L 393.620913 247.425354 
L 393.620913 239.830513 
L 386.512025 239.830513 
" style="fill:#6b5b95;"/>
   </g>
   <g id="patch_79">
    <path clip-path="url(#p805edfb14d)" d="M 395.990542 241.907734 
L 395.990542 247.425354 
L 403.099431 247.425354 
L 403.099431 241.907734 
L 395.990542 241.907734 
" style="fill:#6b5b95;"/>
   </g>
   <g id="patch_80">
    <path clip-path="url(#p805edfb14d)" d="M 405.46906 237.623464 
L 405.46906 247.425354 
L 412.577948 247.425354 
L 412.577948 237.623464 
L 405.46906 237.623464 
" style="fill:#6b5b95;"/>
   </g>
   <g id="patch_81">
    <path clip-path="url(#p805edfb14d)" d="M 414.947578 244.244609 
L 414.947578 247.425354 
L 422.056466 247.425354 
L 422.056466 244.244609 
L 414.947578 244.244609 
" style="fill:#6b5b95;"/>
   </g>
   <g id="patch_82">
    <path clip-path="url(#p805edfb14d)" d="M 424.426095 243.46565 
L 424.426095 247.425354 
L 431.534984 247.425354 
L 431.534984 243.46565 
L 424.426095 243.46565 
" style="fill:#6b5b95;"/>
   </g>
   <g id="patch_83">
    <path d="M 50.024646 247.425354 
L 50.024646 5.714646 
" style="fill:none;stroke:#000000;stroke-linecap:square;stroke-linejoin:miter;"/>
   </g>
   <g id="patch_84">
    <path d="M 50.024646 247.425354 
L 429.165354 247.425354 
" style="fill:none;stroke:#000000;stroke-linecap:square;stroke-linejoin:miter;"/>
   </g>
   <g id="legend_1">
    <g id="patch_85">
     <path d="M 347.779104 35.599646 
L 423.565354 35.599646 
Q 425.165354 35.599646 425.165354 33.999646 
L 425.165354 11.314646 
Q 425.165354 9.714646 423.565354 9.714646 
L 347.779104 9.714646 
Q 346.179104 9.714646 346.179104 11.314646 
L 346.179104 33.999646 
Q 346.179104 35.599646 347.779104 35.599646 
z
" style="fill:#ffffff;stroke:#000000;stroke-linejoin:miter;"/>
    </g>
    <g id="patch_86">
     <path d="M 349.379104 18.993396 
L 365.379104 18.993396 
L 365.379104 13.393396 
L 349.379104 13.393396 
z
" style="fill:#d64161;"/>
    </g>
    <g id="text_13">
     <!-- Conformer 1 -->
     <defs>
      <path d="M 64.40625 67.28125 
L 64.40625 56.890625 
Q 59.421875 61.53125 53.78125 63.8125 
Q 48.140625 66.109375 41.796875 66.109375 
Q 29.296875 66.109375 22.65625 58.46875 
Q 16.015625 50.828125 16.015625 36.375 
Q 16.015625 21.96875 22.65625 14.328125 
Q 29.296875 6.6875 41.796875 6.6875 
Q 48.140625 6.6875 53.78125 8.984375 
Q 59.421875 11.28125 64.40625 15.921875 
L 64.40625 5.609375 
Q 59.234375 2.09375 53.4375 0.328125 
Q 47.65625 -1.421875 41.21875 -1.421875 
Q 24.65625 -1.421875 15.125 8.703125 
Q 5.609375 18.84375 5.609375 36.375 
Q 5.609375 53.953125 15.125 64.078125 
Q 24.65625 74.21875 41.21875 74.21875 
Q 47.75 74.21875 53.53125 72.484375 
Q 59.328125 70.75 64.40625 67.28125 
z
" id="DejaVuSans-43"/>
      <path d="M 37.109375 75.984375 
L 37.109375 68.5 
L 28.515625 68.5 
Q 23.6875 68.5 21.796875 66.546875 
Q 19.921875 64.59375 19.921875 59.515625 
L 19.921875 54.6875 
L 34.71875 54.6875 
L 34.71875 47.703125 
L 19.921875 47.703125 
L 19.921875 0 
L 10.890625 0 
L 10.890625 47.703125 
L 2.296875 47.703125 
L 2.296875 54.6875 
L 10.890625 54.6875 
L 10.890625 58.5 
Q 10.890625 67.625 15.140625 71.796875 
Q 19.390625 75.984375 28.609375 75.984375 
z
" id="DejaVuSans-66"/>
      <path d="M 41.109375 46.296875 
Q 39.59375 47.171875 37.8125 47.578125 
Q 36.03125 48 33.890625 48 
Q 26.265625 48 22.1875 43.046875 
Q 18.109375 38.09375 18.109375 28.8125 
L 18.109375 0 
L 9.078125 0 
L 9.078125 54.6875 
L 18.109375 54.6875 
L 18.109375 46.1875 
Q 20.953125 51.171875 25.484375 53.578125 
Q 30.03125 56 36.53125 56 
Q 37.453125 56 38.578125 55.875 
Q 39.703125 55.765625 41.0625 55.515625 
z
" id="DejaVuSans-72"/>
     </defs>
     <g transform="translate(371.779104 18.993396)scale(0.08 -0.08)">
      <use xlink:href="#DejaVuSans-43"/>
      <use x="69.824219" xlink:href="#DejaVuSans-6f"/>
      <use x="131.005859" xlink:href="#DejaVuSans-6e"/>
      <use x="194.384766" xlink:href="#DejaVuSans-66"/>
      <use x="229.589844" xlink:href="#DejaVuSans-6f"/>
      <use x="290.771484" xlink:href="#DejaVuSans-72"/>
      <use x="331.869141" xlink:href="#DejaVuSans-6d"/>
      <use x="429.28125" xlink:href="#DejaVuSans-65"/>
      <use x="490.804688" xlink:href="#DejaVuSans-72"/>
      <use x="531.917969" xlink:href="#DejaVuSans-20"/>
      <use x="563.705078" xlink:href="#DejaVuSans-31"/>
     </g>
    </g>
    <g id="patch_87">
     <path d="M 349.379104 30.735896 
L 365.379104 30.735896 
L 365.379104 25.135896 
L 349.379104 25.135896 
z
" style="fill:#6b5b95;"/>
    </g>
    <g id="text_14">
     <!-- Conformer 2 -->
     <g transform="translate(371.779104 30.735896)scale(0.08 -0.08)">
      <use xlink:href="#DejaVuSans-43"/>
      <use x="69.824219" xlink:href="#DejaVuSans-6f"/>
      <use x="131.005859" xlink:href="#DejaVuSans-6e"/>
      <use x="194.384766" xlink:href="#DejaVuSans-66"/>
      <use x="229.589844" xlink:href="#DejaVuSans-6f"/>
      <use x="290.771484" xlink:href="#DejaVuSans-72"/>
      <use x="331.869141" xlink:href="#DejaVuSans-6d"/>
      <use x="429.28125" xlink:href="#DejaVuSans-65"/>
      <use x="490.804688" xlink:href="#DejaVuSans-72"/>
      <use x="531.917969" xlink:href="#DejaVuSans-20"/>
      <use x="563.705078" xlink:href="#DejaVuSans-32"/>
     </g>
    </g>
   </g>
  </g>
 </g>
 <defs>
  <clipPath id="p805edfb14d">
   <rect height="241.710709" width="379.140709" x="50.024646" y="5.714646"/>
  </clipPath>
 </defs>
</svg>
