<?xml version="1.0" encoding="utf-8" standalone="no"?>
<!DOCTYPE svg PUBLIC "-//W3C//DTD SVG 1.1//EN"
  "http://www.w3.org/Graphics/SVG/1.1/DTD/svg11.dtd">
<!-- Created with matplotlib (http://matplotlib.org/) -->
<svg height="288pt" version="1.1" viewBox="0 0 432 288" width="432pt" xmlns="http://www.w3.org/2000/svg" xmlns:xlink="http://www.w3.org/1999/xlink">
 <defs>
  <style type="text/css">
*{stroke-linecap:butt;stroke-linejoin:round;}
  </style>
 </defs>
 <g id="figure_1">
  <g id="patch_1">
   <path d="M 0 288 
L 432 288 
L 432 0 
L 0 0 
z
" style="fill:#ffffff;"/>
  </g>
  <g id="axes_1">
   <g id="patch_2">
    <path d="M 81.524646 229.312854 
L 429.165354 229.312854 
L 429.165354 9.674646 
L 81.524646 9.674646 
z
" style="fill:#ffffff;"/>
   </g>
   <g id="patch_3">
    <path clip-path="url(#p19205ac5a5)" d="M 80.283072 229.312854 
L 80.283072 229.312854 
L 82.145433 229.312854 
L 82.145433 229.312854 
L 80.283072 229.312854 
" style="fill:#d64161;"/>
   </g>
   <g id="patch_4">
    <path clip-path="url(#p19205ac5a5)" d="M 85.249368 229.312854 
L 85.249368 229.312854 
L 87.111728 229.312854 
L 87.111728 229.312854 
L 85.249368 229.312854 
" style="fill:#d64161;"/>
   </g>
   <g id="patch_5">
    <path clip-path="url(#p19205ac5a5)" d="M 90.215663 229.312854 
L 90.215663 229.312854 
L 92.078024 229.312854 
L 92.078024 229.312854 
L 90.215663 229.312854 
" style="fill:#d64161;"/>
   </g>
   <g id="patch_6">
    <path clip-path="url(#p19205ac5a5)" d="M 95.181959 229.312854 
L 95.181959 229.312854 
L 97.04432 229.312854 
L 97.04432 229.312854 
L 95.181959 229.312854 
" style="fill:#d64161;"/>
   </g>
   <g id="patch_7">
    <path clip-path="url(#p19205ac5a5)" d="M 100.148255 228.842366 
L 100.148255 229.312854 
L 102.010616 229.312854 
L 102.010616 228.842366 
L 100.148255 228.842366 
" style="fill:#d64161;"/>
   </g>
   <g id="patch_8">
    <path clip-path="url(#p19205ac5a5)" d="M 105.114551 224.71655 
L 105.114551 229.312854 
L 106.976912 229.312854 
L 106.976912 224.71655 
L 105.114551 224.71655 
" style="fill:#d64161;"/>
   </g>
   <g id="patch_9">
    <path clip-path="url(#p19205ac5a5)" d="M 110.080847 205.897036 
L 110.080847 229.312854 
L 111.943208 229.312854 
L 111.943208 205.897036 
L 110.080847 205.897036 
" style="fill:#d64161;"/>
   </g>
   <g id="patch_10">
    <path clip-path="url(#p19205ac5a5)" d="M 115.047143 153.238587 
L 115.047143 229.312854 
L 116.909504 229.312854 
L 116.909504 153.238587 
L 115.047143 153.238587 
" style="fill:#d64161;"/>
   </g>
   <g id="patch_11">
    <path clip-path="url(#p19205ac5a5)" d="M 120.013438 100.037268 
L 120.013438 229.312854 
L 121.875799 229.312854 
L 121.875799 100.037268 
L 120.013438 100.037268 
" style="fill:#d64161;"/>
   </g>
   <g id="patch_12">
    <path clip-path="url(#p19205ac5a5)" d="M 124.979734 26.098291 
L 124.979734 229.312854 
L 126.842095 229.312854 
L 126.842095 26.098291 
L 124.979734 26.098291 
" style="fill:#d64161;"/>
   </g>
   <g id="patch_13">
    <path clip-path="url(#p19205ac5a5)" d="M 129.94603 14.770391 
L 129.94603 229.312854 
L 131.808391 229.312854 
L 131.808391 14.770391 
L 129.94603 14.770391 
" style="fill:#d64161;"/>
   </g>
   <g id="patch_14">
    <path clip-path="url(#p19205ac5a5)" d="M 134.912326 52.626568 
L 134.912326 229.312854 
L 136.774687 229.312854 
L 136.774687 52.626568 
L 134.912326 52.626568 
" style="fill:#d64161;"/>
   </g>
   <g id="patch_15">
    <path clip-path="url(#p19205ac5a5)" d="M 139.878622 102.244941 
L 139.878622 229.312854 
L 141.740983 229.312854 
L 141.740983 102.244941 
L 139.878622 102.244941 
" style="fill:#d64161;"/>
   </g>
   <g id="patch_16">
    <path clip-path="url(#p19205ac5a5)" d="M 144.844918 150.343277 
L 144.844918 229.312854 
L 146.707279 229.312854 
L 146.707279 150.343277 
L 144.844918 150.343277 
" style="fill:#d64161;"/>
   </g>
   <g id="patch_17">
    <path clip-path="url(#p19205ac5a5)" d="M 149.811213 188.235645 
L 149.811213 229.312854 
L 151.673574 229.312854 
L 151.673574 188.235645 
L 149.811213 188.235645 
" style="fill:#d64161;"/>
   </g>
   <g id="patch_18">
    <path clip-path="url(#p19205ac5a5)" d="M 154.777509 214.221052 
L 154.777509 229.312854 
L 156.63987 229.312854 
L 156.63987 214.221052 
L 154.777509 214.221052 
" style="fill:#d64161;"/>
   </g>
   <g id="patch_19">
    <path clip-path="url(#p19205ac5a5)" d="M 159.743805 223.739383 
L 159.743805 229.312854 
L 161.606166 229.312854 
L 161.606166 223.739383 
L 159.743805 223.739383 
" style="fill:#d64161;"/>
   </g>
   <g id="patch_20">
    <path clip-path="url(#p19205ac5a5)" d="M 164.710101 227.792817 
L 164.710101 229.312854 
L 166.572462 229.312854 
L 166.572462 227.792817 
L 164.710101 227.792817 
" style="fill:#d64161;"/>
   </g>
   <g id="patch_21">
    <path clip-path="url(#p19205ac5a5)" d="M 169.676397 228.697601 
L 169.676397 229.312854 
L 171.538758 229.312854 
L 171.538758 228.697601 
L 169.676397 228.697601 
" style="fill:#d64161;"/>
   </g>
   <g id="patch_22">
    <path clip-path="url(#p19205ac5a5)" d="M 174.642693 229.312854 
L 174.642693 229.312854 
L 176.505054 229.312854 
L 176.505054 229.312854 
L 174.642693 229.312854 
" style="fill:#d64161;"/>
   </g>
   <g id="patch_23">
    <path clip-path="url(#p19205ac5a5)" d="M 179.608988 229.312854 
L 179.608988 229.312854 
L 181.471349 229.312854 
L 181.471349 229.312854 
L 179.608988 229.312854 
" style="fill:#d64161;"/>
   </g>
   <g id="patch_24">
    <path clip-path="url(#p19205ac5a5)" d="M 184.575284 229.312854 
L 184.575284 229.312854 
L 186.437645 229.312854 
L 186.437645 229.312854 
L 184.575284 229.312854 
" style="fill:#d64161;"/>
   </g>
   <g id="patch_25">
    <path clip-path="url(#p19205ac5a5)" d="M 189.54158 229.312854 
L 189.54158 229.312854 
L 191.403941 229.312854 
L 191.403941 229.312854 
L 189.54158 229.312854 
" style="fill:#d64161;"/>
   </g>
   <g id="patch_26">
    <path clip-path="url(#p19205ac5a5)" d="M 194.507876 229.312854 
L 194.507876 229.312854 
L 196.370237 229.312854 
L 196.370237 229.312854 
L 194.507876 229.312854 
" style="fill:#d64161;"/>
   </g>
   <g id="patch_27">
    <path clip-path="url(#p19205ac5a5)" d="M 199.474172 229.312854 
L 199.474172 229.312854 
L 201.336533 229.312854 
L 201.336533 229.312854 
L 199.474172 229.312854 
" style="fill:#d64161;"/>
   </g>
   <g id="patch_28">
    <path clip-path="url(#p19205ac5a5)" d="M 204.440468 229.312854 
L 204.440468 229.312854 
L 206.302829 229.312854 
L 206.302829 229.312854 
L 204.440468 229.312854 
" style="fill:#d64161;"/>
   </g>
   <g id="patch_29">
    <path clip-path="url(#p19205ac5a5)" d="M 209.406763 229.312854 
L 209.406763 229.312854 
L 211.269124 229.312854 
L 211.269124 229.312854 
L 209.406763 229.312854 
" style="fill:#d64161;"/>
   </g>
   <g id="patch_30">
    <path clip-path="url(#p19205ac5a5)" d="M 214.373059 229.312854 
L 214.373059 229.312854 
L 216.23542 229.312854 
L 216.23542 229.312854 
L 214.373059 229.312854 
" style="fill:#d64161;"/>
   </g>
   <g id="patch_31">
    <path clip-path="url(#p19205ac5a5)" d="M 219.339355 229.312854 
L 219.339355 229.312854 
L 221.201716 229.312854 
L 221.201716 229.312854 
L 219.339355 229.312854 
" style="fill:#d64161;"/>
   </g>
   <g id="patch_32">
    <path clip-path="url(#p19205ac5a5)" d="M 224.305651 229.312854 
L 224.305651 229.312854 
L 226.168012 229.312854 
L 226.168012 229.312854 
L 224.305651 229.312854 
" style="fill:#d64161;"/>
   </g>
   <g id="patch_33">
    <path clip-path="url(#p19205ac5a5)" d="M 229.271947 229.312854 
L 229.271947 229.312854 
L 231.134308 229.312854 
L 231.134308 229.312854 
L 229.271947 229.312854 
" style="fill:#d64161;"/>
   </g>
   <g id="patch_34">
    <path clip-path="url(#p19205ac5a5)" d="M 234.238243 229.312854 
L 234.238243 229.312854 
L 236.100604 229.312854 
L 236.100604 229.312854 
L 234.238243 229.312854 
" style="fill:#d64161;"/>
   </g>
   <g id="patch_35">
    <path clip-path="url(#p19205ac5a5)" d="M 239.204539 229.312854 
L 239.204539 229.312854 
L 241.066899 229.312854 
L 241.066899 229.312854 
L 239.204539 229.312854 
" style="fill:#d64161;"/>
   </g>
   <g id="matplotlib.axis_1">
    <g id="xtick_1">
     <g id="line2d_1">
      <defs>
       <path d="M 0 0 
L 0 -3.5 
" id="mc88463d00e" style="stroke:#000000;stroke-width:0.8;"/>
      </defs>
      <g>
       <use style="stroke:#000000;stroke-width:0.8;" x="98.078965" xlink:href="#mc88463d00e" y="229.312854"/>
      </g>
     </g>
     <g id="text_1">
      <!-- 300 -->
      <defs>
       <path d="M 40.578125 39.3125 
Q 47.65625 37.796875 51.625 33 
Q 55.609375 28.21875 55.609375 21.1875 
Q 55.609375 10.40625 48.1875 4.484375 
Q 40.765625 -1.421875 27.09375 -1.421875 
Q 22.515625 -1.421875 17.65625 -0.515625 
Q 12.796875 0.390625 7.625 2.203125 
L 7.625 11.71875 
Q 11.71875 9.328125 16.59375 8.109375 
Q 21.484375 6.890625 26.8125 6.890625 
Q 36.078125 6.890625 40.9375 10.546875 
Q 45.796875 14.203125 45.796875 21.1875 
Q 45.796875 27.640625 41.28125 31.265625 
Q 36.765625 34.90625 28.71875 34.90625 
L 20.21875 34.90625 
L 20.21875 43.015625 
L 29.109375 43.015625 
Q 36.375 43.015625 40.234375 45.921875 
Q 44.09375 48.828125 44.09375 54.296875 
Q 44.09375 59.90625 40.109375 62.90625 
Q 36.140625 65.921875 28.71875 65.921875 
Q 24.65625 65.921875 20.015625 65.03125 
Q 15.375 64.15625 9.8125 62.3125 
L 9.8125 71.09375 
Q 15.4375 72.65625 20.34375 73.4375 
Q 25.25 74.21875 29.59375 74.21875 
Q 40.828125 74.21875 47.359375 69.109375 
Q 53.90625 64.015625 53.90625 55.328125 
Q 53.90625 49.265625 50.4375 45.09375 
Q 46.96875 40.921875 40.578125 39.3125 
z
" id="DejaVuSans-33"/>
       <path d="M 31.78125 66.40625 
Q 24.171875 66.40625 20.328125 58.90625 
Q 16.5 51.421875 16.5 36.375 
Q 16.5 21.390625 20.328125 13.890625 
Q 24.171875 6.390625 31.78125 6.390625 
Q 39.453125 6.390625 43.28125 13.890625 
Q 47.125 21.390625 47.125 36.375 
Q 47.125 51.421875 43.28125 58.90625 
Q 39.453125 66.40625 31.78125 66.40625 
z
M 31.78125 74.21875 
Q 44.046875 74.21875 50.515625 64.515625 
Q 56.984375 54.828125 56.984375 36.375 
Q 56.984375 17.96875 50.515625 8.265625 
Q 44.046875 -1.421875 31.78125 -1.421875 
Q 19.53125 -1.421875 13.0625 8.265625 
Q 6.59375 17.96875 6.59375 36.375 
Q 6.59375 54.828125 13.0625 64.515625 
Q 19.53125 74.21875 31.78125 74.21875 
z
" id="DejaVuSans-30"/>
      </defs>
      <g transform="translate(77.082715 249.529417)scale(0.22 -0.22)">
       <use xlink:href="#DejaVuSans-33"/>
       <use x="63.623047" xlink:href="#DejaVuSans-30"/>
       <use x="127.246094" xlink:href="#DejaVuSans-30"/>
      </g>
     </g>
    </g>
    <g id="xtick_2">
     <g id="line2d_2">
      <g>
       <use style="stroke:#000000;stroke-width:0.8;" x="114.633285" xlink:href="#mc88463d00e" y="229.312854"/>
      </g>
     </g>
     <g id="text_2">
      <!-- 400 -->
      <defs>
       <path d="M 37.796875 64.3125 
L 12.890625 25.390625 
L 37.796875 25.390625 
z
M 35.203125 72.90625 
L 47.609375 72.90625 
L 47.609375 25.390625 
L 58.015625 25.390625 
L 58.015625 17.1875 
L 47.609375 17.1875 
L 47.609375 0 
L 37.796875 0 
L 37.796875 17.1875 
L 4.890625 17.1875 
L 4.890625 26.703125 
z
" id="DejaVuSans-34"/>
      </defs>
      <g transform="translate(93.637035 249.529417)scale(0.22 -0.22)">
       <use xlink:href="#DejaVuSans-34"/>
       <use x="63.623047" xlink:href="#DejaVuSans-30"/>
       <use x="127.246094" xlink:href="#DejaVuSans-30"/>
      </g>
     </g>
    </g>
    <g id="xtick_3">
     <g id="line2d_3">
      <g>
       <use style="stroke:#000000;stroke-width:0.8;" x="131.187604" xlink:href="#mc88463d00e" y="229.312854"/>
      </g>
     </g>
     <g id="text_3">
      <!-- 500 -->
      <defs>
       <path d="M 10.796875 72.90625 
L 49.515625 72.90625 
L 49.515625 64.59375 
L 19.828125 64.59375 
L 19.828125 46.734375 
Q 21.96875 47.46875 24.109375 47.828125 
Q 26.265625 48.1875 28.421875 48.1875 
Q 40.625 48.1875 47.75 41.5 
Q 54.890625 34.8125 54.890625 23.390625 
Q 54.890625 11.625 47.5625 5.09375 
Q 40.234375 -1.421875 26.90625 -1.421875 
Q 22.3125 -1.421875 17.546875 -0.640625 
Q 12.796875 0.140625 7.71875 1.703125 
L 7.71875 11.625 
Q 12.109375 9.234375 16.796875 8.0625 
Q 21.484375 6.890625 26.703125 6.890625 
Q 35.15625 6.890625 40.078125 11.328125 
Q 45.015625 15.765625 45.015625 23.390625 
Q 45.015625 31 40.078125 35.4375 
Q 35.15625 39.890625 26.703125 39.890625 
Q 22.75 39.890625 18.8125 39.015625 
Q 14.890625 38.140625 10.796875 36.28125 
z
" id="DejaVuSans-35"/>
      </defs>
      <g transform="translate(110.191354 249.529417)scale(0.22 -0.22)">
       <use xlink:href="#DejaVuSans-35"/>
       <use x="63.623047" xlink:href="#DejaVuSans-30"/>
       <use x="127.246094" xlink:href="#DejaVuSans-30"/>
      </g>
     </g>
    </g>
    <g id="xtick_4">
     <g id="line2d_4">
      <g>
       <use style="stroke:#000000;stroke-width:0.8;" x="147.741924" xlink:href="#mc88463d00e" y="229.312854"/>
      </g>
     </g>
     <g id="text_4">
      <!-- 600 -->
      <defs>
       <path d="M 33.015625 40.375 
Q 26.375 40.375 22.484375 35.828125 
Q 18.609375 31.296875 18.609375 23.390625 
Q 18.609375 15.53125 22.484375 10.953125 
Q 26.375 6.390625 33.015625 6.390625 
Q 39.65625 6.390625 43.53125 10.953125 
Q 47.40625 15.53125 47.40625 23.390625 
Q 47.40625 31.296875 43.53125 35.828125 
Q 39.65625 40.375 33.015625 40.375 
z
M 52.59375 71.296875 
L 52.59375 62.3125 
Q 48.875 64.0625 45.09375 64.984375 
Q 41.3125 65.921875 37.59375 65.921875 
Q 27.828125 65.921875 22.671875 59.328125 
Q 17.53125 52.734375 16.796875 39.40625 
Q 19.671875 43.65625 24.015625 45.921875 
Q 28.375 48.1875 33.59375 48.1875 
Q 44.578125 48.1875 50.953125 41.515625 
Q 57.328125 34.859375 57.328125 23.390625 
Q 57.328125 12.15625 50.6875 5.359375 
Q 44.046875 -1.421875 33.015625 -1.421875 
Q 20.359375 -1.421875 13.671875 8.265625 
Q 6.984375 17.96875 6.984375 36.375 
Q 6.984375 53.65625 15.1875 63.9375 
Q 23.390625 74.21875 37.203125 74.21875 
Q 40.921875 74.21875 44.703125 73.484375 
Q 48.484375 72.75 52.59375 71.296875 
z
" id="DejaVuSans-36"/>
      </defs>
      <g transform="translate(126.745674 249.529417)scale(0.22 -0.22)">
       <use xlink:href="#DejaVuSans-36"/>
       <use x="63.623047" xlink:href="#DejaVuSans-30"/>
       <use x="127.246094" xlink:href="#DejaVuSans-30"/>
      </g>
     </g>
    </g>
    <g id="xtick_5">
     <g id="line2d_5">
      <g>
       <use style="stroke:#000000;stroke-width:0.8;" x="164.296243" xlink:href="#mc88463d00e" y="229.312854"/>
      </g>
     </g>
     <g id="text_5">
      <!-- 700 -->
      <defs>
       <path d="M 8.203125 72.90625 
L 55.078125 72.90625 
L 55.078125 68.703125 
L 28.609375 0 
L 18.3125 0 
L 43.21875 64.59375 
L 8.203125 64.59375 
z
" id="DejaVuSans-37"/>
      </defs>
      <g transform="translate(143.299993 249.529417)scale(0.22 -0.22)">
       <use xlink:href="#DejaVuSans-37"/>
       <use x="63.623047" xlink:href="#DejaVuSans-30"/>
       <use x="127.246094" xlink:href="#DejaVuSans-30"/>
      </g>
     </g>
    </g>
    <g id="xtick_6">
     <g id="line2d_6">
      <g>
       <use style="stroke:#000000;stroke-width:0.8;" x="180.850562" xlink:href="#mc88463d00e" y="229.312854"/>
      </g>
     </g>
     <g id="text_6">
      <!-- 800 -->
      <defs>
       <path d="M 31.78125 34.625 
Q 24.75 34.625 20.71875 30.859375 
Q 16.703125 27.09375 16.703125 20.515625 
Q 16.703125 13.921875 20.71875 10.15625 
Q 24.75 6.390625 31.78125 6.390625 
Q 38.8125 6.390625 42.859375 10.171875 
Q 46.921875 13.96875 46.921875 20.515625 
Q 46.921875 27.09375 42.890625 30.859375 
Q 38.875 34.625 31.78125 34.625 
z
M 21.921875 38.8125 
Q 15.578125 40.375 12.03125 44.71875 
Q 8.5 49.078125 8.5 55.328125 
Q 8.5 64.0625 14.71875 69.140625 
Q 20.953125 74.21875 31.78125 74.21875 
Q 42.671875 74.21875 48.875 69.140625 
Q 55.078125 64.0625 55.078125 55.328125 
Q 55.078125 49.078125 51.53125 44.71875 
Q 48 40.375 41.703125 38.8125 
Q 48.828125 37.15625 52.796875 32.3125 
Q 56.78125 27.484375 56.78125 20.515625 
Q 56.78125 9.90625 50.3125 4.234375 
Q 43.84375 -1.421875 31.78125 -1.421875 
Q 19.734375 -1.421875 13.25 4.234375 
Q 6.78125 9.90625 6.78125 20.515625 
Q 6.78125 27.484375 10.78125 32.3125 
Q 14.796875 37.15625 21.921875 38.8125 
z
M 18.3125 54.390625 
Q 18.3125 48.734375 21.84375 45.5625 
Q 25.390625 42.390625 31.78125 42.390625 
Q 38.140625 42.390625 41.71875 45.5625 
Q 45.3125 48.734375 45.3125 54.390625 
Q 45.3125 60.0625 41.71875 63.234375 
Q 38.140625 66.40625 31.78125 66.40625 
Q 25.390625 66.40625 21.84375 63.234375 
Q 18.3125 60.0625 18.3125 54.390625 
z
" id="DejaVuSans-38"/>
      </defs>
      <g transform="translate(159.854312 249.529417)scale(0.22 -0.22)">
       <use xlink:href="#DejaVuSans-38"/>
       <use x="63.623047" xlink:href="#DejaVuSans-30"/>
       <use x="127.246094" xlink:href="#DejaVuSans-30"/>
      </g>
     </g>
    </g>
    <g id="xtick_7">
     <g id="line2d_7">
      <g>
       <use style="stroke:#000000;stroke-width:0.8;" x="197.404882" xlink:href="#mc88463d00e" y="229.312854"/>
      </g>
     </g>
     <g id="text_7">
      <!-- 900 -->
      <defs>
       <path d="M 10.984375 1.515625 
L 10.984375 10.5 
Q 14.703125 8.734375 18.5 7.8125 
Q 22.3125 6.890625 25.984375 6.890625 
Q 35.75 6.890625 40.890625 13.453125 
Q 46.046875 20.015625 46.78125 33.40625 
Q 43.953125 29.203125 39.59375 26.953125 
Q 35.25 24.703125 29.984375 24.703125 
Q 19.046875 24.703125 12.671875 31.3125 
Q 6.296875 37.9375 6.296875 49.421875 
Q 6.296875 60.640625 12.9375 67.421875 
Q 19.578125 74.21875 30.609375 74.21875 
Q 43.265625 74.21875 49.921875 64.515625 
Q 56.59375 54.828125 56.59375 36.375 
Q 56.59375 19.140625 48.40625 8.859375 
Q 40.234375 -1.421875 26.421875 -1.421875 
Q 22.703125 -1.421875 18.890625 -0.6875 
Q 15.09375 0.046875 10.984375 1.515625 
z
M 30.609375 32.421875 
Q 37.25 32.421875 41.125 36.953125 
Q 45.015625 41.5 45.015625 49.421875 
Q 45.015625 57.28125 41.125 61.84375 
Q 37.25 66.40625 30.609375 66.40625 
Q 23.96875 66.40625 20.09375 61.84375 
Q 16.21875 57.28125 16.21875 49.421875 
Q 16.21875 41.5 20.09375 36.953125 
Q 23.96875 32.421875 30.609375 32.421875 
z
" id="DejaVuSans-39"/>
      </defs>
      <g transform="translate(176.408632 249.529417)scale(0.22 -0.22)">
       <use xlink:href="#DejaVuSans-39"/>
       <use x="63.623047" xlink:href="#DejaVuSans-30"/>
       <use x="127.246094" xlink:href="#DejaVuSans-30"/>
      </g>
     </g>
    </g>
    <g id="xtick_8">
     <g id="line2d_8">
      <g>
       <use style="stroke:#000000;stroke-width:0.8;" x="213.959201" xlink:href="#mc88463d00e" y="229.312854"/>
      </g>
     </g>
     <g id="text_8">
      <!-- 1000 -->
      <defs>
       <path d="M 12.40625 8.296875 
L 28.515625 8.296875 
L 28.515625 63.921875 
L 10.984375 60.40625 
L 10.984375 69.390625 
L 28.421875 72.90625 
L 38.28125 72.90625 
L 38.28125 8.296875 
L 54.390625 8.296875 
L 54.390625 0 
L 12.40625 0 
z
" id="DejaVuSans-31"/>
      </defs>
      <g transform="translate(185.964201 249.529417)scale(0.22 -0.22)">
       <use xlink:href="#DejaVuSans-31"/>
       <use x="63.623047" xlink:href="#DejaVuSans-30"/>
       <use x="127.246094" xlink:href="#DejaVuSans-30"/>
       <use x="190.869141" xlink:href="#DejaVuSans-30"/>
      </g>
     </g>
    </g>
    <g id="text_9">
     <!-- Volume $[\AA^3]$  -->
     <defs>
      <path d="M 28.609375 0 
L 0.78125 72.90625 
L 11.078125 72.90625 
L 34.1875 11.53125 
L 57.328125 72.90625 
L 67.578125 72.90625 
L 39.796875 0 
z
" id="DejaVuSans-56"/>
      <path d="M 30.609375 48.390625 
Q 23.390625 48.390625 19.1875 42.75 
Q 14.984375 37.109375 14.984375 27.296875 
Q 14.984375 17.484375 19.15625 11.84375 
Q 23.34375 6.203125 30.609375 6.203125 
Q 37.796875 6.203125 41.984375 11.859375 
Q 46.1875 17.53125 46.1875 27.296875 
Q 46.1875 37.015625 41.984375 42.703125 
Q 37.796875 48.390625 30.609375 48.390625 
z
M 30.609375 56 
Q 42.328125 56 49.015625 48.375 
Q 55.71875 40.765625 55.71875 27.296875 
Q 55.71875 13.875 49.015625 6.21875 
Q 42.328125 -1.421875 30.609375 -1.421875 
Q 18.84375 -1.421875 12.171875 6.21875 
Q 5.515625 13.875 5.515625 27.296875 
Q 5.515625 40.765625 12.171875 48.375 
Q 18.84375 56 30.609375 56 
z
" id="DejaVuSans-6f"/>
      <path d="M 9.421875 75.984375 
L 18.40625 75.984375 
L 18.40625 0 
L 9.421875 0 
z
" id="DejaVuSans-6c"/>
      <path d="M 8.5 21.578125 
L 8.5 54.6875 
L 17.484375 54.6875 
L 17.484375 21.921875 
Q 17.484375 14.15625 20.5 10.265625 
Q 23.53125 6.390625 29.59375 6.390625 
Q 36.859375 6.390625 41.078125 11.03125 
Q 45.3125 15.671875 45.3125 23.6875 
L 45.3125 54.6875 
L 54.296875 54.6875 
L 54.296875 0 
L 45.3125 0 
L 45.3125 8.40625 
Q 42.046875 3.421875 37.71875 1 
Q 33.40625 -1.421875 27.6875 -1.421875 
Q 18.265625 -1.421875 13.375 4.4375 
Q 8.5 10.296875 8.5 21.578125 
z
M 31.109375 56 
z
" id="DejaVuSans-75"/>
      <path d="M 52 44.1875 
Q 55.375 50.25 60.0625 53.125 
Q 64.75 56 71.09375 56 
Q 79.640625 56 84.28125 50.015625 
Q 88.921875 44.046875 88.921875 33.015625 
L 88.921875 0 
L 79.890625 0 
L 79.890625 32.71875 
Q 79.890625 40.578125 77.09375 44.375 
Q 74.3125 48.1875 68.609375 48.1875 
Q 61.625 48.1875 57.5625 43.546875 
Q 53.515625 38.921875 53.515625 30.90625 
L 53.515625 0 
L 44.484375 0 
L 44.484375 32.71875 
Q 44.484375 40.625 41.703125 44.40625 
Q 38.921875 48.1875 33.109375 48.1875 
Q 26.21875 48.1875 22.15625 43.53125 
Q 18.109375 38.875 18.109375 30.90625 
L 18.109375 0 
L 9.078125 0 
L 9.078125 54.6875 
L 18.109375 54.6875 
L 18.109375 46.1875 
Q 21.1875 51.21875 25.484375 53.609375 
Q 29.78125 56 35.6875 56 
Q 41.65625 56 45.828125 52.96875 
Q 50 49.953125 52 44.1875 
z
" id="DejaVuSans-6d"/>
      <path d="M 56.203125 29.59375 
L 56.203125 25.203125 
L 14.890625 25.203125 
Q 15.484375 15.921875 20.484375 11.0625 
Q 25.484375 6.203125 34.421875 6.203125 
Q 39.59375 6.203125 44.453125 7.46875 
Q 49.3125 8.734375 54.109375 11.28125 
L 54.109375 2.78125 
Q 49.265625 0.734375 44.1875 -0.34375 
Q 39.109375 -1.421875 33.890625 -1.421875 
Q 20.796875 -1.421875 13.15625 6.1875 
Q 5.515625 13.8125 5.515625 26.8125 
Q 5.515625 40.234375 12.765625 48.109375 
Q 20.015625 56 32.328125 56 
Q 43.359375 56 49.78125 48.890625 
Q 56.203125 41.796875 56.203125 29.59375 
z
M 47.21875 32.234375 
Q 47.125 39.59375 43.09375 43.984375 
Q 39.0625 48.390625 32.421875 48.390625 
Q 24.90625 48.390625 20.390625 44.140625 
Q 15.875 39.890625 15.1875 32.171875 
z
" id="DejaVuSans-65"/>
      <path id="DejaVuSans-20"/>
      <path d="M 8.59375 75.984375 
L 29.296875 75.984375 
L 29.296875 69 
L 17.578125 69 
L 17.578125 -6.203125 
L 29.296875 -6.203125 
L 29.296875 -13.1875 
L 8.59375 -13.1875 
z
" id="DejaVuSans-5b"/>
      <path d="M 49.8125 79.390625 
Q 49.8125 82.46875 47.625 84.640625 
Q 45.453125 86.8125 42.390625 86.8125 
Q 39.265625 86.8125 37.140625 84.6875 
Q 35.015625 82.5625 35.015625 79.390625 
Q 35.015625 76.3125 37.140625 74.15625 
Q 39.265625 72.015625 42.390625 72.015625 
Q 45.453125 72.015625 47.625 74.15625 
Q 49.8125 76.3125 49.8125 79.390625 
z
M 34.421875 68.703125 
Q 31.78125 70.515625 30.390625 73.265625 
Q 29 76.03125 29 79.390625 
Q 29 84.96875 32.90625 88.890625 
Q 36.8125 92.828125 42.390625 92.828125 
Q 47.953125 92.828125 51.875 88.890625 
Q 55.8125 84.96875 55.8125 79.390625 
Q 55.8125 75.53125 54.03125 72.546875 
Q 52.25 69.578125 48.875 67.828125 
L 61.53125 0 
L 51.21875 0 
L 48.1875 18.703125 
L 15.375 18.703125 
L 5.078125 0 
L -5.328125 0 
z
M 40.375 63.1875 
L 19.921875 26.90625 
L 46.6875 26.90625 
z
" id="DejaVuSans-Oblique-c5"/>
      <path d="M 30.421875 75.984375 
L 30.421875 -13.1875 
L 9.71875 -13.1875 
L 9.71875 -6.203125 
L 21.390625 -6.203125 
L 21.390625 69 
L 9.71875 69 
L 9.71875 75.984375 
z
" id="DejaVuSans-5d"/>
     </defs>
     <g transform="translate(177.705 278.793479)scale(0.24 -0.24)">
      <use transform="translate(0 0.171875)" xlink:href="#DejaVuSans-56"/>
      <use transform="translate(68.408203 0.171875)" xlink:href="#DejaVuSans-6f"/>
      <use transform="translate(129.589844 0.171875)" xlink:href="#DejaVuSans-6c"/>
      <use transform="translate(157.373047 0.171875)" xlink:href="#DejaVuSans-75"/>
      <use transform="translate(220.751953 0.171875)" xlink:href="#DejaVuSans-6d"/>
      <use transform="translate(318.164062 0.171875)" xlink:href="#DejaVuSans-65"/>
      <use transform="translate(379.6875 0.171875)" xlink:href="#DejaVuSans-20"/>
      <use transform="translate(411.474609 0.171875)" xlink:href="#DejaVuSans-5b"/>
      <use transform="translate(450.488281 0.171875)" xlink:href="#DejaVuSans-Oblique-c5"/>
      <use transform="translate(528.702318 38.453125)scale(0.7)" xlink:href="#DejaVuSans-33"/>
      <use transform="translate(575.972826 0.171875)" xlink:href="#DejaVuSans-5d"/>
      <use transform="translate(614.986497 0.171875)" xlink:href="#DejaVuSans-20"/>
     </g>
    </g>
   </g>
   <g id="matplotlib.axis_2">
    <g id="ytick_1">
     <g id="line2d_9">
      <defs>
       <path d="M 0 0 
L 3.5 0 
" id="m23a4b344a2" style="stroke:#000000;stroke-width:0.8;"/>
      </defs>
      <g>
       <use style="stroke:#000000;stroke-width:0.8;" x="81.524646" xlink:href="#m23a4b344a2" y="174.403302"/>
      </g>
     </g>
     <g id="text_10">
      <!-- 0.05 -->
      <defs>
       <path d="M 10.6875 12.40625 
L 21 12.40625 
L 21 0 
L 10.6875 0 
z
" id="DejaVuSans-2e"/>
      </defs>
      <g transform="translate(29.040271 182.761583)scale(0.22 -0.22)">
       <use xlink:href="#DejaVuSans-30"/>
       <use x="63.623047" xlink:href="#DejaVuSans-2e"/>
       <use x="95.410156" xlink:href="#DejaVuSans-30"/>
       <use x="159.033203" xlink:href="#DejaVuSans-35"/>
      </g>
     </g>
    </g>
    <g id="ytick_2">
     <g id="line2d_10">
      <g>
       <use style="stroke:#000000;stroke-width:0.8;" x="81.524646" xlink:href="#m23a4b344a2" y="119.49375"/>
      </g>
     </g>
     <g id="text_11">
      <!-- 0.10 -->
      <g transform="translate(29.040271 127.852031)scale(0.22 -0.22)">
       <use xlink:href="#DejaVuSans-30"/>
       <use x="63.623047" xlink:href="#DejaVuSans-2e"/>
       <use x="95.410156" xlink:href="#DejaVuSans-31"/>
       <use x="159.033203" xlink:href="#DejaVuSans-30"/>
      </g>
     </g>
    </g>
    <g id="ytick_3">
     <g id="line2d_11">
      <g>
       <use style="stroke:#000000;stroke-width:0.8;" x="81.524646" xlink:href="#m23a4b344a2" y="64.584198"/>
      </g>
     </g>
     <g id="text_12">
      <!-- 0.15 -->
      <g transform="translate(29.040271 72.942479)scale(0.22 -0.22)">
       <use xlink:href="#DejaVuSans-30"/>
       <use x="63.623047" xlink:href="#DejaVuSans-2e"/>
       <use x="95.410156" xlink:href="#DejaVuSans-31"/>
       <use x="159.033203" xlink:href="#DejaVuSans-35"/>
      </g>
     </g>
    </g>
    <g id="ytick_4">
     <g id="line2d_12">
      <g>
       <use style="stroke:#000000;stroke-width:0.8;" x="81.524646" xlink:href="#m23a4b344a2" y="9.674646"/>
      </g>
     </g>
     <g id="text_13">
      <!-- 0.20 -->
      <defs>
       <path d="M 19.1875 8.296875 
L 53.609375 8.296875 
L 53.609375 0 
L 7.328125 0 
L 7.328125 8.296875 
Q 12.9375 14.109375 22.625 23.890625 
Q 32.328125 33.6875 34.8125 36.53125 
Q 39.546875 41.84375 41.421875 45.53125 
Q 43.3125 49.21875 43.3125 52.78125 
Q 43.3125 58.59375 39.234375 62.25 
Q 35.15625 65.921875 28.609375 65.921875 
Q 23.96875 65.921875 18.8125 64.3125 
Q 13.671875 62.703125 7.8125 59.421875 
L 7.8125 69.390625 
Q 13.765625 71.78125 18.9375 73 
Q 24.125 74.21875 28.421875 74.21875 
Q 39.75 74.21875 46.484375 68.546875 
Q 53.21875 62.890625 53.21875 53.421875 
Q 53.21875 48.921875 51.53125 44.890625 
Q 49.859375 40.875 45.40625 35.40625 
Q 44.1875 33.984375 37.640625 27.21875 
Q 31.109375 20.453125 19.1875 8.296875 
z
" id="DejaVuSans-32"/>
      </defs>
      <g transform="translate(29.040271 18.032927)scale(0.22 -0.22)">
       <use xlink:href="#DejaVuSans-30"/>
       <use x="63.623047" xlink:href="#DejaVuSans-2e"/>
       <use x="95.410156" xlink:href="#DejaVuSans-32"/>
       <use x="159.033203" xlink:href="#DejaVuSans-30"/>
      </g>
     </g>
    </g>
    <g id="text_14">
     <!-- Density -->
     <defs>
      <path d="M 19.671875 64.796875 
L 19.671875 8.109375 
L 31.59375 8.109375 
Q 46.6875 8.109375 53.6875 14.9375 
Q 60.6875 21.78125 60.6875 36.53125 
Q 60.6875 51.171875 53.6875 57.984375 
Q 46.6875 64.796875 31.59375 64.796875 
z
M 9.8125 72.90625 
L 30.078125 72.90625 
Q 51.265625 72.90625 61.171875 64.09375 
Q 71.09375 55.28125 71.09375 36.53125 
Q 71.09375 17.671875 61.125 8.828125 
Q 51.171875 0 30.078125 0 
L 9.8125 0 
z
" id="DejaVuSans-44"/>
      <path d="M 54.890625 33.015625 
L 54.890625 0 
L 45.90625 0 
L 45.90625 32.71875 
Q 45.90625 40.484375 42.875 44.328125 
Q 39.84375 48.1875 33.796875 48.1875 
Q 26.515625 48.1875 22.3125 43.546875 
Q 18.109375 38.921875 18.109375 30.90625 
L 18.109375 0 
L 9.078125 0 
L 9.078125 54.6875 
L 18.109375 54.6875 
L 18.109375 46.1875 
Q 21.34375 51.125 25.703125 53.5625 
Q 30.078125 56 35.796875 56 
Q 45.21875 56 50.046875 50.171875 
Q 54.890625 44.34375 54.890625 33.015625 
z
" id="DejaVuSans-6e"/>
      <path d="M 44.28125 53.078125 
L 44.28125 44.578125 
Q 40.484375 46.53125 36.375 47.5 
Q 32.28125 48.484375 27.875 48.484375 
Q 21.1875 48.484375 17.84375 46.4375 
Q 14.5 44.390625 14.5 40.28125 
Q 14.5 37.15625 16.890625 35.375 
Q 19.28125 33.59375 26.515625 31.984375 
L 29.59375 31.296875 
Q 39.15625 29.25 43.1875 25.515625 
Q 47.21875 21.78125 47.21875 15.09375 
Q 47.21875 7.46875 41.1875 3.015625 
Q 35.15625 -1.421875 24.609375 -1.421875 
Q 20.21875 -1.421875 15.453125 -0.5625 
Q 10.6875 0.296875 5.421875 2 
L 5.421875 11.28125 
Q 10.40625 8.6875 15.234375 7.390625 
Q 20.0625 6.109375 24.8125 6.109375 
Q 31.15625 6.109375 34.5625 8.28125 
Q 37.984375 10.453125 37.984375 14.40625 
Q 37.984375 18.0625 35.515625 20.015625 
Q 33.0625 21.96875 24.703125 23.78125 
L 21.578125 24.515625 
Q 13.234375 26.265625 9.515625 29.90625 
Q 5.8125 33.546875 5.8125 39.890625 
Q 5.8125 47.609375 11.28125 51.796875 
Q 16.75 56 26.8125 56 
Q 31.78125 56 36.171875 55.265625 
Q 40.578125 54.546875 44.28125 53.078125 
z
" id="DejaVuSans-73"/>
      <path d="M 9.421875 54.6875 
L 18.40625 54.6875 
L 18.40625 0 
L 9.421875 0 
z
M 9.421875 75.984375 
L 18.40625 75.984375 
L 18.40625 64.59375 
L 9.421875 64.59375 
z
" id="DejaVuSans-69"/>
      <path d="M 18.3125 70.21875 
L 18.3125 54.6875 
L 36.8125 54.6875 
L 36.8125 47.703125 
L 18.3125 47.703125 
L 18.3125 18.015625 
Q 18.3125 11.328125 20.140625 9.421875 
Q 21.96875 7.515625 27.59375 7.515625 
L 36.8125 7.515625 
L 36.8125 0 
L 27.59375 0 
Q 17.1875 0 13.234375 3.875 
Q 9.28125 7.765625 9.28125 18.015625 
L 9.28125 47.703125 
L 2.6875 47.703125 
L 2.6875 54.6875 
L 9.28125 54.6875 
L 9.28125 70.21875 
z
" id="DejaVuSans-74"/>
      <path d="M 32.171875 -5.078125 
Q 28.375 -14.84375 24.75 -17.8125 
Q 21.140625 -20.796875 15.09375 -20.796875 
L 7.90625 -20.796875 
L 7.90625 -13.28125 
L 13.1875 -13.28125 
Q 16.890625 -13.28125 18.9375 -11.515625 
Q 21 -9.765625 23.484375 -3.21875 
L 25.09375 0.875 
L 2.984375 54.6875 
L 12.5 54.6875 
L 29.59375 11.921875 
L 46.6875 54.6875 
L 56.203125 54.6875 
z
" id="DejaVuSans-79"/>
     </defs>
     <g transform="translate(20.049021 165.114375)rotate(-90)scale(0.24 -0.24)">
      <use xlink:href="#DejaVuSans-44"/>
      <use x="77.001953" xlink:href="#DejaVuSans-65"/>
      <use x="138.525391" xlink:href="#DejaVuSans-6e"/>
      <use x="201.904297" xlink:href="#DejaVuSans-73"/>
      <use x="254.003906" xlink:href="#DejaVuSans-69"/>
      <use x="281.787109" xlink:href="#DejaVuSans-74"/>
      <use x="320.996094" xlink:href="#DejaVuSans-79"/>
     </g>
    </g>
   </g>
   <g id="patch_36">
    <path clip-path="url(#p19205ac5a5)" d="M 82.145433 229.312854 
L 82.145433 229.312854 
L 84.007794 229.312854 
L 84.007794 229.312854 
L 82.145433 229.312854 
" style="fill:#feb236;"/>
   </g>
   <g id="patch_37">
    <path clip-path="url(#p19205ac5a5)" d="M 87.111728 229.312854 
L 87.111728 229.312854 
L 88.974089 229.312854 
L 88.974089 229.312854 
L 87.111728 229.312854 
" style="fill:#feb236;"/>
   </g>
   <g id="patch_38">
    <path clip-path="url(#p19205ac5a5)" d="M 92.078024 228.858253 
L 92.078024 229.312854 
L 93.940385 229.312854 
L 93.940385 228.858253 
L 92.078024 228.858253 
" style="fill:#feb236;"/>
   </g>
   <g id="patch_39">
    <path clip-path="url(#p19205ac5a5)" d="M 97.04432 224.494084 
L 97.04432 229.312854 
L 98.906681 229.312854 
L 98.906681 224.494084 
L 97.04432 224.494084 
" style="fill:#feb236;"/>
   </g>
   <g id="patch_40">
    <path clip-path="url(#p19205ac5a5)" d="M 102.010616 214.686067 
L 102.010616 229.312854 
L 103.872977 229.312854 
L 103.872977 214.686067 
L 102.010616 214.686067 
" style="fill:#feb236;"/>
   </g>
   <g id="patch_41">
    <path clip-path="url(#p19205ac5a5)" d="M 106.976912 188.716983 
L 106.976912 229.312854 
L 108.839273 229.312854 
L 108.839273 188.716983 
L 106.976912 188.716983 
" style="fill:#feb236;"/>
   </g>
   <g id="patch_42">
    <path clip-path="url(#p19205ac5a5)" d="M 111.943208 155.281079 
L 111.943208 229.312854 
L 113.805569 229.312854 
L 113.805569 155.281079 
L 111.943208 155.281079 
" style="fill:#feb236;"/>
   </g>
   <g id="patch_43">
    <path clip-path="url(#p19205ac5a5)" d="M 116.909504 120.265435 
L 116.909504 229.312854 
L 118.771864 229.312854 
L 118.771864 120.265435 
L 116.909504 120.265435 
" style="fill:#feb236;"/>
   </g>
   <g id="patch_44">
    <path clip-path="url(#p19205ac5a5)" d="M 121.875799 80.203721 
L 121.875799 229.312854 
L 123.73816 229.312854 
L 123.73816 80.203721 
L 121.875799 80.203721 
" style="fill:#feb236;"/>
   </g>
   <g id="patch_45">
    <path clip-path="url(#p19205ac5a5)" d="M 126.842095 65.224617 
L 126.842095 229.312854 
L 128.704456 229.312854 
L 128.704456 65.224617 
L 126.842095 65.224617 
" style="fill:#feb236;"/>
   </g>
   <g id="patch_46">
    <path clip-path="url(#p19205ac5a5)" d="M 131.808391 73.452895 
L 131.808391 229.312854 
L 133.670752 229.312854 
L 133.670752 73.452895 
L 131.808391 73.452895 
" style="fill:#feb236;"/>
   </g>
   <g id="patch_47">
    <path clip-path="url(#p19205ac5a5)" d="M 136.774687 99.672009 
L 136.774687 229.312854 
L 138.637048 229.312854 
L 138.637048 99.672009 
L 136.774687 99.672009 
" style="fill:#feb236;"/>
   </g>
   <g id="patch_48">
    <path clip-path="url(#p19205ac5a5)" d="M 141.740983 133.016994 
L 141.740983 229.312854 
L 143.603344 229.312854 
L 143.603344 133.016994 
L 141.740983 133.016994 
" style="fill:#feb236;"/>
   </g>
   <g id="patch_49">
    <path clip-path="url(#p19205ac5a5)" d="M 146.707279 166.282423 
L 146.707279 229.312854 
L 148.569639 229.312854 
L 148.569639 166.282423 
L 146.707279 166.282423 
" style="fill:#feb236;"/>
   </g>
   <g id="patch_50">
    <path clip-path="url(#p19205ac5a5)" d="M 151.673574 187.05769 
L 151.673574 229.312854 
L 153.535935 229.312854 
L 153.535935 187.05769 
L 151.673574 187.05769 
" style="fill:#feb236;"/>
   </g>
   <g id="patch_51">
    <path clip-path="url(#p19205ac5a5)" d="M 156.63987 205.514491 
L 156.63987 229.312854 
L 158.502231 229.312854 
L 158.502231 205.514491 
L 156.63987 205.514491 
" style="fill:#feb236;"/>
   </g>
   <g id="patch_52">
    <path clip-path="url(#p19205ac5a5)" d="M 161.606166 214.902002 
L 161.606166 229.312854 
L 163.468527 229.312854 
L 163.468527 214.902002 
L 161.606166 214.902002 
" style="fill:#feb236;"/>
   </g>
   <g id="patch_53">
    <path clip-path="url(#p19205ac5a5)" d="M 166.572462 222.69841 
L 166.572462 229.312854 
L 168.434823 229.312854 
L 168.434823 222.69841 
L 166.572462 222.69841 
" style="fill:#feb236;"/>
   </g>
   <g id="patch_54">
    <path clip-path="url(#p19205ac5a5)" d="M 171.538758 224.835034 
L 171.538758 229.312854 
L 173.401119 229.312854 
L 173.401119 224.835034 
L 171.538758 224.835034 
" style="fill:#feb236;"/>
   </g>
   <g id="patch_55">
    <path clip-path="url(#p19205ac5a5)" d="M 176.505054 226.642073 
L 176.505054 229.312854 
L 178.367415 229.312854 
L 178.367415 226.642073 
L 176.505054 226.642073 
" style="fill:#feb236;"/>
   </g>
   <g id="patch_56">
    <path clip-path="url(#p19205ac5a5)" d="M 181.471349 227.971781 
L 181.471349 229.312854 
L 183.33371 229.312854 
L 183.33371 227.971781 
L 181.471349 227.971781 
" style="fill:#feb236;"/>
   </g>
   <g id="patch_57">
    <path clip-path="url(#p19205ac5a5)" d="M 186.437645 228.915078 
L 186.437645 229.312854 
L 188.300006 229.312854 
L 188.300006 228.915078 
L 186.437645 228.915078 
" style="fill:#feb236;"/>
   </g>
   <g id="patch_58">
    <path clip-path="url(#p19205ac5a5)" d="M 191.403941 228.915078 
L 191.403941 229.312854 
L 193.266302 229.312854 
L 193.266302 228.915078 
L 191.403941 228.915078 
" style="fill:#feb236;"/>
   </g>
   <g id="patch_59">
    <path clip-path="url(#p19205ac5a5)" d="M 196.370237 229.290124 
L 196.370237 229.312854 
L 198.232598 229.312854 
L 198.232598 229.290124 
L 196.370237 229.290124 
" style="fill:#feb236;"/>
   </g>
   <g id="patch_60">
    <path clip-path="url(#p19205ac5a5)" d="M 201.336533 229.256029 
L 201.336533 229.312854 
L 203.198894 229.312854 
L 203.198894 229.256029 
L 201.336533 229.256029 
" style="fill:#feb236;"/>
   </g>
   <g id="patch_61">
    <path clip-path="url(#p19205ac5a5)" d="M 206.302829 229.256029 
L 206.302829 229.312854 
L 208.16519 229.312854 
L 208.16519 229.256029 
L 206.302829 229.256029 
" style="fill:#feb236;"/>
   </g>
   <g id="patch_62">
    <path clip-path="url(#p19205ac5a5)" d="M 211.269124 229.221934 
L 211.269124 229.312854 
L 213.131485 229.312854 
L 213.131485 229.221934 
L 211.269124 229.221934 
" style="fill:#feb236;"/>
   </g>
   <g id="patch_63">
    <path clip-path="url(#p19205ac5a5)" d="M 216.23542 229.312854 
L 216.23542 229.312854 
L 218.097781 229.312854 
L 218.097781 229.312854 
L 216.23542 229.312854 
" style="fill:#feb236;"/>
   </g>
   <g id="patch_64">
    <path clip-path="url(#p19205ac5a5)" d="M 221.201716 229.312854 
L 221.201716 229.312854 
L 223.064077 229.312854 
L 223.064077 229.312854 
L 221.201716 229.312854 
" style="fill:#feb236;"/>
   </g>
   <g id="patch_65">
    <path clip-path="url(#p19205ac5a5)" d="M 226.168012 229.312854 
L 226.168012 229.312854 
L 228.030373 229.312854 
L 228.030373 229.312854 
L 226.168012 229.312854 
" style="fill:#feb236;"/>
   </g>
   <g id="patch_66">
    <path clip-path="url(#p19205ac5a5)" d="M 231.134308 229.312854 
L 231.134308 229.312854 
L 232.996669 229.312854 
L 232.996669 229.312854 
L 231.134308 229.312854 
" style="fill:#feb236;"/>
   </g>
   <g id="patch_67">
    <path clip-path="url(#p19205ac5a5)" d="M 236.100604 229.312854 
L 236.100604 229.312854 
L 237.962965 229.312854 
L 237.962965 229.312854 
L 236.100604 229.312854 
" style="fill:#feb236;"/>
   </g>
   <g id="patch_68">
    <path clip-path="url(#p19205ac5a5)" d="M 241.066899 229.312854 
L 241.066899 229.312854 
L 242.92926 229.312854 
L 242.92926 229.312854 
L 241.066899 229.312854 
" style="fill:#feb236;"/>
   </g>
   <g id="patch_69">
    <path d="M 81.524646 229.312854 
L 81.524646 9.674646 
" style="fill:none;stroke:#000000;stroke-linecap:square;stroke-linejoin:miter;"/>
   </g>
   <g id="patch_70">
    <path d="M 81.524646 229.312854 
L 429.165354 229.312854 
" style="fill:none;stroke:#000000;stroke-linecap:square;stroke-linejoin:miter;"/>
   </g>
   <g id="patch_71">
    <path clip-path="url(#p19205ac5a5)" d="M 84.007794 229.312854 
L 84.007794 229.312854 
L 85.870155 229.312854 
L 85.870155 229.312854 
L 84.007794 229.312854 
" style="fill:#6b5b95;"/>
   </g>
   <g id="patch_72">
    <path clip-path="url(#p19205ac5a5)" d="M 88.974089 229.312854 
L 88.974089 229.312854 
L 90.83645 229.312854 
L 90.83645 229.312854 
L 88.974089 229.312854 
" style="fill:#6b5b95;"/>
   </g>
   <g id="patch_73">
    <path clip-path="url(#p19205ac5a5)" d="M 93.940385 229.312854 
L 93.940385 229.312854 
L 95.802746 229.312854 
L 95.802746 229.312854 
L 93.940385 229.312854 
" style="fill:#6b5b95;"/>
   </g>
   <g id="patch_74">
    <path clip-path="url(#p19205ac5a5)" d="M 98.906681 229.312854 
L 98.906681 229.312854 
L 100.769042 229.312854 
L 100.769042 229.312854 
L 98.906681 229.312854 
" style="fill:#6b5b95;"/>
   </g>
   <g id="patch_75">
    <path clip-path="url(#p19205ac5a5)" d="M 103.872977 229.312854 
L 103.872977 229.312854 
L 105.735338 229.312854 
L 105.735338 229.312854 
L 103.872977 229.312854 
" style="fill:#6b5b95;"/>
   </g>
   <g id="patch_76">
    <path clip-path="url(#p19205ac5a5)" d="M 108.839273 229.312854 
L 108.839273 229.312854 
L 110.701634 229.312854 
L 110.701634 229.312854 
L 108.839273 229.312854 
" style="fill:#6b5b95;"/>
   </g>
   <g id="patch_77">
    <path clip-path="url(#p19205ac5a5)" d="M 113.805569 229.20497 
L 113.805569 229.312854 
L 115.66793 229.312854 
L 115.66793 229.20497 
L 113.805569 229.20497 
" style="fill:#6b5b95;"/>
   </g>
   <g id="patch_78">
    <path clip-path="url(#p19205ac5a5)" d="M 118.771864 227.802473 
L 118.771864 229.312854 
L 120.634225 229.312854 
L 120.634225 227.802473 
L 118.771864 227.802473 
" style="fill:#6b5b95;"/>
   </g>
   <g id="patch_79">
    <path clip-path="url(#p19205ac5a5)" d="M 123.73816 226.076323 
L 123.73816 229.312854 
L 125.600521 229.312854 
L 125.600521 226.076323 
L 123.73816 226.076323 
" style="fill:#6b5b95;"/>
   </g>
   <g id="patch_80">
    <path clip-path="url(#p19205ac5a5)" d="M 128.704456 222.156524 
L 128.704456 229.312854 
L 130.566817 229.312854 
L 130.566817 222.156524 
L 128.704456 222.156524 
" style="fill:#6b5b95;"/>
   </g>
   <g id="patch_81">
    <path clip-path="url(#p19205ac5a5)" d="M 133.670752 213.238082 
L 133.670752 229.312854 
L 135.533113 229.312854 
L 135.533113 213.238082 
L 133.670752 213.238082 
" style="fill:#6b5b95;"/>
   </g>
   <g id="patch_82">
    <path clip-path="url(#p19205ac5a5)" d="M 138.637048 203.025028 
L 138.637048 229.312854 
L 140.499409 229.312854 
L 140.499409 203.025028 
L 138.637048 203.025028 
" style="fill:#6b5b95;"/>
   </g>
   <g id="patch_83">
    <path clip-path="url(#p19205ac5a5)" d="M 143.603344 188.964097 
L 143.603344 229.312854 
L 145.465705 229.312854 
L 145.465705 188.964097 
L 143.603344 188.964097 
" style="fill:#6b5b95;"/>
   </g>
   <g id="patch_84">
    <path clip-path="url(#p19205ac5a5)" d="M 148.569639 166.919722 
L 148.569639 229.312854 
L 150.432 229.312854 
L 150.432 166.919722 
L 148.569639 166.919722 
" style="fill:#6b5b95;"/>
   </g>
   <g id="patch_85">
    <path clip-path="url(#p19205ac5a5)" d="M 153.535935 147.284766 
L 153.535935 229.312854 
L 155.398296 229.312854 
L 155.398296 147.284766 
L 153.535935 147.284766 
" style="fill:#6b5b95;"/>
   </g>
   <g id="patch_86">
    <path clip-path="url(#p19205ac5a5)" d="M 158.502231 140.595934 
L 158.502231 229.312854 
L 160.364592 229.312854 
L 160.364592 140.595934 
L 158.502231 140.595934 
" style="fill:#6b5b95;"/>
   </g>
   <g id="patch_87">
    <path clip-path="url(#p19205ac5a5)" d="M 163.468527 126.499042 
L 163.468527 229.312854 
L 165.330888 229.312854 
L 165.330888 126.499042 
L 163.468527 126.499042 
" style="fill:#6b5b95;"/>
   </g>
   <g id="patch_88">
    <path clip-path="url(#p19205ac5a5)" d="M 168.434823 123.801933 
L 168.434823 229.312854 
L 170.297184 229.312854 
L 170.297184 123.801933 
L 168.434823 123.801933 
" style="fill:#6b5b95;"/>
   </g>
   <g id="patch_89">
    <path clip-path="url(#p19205ac5a5)" d="M 173.401119 128.800576 
L 173.401119 229.312854 
L 175.26348 229.312854 
L 175.26348 128.800576 
L 173.401119 128.800576 
" style="fill:#6b5b95;"/>
   </g>
   <g id="patch_90">
    <path clip-path="url(#p19205ac5a5)" d="M 178.367415 129.16019 
L 178.367415 229.312854 
L 180.229775 229.312854 
L 180.229775 129.16019 
L 178.367415 129.16019 
" style="fill:#6b5b95;"/>
   </g>
   <g id="patch_91">
    <path clip-path="url(#p19205ac5a5)" d="M 183.33371 138.402285 
L 183.33371 229.312854 
L 185.196071 229.312854 
L 185.196071 138.402285 
L 183.33371 138.402285 
" style="fill:#6b5b95;"/>
   </g>
   <g id="patch_92">
    <path clip-path="url(#p19205ac5a5)" d="M 188.300006 146.313806 
L 188.300006 229.312854 
L 190.162367 229.312854 
L 190.162367 146.313806 
L 188.300006 146.313806 
" style="fill:#6b5b95;"/>
   </g>
   <g id="patch_93">
    <path clip-path="url(#p19205ac5a5)" d="M 193.266302 164.258575 
L 193.266302 229.312854 
L 195.128663 229.312854 
L 195.128663 164.258575 
L 193.266302 164.258575 
" style="fill:#6b5b95;"/>
   </g>
   <g id="patch_94">
    <path clip-path="url(#p19205ac5a5)" d="M 198.232598 180.728923 
L 198.232598 229.312854 
L 200.094959 229.312854 
L 200.094959 180.728923 
L 198.232598 180.728923 
" style="fill:#6b5b95;"/>
   </g>
   <g id="patch_95">
    <path clip-path="url(#p19205ac5a5)" d="M 203.198894 197.271194 
L 203.198894 229.312854 
L 205.061255 229.312854 
L 205.061255 197.271194 
L 203.198894 197.271194 
" style="fill:#6b5b95;"/>
   </g>
   <g id="patch_96">
    <path clip-path="url(#p19205ac5a5)" d="M 208.16519 212.482891 
L 208.16519 229.312854 
L 210.02755 229.312854 
L 210.02755 212.482891 
L 208.16519 212.482891 
" style="fill:#6b5b95;"/>
   </g>
   <g id="patch_97">
    <path clip-path="url(#p19205ac5a5)" d="M 213.131485 216.40269 
L 213.131485 229.312854 
L 214.993846 229.312854 
L 214.993846 216.40269 
L 213.131485 216.40269 
" style="fill:#6b5b95;"/>
   </g>
   <g id="patch_98">
    <path clip-path="url(#p19205ac5a5)" d="M 218.097781 223.199406 
L 218.097781 229.312854 
L 219.960142 229.312854 
L 219.960142 223.199406 
L 218.097781 223.199406 
" style="fill:#6b5b95;"/>
   </g>
   <g id="patch_99">
    <path clip-path="url(#p19205ac5a5)" d="M 223.064077 226.040362 
L 223.064077 229.312854 
L 224.926438 229.312854 
L 224.926438 226.040362 
L 223.064077 226.040362 
" style="fill:#6b5b95;"/>
   </g>
   <g id="patch_100">
    <path clip-path="url(#p19205ac5a5)" d="M 228.030373 227.550743 
L 228.030373 229.312854 
L 229.892734 229.312854 
L 229.892734 227.550743 
L 228.030373 227.550743 
" style="fill:#6b5b95;"/>
   </g>
   <g id="patch_101">
    <path clip-path="url(#p19205ac5a5)" d="M 232.996669 228.881317 
L 232.996669 229.312854 
L 234.85903 229.312854 
L 234.85903 228.881317 
L 232.996669 228.881317 
" style="fill:#6b5b95;"/>
   </g>
   <g id="patch_102">
    <path clip-path="url(#p19205ac5a5)" d="M 237.962965 229.025163 
L 237.962965 229.312854 
L 239.825326 229.312854 
L 239.825326 229.025163 
L 237.962965 229.025163 
" style="fill:#6b5b95;"/>
   </g>
   <g id="patch_103">
    <path clip-path="url(#p19205ac5a5)" d="M 242.92926 229.169008 
L 242.92926 229.312854 
L 244.791621 229.312854 
L 244.791621 229.169008 
L 242.92926 229.169008 
" style="fill:#6b5b95;"/>
   </g>
   <g id="patch_104">
    <path clip-path="url(#p19205ac5a5)" d="M 85.870155 229.312854 
L 85.870155 229.312854 
L 87.732515 229.312854 
L 87.732515 229.312854 
L 85.870155 229.312854 
" style="fill:#a0522d;"/>
   </g>
   <g id="patch_105">
    <path clip-path="url(#p19205ac5a5)" d="M 90.83645 229.312854 
L 90.83645 229.312854 
L 92.698811 229.312854 
L 92.698811 229.312854 
L 90.83645 229.312854 
" style="fill:#a0522d;"/>
   </g>
   <g id="patch_106">
    <path clip-path="url(#p19205ac5a5)" d="M 95.802746 229.312854 
L 95.802746 229.312854 
L 97.665107 229.312854 
L 97.665107 229.312854 
L 95.802746 229.312854 
" style="fill:#a0522d;"/>
   </g>
   <g id="patch_107">
    <path clip-path="url(#p19205ac5a5)" d="M 100.769042 229.312854 
L 100.769042 229.312854 
L 102.631403 229.312854 
L 102.631403 229.312854 
L 100.769042 229.312854 
" style="fill:#a0522d;"/>
   </g>
   <g id="patch_108">
    <path clip-path="url(#p19205ac5a5)" d="M 105.735338 229.312854 
L 105.735338 229.312854 
L 107.597699 229.312854 
L 107.597699 229.312854 
L 105.735338 229.312854 
" style="fill:#a0522d;"/>
   </g>
   <g id="patch_109">
    <path clip-path="url(#p19205ac5a5)" d="M 110.701634 229.312854 
L 110.701634 229.312854 
L 112.563995 229.312854 
L 112.563995 229.312854 
L 110.701634 229.312854 
" style="fill:#a0522d;"/>
   </g>
   <g id="patch_110">
    <path clip-path="url(#p19205ac5a5)" d="M 115.66793 229.118355 
L 115.66793 229.312854 
L 117.53029 229.312854 
L 117.53029 229.118355 
L 115.66793 229.118355 
" style="fill:#a0522d;"/>
   </g>
   <g id="patch_111">
    <path clip-path="url(#p19205ac5a5)" d="M 120.634225 228.632107 
L 120.634225 229.312854 
L 122.496586 229.312854 
L 122.496586 228.632107 
L 120.634225 228.632107 
" style="fill:#a0522d;"/>
   </g>
   <g id="patch_112">
    <path clip-path="url(#p19205ac5a5)" d="M 125.600521 228.486233 
L 125.600521 229.312854 
L 127.462882 229.312854 
L 127.462882 228.486233 
L 125.600521 228.486233 
" style="fill:#a0522d;"/>
   </g>
   <g id="patch_113">
    <path clip-path="url(#p19205ac5a5)" d="M 130.566817 226.006368 
L 130.566817 229.312854 
L 132.429178 229.312854 
L 132.429178 226.006368 
L 130.566817 226.006368 
" style="fill:#a0522d;"/>
   </g>
   <g id="patch_114">
    <path clip-path="url(#p19205ac5a5)" d="M 135.533113 220.220017 
L 135.533113 229.312854 
L 137.395474 229.312854 
L 137.395474 220.220017 
L 135.533113 220.220017 
" style="fill:#a0522d;"/>
   </g>
   <g id="patch_115">
    <path clip-path="url(#p19205ac5a5)" d="M 140.499409 217.156655 
L 140.499409 229.312854 
L 142.36177 229.312854 
L 142.36177 217.156655 
L 140.499409 217.156655 
" style="fill:#a0522d;"/>
   </g>
   <g id="patch_116">
    <path clip-path="url(#p19205ac5a5)" d="M 145.465705 205.000456 
L 145.465705 229.312854 
L 147.328066 229.312854 
L 147.328066 205.000456 
L 145.465705 205.000456 
" style="fill:#a0522d;"/>
   </g>
   <g id="patch_117">
    <path clip-path="url(#p19205ac5a5)" d="M 150.432 178.208193 
L 150.432 229.312854 
L 152.294361 229.312854 
L 152.294361 178.208193 
L 150.432 178.208193 
" style="fill:#a0522d;"/>
   </g>
   <g id="patch_118">
    <path clip-path="url(#p19205ac5a5)" d="M 155.398296 146.213076 
L 155.398296 229.312854 
L 157.260657 229.312854 
L 157.260657 146.213076 
L 155.398296 146.213076 
" style="fill:#a0522d;"/>
   </g>
   <g id="patch_119">
    <path clip-path="url(#p19205ac5a5)" d="M 160.364592 117.816194 
L 160.364592 229.312854 
L 162.226953 229.312854 
L 162.226953 117.816194 
L 160.364592 117.816194 
" style="fill:#a0522d;"/>
   </g>
   <g id="patch_120">
    <path clip-path="url(#p19205ac5a5)" d="M 165.330888 97.150656 
L 165.330888 229.312854 
L 167.193249 229.312854 
L 167.193249 97.150656 
L 165.330888 97.150656 
" style="fill:#a0522d;"/>
   </g>
   <g id="patch_121">
    <path clip-path="url(#p19205ac5a5)" d="M 170.297184 105.659995 
L 170.297184 229.312854 
L 172.159545 229.312854 
L 172.159545 105.659995 
L 170.297184 105.659995 
" style="fill:#a0522d;"/>
   </g>
   <g id="patch_122">
    <path clip-path="url(#p19205ac5a5)" d="M 175.26348 94.622166 
L 175.26348 229.312854 
L 177.125841 229.312854 
L 177.125841 94.622166 
L 175.26348 94.622166 
" style="fill:#a0522d;"/>
   </g>
   <g id="patch_123">
    <path clip-path="url(#p19205ac5a5)" d="M 180.229775 116.017077 
L 180.229775 229.312854 
L 182.092136 229.312854 
L 182.092136 116.017077 
L 180.229775 116.017077 
" style="fill:#a0522d;"/>
   </g>
   <g id="patch_124">
    <path clip-path="url(#p19205ac5a5)" d="M 185.196071 132.209134 
L 185.196071 229.312854 
L 187.058432 229.312854 
L 187.058432 132.209134 
L 185.196071 132.209134 
" style="fill:#a0522d;"/>
   </g>
   <g id="patch_125">
    <path clip-path="url(#p19205ac5a5)" d="M 190.162367 156.375659 
L 190.162367 229.312854 
L 192.024728 229.312854 
L 192.024728 156.375659 
L 190.162367 156.375659 
" style="fill:#a0522d;"/>
   </g>
   <g id="patch_126">
    <path clip-path="url(#p19205ac5a5)" d="M 195.128663 182.584424 
L 195.128663 229.312854 
L 196.991024 229.312854 
L 196.991024 182.584424 
L 195.128663 182.584424 
" style="fill:#a0522d;"/>
   </g>
   <g id="patch_127">
    <path clip-path="url(#p19205ac5a5)" d="M 200.094959 193.136005 
L 200.094959 229.312854 
L 201.95732 229.312854 
L 201.95732 193.136005 
L 200.094959 193.136005 
" style="fill:#a0522d;"/>
   </g>
   <g id="patch_128">
    <path clip-path="url(#p19205ac5a5)" d="M 205.061255 211.856552 
L 205.061255 229.312854 
L 206.923616 229.312854 
L 206.923616 211.856552 
L 205.061255 211.856552 
" style="fill:#a0522d;"/>
   </g>
   <g id="patch_129">
    <path clip-path="url(#p19205ac5a5)" d="M 210.02755 220.365892 
L 210.02755 229.312854 
L 211.889911 229.312854 
L 211.889911 220.365892 
L 210.02755 220.365892 
" style="fill:#a0522d;"/>
   </g>
   <g id="patch_130">
    <path clip-path="url(#p19205ac5a5)" d="M 214.993846 219.733769 
L 214.993846 229.312854 
L 216.856207 229.312854 
L 216.856207 219.733769 
L 214.993846 219.733769 
" style="fill:#a0522d;"/>
   </g>
   <g id="patch_131">
    <path clip-path="url(#p19205ac5a5)" d="M 219.960142 224.790748 
L 219.960142 229.312854 
L 221.822503 229.312854 
L 221.822503 224.790748 
L 219.960142 224.790748 
" style="fill:#a0522d;"/>
   </g>
   <g id="patch_132">
    <path clip-path="url(#p19205ac5a5)" d="M 224.926438 227.076114 
L 224.926438 229.312854 
L 226.788799 229.312854 
L 226.788799 227.076114 
L 224.926438 227.076114 
" style="fill:#a0522d;"/>
   </g>
   <g id="patch_133">
    <path clip-path="url(#p19205ac5a5)" d="M 229.892734 227.85411 
L 229.892734 229.312854 
L 231.755095 229.312854 
L 231.755095 227.85411 
L 229.892734 227.85411 
" style="fill:#a0522d;"/>
   </g>
   <g id="patch_134">
    <path clip-path="url(#p19205ac5a5)" d="M 234.85903 229.312854 
L 234.85903 229.312854 
L 236.721391 229.312854 
L 236.721391 229.312854 
L 234.85903 229.312854 
" style="fill:#a0522d;"/>
   </g>
   <g id="patch_135">
    <path clip-path="url(#p19205ac5a5)" d="M 239.825326 228.972481 
L 239.825326 229.312854 
L 241.687686 229.312854 
L 241.687686 228.972481 
L 239.825326 228.972481 
" style="fill:#a0522d;"/>
   </g>
   <g id="patch_136">
    <path clip-path="url(#p19205ac5a5)" d="M 244.791621 228.680732 
L 244.791621 229.312854 
L 246.653982 229.312854 
L 246.653982 228.680732 
L 244.791621 228.680732 
" style="fill:#a0522d;"/>
   </g>
   <g id="legend_1">
    <g id="patch_137">
     <path d="M 202.410667 156.442146 
L 413.765354 156.442146 
Q 418.165354 156.442146 418.165354 152.042146 
L 418.165354 25.074646 
Q 418.165354 20.674646 413.765354 20.674646 
L 202.410667 20.674646 
Q 198.010667 20.674646 198.010667 25.074646 
L 198.010667 152.042146 
Q 198.010667 156.442146 202.410667 156.442146 
z
" style="fill:#ffffff;stroke:#000000;stroke-linejoin:miter;"/>
    </g>
    <g id="patch_138">
     <path d="M 206.810667 46.191208 
L 250.810667 46.191208 
L 250.810667 30.791208 
L 206.810667 30.791208 
z
" style="fill:#d64161;"/>
    </g>
    <g id="text_15">
     <!-- Conformer A -->
     <defs>
      <path d="M 64.40625 67.28125 
L 64.40625 56.890625 
Q 59.421875 61.53125 53.78125 63.8125 
Q 48.140625 66.109375 41.796875 66.109375 
Q 29.296875 66.109375 22.65625 58.46875 
Q 16.015625 50.828125 16.015625 36.375 
Q 16.015625 21.96875 22.65625 14.328125 
Q 29.296875 6.6875 41.796875 6.6875 
Q 48.140625 6.6875 53.78125 8.984375 
Q 59.421875 11.28125 64.40625 15.921875 
L 64.40625 5.609375 
Q 59.234375 2.09375 53.4375 0.328125 
Q 47.65625 -1.421875 41.21875 -1.421875 
Q 24.65625 -1.421875 15.125 8.703125 
Q 5.609375 18.84375 5.609375 36.375 
Q 5.609375 53.953125 15.125 64.078125 
Q 24.65625 74.21875 41.21875 74.21875 
Q 47.75 74.21875 53.53125 72.484375 
Q 59.328125 70.75 64.40625 67.28125 
z
" id="DejaVuSans-43"/>
      <path d="M 37.109375 75.984375 
L 37.109375 68.5 
L 28.515625 68.5 
Q 23.6875 68.5 21.796875 66.546875 
Q 19.921875 64.59375 19.921875 59.515625 
L 19.921875 54.6875 
L 34.71875 54.6875 
L 34.71875 47.703125 
L 19.921875 47.703125 
L 19.921875 0 
L 10.890625 0 
L 10.890625 47.703125 
L 2.296875 47.703125 
L 2.296875 54.6875 
L 10.890625 54.6875 
L 10.890625 58.5 
Q 10.890625 67.625 15.140625 71.796875 
Q 19.390625 75.984375 28.609375 75.984375 
z
" id="DejaVuSans-66"/>
      <path d="M 41.109375 46.296875 
Q 39.59375 47.171875 37.8125 47.578125 
Q 36.03125 48 33.890625 48 
Q 26.265625 48 22.1875 43.046875 
Q 18.109375 38.09375 18.109375 28.8125 
L 18.109375 0 
L 9.078125 0 
L 9.078125 54.6875 
L 18.109375 54.6875 
L 18.109375 46.1875 
Q 20.953125 51.171875 25.484375 53.578125 
Q 30.03125 56 36.53125 56 
Q 37.453125 56 38.578125 55.875 
Q 39.703125 55.765625 41.0625 55.515625 
z
" id="DejaVuSans-72"/>
      <path d="M 34.1875 63.1875 
L 20.796875 26.90625 
L 47.609375 26.90625 
z
M 28.609375 72.90625 
L 39.796875 72.90625 
L 67.578125 0 
L 57.328125 0 
L 50.6875 18.703125 
L 17.828125 18.703125 
L 11.1875 0 
L 0.78125 0 
z
" id="DejaVuSans-41"/>
     </defs>
     <g transform="translate(268.410667 46.191208)scale(0.22 -0.22)">
      <use xlink:href="#DejaVuSans-43"/>
      <use x="69.824219" xlink:href="#DejaVuSans-6f"/>
      <use x="131.005859" xlink:href="#DejaVuSans-6e"/>
      <use x="194.384766" xlink:href="#DejaVuSans-66"/>
      <use x="229.589844" xlink:href="#DejaVuSans-6f"/>
      <use x="290.771484" xlink:href="#DejaVuSans-72"/>
      <use x="331.869141" xlink:href="#DejaVuSans-6d"/>
      <use x="429.28125" xlink:href="#DejaVuSans-65"/>
      <use x="490.804688" xlink:href="#DejaVuSans-72"/>
      <use x="531.917969" xlink:href="#DejaVuSans-20"/>
      <use x="563.705078" xlink:href="#DejaVuSans-41"/>
     </g>
    </g>
    <g id="patch_139">
     <path d="M 206.810667 78.483083 
L 250.810667 78.483083 
L 250.810667 63.083083 
L 206.810667 63.083083 
z
" style="fill:#feb236;"/>
    </g>
    <g id="text_16">
     <!-- Conformer B -->
     <defs>
      <path d="M 19.671875 34.8125 
L 19.671875 8.109375 
L 35.5 8.109375 
Q 43.453125 8.109375 47.28125 11.40625 
Q 51.125 14.703125 51.125 21.484375 
Q 51.125 28.328125 47.28125 31.5625 
Q 43.453125 34.8125 35.5 34.8125 
z
M 19.671875 64.796875 
L 19.671875 42.828125 
L 34.28125 42.828125 
Q 41.5 42.828125 45.03125 45.53125 
Q 48.578125 48.25 48.578125 53.8125 
Q 48.578125 59.328125 45.03125 62.0625 
Q 41.5 64.796875 34.28125 64.796875 
z
M 9.8125 72.90625 
L 35.015625 72.90625 
Q 46.296875 72.90625 52.390625 68.21875 
Q 58.5 63.53125 58.5 54.890625 
Q 58.5 48.1875 55.375 44.234375 
Q 52.25 40.28125 46.1875 39.3125 
Q 53.46875 37.75 57.5 32.78125 
Q 61.53125 27.828125 61.53125 20.40625 
Q 61.53125 10.640625 54.890625 5.3125 
Q 48.25 0 35.984375 0 
L 9.8125 0 
z
" id="DejaVuSans-42"/>
     </defs>
     <g transform="translate(268.410667 78.483083)scale(0.22 -0.22)">
      <use xlink:href="#DejaVuSans-43"/>
      <use x="69.824219" xlink:href="#DejaVuSans-6f"/>
      <use x="131.005859" xlink:href="#DejaVuSans-6e"/>
      <use x="194.384766" xlink:href="#DejaVuSans-66"/>
      <use x="229.589844" xlink:href="#DejaVuSans-6f"/>
      <use x="290.771484" xlink:href="#DejaVuSans-72"/>
      <use x="331.869141" xlink:href="#DejaVuSans-6d"/>
      <use x="429.28125" xlink:href="#DejaVuSans-65"/>
      <use x="490.804688" xlink:href="#DejaVuSans-72"/>
      <use x="531.917969" xlink:href="#DejaVuSans-20"/>
      <use x="563.705078" xlink:href="#DejaVuSans-42"/>
     </g>
    </g>
    <g id="patch_140">
     <path d="M 206.810667 110.774958 
L 250.810667 110.774958 
L 250.810667 95.374958 
L 206.810667 95.374958 
z
" style="fill:#6b5b95;"/>
    </g>
    <g id="text_17">
     <!-- Conformer C -->
     <g transform="translate(268.410667 110.774958)scale(0.22 -0.22)">
      <use xlink:href="#DejaVuSans-43"/>
      <use x="69.824219" xlink:href="#DejaVuSans-6f"/>
      <use x="131.005859" xlink:href="#DejaVuSans-6e"/>
      <use x="194.384766" xlink:href="#DejaVuSans-66"/>
      <use x="229.589844" xlink:href="#DejaVuSans-6f"/>
      <use x="290.771484" xlink:href="#DejaVuSans-72"/>
      <use x="331.869141" xlink:href="#DejaVuSans-6d"/>
      <use x="429.28125" xlink:href="#DejaVuSans-65"/>
      <use x="490.804688" xlink:href="#DejaVuSans-72"/>
      <use x="531.917969" xlink:href="#DejaVuSans-20"/>
      <use x="563.705078" xlink:href="#DejaVuSans-43"/>
     </g>
    </g>
    <g id="patch_141">
     <path d="M 206.810667 143.066833 
L 250.810667 143.066833 
L 250.810667 127.666833 
L 206.810667 127.666833 
z
" style="fill:#a0522d;"/>
    </g>
    <g id="text_18">
     <!-- Conformer D -->
     <g transform="translate(268.410667 143.066833)scale(0.22 -0.22)">
      <use xlink:href="#DejaVuSans-43"/>
      <use x="69.824219" xlink:href="#DejaVuSans-6f"/>
      <use x="131.005859" xlink:href="#DejaVuSans-6e"/>
      <use x="194.384766" xlink:href="#DejaVuSans-66"/>
      <use x="229.589844" xlink:href="#DejaVuSans-6f"/>
      <use x="290.771484" xlink:href="#DejaVuSans-72"/>
      <use x="331.869141" xlink:href="#DejaVuSans-6d"/>
      <use x="429.28125" xlink:href="#DejaVuSans-65"/>
      <use x="490.804688" xlink:href="#DejaVuSans-72"/>
      <use x="531.917969" xlink:href="#DejaVuSans-20"/>
      <use x="563.705078" xlink:href="#DejaVuSans-44"/>
     </g>
    </g>
   </g>
  </g>
 </g>
 <defs>
  <clipPath id="p19205ac5a5">
   <rect height="219.638209" width="347.640709" x="81.524646" y="9.674646"/>
  </clipPath>
 </defs>
</svg>
