<?xml version="1.0" encoding="utf-8" standalone="no"?>
<!DOCTYPE svg PUBLIC "-//W3C//DTD SVG 1.1//EN"
  "http://www.w3.org/Graphics/SVG/1.1/DTD/svg11.dtd">
<!-- Created with matplotlib (http://matplotlib.org/) -->
<svg height="288pt" version="1.1" viewBox="0 0 432 288" width="432pt" xmlns="http://www.w3.org/2000/svg" xmlns:xlink="http://www.w3.org/1999/xlink">
 <defs>
  <style type="text/css">
*{stroke-linecap:butt;stroke-linejoin:round;}
  </style>
 </defs>
 <g id="figure_1">
  <g id="patch_1">
   <path d="M 0 288 
L 432 288 
L 432 0 
L 0 0 
z
" style="fill:#ffffff;"/>
  </g>
  <g id="axes_1">
   <g id="patch_2">
    <path d="M 81.524646 229.312854 
L 429.165354 229.312854 
L 429.165354 9.674646 
L 81.524646 9.674646 
z
" style="fill:#ffffff;"/>
   </g>
   <g id="patch_3">
    <path clip-path="url(#pf7abf6e96b)" d="M 78.91734 229.312854 
L 78.91734 229.312854 
L 82.828298 229.312854 
L 82.828298 229.312854 
L 78.91734 229.312854 
" style="fill:#d64161;"/>
   </g>
   <g id="patch_4">
    <path clip-path="url(#pf7abf6e96b)" d="M 89.346562 229.312854 
L 89.346562 229.312854 
L 93.25752 229.312854 
L 93.25752 229.312854 
L 89.346562 229.312854 
" style="fill:#d64161;"/>
   </g>
   <g id="patch_5">
    <path clip-path="url(#pf7abf6e96b)" d="M 99.775783 229.312854 
L 99.775783 229.312854 
L 103.686741 229.312854 
L 103.686741 229.312854 
L 99.775783 229.312854 
" style="fill:#d64161;"/>
   </g>
   <g id="patch_6">
    <path clip-path="url(#pf7abf6e96b)" d="M 110.205004 229.312854 
L 110.205004 229.312854 
L 114.115962 229.312854 
L 114.115962 229.312854 
L 110.205004 229.312854 
" style="fill:#d64161;"/>
   </g>
   <g id="patch_7">
    <path clip-path="url(#pf7abf6e96b)" d="M 120.634225 228.842366 
L 120.634225 229.312854 
L 124.545183 229.312854 
L 124.545183 228.842366 
L 120.634225 228.842366 
" style="fill:#d64161;"/>
   </g>
   <g id="patch_8">
    <path clip-path="url(#pf7abf6e96b)" d="M 131.063447 224.71655 
L 131.063447 229.312854 
L 134.974405 229.312854 
L 134.974405 224.71655 
L 131.063447 224.71655 
" style="fill:#d64161;"/>
   </g>
   <g id="patch_9">
    <path clip-path="url(#pf7abf6e96b)" d="M 141.492668 205.897036 
L 141.492668 229.312854 
L 145.403626 229.312854 
L 145.403626 205.897036 
L 141.492668 205.897036 
" style="fill:#d64161;"/>
   </g>
   <g id="patch_10">
    <path clip-path="url(#pf7abf6e96b)" d="M 151.921889 153.238587 
L 151.921889 229.312854 
L 155.832847 229.312854 
L 155.832847 153.238587 
L 151.921889 153.238587 
" style="fill:#d64161;"/>
   </g>
   <g id="patch_11">
    <path clip-path="url(#pf7abf6e96b)" d="M 162.35111 100.037268 
L 162.35111 229.312854 
L 166.262068 229.312854 
L 166.262068 100.037268 
L 162.35111 100.037268 
" style="fill:#d64161;"/>
   </g>
   <g id="patch_12">
    <path clip-path="url(#pf7abf6e96b)" d="M 172.780332 26.098291 
L 172.780332 229.312854 
L 176.69129 229.312854 
L 176.69129 26.098291 
L 172.780332 26.098291 
" style="fill:#d64161;"/>
   </g>
   <g id="patch_13">
    <path clip-path="url(#pf7abf6e96b)" d="M 183.209553 14.770391 
L 183.209553 229.312854 
L 187.120511 229.312854 
L 187.120511 14.770391 
L 183.209553 14.770391 
" style="fill:#d64161;"/>
   </g>
   <g id="patch_14">
    <path clip-path="url(#pf7abf6e96b)" d="M 193.638774 52.626568 
L 193.638774 229.312854 
L 197.549732 229.312854 
L 197.549732 52.626568 
L 193.638774 52.626568 
" style="fill:#d64161;"/>
   </g>
   <g id="patch_15">
    <path clip-path="url(#pf7abf6e96b)" d="M 204.067995 102.244941 
L 204.067995 229.312854 
L 207.978953 229.312854 
L 207.978953 102.244941 
L 204.067995 102.244941 
" style="fill:#d64161;"/>
   </g>
   <g id="patch_16">
    <path clip-path="url(#pf7abf6e96b)" d="M 214.497217 150.343277 
L 214.497217 229.312854 
L 218.408175 229.312854 
L 218.408175 150.343277 
L 214.497217 150.343277 
" style="fill:#d64161;"/>
   </g>
   <g id="patch_17">
    <path clip-path="url(#pf7abf6e96b)" d="M 224.926438 188.235645 
L 224.926438 229.312854 
L 228.837396 229.312854 
L 228.837396 188.235645 
L 224.926438 188.235645 
" style="fill:#d64161;"/>
   </g>
   <g id="patch_18">
    <path clip-path="url(#pf7abf6e96b)" d="M 235.355659 214.221052 
L 235.355659 229.312854 
L 239.266617 229.312854 
L 239.266617 214.221052 
L 235.355659 214.221052 
" style="fill:#d64161;"/>
   </g>
   <g id="patch_19">
    <path clip-path="url(#pf7abf6e96b)" d="M 245.784881 223.739383 
L 245.784881 229.312854 
L 249.695838 229.312854 
L 249.695838 223.739383 
L 245.784881 223.739383 
" style="fill:#d64161;"/>
   </g>
   <g id="patch_20">
    <path clip-path="url(#pf7abf6e96b)" d="M 256.214102 227.792817 
L 256.214102 229.312854 
L 260.12506 229.312854 
L 260.12506 227.792817 
L 256.214102 227.792817 
" style="fill:#d64161;"/>
   </g>
   <g id="patch_21">
    <path clip-path="url(#pf7abf6e96b)" d="M 266.643323 228.697601 
L 266.643323 229.312854 
L 270.554281 229.312854 
L 270.554281 228.697601 
L 266.643323 228.697601 
" style="fill:#d64161;"/>
   </g>
   <g id="patch_22">
    <path clip-path="url(#pf7abf6e96b)" d="M 277.072544 229.312854 
L 277.072544 229.312854 
L 280.983502 229.312854 
L 280.983502 229.312854 
L 277.072544 229.312854 
" style="fill:#d64161;"/>
   </g>
   <g id="patch_23">
    <path clip-path="url(#pf7abf6e96b)" d="M 287.501766 229.312854 
L 287.501766 229.312854 
L 291.412724 229.312854 
L 291.412724 229.312854 
L 287.501766 229.312854 
" style="fill:#d64161;"/>
   </g>
   <g id="patch_24">
    <path clip-path="url(#pf7abf6e96b)" d="M 297.930987 229.312854 
L 297.930987 229.312854 
L 301.841945 229.312854 
L 301.841945 229.312854 
L 297.930987 229.312854 
" style="fill:#d64161;"/>
   </g>
   <g id="patch_25">
    <path clip-path="url(#pf7abf6e96b)" d="M 308.360208 229.312854 
L 308.360208 229.312854 
L 312.271166 229.312854 
L 312.271166 229.312854 
L 308.360208 229.312854 
" style="fill:#d64161;"/>
   </g>
   <g id="patch_26">
    <path clip-path="url(#pf7abf6e96b)" d="M 318.789429 229.312854 
L 318.789429 229.312854 
L 322.700387 229.312854 
L 322.700387 229.312854 
L 318.789429 229.312854 
" style="fill:#d64161;"/>
   </g>
   <g id="patch_27">
    <path clip-path="url(#pf7abf6e96b)" d="M 329.218651 229.312854 
L 329.218651 229.312854 
L 333.129609 229.312854 
L 333.129609 229.312854 
L 329.218651 229.312854 
" style="fill:#d64161;"/>
   </g>
   <g id="patch_28">
    <path clip-path="url(#pf7abf6e96b)" d="M 339.647872 229.312854 
L 339.647872 229.312854 
L 343.55883 229.312854 
L 343.55883 229.312854 
L 339.647872 229.312854 
" style="fill:#d64161;"/>
   </g>
   <g id="patch_29">
    <path clip-path="url(#pf7abf6e96b)" d="M 350.077093 229.312854 
L 350.077093 229.312854 
L 353.988051 229.312854 
L 353.988051 229.312854 
L 350.077093 229.312854 
" style="fill:#d64161;"/>
   </g>
   <g id="patch_30">
    <path clip-path="url(#pf7abf6e96b)" d="M 360.506314 229.312854 
L 360.506314 229.312854 
L 364.417272 229.312854 
L 364.417272 229.312854 
L 360.506314 229.312854 
" style="fill:#d64161;"/>
   </g>
   <g id="patch_31">
    <path clip-path="url(#pf7abf6e96b)" d="M 370.935536 229.312854 
L 370.935536 229.312854 
L 374.846494 229.312854 
L 374.846494 229.312854 
L 370.935536 229.312854 
" style="fill:#d64161;"/>
   </g>
   <g id="patch_32">
    <path clip-path="url(#pf7abf6e96b)" d="M 381.364757 229.312854 
L 381.364757 229.312854 
L 385.275715 229.312854 
L 385.275715 229.312854 
L 381.364757 229.312854 
" style="fill:#d64161;"/>
   </g>
   <g id="patch_33">
    <path clip-path="url(#pf7abf6e96b)" d="M 391.793978 229.312854 
L 391.793978 229.312854 
L 395.704936 229.312854 
L 395.704936 229.312854 
L 391.793978 229.312854 
" style="fill:#d64161;"/>
   </g>
   <g id="patch_34">
    <path clip-path="url(#pf7abf6e96b)" d="M 402.223199 229.312854 
L 402.223199 229.312854 
L 406.134157 229.312854 
L 406.134157 229.312854 
L 402.223199 229.312854 
" style="fill:#d64161;"/>
   </g>
   <g id="patch_35">
    <path clip-path="url(#pf7abf6e96b)" d="M 412.652421 229.312854 
L 412.652421 229.312854 
L 416.563379 229.312854 
L 416.563379 229.312854 
L 412.652421 229.312854 
" style="fill:#d64161;"/>
   </g>
   <g id="matplotlib.axis_1">
    <g id="xtick_1">
     <g id="line2d_1">
      <defs>
       <path d="M 0 0 
L 0 -3.5 
" id="m54b9f68ded" style="stroke:#000000;stroke-width:0.8;"/>
      </defs>
      <g>
       <use style="stroke:#000000;stroke-width:0.8;" x="116.288717" xlink:href="#m54b9f68ded" y="229.312854"/>
      </g>
     </g>
     <g id="text_1">
      <!-- 300 -->
      <defs>
       <path d="M 40.578125 39.3125 
Q 47.65625 37.796875 51.625 33 
Q 55.609375 28.21875 55.609375 21.1875 
Q 55.609375 10.40625 48.1875 4.484375 
Q 40.765625 -1.421875 27.09375 -1.421875 
Q 22.515625 -1.421875 17.65625 -0.515625 
Q 12.796875 0.390625 7.625 2.203125 
L 7.625 11.71875 
Q 11.71875 9.328125 16.59375 8.109375 
Q 21.484375 6.890625 26.8125 6.890625 
Q 36.078125 6.890625 40.9375 10.546875 
Q 45.796875 14.203125 45.796875 21.1875 
Q 45.796875 27.640625 41.28125 31.265625 
Q 36.765625 34.90625 28.71875 34.90625 
L 20.21875 34.90625 
L 20.21875 43.015625 
L 29.109375 43.015625 
Q 36.375 43.015625 40.234375 45.921875 
Q 44.09375 48.828125 44.09375 54.296875 
Q 44.09375 59.90625 40.109375 62.90625 
Q 36.140625 65.921875 28.71875 65.921875 
Q 24.65625 65.921875 20.015625 65.03125 
Q 15.375 64.15625 9.8125 62.3125 
L 9.8125 71.09375 
Q 15.4375 72.65625 20.34375 73.4375 
Q 25.25 74.21875 29.59375 74.21875 
Q 40.828125 74.21875 47.359375 69.109375 
Q 53.90625 64.015625 53.90625 55.328125 
Q 53.90625 49.265625 50.4375 45.09375 
Q 46.96875 40.921875 40.578125 39.3125 
z
" id="DejaVuSans-33"/>
       <path d="M 31.78125 66.40625 
Q 24.171875 66.40625 20.328125 58.90625 
Q 16.5 51.421875 16.5 36.375 
Q 16.5 21.390625 20.328125 13.890625 
Q 24.171875 6.390625 31.78125 6.390625 
Q 39.453125 6.390625 43.28125 13.890625 
Q 47.125 21.390625 47.125 36.375 
Q 47.125 51.421875 43.28125 58.90625 
Q 39.453125 66.40625 31.78125 66.40625 
z
M 31.78125 74.21875 
Q 44.046875 74.21875 50.515625 64.515625 
Q 56.984375 54.828125 56.984375 36.375 
Q 56.984375 17.96875 50.515625 8.265625 
Q 44.046875 -1.421875 31.78125 -1.421875 
Q 19.53125 -1.421875 13.0625 8.265625 
Q 6.59375 17.96875 6.59375 36.375 
Q 6.59375 54.828125 13.0625 64.515625 
Q 19.53125 74.21875 31.78125 74.21875 
z
" id="DejaVuSans-30"/>
      </defs>
      <g transform="translate(95.292467 249.529417)scale(0.22 -0.22)">
       <use xlink:href="#DejaVuSans-33"/>
       <use x="63.623047" xlink:href="#DejaVuSans-30"/>
       <use x="127.246094" xlink:href="#DejaVuSans-30"/>
      </g>
     </g>
    </g>
    <g id="xtick_2">
     <g id="line2d_2">
      <g>
       <use style="stroke:#000000;stroke-width:0.8;" x="185.816858" xlink:href="#m54b9f68ded" y="229.312854"/>
      </g>
     </g>
     <g id="text_2">
      <!-- 500 -->
      <defs>
       <path d="M 10.796875 72.90625 
L 49.515625 72.90625 
L 49.515625 64.59375 
L 19.828125 64.59375 
L 19.828125 46.734375 
Q 21.96875 47.46875 24.109375 47.828125 
Q 26.265625 48.1875 28.421875 48.1875 
Q 40.625 48.1875 47.75 41.5 
Q 54.890625 34.8125 54.890625 23.390625 
Q 54.890625 11.625 47.5625 5.09375 
Q 40.234375 -1.421875 26.90625 -1.421875 
Q 22.3125 -1.421875 17.546875 -0.640625 
Q 12.796875 0.140625 7.71875 1.703125 
L 7.71875 11.625 
Q 12.109375 9.234375 16.796875 8.0625 
Q 21.484375 6.890625 26.703125 6.890625 
Q 35.15625 6.890625 40.078125 11.328125 
Q 45.015625 15.765625 45.015625 23.390625 
Q 45.015625 31 40.078125 35.4375 
Q 35.15625 39.890625 26.703125 39.890625 
Q 22.75 39.890625 18.8125 39.015625 
Q 14.890625 38.140625 10.796875 36.28125 
z
" id="DejaVuSans-35"/>
      </defs>
      <g transform="translate(164.820608 249.529417)scale(0.22 -0.22)">
       <use xlink:href="#DejaVuSans-35"/>
       <use x="63.623047" xlink:href="#DejaVuSans-30"/>
       <use x="127.246094" xlink:href="#DejaVuSans-30"/>
      </g>
     </g>
    </g>
    <g id="xtick_3">
     <g id="line2d_3">
      <g>
       <use style="stroke:#000000;stroke-width:0.8;" x="255.345" xlink:href="#m54b9f68ded" y="229.312854"/>
      </g>
     </g>
     <g id="text_3">
      <!-- 700 -->
      <defs>
       <path d="M 8.203125 72.90625 
L 55.078125 72.90625 
L 55.078125 68.703125 
L 28.609375 0 
L 18.3125 0 
L 43.21875 64.59375 
L 8.203125 64.59375 
z
" id="DejaVuSans-37"/>
      </defs>
      <g transform="translate(234.34875 249.529417)scale(0.22 -0.22)">
       <use xlink:href="#DejaVuSans-37"/>
       <use x="63.623047" xlink:href="#DejaVuSans-30"/>
       <use x="127.246094" xlink:href="#DejaVuSans-30"/>
      </g>
     </g>
    </g>
    <g id="xtick_4">
     <g id="line2d_4">
      <g>
       <use style="stroke:#000000;stroke-width:0.8;" x="324.873142" xlink:href="#m54b9f68ded" y="229.312854"/>
      </g>
     </g>
     <g id="text_4">
      <!-- 900 -->
      <defs>
       <path d="M 10.984375 1.515625 
L 10.984375 10.5 
Q 14.703125 8.734375 18.5 7.8125 
Q 22.3125 6.890625 25.984375 6.890625 
Q 35.75 6.890625 40.890625 13.453125 
Q 46.046875 20.015625 46.78125 33.40625 
Q 43.953125 29.203125 39.59375 26.953125 
Q 35.25 24.703125 29.984375 24.703125 
Q 19.046875 24.703125 12.671875 31.3125 
Q 6.296875 37.9375 6.296875 49.421875 
Q 6.296875 60.640625 12.9375 67.421875 
Q 19.578125 74.21875 30.609375 74.21875 
Q 43.265625 74.21875 49.921875 64.515625 
Q 56.59375 54.828125 56.59375 36.375 
Q 56.59375 19.140625 48.40625 8.859375 
Q 40.234375 -1.421875 26.421875 -1.421875 
Q 22.703125 -1.421875 18.890625 -0.6875 
Q 15.09375 0.046875 10.984375 1.515625 
z
M 30.609375 32.421875 
Q 37.25 32.421875 41.125 36.953125 
Q 45.015625 41.5 45.015625 49.421875 
Q 45.015625 57.28125 41.125 61.84375 
Q 37.25 66.40625 30.609375 66.40625 
Q 23.96875 66.40625 20.09375 61.84375 
Q 16.21875 57.28125 16.21875 49.421875 
Q 16.21875 41.5 20.09375 36.953125 
Q 23.96875 32.421875 30.609375 32.421875 
z
" id="DejaVuSans-39"/>
      </defs>
      <g transform="translate(303.876892 249.529417)scale(0.22 -0.22)">
       <use xlink:href="#DejaVuSans-39"/>
       <use x="63.623047" xlink:href="#DejaVuSans-30"/>
       <use x="127.246094" xlink:href="#DejaVuSans-30"/>
      </g>
     </g>
    </g>
    <g id="text_5">
     <!-- Volume $[\AA^3]$  -->
     <defs>
      <path d="M 28.609375 0 
L 0.78125 72.90625 
L 11.078125 72.90625 
L 34.1875 11.53125 
L 57.328125 72.90625 
L 67.578125 72.90625 
L 39.796875 0 
z
" id="DejaVuSans-56"/>
      <path d="M 30.609375 48.390625 
Q 23.390625 48.390625 19.1875 42.75 
Q 14.984375 37.109375 14.984375 27.296875 
Q 14.984375 17.484375 19.15625 11.84375 
Q 23.34375 6.203125 30.609375 6.203125 
Q 37.796875 6.203125 41.984375 11.859375 
Q 46.1875 17.53125 46.1875 27.296875 
Q 46.1875 37.015625 41.984375 42.703125 
Q 37.796875 48.390625 30.609375 48.390625 
z
M 30.609375 56 
Q 42.328125 56 49.015625 48.375 
Q 55.71875 40.765625 55.71875 27.296875 
Q 55.71875 13.875 49.015625 6.21875 
Q 42.328125 -1.421875 30.609375 -1.421875 
Q 18.84375 -1.421875 12.171875 6.21875 
Q 5.515625 13.875 5.515625 27.296875 
Q 5.515625 40.765625 12.171875 48.375 
Q 18.84375 56 30.609375 56 
z
" id="DejaVuSans-6f"/>
      <path d="M 9.421875 75.984375 
L 18.40625 75.984375 
L 18.40625 0 
L 9.421875 0 
z
" id="DejaVuSans-6c"/>
      <path d="M 8.5 21.578125 
L 8.5 54.6875 
L 17.484375 54.6875 
L 17.484375 21.921875 
Q 17.484375 14.15625 20.5 10.265625 
Q 23.53125 6.390625 29.59375 6.390625 
Q 36.859375 6.390625 41.078125 11.03125 
Q 45.3125 15.671875 45.3125 23.6875 
L 45.3125 54.6875 
L 54.296875 54.6875 
L 54.296875 0 
L 45.3125 0 
L 45.3125 8.40625 
Q 42.046875 3.421875 37.71875 1 
Q 33.40625 -1.421875 27.6875 -1.421875 
Q 18.265625 -1.421875 13.375 4.4375 
Q 8.5 10.296875 8.5 21.578125 
z
M 31.109375 56 
z
" id="DejaVuSans-75"/>
      <path d="M 52 44.1875 
Q 55.375 50.25 60.0625 53.125 
Q 64.75 56 71.09375 56 
Q 79.640625 56 84.28125 50.015625 
Q 88.921875 44.046875 88.921875 33.015625 
L 88.921875 0 
L 79.890625 0 
L 79.890625 32.71875 
Q 79.890625 40.578125 77.09375 44.375 
Q 74.3125 48.1875 68.609375 48.1875 
Q 61.625 48.1875 57.5625 43.546875 
Q 53.515625 38.921875 53.515625 30.90625 
L 53.515625 0 
L 44.484375 0 
L 44.484375 32.71875 
Q 44.484375 40.625 41.703125 44.40625 
Q 38.921875 48.1875 33.109375 48.1875 
Q 26.21875 48.1875 22.15625 43.53125 
Q 18.109375 38.875 18.109375 30.90625 
L 18.109375 0 
L 9.078125 0 
L 9.078125 54.6875 
L 18.109375 54.6875 
L 18.109375 46.1875 
Q 21.1875 51.21875 25.484375 53.609375 
Q 29.78125 56 35.6875 56 
Q 41.65625 56 45.828125 52.96875 
Q 50 49.953125 52 44.1875 
z
" id="DejaVuSans-6d"/>
      <path d="M 56.203125 29.59375 
L 56.203125 25.203125 
L 14.890625 25.203125 
Q 15.484375 15.921875 20.484375 11.0625 
Q 25.484375 6.203125 34.421875 6.203125 
Q 39.59375 6.203125 44.453125 7.46875 
Q 49.3125 8.734375 54.109375 11.28125 
L 54.109375 2.78125 
Q 49.265625 0.734375 44.1875 -0.34375 
Q 39.109375 -1.421875 33.890625 -1.421875 
Q 20.796875 -1.421875 13.15625 6.1875 
Q 5.515625 13.8125 5.515625 26.8125 
Q 5.515625 40.234375 12.765625 48.109375 
Q 20.015625 56 32.328125 56 
Q 43.359375 56 49.78125 48.890625 
Q 56.203125 41.796875 56.203125 29.59375 
z
M 47.21875 32.234375 
Q 47.125 39.59375 43.09375 43.984375 
Q 39.0625 48.390625 32.421875 48.390625 
Q 24.90625 48.390625 20.390625 44.140625 
Q 15.875 39.890625 15.1875 32.171875 
z
" id="DejaVuSans-65"/>
      <path id="DejaVuSans-20"/>
      <path d="M 8.59375 75.984375 
L 29.296875 75.984375 
L 29.296875 69 
L 17.578125 69 
L 17.578125 -6.203125 
L 29.296875 -6.203125 
L 29.296875 -13.1875 
L 8.59375 -13.1875 
z
" id="DejaVuSans-5b"/>
      <path d="M 49.8125 79.390625 
Q 49.8125 82.46875 47.625 84.640625 
Q 45.453125 86.8125 42.390625 86.8125 
Q 39.265625 86.8125 37.140625 84.6875 
Q 35.015625 82.5625 35.015625 79.390625 
Q 35.015625 76.3125 37.140625 74.15625 
Q 39.265625 72.015625 42.390625 72.015625 
Q 45.453125 72.015625 47.625 74.15625 
Q 49.8125 76.3125 49.8125 79.390625 
z
M 34.421875 68.703125 
Q 31.78125 70.515625 30.390625 73.265625 
Q 29 76.03125 29 79.390625 
Q 29 84.96875 32.90625 88.890625 
Q 36.8125 92.828125 42.390625 92.828125 
Q 47.953125 92.828125 51.875 88.890625 
Q 55.8125 84.96875 55.8125 79.390625 
Q 55.8125 75.53125 54.03125 72.546875 
Q 52.25 69.578125 48.875 67.828125 
L 61.53125 0 
L 51.21875 0 
L 48.1875 18.703125 
L 15.375 18.703125 
L 5.078125 0 
L -5.328125 0 
z
M 40.375 63.1875 
L 19.921875 26.90625 
L 46.6875 26.90625 
z
" id="DejaVuSans-Oblique-c5"/>
      <path d="M 30.421875 75.984375 
L 30.421875 -13.1875 
L 9.71875 -13.1875 
L 9.71875 -6.203125 
L 21.390625 -6.203125 
L 21.390625 69 
L 9.71875 69 
L 9.71875 75.984375 
z
" id="DejaVuSans-5d"/>
     </defs>
     <g transform="translate(177.705 278.793479)scale(0.24 -0.24)">
      <use transform="translate(0 0.171875)" xlink:href="#DejaVuSans-56"/>
      <use transform="translate(68.408203 0.171875)" xlink:href="#DejaVuSans-6f"/>
      <use transform="translate(129.589844 0.171875)" xlink:href="#DejaVuSans-6c"/>
      <use transform="translate(157.373047 0.171875)" xlink:href="#DejaVuSans-75"/>
      <use transform="translate(220.751953 0.171875)" xlink:href="#DejaVuSans-6d"/>
      <use transform="translate(318.164062 0.171875)" xlink:href="#DejaVuSans-65"/>
      <use transform="translate(379.6875 0.171875)" xlink:href="#DejaVuSans-20"/>
      <use transform="translate(411.474609 0.171875)" xlink:href="#DejaVuSans-5b"/>
      <use transform="translate(450.488281 0.171875)" xlink:href="#DejaVuSans-Oblique-c5"/>
      <use transform="translate(528.702318 38.453125)scale(0.7)" xlink:href="#DejaVuSans-33"/>
      <use transform="translate(575.972826 0.171875)" xlink:href="#DejaVuSans-5d"/>
      <use transform="translate(614.986497 0.171875)" xlink:href="#DejaVuSans-20"/>
     </g>
    </g>
   </g>
   <g id="matplotlib.axis_2">
    <g id="ytick_1">
     <g id="line2d_5">
      <defs>
       <path d="M 0 0 
L 3.5 0 
" id="m56658aea8c" style="stroke:#000000;stroke-width:0.8;"/>
      </defs>
      <g>
       <use style="stroke:#000000;stroke-width:0.8;" x="81.524646" xlink:href="#m56658aea8c" y="174.403302"/>
      </g>
     </g>
     <g id="text_6">
      <!-- 0.05 -->
      <defs>
       <path d="M 10.6875 12.40625 
L 21 12.40625 
L 21 0 
L 10.6875 0 
z
" id="DejaVuSans-2e"/>
      </defs>
      <g transform="translate(29.040271 182.761583)scale(0.22 -0.22)">
       <use xlink:href="#DejaVuSans-30"/>
       <use x="63.623047" xlink:href="#DejaVuSans-2e"/>
       <use x="95.410156" xlink:href="#DejaVuSans-30"/>
       <use x="159.033203" xlink:href="#DejaVuSans-35"/>
      </g>
     </g>
    </g>
    <g id="ytick_2">
     <g id="line2d_6">
      <g>
       <use style="stroke:#000000;stroke-width:0.8;" x="81.524646" xlink:href="#m56658aea8c" y="119.49375"/>
      </g>
     </g>
     <g id="text_7">
      <!-- 0.10 -->
      <defs>
       <path d="M 12.40625 8.296875 
L 28.515625 8.296875 
L 28.515625 63.921875 
L 10.984375 60.40625 
L 10.984375 69.390625 
L 28.421875 72.90625 
L 38.28125 72.90625 
L 38.28125 8.296875 
L 54.390625 8.296875 
L 54.390625 0 
L 12.40625 0 
z
" id="DejaVuSans-31"/>
      </defs>
      <g transform="translate(29.040271 127.852031)scale(0.22 -0.22)">
       <use xlink:href="#DejaVuSans-30"/>
       <use x="63.623047" xlink:href="#DejaVuSans-2e"/>
       <use x="95.410156" xlink:href="#DejaVuSans-31"/>
       <use x="159.033203" xlink:href="#DejaVuSans-30"/>
      </g>
     </g>
    </g>
    <g id="ytick_3">
     <g id="line2d_7">
      <g>
       <use style="stroke:#000000;stroke-width:0.8;" x="81.524646" xlink:href="#m56658aea8c" y="64.584198"/>
      </g>
     </g>
     <g id="text_8">
      <!-- 0.15 -->
      <g transform="translate(29.040271 72.942479)scale(0.22 -0.22)">
       <use xlink:href="#DejaVuSans-30"/>
       <use x="63.623047" xlink:href="#DejaVuSans-2e"/>
       <use x="95.410156" xlink:href="#DejaVuSans-31"/>
       <use x="159.033203" xlink:href="#DejaVuSans-35"/>
      </g>
     </g>
    </g>
    <g id="ytick_4">
     <g id="line2d_8">
      <g>
       <use style="stroke:#000000;stroke-width:0.8;" x="81.524646" xlink:href="#m56658aea8c" y="9.674646"/>
      </g>
     </g>
     <g id="text_9">
      <!-- 0.20 -->
      <defs>
       <path d="M 19.1875 8.296875 
L 53.609375 8.296875 
L 53.609375 0 
L 7.328125 0 
L 7.328125 8.296875 
Q 12.9375 14.109375 22.625 23.890625 
Q 32.328125 33.6875 34.8125 36.53125 
Q 39.546875 41.84375 41.421875 45.53125 
Q 43.3125 49.21875 43.3125 52.78125 
Q 43.3125 58.59375 39.234375 62.25 
Q 35.15625 65.921875 28.609375 65.921875 
Q 23.96875 65.921875 18.8125 64.3125 
Q 13.671875 62.703125 7.8125 59.421875 
L 7.8125 69.390625 
Q 13.765625 71.78125 18.9375 73 
Q 24.125 74.21875 28.421875 74.21875 
Q 39.75 74.21875 46.484375 68.546875 
Q 53.21875 62.890625 53.21875 53.421875 
Q 53.21875 48.921875 51.53125 44.890625 
Q 49.859375 40.875 45.40625 35.40625 
Q 44.1875 33.984375 37.640625 27.21875 
Q 31.109375 20.453125 19.1875 8.296875 
z
" id="DejaVuSans-32"/>
      </defs>
      <g transform="translate(29.040271 18.032927)scale(0.22 -0.22)">
       <use xlink:href="#DejaVuSans-30"/>
       <use x="63.623047" xlink:href="#DejaVuSans-2e"/>
       <use x="95.410156" xlink:href="#DejaVuSans-32"/>
       <use x="159.033203" xlink:href="#DejaVuSans-30"/>
      </g>
     </g>
    </g>
    <g id="text_10">
     <!-- Density -->
     <defs>
      <path d="M 19.671875 64.796875 
L 19.671875 8.109375 
L 31.59375 8.109375 
Q 46.6875 8.109375 53.6875 14.9375 
Q 60.6875 21.78125 60.6875 36.53125 
Q 60.6875 51.171875 53.6875 57.984375 
Q 46.6875 64.796875 31.59375 64.796875 
z
M 9.8125 72.90625 
L 30.078125 72.90625 
Q 51.265625 72.90625 61.171875 64.09375 
Q 71.09375 55.28125 71.09375 36.53125 
Q 71.09375 17.671875 61.125 8.828125 
Q 51.171875 0 30.078125 0 
L 9.8125 0 
z
" id="DejaVuSans-44"/>
      <path d="M 54.890625 33.015625 
L 54.890625 0 
L 45.90625 0 
L 45.90625 32.71875 
Q 45.90625 40.484375 42.875 44.328125 
Q 39.84375 48.1875 33.796875 48.1875 
Q 26.515625 48.1875 22.3125 43.546875 
Q 18.109375 38.921875 18.109375 30.90625 
L 18.109375 0 
L 9.078125 0 
L 9.078125 54.6875 
L 18.109375 54.6875 
L 18.109375 46.1875 
Q 21.34375 51.125 25.703125 53.5625 
Q 30.078125 56 35.796875 56 
Q 45.21875 56 50.046875 50.171875 
Q 54.890625 44.34375 54.890625 33.015625 
z
" id="DejaVuSans-6e"/>
      <path d="M 44.28125 53.078125 
L 44.28125 44.578125 
Q 40.484375 46.53125 36.375 47.5 
Q 32.28125 48.484375 27.875 48.484375 
Q 21.1875 48.484375 17.84375 46.4375 
Q 14.5 44.390625 14.5 40.28125 
Q 14.5 37.15625 16.890625 35.375 
Q 19.28125 33.59375 26.515625 31.984375 
L 29.59375 31.296875 
Q 39.15625 29.25 43.1875 25.515625 
Q 47.21875 21.78125 47.21875 15.09375 
Q 47.21875 7.46875 41.1875 3.015625 
Q 35.15625 -1.421875 24.609375 -1.421875 
Q 20.21875 -1.421875 15.453125 -0.5625 
Q 10.6875 0.296875 5.421875 2 
L 5.421875 11.28125 
Q 10.40625 8.6875 15.234375 7.390625 
Q 20.0625 6.109375 24.8125 6.109375 
Q 31.15625 6.109375 34.5625 8.28125 
Q 37.984375 10.453125 37.984375 14.40625 
Q 37.984375 18.0625 35.515625 20.015625 
Q 33.0625 21.96875 24.703125 23.78125 
L 21.578125 24.515625 
Q 13.234375 26.265625 9.515625 29.90625 
Q 5.8125 33.546875 5.8125 39.890625 
Q 5.8125 47.609375 11.28125 51.796875 
Q 16.75 56 26.8125 56 
Q 31.78125 56 36.171875 55.265625 
Q 40.578125 54.546875 44.28125 53.078125 
z
" id="DejaVuSans-73"/>
      <path d="M 9.421875 54.6875 
L 18.40625 54.6875 
L 18.40625 0 
L 9.421875 0 
z
M 9.421875 75.984375 
L 18.40625 75.984375 
L 18.40625 64.59375 
L 9.421875 64.59375 
z
" id="DejaVuSans-69"/>
      <path d="M 18.3125 70.21875 
L 18.3125 54.6875 
L 36.8125 54.6875 
L 36.8125 47.703125 
L 18.3125 47.703125 
L 18.3125 18.015625 
Q 18.3125 11.328125 20.140625 9.421875 
Q 21.96875 7.515625 27.59375 7.515625 
L 36.8125 7.515625 
L 36.8125 0 
L 27.59375 0 
Q 17.1875 0 13.234375 3.875 
Q 9.28125 7.765625 9.28125 18.015625 
L 9.28125 47.703125 
L 2.6875 47.703125 
L 2.6875 54.6875 
L 9.28125 54.6875 
L 9.28125 70.21875 
z
" id="DejaVuSans-74"/>
      <path d="M 32.171875 -5.078125 
Q 28.375 -14.84375 24.75 -17.8125 
Q 21.140625 -20.796875 15.09375 -20.796875 
L 7.90625 -20.796875 
L 7.90625 -13.28125 
L 13.1875 -13.28125 
Q 16.890625 -13.28125 18.9375 -11.515625 
Q 21 -9.765625 23.484375 -3.21875 
L 25.09375 0.875 
L 2.984375 54.6875 
L 12.5 54.6875 
L 29.59375 11.921875 
L 46.6875 54.6875 
L 56.203125 54.6875 
z
" id="DejaVuSans-79"/>
     </defs>
     <g transform="translate(20.049021 165.114375)rotate(-90)scale(0.24 -0.24)">
      <use xlink:href="#DejaVuSans-44"/>
      <use x="77.001953" xlink:href="#DejaVuSans-65"/>
      <use x="138.525391" xlink:href="#DejaVuSans-6e"/>
      <use x="201.904297" xlink:href="#DejaVuSans-73"/>
      <use x="254.003906" xlink:href="#DejaVuSans-69"/>
      <use x="281.787109" xlink:href="#DejaVuSans-74"/>
      <use x="320.996094" xlink:href="#DejaVuSans-79"/>
     </g>
    </g>
   </g>
   <g id="patch_36">
    <path clip-path="url(#pf7abf6e96b)" d="M 82.828298 229.312854 
L 82.828298 229.312854 
L 86.739256 229.312854 
L 86.739256 229.312854 
L 82.828298 229.312854 
" style="fill:#feb236;"/>
   </g>
   <g id="patch_37">
    <path clip-path="url(#pf7abf6e96b)" d="M 93.25752 229.312854 
L 93.25752 229.312854 
L 97.168478 229.312854 
L 97.168478 229.312854 
L 93.25752 229.312854 
" style="fill:#feb236;"/>
   </g>
   <g id="patch_38">
    <path clip-path="url(#pf7abf6e96b)" d="M 103.686741 228.858253 
L 103.686741 229.312854 
L 107.597699 229.312854 
L 107.597699 228.858253 
L 103.686741 228.858253 
" style="fill:#feb236;"/>
   </g>
   <g id="patch_39">
    <path clip-path="url(#pf7abf6e96b)" d="M 114.115962 224.494084 
L 114.115962 229.312854 
L 118.02692 229.312854 
L 118.02692 224.494084 
L 114.115962 224.494084 
" style="fill:#feb236;"/>
   </g>
   <g id="patch_40">
    <path clip-path="url(#pf7abf6e96b)" d="M 124.545183 214.686067 
L 124.545183 229.312854 
L 128.456141 229.312854 
L 128.456141 214.686067 
L 124.545183 214.686067 
" style="fill:#feb236;"/>
   </g>
   <g id="patch_41">
    <path clip-path="url(#pf7abf6e96b)" d="M 134.974405 188.716983 
L 134.974405 229.312854 
L 138.885363 229.312854 
L 138.885363 188.716983 
L 134.974405 188.716983 
" style="fill:#feb236;"/>
   </g>
   <g id="patch_42">
    <path clip-path="url(#pf7abf6e96b)" d="M 145.403626 155.281079 
L 145.403626 229.312854 
L 149.314584 229.312854 
L 149.314584 155.281079 
L 145.403626 155.281079 
" style="fill:#feb236;"/>
   </g>
   <g id="patch_43">
    <path clip-path="url(#pf7abf6e96b)" d="M 155.832847 120.265435 
L 155.832847 229.312854 
L 159.743805 229.312854 
L 159.743805 120.265435 
L 155.832847 120.265435 
" style="fill:#feb236;"/>
   </g>
   <g id="patch_44">
    <path clip-path="url(#pf7abf6e96b)" d="M 166.262068 80.203721 
L 166.262068 229.312854 
L 170.173026 229.312854 
L 170.173026 80.203721 
L 166.262068 80.203721 
" style="fill:#feb236;"/>
   </g>
   <g id="patch_45">
    <path clip-path="url(#pf7abf6e96b)" d="M 176.69129 65.224617 
L 176.69129 229.312854 
L 180.602248 229.312854 
L 180.602248 65.224617 
L 176.69129 65.224617 
" style="fill:#feb236;"/>
   </g>
   <g id="patch_46">
    <path clip-path="url(#pf7abf6e96b)" d="M 187.120511 73.452895 
L 187.120511 229.312854 
L 191.031469 229.312854 
L 191.031469 73.452895 
L 187.120511 73.452895 
" style="fill:#feb236;"/>
   </g>
   <g id="patch_47">
    <path clip-path="url(#pf7abf6e96b)" d="M 197.549732 99.672009 
L 197.549732 229.312854 
L 201.46069 229.312854 
L 201.46069 99.672009 
L 197.549732 99.672009 
" style="fill:#feb236;"/>
   </g>
   <g id="patch_48">
    <path clip-path="url(#pf7abf6e96b)" d="M 207.978953 133.016994 
L 207.978953 229.312854 
L 211.889911 229.312854 
L 211.889911 133.016994 
L 207.978953 133.016994 
" style="fill:#feb236;"/>
   </g>
   <g id="patch_49">
    <path clip-path="url(#pf7abf6e96b)" d="M 218.408175 166.282423 
L 218.408175 229.312854 
L 222.319133 229.312854 
L 222.319133 166.282423 
L 218.408175 166.282423 
" style="fill:#feb236;"/>
   </g>
   <g id="patch_50">
    <path clip-path="url(#pf7abf6e96b)" d="M 228.837396 187.05769 
L 228.837396 229.312854 
L 232.748354 229.312854 
L 232.748354 187.05769 
L 228.837396 187.05769 
" style="fill:#feb236;"/>
   </g>
   <g id="patch_51">
    <path clip-path="url(#pf7abf6e96b)" d="M 239.266617 205.514491 
L 239.266617 229.312854 
L 243.177575 229.312854 
L 243.177575 205.514491 
L 239.266617 205.514491 
" style="fill:#feb236;"/>
   </g>
   <g id="patch_52">
    <path clip-path="url(#pf7abf6e96b)" d="M 249.695838 214.902002 
L 249.695838 229.312854 
L 253.606796 229.312854 
L 253.606796 214.902002 
L 249.695838 214.902002 
" style="fill:#feb236;"/>
   </g>
   <g id="patch_53">
    <path clip-path="url(#pf7abf6e96b)" d="M 260.12506 222.69841 
L 260.12506 229.312854 
L 264.036018 229.312854 
L 264.036018 222.69841 
L 260.12506 222.69841 
" style="fill:#feb236;"/>
   </g>
   <g id="patch_54">
    <path clip-path="url(#pf7abf6e96b)" d="M 270.554281 224.835034 
L 270.554281 229.312854 
L 274.465239 229.312854 
L 274.465239 224.835034 
L 270.554281 224.835034 
" style="fill:#feb236;"/>
   </g>
   <g id="patch_55">
    <path clip-path="url(#pf7abf6e96b)" d="M 280.983502 226.642073 
L 280.983502 229.312854 
L 284.89446 229.312854 
L 284.89446 226.642073 
L 280.983502 226.642073 
" style="fill:#feb236;"/>
   </g>
   <g id="patch_56">
    <path clip-path="url(#pf7abf6e96b)" d="M 291.412724 227.971781 
L 291.412724 229.312854 
L 295.323681 229.312854 
L 295.323681 227.971781 
L 291.412724 227.971781 
" style="fill:#feb236;"/>
   </g>
   <g id="patch_57">
    <path clip-path="url(#pf7abf6e96b)" d="M 301.841945 228.915078 
L 301.841945 229.312854 
L 305.752903 229.312854 
L 305.752903 228.915078 
L 301.841945 228.915078 
" style="fill:#feb236;"/>
   </g>
   <g id="patch_58">
    <path clip-path="url(#pf7abf6e96b)" d="M 312.271166 228.915078 
L 312.271166 229.312854 
L 316.182124 229.312854 
L 316.182124 228.915078 
L 312.271166 228.915078 
" style="fill:#feb236;"/>
   </g>
   <g id="patch_59">
    <path clip-path="url(#pf7abf6e96b)" d="M 322.700387 229.290124 
L 322.700387 229.312854 
L 326.611345 229.312854 
L 326.611345 229.290124 
L 322.700387 229.290124 
" style="fill:#feb236;"/>
   </g>
   <g id="patch_60">
    <path clip-path="url(#pf7abf6e96b)" d="M 333.129609 229.256029 
L 333.129609 229.312854 
L 337.040567 229.312854 
L 337.040567 229.256029 
L 333.129609 229.256029 
" style="fill:#feb236;"/>
   </g>
   <g id="patch_61">
    <path clip-path="url(#pf7abf6e96b)" d="M 343.55883 229.256029 
L 343.55883 229.312854 
L 347.469788 229.312854 
L 347.469788 229.256029 
L 343.55883 229.256029 
" style="fill:#feb236;"/>
   </g>
   <g id="patch_62">
    <path clip-path="url(#pf7abf6e96b)" d="M 353.988051 229.221934 
L 353.988051 229.312854 
L 357.899009 229.312854 
L 357.899009 229.221934 
L 353.988051 229.221934 
" style="fill:#feb236;"/>
   </g>
   <g id="patch_63">
    <path clip-path="url(#pf7abf6e96b)" d="M 364.417272 229.312854 
L 364.417272 229.312854 
L 368.32823 229.312854 
L 368.32823 229.312854 
L 364.417272 229.312854 
" style="fill:#feb236;"/>
   </g>
   <g id="patch_64">
    <path clip-path="url(#pf7abf6e96b)" d="M 374.846494 229.312854 
L 374.846494 229.312854 
L 378.757452 229.312854 
L 378.757452 229.312854 
L 374.846494 229.312854 
" style="fill:#feb236;"/>
   </g>
   <g id="patch_65">
    <path clip-path="url(#pf7abf6e96b)" d="M 385.275715 229.312854 
L 385.275715 229.312854 
L 389.186673 229.312854 
L 389.186673 229.312854 
L 385.275715 229.312854 
" style="fill:#feb236;"/>
   </g>
   <g id="patch_66">
    <path clip-path="url(#pf7abf6e96b)" d="M 395.704936 229.312854 
L 395.704936 229.312854 
L 399.615894 229.312854 
L 399.615894 229.312854 
L 395.704936 229.312854 
" style="fill:#feb236;"/>
   </g>
   <g id="patch_67">
    <path clip-path="url(#pf7abf6e96b)" d="M 406.134157 229.312854 
L 406.134157 229.312854 
L 410.045115 229.312854 
L 410.045115 229.312854 
L 406.134157 229.312854 
" style="fill:#feb236;"/>
   </g>
   <g id="patch_68">
    <path clip-path="url(#pf7abf6e96b)" d="M 416.563379 229.312854 
L 416.563379 229.312854 
L 420.474337 229.312854 
L 420.474337 229.312854 
L 416.563379 229.312854 
" style="fill:#feb236;"/>
   </g>
   <g id="patch_69">
    <path d="M 81.524646 229.312854 
L 81.524646 9.674646 
" style="fill:none;stroke:#000000;stroke-linecap:square;stroke-linejoin:miter;"/>
   </g>
   <g id="patch_70">
    <path d="M 81.524646 229.312854 
L 429.165354 229.312854 
" style="fill:none;stroke:#000000;stroke-linecap:square;stroke-linejoin:miter;"/>
   </g>
   <g id="patch_71">
    <path clip-path="url(#pf7abf6e96b)" d="M 86.739256 229.312854 
L 86.739256 229.312854 
L 90.650214 229.312854 
L 90.650214 229.312854 
L 86.739256 229.312854 
" style="fill:#6b5b95;"/>
   </g>
   <g id="patch_72">
    <path clip-path="url(#pf7abf6e96b)" d="M 97.168478 229.312854 
L 97.168478 229.312854 
L 101.079436 229.312854 
L 101.079436 229.312854 
L 97.168478 229.312854 
" style="fill:#6b5b95;"/>
   </g>
   <g id="patch_73">
    <path clip-path="url(#pf7abf6e96b)" d="M 107.597699 229.312854 
L 107.597699 229.312854 
L 111.508657 229.312854 
L 111.508657 229.312854 
L 107.597699 229.312854 
" style="fill:#6b5b95;"/>
   </g>
   <g id="patch_74">
    <path clip-path="url(#pf7abf6e96b)" d="M 118.02692 229.312854 
L 118.02692 229.312854 
L 121.937878 229.312854 
L 121.937878 229.312854 
L 118.02692 229.312854 
" style="fill:#6b5b95;"/>
   </g>
   <g id="patch_75">
    <path clip-path="url(#pf7abf6e96b)" d="M 128.456141 229.312854 
L 128.456141 229.312854 
L 132.367099 229.312854 
L 132.367099 229.312854 
L 128.456141 229.312854 
" style="fill:#6b5b95;"/>
   </g>
   <g id="patch_76">
    <path clip-path="url(#pf7abf6e96b)" d="M 138.885363 229.312854 
L 138.885363 229.312854 
L 142.796321 229.312854 
L 142.796321 229.312854 
L 138.885363 229.312854 
" style="fill:#6b5b95;"/>
   </g>
   <g id="patch_77">
    <path clip-path="url(#pf7abf6e96b)" d="M 149.314584 229.20497 
L 149.314584 229.312854 
L 153.225542 229.312854 
L 153.225542 229.20497 
L 149.314584 229.20497 
" style="fill:#6b5b95;"/>
   </g>
   <g id="patch_78">
    <path clip-path="url(#pf7abf6e96b)" d="M 159.743805 227.802473 
L 159.743805 229.312854 
L 163.654763 229.312854 
L 163.654763 227.802473 
L 159.743805 227.802473 
" style="fill:#6b5b95;"/>
   </g>
   <g id="patch_79">
    <path clip-path="url(#pf7abf6e96b)" d="M 170.173026 226.076323 
L 170.173026 229.312854 
L 174.083984 229.312854 
L 174.083984 226.076323 
L 170.173026 226.076323 
" style="fill:#6b5b95;"/>
   </g>
   <g id="patch_80">
    <path clip-path="url(#pf7abf6e96b)" d="M 180.602248 222.156524 
L 180.602248 229.312854 
L 184.513206 229.312854 
L 184.513206 222.156524 
L 180.602248 222.156524 
" style="fill:#6b5b95;"/>
   </g>
   <g id="patch_81">
    <path clip-path="url(#pf7abf6e96b)" d="M 191.031469 213.238082 
L 191.031469 229.312854 
L 194.942427 229.312854 
L 194.942427 213.238082 
L 191.031469 213.238082 
" style="fill:#6b5b95;"/>
   </g>
   <g id="patch_82">
    <path clip-path="url(#pf7abf6e96b)" d="M 201.46069 203.025028 
L 201.46069 229.312854 
L 205.371648 229.312854 
L 205.371648 203.025028 
L 201.46069 203.025028 
" style="fill:#6b5b95;"/>
   </g>
   <g id="patch_83">
    <path clip-path="url(#pf7abf6e96b)" d="M 211.889911 188.964097 
L 211.889911 229.312854 
L 215.800869 229.312854 
L 215.800869 188.964097 
L 211.889911 188.964097 
" style="fill:#6b5b95;"/>
   </g>
   <g id="patch_84">
    <path clip-path="url(#pf7abf6e96b)" d="M 222.319133 166.919722 
L 222.319133 229.312854 
L 226.230091 229.312854 
L 226.230091 166.919722 
L 222.319133 166.919722 
" style="fill:#6b5b95;"/>
   </g>
   <g id="patch_85">
    <path clip-path="url(#pf7abf6e96b)" d="M 232.748354 147.284766 
L 232.748354 229.312854 
L 236.659312 229.312854 
L 236.659312 147.284766 
L 232.748354 147.284766 
" style="fill:#6b5b95;"/>
   </g>
   <g id="patch_86">
    <path clip-path="url(#pf7abf6e96b)" d="M 243.177575 140.595934 
L 243.177575 229.312854 
L 247.088533 229.312854 
L 247.088533 140.595934 
L 243.177575 140.595934 
" style="fill:#6b5b95;"/>
   </g>
   <g id="patch_87">
    <path clip-path="url(#pf7abf6e96b)" d="M 253.606796 126.499042 
L 253.606796 229.312854 
L 257.517754 229.312854 
L 257.517754 126.499042 
L 253.606796 126.499042 
" style="fill:#6b5b95;"/>
   </g>
   <g id="patch_88">
    <path clip-path="url(#pf7abf6e96b)" d="M 264.036018 123.801933 
L 264.036018 229.312854 
L 267.946976 229.312854 
L 267.946976 123.801933 
L 264.036018 123.801933 
" style="fill:#6b5b95;"/>
   </g>
   <g id="patch_89">
    <path clip-path="url(#pf7abf6e96b)" d="M 274.465239 128.800576 
L 274.465239 229.312854 
L 278.376197 229.312854 
L 278.376197 128.800576 
L 274.465239 128.800576 
" style="fill:#6b5b95;"/>
   </g>
   <g id="patch_90">
    <path clip-path="url(#pf7abf6e96b)" d="M 284.89446 129.16019 
L 284.89446 229.312854 
L 288.805418 229.312854 
L 288.805418 129.16019 
L 284.89446 129.16019 
" style="fill:#6b5b95;"/>
   </g>
   <g id="patch_91">
    <path clip-path="url(#pf7abf6e96b)" d="M 295.323681 138.402285 
L 295.323681 229.312854 
L 299.234639 229.312854 
L 299.234639 138.402285 
L 295.323681 138.402285 
" style="fill:#6b5b95;"/>
   </g>
   <g id="patch_92">
    <path clip-path="url(#pf7abf6e96b)" d="M 305.752903 146.313806 
L 305.752903 229.312854 
L 309.663861 229.312854 
L 309.663861 146.313806 
L 305.752903 146.313806 
" style="fill:#6b5b95;"/>
   </g>
   <g id="patch_93">
    <path clip-path="url(#pf7abf6e96b)" d="M 316.182124 164.258575 
L 316.182124 229.312854 
L 320.093082 229.312854 
L 320.093082 164.258575 
L 316.182124 164.258575 
" style="fill:#6b5b95;"/>
   </g>
   <g id="patch_94">
    <path clip-path="url(#pf7abf6e96b)" d="M 326.611345 180.728923 
L 326.611345 229.312854 
L 330.522303 229.312854 
L 330.522303 180.728923 
L 326.611345 180.728923 
" style="fill:#6b5b95;"/>
   </g>
   <g id="patch_95">
    <path clip-path="url(#pf7abf6e96b)" d="M 337.040567 197.271194 
L 337.040567 229.312854 
L 340.951525 229.312854 
L 340.951525 197.271194 
L 337.040567 197.271194 
" style="fill:#6b5b95;"/>
   </g>
   <g id="patch_96">
    <path clip-path="url(#pf7abf6e96b)" d="M 347.469788 212.482891 
L 347.469788 229.312854 
L 351.380746 229.312854 
L 351.380746 212.482891 
L 347.469788 212.482891 
" style="fill:#6b5b95;"/>
   </g>
   <g id="patch_97">
    <path clip-path="url(#pf7abf6e96b)" d="M 357.899009 216.40269 
L 357.899009 229.312854 
L 361.809967 229.312854 
L 361.809967 216.40269 
L 357.899009 216.40269 
" style="fill:#6b5b95;"/>
   </g>
   <g id="patch_98">
    <path clip-path="url(#pf7abf6e96b)" d="M 368.32823 223.199406 
L 368.32823 229.312854 
L 372.239188 229.312854 
L 372.239188 223.199406 
L 368.32823 223.199406 
" style="fill:#6b5b95;"/>
   </g>
   <g id="patch_99">
    <path clip-path="url(#pf7abf6e96b)" d="M 378.757452 226.040362 
L 378.757452 229.312854 
L 382.66841 229.312854 
L 382.66841 226.040362 
L 378.757452 226.040362 
" style="fill:#6b5b95;"/>
   </g>
   <g id="patch_100">
    <path clip-path="url(#pf7abf6e96b)" d="M 389.186673 227.550743 
L 389.186673 229.312854 
L 393.097631 229.312854 
L 393.097631 227.550743 
L 389.186673 227.550743 
" style="fill:#6b5b95;"/>
   </g>
   <g id="patch_101">
    <path clip-path="url(#pf7abf6e96b)" d="M 399.615894 228.881317 
L 399.615894 229.312854 
L 403.526852 229.312854 
L 403.526852 228.881317 
L 399.615894 228.881317 
" style="fill:#6b5b95;"/>
   </g>
   <g id="patch_102">
    <path clip-path="url(#pf7abf6e96b)" d="M 410.045115 229.025163 
L 410.045115 229.312854 
L 413.956073 229.312854 
L 413.956073 229.025163 
L 410.045115 229.025163 
" style="fill:#6b5b95;"/>
   </g>
   <g id="patch_103">
    <path clip-path="url(#pf7abf6e96b)" d="M 420.474337 229.169008 
L 420.474337 229.312854 
L 424.385295 229.312854 
L 424.385295 229.169008 
L 420.474337 229.169008 
" style="fill:#6b5b95;"/>
   </g>
   <g id="patch_104">
    <path clip-path="url(#pf7abf6e96b)" d="M 90.650214 229.312854 
L 90.650214 229.312854 
L 94.561172 229.312854 
L 94.561172 229.312854 
L 90.650214 229.312854 
" style="fill:#a0522d;"/>
   </g>
   <g id="patch_105">
    <path clip-path="url(#pf7abf6e96b)" d="M 101.079436 229.312854 
L 101.079436 229.312854 
L 104.990394 229.312854 
L 104.990394 229.312854 
L 101.079436 229.312854 
" style="fill:#a0522d;"/>
   </g>
   <g id="patch_106">
    <path clip-path="url(#pf7abf6e96b)" d="M 111.508657 229.312854 
L 111.508657 229.312854 
L 115.419615 229.312854 
L 115.419615 229.312854 
L 111.508657 229.312854 
" style="fill:#a0522d;"/>
   </g>
   <g id="patch_107">
    <path clip-path="url(#pf7abf6e96b)" d="M 121.937878 229.312854 
L 121.937878 229.312854 
L 125.848836 229.312854 
L 125.848836 229.312854 
L 121.937878 229.312854 
" style="fill:#a0522d;"/>
   </g>
   <g id="patch_108">
    <path clip-path="url(#pf7abf6e96b)" d="M 132.367099 229.312854 
L 132.367099 229.312854 
L 136.278057 229.312854 
L 136.278057 229.312854 
L 132.367099 229.312854 
" style="fill:#a0522d;"/>
   </g>
   <g id="patch_109">
    <path clip-path="url(#pf7abf6e96b)" d="M 142.796321 229.312854 
L 142.796321 229.312854 
L 146.707279 229.312854 
L 146.707279 229.312854 
L 142.796321 229.312854 
" style="fill:#a0522d;"/>
   </g>
   <g id="patch_110">
    <path clip-path="url(#pf7abf6e96b)" d="M 153.225542 229.118355 
L 153.225542 229.312854 
L 157.1365 229.312854 
L 157.1365 229.118355 
L 153.225542 229.118355 
" style="fill:#a0522d;"/>
   </g>
   <g id="patch_111">
    <path clip-path="url(#pf7abf6e96b)" d="M 163.654763 228.632107 
L 163.654763 229.312854 
L 167.565721 229.312854 
L 167.565721 228.632107 
L 163.654763 228.632107 
" style="fill:#a0522d;"/>
   </g>
   <g id="patch_112">
    <path clip-path="url(#pf7abf6e96b)" d="M 174.083984 228.486233 
L 174.083984 229.312854 
L 177.994942 229.312854 
L 177.994942 228.486233 
L 174.083984 228.486233 
" style="fill:#a0522d;"/>
   </g>
   <g id="patch_113">
    <path clip-path="url(#pf7abf6e96b)" d="M 184.513206 226.006368 
L 184.513206 229.312854 
L 188.424164 229.312854 
L 188.424164 226.006368 
L 184.513206 226.006368 
" style="fill:#a0522d;"/>
   </g>
   <g id="patch_114">
    <path clip-path="url(#pf7abf6e96b)" d="M 194.942427 220.220017 
L 194.942427 229.312854 
L 198.853385 229.312854 
L 198.853385 220.220017 
L 194.942427 220.220017 
" style="fill:#a0522d;"/>
   </g>
   <g id="patch_115">
    <path clip-path="url(#pf7abf6e96b)" d="M 205.371648 217.156655 
L 205.371648 229.312854 
L 209.282606 229.312854 
L 209.282606 217.156655 
L 205.371648 217.156655 
" style="fill:#a0522d;"/>
   </g>
   <g id="patch_116">
    <path clip-path="url(#pf7abf6e96b)" d="M 215.800869 205.000456 
L 215.800869 229.312854 
L 219.711827 229.312854 
L 219.711827 205.000456 
L 215.800869 205.000456 
" style="fill:#a0522d;"/>
   </g>
   <g id="patch_117">
    <path clip-path="url(#pf7abf6e96b)" d="M 226.230091 178.208193 
L 226.230091 229.312854 
L 230.141049 229.312854 
L 230.141049 178.208193 
L 226.230091 178.208193 
" style="fill:#a0522d;"/>
   </g>
   <g id="patch_118">
    <path clip-path="url(#pf7abf6e96b)" d="M 236.659312 146.213076 
L 236.659312 229.312854 
L 240.57027 229.312854 
L 240.57027 146.213076 
L 236.659312 146.213076 
" style="fill:#a0522d;"/>
   </g>
   <g id="patch_119">
    <path clip-path="url(#pf7abf6e96b)" d="M 247.088533 117.816194 
L 247.088533 229.312854 
L 250.999491 229.312854 
L 250.999491 117.816194 
L 247.088533 117.816194 
" style="fill:#a0522d;"/>
   </g>
   <g id="patch_120">
    <path clip-path="url(#pf7abf6e96b)" d="M 257.517754 97.150656 
L 257.517754 229.312854 
L 261.428712 229.312854 
L 261.428712 97.150656 
L 257.517754 97.150656 
" style="fill:#a0522d;"/>
   </g>
   <g id="patch_121">
    <path clip-path="url(#pf7abf6e96b)" d="M 267.946976 105.659995 
L 267.946976 229.312854 
L 271.857934 229.312854 
L 271.857934 105.659995 
L 267.946976 105.659995 
" style="fill:#a0522d;"/>
   </g>
   <g id="patch_122">
    <path clip-path="url(#pf7abf6e96b)" d="M 278.376197 94.622166 
L 278.376197 229.312854 
L 282.287155 229.312854 
L 282.287155 94.622166 
L 278.376197 94.622166 
" style="fill:#a0522d;"/>
   </g>
   <g id="patch_123">
    <path clip-path="url(#pf7abf6e96b)" d="M 288.805418 116.017077 
L 288.805418 229.312854 
L 292.716376 229.312854 
L 292.716376 116.017077 
L 288.805418 116.017077 
" style="fill:#a0522d;"/>
   </g>
   <g id="patch_124">
    <path clip-path="url(#pf7abf6e96b)" d="M 299.234639 132.209134 
L 299.234639 229.312854 
L 303.145597 229.312854 
L 303.145597 132.209134 
L 299.234639 132.209134 
" style="fill:#a0522d;"/>
   </g>
   <g id="patch_125">
    <path clip-path="url(#pf7abf6e96b)" d="M 309.663861 156.375659 
L 309.663861 229.312854 
L 313.574819 229.312854 
L 313.574819 156.375659 
L 309.663861 156.375659 
" style="fill:#a0522d;"/>
   </g>
   <g id="patch_126">
    <path clip-path="url(#pf7abf6e96b)" d="M 320.093082 182.584424 
L 320.093082 229.312854 
L 324.00404 229.312854 
L 324.00404 182.584424 
L 320.093082 182.584424 
" style="fill:#a0522d;"/>
   </g>
   <g id="patch_127">
    <path clip-path="url(#pf7abf6e96b)" d="M 330.522303 193.136005 
L 330.522303 229.312854 
L 334.433261 229.312854 
L 334.433261 193.136005 
L 330.522303 193.136005 
" style="fill:#a0522d;"/>
   </g>
   <g id="patch_128">
    <path clip-path="url(#pf7abf6e96b)" d="M 340.951525 211.856552 
L 340.951525 229.312854 
L 344.862482 229.312854 
L 344.862482 211.856552 
L 340.951525 211.856552 
" style="fill:#a0522d;"/>
   </g>
   <g id="patch_129">
    <path clip-path="url(#pf7abf6e96b)" d="M 351.380746 220.365892 
L 351.380746 229.312854 
L 355.291704 229.312854 
L 355.291704 220.365892 
L 351.380746 220.365892 
" style="fill:#a0522d;"/>
   </g>
   <g id="patch_130">
    <path clip-path="url(#pf7abf6e96b)" d="M 361.809967 219.733769 
L 361.809967 229.312854 
L 365.720925 229.312854 
L 365.720925 219.733769 
L 361.809967 219.733769 
" style="fill:#a0522d;"/>
   </g>
   <g id="patch_131">
    <path clip-path="url(#pf7abf6e96b)" d="M 372.239188 224.790748 
L 372.239188 229.312854 
L 376.150146 229.312854 
L 376.150146 224.790748 
L 372.239188 224.790748 
" style="fill:#a0522d;"/>
   </g>
   <g id="patch_132">
    <path clip-path="url(#pf7abf6e96b)" d="M 382.66841 227.076114 
L 382.66841 229.312854 
L 386.579368 229.312854 
L 386.579368 227.076114 
L 382.66841 227.076114 
" style="fill:#a0522d;"/>
   </g>
   <g id="patch_133">
    <path clip-path="url(#pf7abf6e96b)" d="M 393.097631 227.85411 
L 393.097631 229.312854 
L 397.008589 229.312854 
L 397.008589 227.85411 
L 393.097631 227.85411 
" style="fill:#a0522d;"/>
   </g>
   <g id="patch_134">
    <path clip-path="url(#pf7abf6e96b)" d="M 403.526852 229.312854 
L 403.526852 229.312854 
L 407.43781 229.312854 
L 407.43781 229.312854 
L 403.526852 229.312854 
" style="fill:#a0522d;"/>
   </g>
   <g id="patch_135">
    <path clip-path="url(#pf7abf6e96b)" d="M 413.956073 228.972481 
L 413.956073 229.312854 
L 417.867031 229.312854 
L 417.867031 228.972481 
L 413.956073 228.972481 
" style="fill:#a0522d;"/>
   </g>
   <g id="patch_136">
    <path clip-path="url(#pf7abf6e96b)" d="M 424.385295 228.680732 
L 424.385295 229.312854 
L 428.296253 229.312854 
L 428.296253 228.680732 
L 424.385295 228.680732 
" style="fill:#a0522d;"/>
   </g>
  </g>
 </g>
 <defs>
  <clipPath id="pf7abf6e96b">
   <rect height="219.638209" width="347.640709" x="81.524646" y="9.674646"/>
  </clipPath>
 </defs>
</svg>
