<?xml version="1.0" encoding="utf-8" standalone="no"?>
<!DOCTYPE svg PUBLIC "-//W3C//DTD SVG 1.1//EN"
  "http://www.w3.org/Graphics/SVG/1.1/DTD/svg11.dtd">
<!-- Created with matplotlib (http://matplotlib.org/) -->
<svg height="288pt" version="1.1" viewBox="0 0 432 288" width="432pt" xmlns="http://www.w3.org/2000/svg" xmlns:xlink="http://www.w3.org/1999/xlink">
 <defs>
  <style type="text/css">
*{stroke-linecap:butt;stroke-linejoin:round;}
  </style>
 </defs>
 <g id="figure_1">
  <g id="patch_1">
   <path d="M 0 288 
L 432 288 
L 432 0 
L 0 0 
z
" style="fill:#ffffff;"/>
  </g>
  <g id="axes_1">
   <g id="patch_2">
    <path d="M 44.354646 242.385354 
L 429.165354 242.385354 
L 429.165354 2.834646 
L 44.354646 2.834646 
z
" style="fill:#ffffff;"/>
   </g>
   <g id="line2d_1">
    <path clip-path="url(#pfe13834acd)" d="M 74.478838 182.718316 
L 76.883003 179.351998 
L 79.287168 169.624979 
L 81.691334 177.063658 
L 84.095499 175.374196 
L 86.499665 160.717475 
L 88.90383 156.821624 
L 91.307995 144.83148 
L 93.712161 165.962374 
L 96.116326 179.270047 
L 98.520491 175.689394 
L 100.924657 181.602514 
L 103.328822 189.116841 
L 105.732987 184.1241 
L 108.137153 176.332398 
L 110.541318 176.77998 
L 112.945484 163.09407 
L 115.349649 159.097355 
L 117.753814 172.247428 
L 120.15798 190.491106 
L 122.562145 182.585933 
L 124.96631 182.333774 
L 127.370476 196.536609 
L 129.774641 195.048874 
L 132.178807 180.549752 
L 134.582972 182.157263 
L 136.987137 185.233598 
L 139.391303 169.763666 
L 141.795468 146.911789 
L 144.199633 140.10981 
L 146.603799 128.062931 
L 149.007964 112.788421 
L 151.412129 124.810084 
L 153.816295 91.064954 
L 156.22046 118.682629 
L 158.624626 141.900136 
L 161.028791 161.96566 
L 163.432956 157.950033 
L 165.837122 173.949499 
L 168.241287 191.644732 
L 170.645452 177.328425 
L 173.049618 179.112447 
L 175.453783 198.226072 
L 177.857949 187.666929 
L 180.262114 170.412974 
L 182.666279 181.514258 
L 185.070445 186.135066 
L 187.47461 177.687751 
L 189.878775 176.508909 
L 192.282941 192.312952 
L 194.687106 200.300077 
L 197.091271 190.156996 
L 199.495437 184.893184 
L 201.899602 196.877024 
L 204.303768 196.74464 
L 206.707933 184.073669 
L 209.112098 181.65925 
L 211.516264 189.394216 
L 213.920429 185.296638 
L 216.324594 182.730924 
L 218.72876 189.614855 
L 221.132925 188.019951 
L 223.53709 188.833163 
L 225.941256 195.269512 
L 228.345421 194.866058 
L 230.749587 186.576343 
L 233.153752 191.985146 
L 235.557917 200.375725 
L 237.962083 190.358723 
L 240.366248 182.516589 
L 242.770413 187.919088 
L 245.174579 204.889364 
L 247.578744 198.887989 
L 249.98291 187.919088 
L 252.387075 201.516743 
L 254.79124 201.705862 
L 257.195406 187.60389 
L 259.599571 189.09793 
L 262.003736 194.021327 
L 264.407902 177.126698 
L 266.812067 169.67541 
L 269.216232 175.178773 
L 271.620398 165.792167 
L 274.024563 150.284411 
L 276.428729 159.746664 
L 278.832894 180.959509 
L 281.237059 168.24441 
L 283.641225 161.770237 
L 286.04539 168.30745 
L 288.449555 163.131894 
L 290.853721 119.95603 
L 293.257886 113.64576 
L 295.662051 41.490565 
L 298.066217 104.322195 
L 300.470382 159.330602 
L 302.874548 179.200703 
L 305.278713 171.944838 
L 307.682878 172.770658 
L 310.087044 170.400366 
L 312.491209 179.276351 
L 314.895374 189.268137 
L 317.29954 185.365982 
L 319.703705 181.772721 
L 322.107871 187.358035 
L 324.512036 195.660358 
L 326.916201 191.430397 
L 329.320367 189.110538 
L 331.724532 199.348178 
L 334.128697 197.368733 
L 336.532863 186.84111 
L 338.937028 194.506732 
L 341.341193 203.401628 
L 343.745359 188.070383 
L 346.149524 182.768748 
L 348.55369 193.39093 
L 350.957855 189.501383 
L 353.36202 187.17522 
L 355.766186 190.030917 
L 358.170351 203.017087 
L 360.574516 205.853871 
L 362.978682 197.097662 
L 365.382847 202.922527 
L 367.787013 209.737114 
L 370.191178 201.25828 
L 372.595343 195.666662 
L 374.999509 199.928143 
L 377.403674 200.608972 
L 379.807839 193.214419 
L 382.212005 189.438344 
L 384.61617 199.026676 
L 387.020335 202.846879 
L 389.424501 193.674609 
L 391.828666 193.340499 
L 394.232832 196.435746 
L 396.636997 185.674876 
L 396.636997 185.674876 
" style="fill:none;stroke:#0000ff;stroke-linecap:round;"/>
   </g>
   <g id="matplotlib.axis_1">
    <g id="xtick_1">
     <g id="line2d_2">
      <defs>
       <path d="M 0 0 
L 0 -3.5 
" id="m7c0ff80eb4" style="stroke:#000000;stroke-width:0.8;"/>
      </defs>
      <g>
       <use style="stroke:#000000;stroke-width:0.8;" x="86.499665" xlink:href="#m7c0ff80eb4" y="242.385354"/>
      </g>
     </g>
     <g id="text_1">
      <!-- 15 -->
      <defs>
       <path d="M 12.40625 8.296875 
L 28.515625 8.296875 
L 28.515625 63.921875 
L 10.984375 60.40625 
L 10.984375 69.390625 
L 28.421875 72.90625 
L 38.28125 72.90625 
L 38.28125 8.296875 
L 54.390625 8.296875 
L 54.390625 0 
L 12.40625 0 
z
" id="DejaVuSans-31"/>
       <path d="M 10.796875 72.90625 
L 49.515625 72.90625 
L 49.515625 64.59375 
L 19.828125 64.59375 
L 19.828125 46.734375 
Q 21.96875 47.46875 24.109375 47.828125 
Q 26.265625 48.1875 28.421875 48.1875 
Q 40.625 48.1875 47.75 41.5 
Q 54.890625 34.8125 54.890625 23.390625 
Q 54.890625 11.625 47.5625 5.09375 
Q 40.234375 -1.421875 26.90625 -1.421875 
Q 22.3125 -1.421875 17.546875 -0.640625 
Q 12.796875 0.140625 7.71875 1.703125 
L 7.71875 11.625 
Q 12.109375 9.234375 16.796875 8.0625 
Q 21.484375 6.890625 26.703125 6.890625 
Q 35.15625 6.890625 40.078125 11.328125 
Q 45.015625 15.765625 45.015625 23.390625 
Q 45.015625 31 40.078125 35.4375 
Q 35.15625 39.890625 26.703125 39.890625 
Q 22.75 39.890625 18.8125 39.015625 
Q 14.890625 38.140625 10.796875 36.28125 
z
" id="DejaVuSans-35"/>
      </defs>
      <g transform="translate(76.319665 258.042854)scale(0.16 -0.16)">
       <use xlink:href="#DejaVuSans-31"/>
       <use x="63.623047" xlink:href="#DejaVuSans-35"/>
      </g>
     </g>
    </g>
    <g id="xtick_2">
     <g id="line2d_3">
      <g>
       <use style="stroke:#000000;stroke-width:0.8;" x="122.562145" xlink:href="#m7c0ff80eb4" y="242.385354"/>
      </g>
     </g>
     <g id="text_2">
      <!-- 30 -->
      <defs>
       <path d="M 40.578125 39.3125 
Q 47.65625 37.796875 51.625 33 
Q 55.609375 28.21875 55.609375 21.1875 
Q 55.609375 10.40625 48.1875 4.484375 
Q 40.765625 -1.421875 27.09375 -1.421875 
Q 22.515625 -1.421875 17.65625 -0.515625 
Q 12.796875 0.390625 7.625 2.203125 
L 7.625 11.71875 
Q 11.71875 9.328125 16.59375 8.109375 
Q 21.484375 6.890625 26.8125 6.890625 
Q 36.078125 6.890625 40.9375 10.546875 
Q 45.796875 14.203125 45.796875 21.1875 
Q 45.796875 27.640625 41.28125 31.265625 
Q 36.765625 34.90625 28.71875 34.90625 
L 20.21875 34.90625 
L 20.21875 43.015625 
L 29.109375 43.015625 
Q 36.375 43.015625 40.234375 45.921875 
Q 44.09375 48.828125 44.09375 54.296875 
Q 44.09375 59.90625 40.109375 62.90625 
Q 36.140625 65.921875 28.71875 65.921875 
Q 24.65625 65.921875 20.015625 65.03125 
Q 15.375 64.15625 9.8125 62.3125 
L 9.8125 71.09375 
Q 15.4375 72.65625 20.34375 73.4375 
Q 25.25 74.21875 29.59375 74.21875 
Q 40.828125 74.21875 47.359375 69.109375 
Q 53.90625 64.015625 53.90625 55.328125 
Q 53.90625 49.265625 50.4375 45.09375 
Q 46.96875 40.921875 40.578125 39.3125 
z
" id="DejaVuSans-33"/>
       <path d="M 31.78125 66.40625 
Q 24.171875 66.40625 20.328125 58.90625 
Q 16.5 51.421875 16.5 36.375 
Q 16.5 21.390625 20.328125 13.890625 
Q 24.171875 6.390625 31.78125 6.390625 
Q 39.453125 6.390625 43.28125 13.890625 
Q 47.125 21.390625 47.125 36.375 
Q 47.125 51.421875 43.28125 58.90625 
Q 39.453125 66.40625 31.78125 66.40625 
z
M 31.78125 74.21875 
Q 44.046875 74.21875 50.515625 64.515625 
Q 56.984375 54.828125 56.984375 36.375 
Q 56.984375 17.96875 50.515625 8.265625 
Q 44.046875 -1.421875 31.78125 -1.421875 
Q 19.53125 -1.421875 13.0625 8.265625 
Q 6.59375 17.96875 6.59375 36.375 
Q 6.59375 54.828125 13.0625 64.515625 
Q 19.53125 74.21875 31.78125 74.21875 
z
" id="DejaVuSans-30"/>
      </defs>
      <g transform="translate(112.382145 258.042854)scale(0.16 -0.16)">
       <use xlink:href="#DejaVuSans-33"/>
       <use x="63.623047" xlink:href="#DejaVuSans-30"/>
      </g>
     </g>
    </g>
    <g id="xtick_3">
     <g id="line2d_4">
      <g>
       <use style="stroke:#000000;stroke-width:0.8;" x="158.624626" xlink:href="#m7c0ff80eb4" y="242.385354"/>
      </g>
     </g>
     <g id="text_3">
      <!-- 45 -->
      <defs>
       <path d="M 37.796875 64.3125 
L 12.890625 25.390625 
L 37.796875 25.390625 
z
M 35.203125 72.90625 
L 47.609375 72.90625 
L 47.609375 25.390625 
L 58.015625 25.390625 
L 58.015625 17.1875 
L 47.609375 17.1875 
L 47.609375 0 
L 37.796875 0 
L 37.796875 17.1875 
L 4.890625 17.1875 
L 4.890625 26.703125 
z
" id="DejaVuSans-34"/>
      </defs>
      <g transform="translate(148.444626 258.042854)scale(0.16 -0.16)">
       <use xlink:href="#DejaVuSans-34"/>
       <use x="63.623047" xlink:href="#DejaVuSans-35"/>
      </g>
     </g>
    </g>
    <g id="xtick_4">
     <g id="line2d_5">
      <g>
       <use style="stroke:#000000;stroke-width:0.8;" x="194.687106" xlink:href="#m7c0ff80eb4" y="242.385354"/>
      </g>
     </g>
     <g id="text_4">
      <!-- 60 -->
      <defs>
       <path d="M 33.015625 40.375 
Q 26.375 40.375 22.484375 35.828125 
Q 18.609375 31.296875 18.609375 23.390625 
Q 18.609375 15.53125 22.484375 10.953125 
Q 26.375 6.390625 33.015625 6.390625 
Q 39.65625 6.390625 43.53125 10.953125 
Q 47.40625 15.53125 47.40625 23.390625 
Q 47.40625 31.296875 43.53125 35.828125 
Q 39.65625 40.375 33.015625 40.375 
z
M 52.59375 71.296875 
L 52.59375 62.3125 
Q 48.875 64.0625 45.09375 64.984375 
Q 41.3125 65.921875 37.59375 65.921875 
Q 27.828125 65.921875 22.671875 59.328125 
Q 17.53125 52.734375 16.796875 39.40625 
Q 19.671875 43.65625 24.015625 45.921875 
Q 28.375 48.1875 33.59375 48.1875 
Q 44.578125 48.1875 50.953125 41.515625 
Q 57.328125 34.859375 57.328125 23.390625 
Q 57.328125 12.15625 50.6875 5.359375 
Q 44.046875 -1.421875 33.015625 -1.421875 
Q 20.359375 -1.421875 13.671875 8.265625 
Q 6.984375 17.96875 6.984375 36.375 
Q 6.984375 53.65625 15.1875 63.9375 
Q 23.390625 74.21875 37.203125 74.21875 
Q 40.921875 74.21875 44.703125 73.484375 
Q 48.484375 72.75 52.59375 71.296875 
z
" id="DejaVuSans-36"/>
      </defs>
      <g transform="translate(184.507106 258.042854)scale(0.16 -0.16)">
       <use xlink:href="#DejaVuSans-36"/>
       <use x="63.623047" xlink:href="#DejaVuSans-30"/>
      </g>
     </g>
    </g>
    <g id="xtick_5">
     <g id="line2d_6">
      <g>
       <use style="stroke:#000000;stroke-width:0.8;" x="230.749587" xlink:href="#m7c0ff80eb4" y="242.385354"/>
      </g>
     </g>
     <g id="text_5">
      <!-- 75 -->
      <defs>
       <path d="M 8.203125 72.90625 
L 55.078125 72.90625 
L 55.078125 68.703125 
L 28.609375 0 
L 18.3125 0 
L 43.21875 64.59375 
L 8.203125 64.59375 
z
" id="DejaVuSans-37"/>
      </defs>
      <g transform="translate(220.569587 258.042854)scale(0.16 -0.16)">
       <use xlink:href="#DejaVuSans-37"/>
       <use x="63.623047" xlink:href="#DejaVuSans-35"/>
      </g>
     </g>
    </g>
    <g id="xtick_6">
     <g id="line2d_7">
      <g>
       <use style="stroke:#000000;stroke-width:0.8;" x="266.812067" xlink:href="#m7c0ff80eb4" y="242.385354"/>
      </g>
     </g>
     <g id="text_6">
      <!-- 90 -->
      <defs>
       <path d="M 10.984375 1.515625 
L 10.984375 10.5 
Q 14.703125 8.734375 18.5 7.8125 
Q 22.3125 6.890625 25.984375 6.890625 
Q 35.75 6.890625 40.890625 13.453125 
Q 46.046875 20.015625 46.78125 33.40625 
Q 43.953125 29.203125 39.59375 26.953125 
Q 35.25 24.703125 29.984375 24.703125 
Q 19.046875 24.703125 12.671875 31.3125 
Q 6.296875 37.9375 6.296875 49.421875 
Q 6.296875 60.640625 12.9375 67.421875 
Q 19.578125 74.21875 30.609375 74.21875 
Q 43.265625 74.21875 49.921875 64.515625 
Q 56.59375 54.828125 56.59375 36.375 
Q 56.59375 19.140625 48.40625 8.859375 
Q 40.234375 -1.421875 26.421875 -1.421875 
Q 22.703125 -1.421875 18.890625 -0.6875 
Q 15.09375 0.046875 10.984375 1.515625 
z
M 30.609375 32.421875 
Q 37.25 32.421875 41.125 36.953125 
Q 45.015625 41.5 45.015625 49.421875 
Q 45.015625 57.28125 41.125 61.84375 
Q 37.25 66.40625 30.609375 66.40625 
Q 23.96875 66.40625 20.09375 61.84375 
Q 16.21875 57.28125 16.21875 49.421875 
Q 16.21875 41.5 20.09375 36.953125 
Q 23.96875 32.421875 30.609375 32.421875 
z
" id="DejaVuSans-39"/>
      </defs>
      <g transform="translate(256.632067 258.042854)scale(0.16 -0.16)">
       <use xlink:href="#DejaVuSans-39"/>
       <use x="63.623047" xlink:href="#DejaVuSans-30"/>
      </g>
     </g>
    </g>
    <g id="xtick_7">
     <g id="line2d_8">
      <g>
       <use style="stroke:#000000;stroke-width:0.8;" x="302.874548" xlink:href="#m7c0ff80eb4" y="242.385354"/>
      </g>
     </g>
     <g id="text_7">
      <!-- 105 -->
      <g transform="translate(287.604548 258.042854)scale(0.16 -0.16)">
       <use xlink:href="#DejaVuSans-31"/>
       <use x="63.623047" xlink:href="#DejaVuSans-30"/>
       <use x="127.246094" xlink:href="#DejaVuSans-35"/>
      </g>
     </g>
    </g>
    <g id="xtick_8">
     <g id="line2d_9">
      <g>
       <use style="stroke:#000000;stroke-width:0.8;" x="338.937028" xlink:href="#m7c0ff80eb4" y="242.385354"/>
      </g>
     </g>
     <g id="text_8">
      <!-- 120 -->
      <defs>
       <path d="M 19.1875 8.296875 
L 53.609375 8.296875 
L 53.609375 0 
L 7.328125 0 
L 7.328125 8.296875 
Q 12.9375 14.109375 22.625 23.890625 
Q 32.328125 33.6875 34.8125 36.53125 
Q 39.546875 41.84375 41.421875 45.53125 
Q 43.3125 49.21875 43.3125 52.78125 
Q 43.3125 58.59375 39.234375 62.25 
Q 35.15625 65.921875 28.609375 65.921875 
Q 23.96875 65.921875 18.8125 64.3125 
Q 13.671875 62.703125 7.8125 59.421875 
L 7.8125 69.390625 
Q 13.765625 71.78125 18.9375 73 
Q 24.125 74.21875 28.421875 74.21875 
Q 39.75 74.21875 46.484375 68.546875 
Q 53.21875 62.890625 53.21875 53.421875 
Q 53.21875 48.921875 51.53125 44.890625 
Q 49.859375 40.875 45.40625 35.40625 
Q 44.1875 33.984375 37.640625 27.21875 
Q 31.109375 20.453125 19.1875 8.296875 
z
" id="DejaVuSans-32"/>
      </defs>
      <g transform="translate(323.667028 258.042854)scale(0.16 -0.16)">
       <use xlink:href="#DejaVuSans-31"/>
       <use x="63.623047" xlink:href="#DejaVuSans-32"/>
       <use x="127.246094" xlink:href="#DejaVuSans-30"/>
      </g>
     </g>
    </g>
    <g id="xtick_9">
     <g id="line2d_10">
      <g>
       <use style="stroke:#000000;stroke-width:0.8;" x="374.999509" xlink:href="#m7c0ff80eb4" y="242.385354"/>
      </g>
     </g>
     <g id="text_9">
      <!-- 135 -->
      <g transform="translate(359.729509 258.042854)scale(0.16 -0.16)">
       <use xlink:href="#DejaVuSans-31"/>
       <use x="63.623047" xlink:href="#DejaVuSans-33"/>
       <use x="127.246094" xlink:href="#DejaVuSans-35"/>
      </g>
     </g>
    </g>
    <g id="text_10">
     <!-- Residue # -->
     <defs>
      <path d="M 44.390625 34.1875 
Q 47.5625 33.109375 50.5625 29.59375 
Q 53.5625 26.078125 56.59375 19.921875 
L 66.609375 0 
L 56 0 
L 46.6875 18.703125 
Q 43.0625 26.03125 39.671875 28.421875 
Q 36.28125 30.8125 30.421875 30.8125 
L 19.671875 30.8125 
L 19.671875 0 
L 9.8125 0 
L 9.8125 72.90625 
L 32.078125 72.90625 
Q 44.578125 72.90625 50.734375 67.671875 
Q 56.890625 62.453125 56.890625 51.90625 
Q 56.890625 45.015625 53.6875 40.46875 
Q 50.484375 35.9375 44.390625 34.1875 
z
M 19.671875 64.796875 
L 19.671875 38.921875 
L 32.078125 38.921875 
Q 39.203125 38.921875 42.84375 42.21875 
Q 46.484375 45.515625 46.484375 51.90625 
Q 46.484375 58.296875 42.84375 61.546875 
Q 39.203125 64.796875 32.078125 64.796875 
z
" id="DejaVuSans-52"/>
      <path d="M 56.203125 29.59375 
L 56.203125 25.203125 
L 14.890625 25.203125 
Q 15.484375 15.921875 20.484375 11.0625 
Q 25.484375 6.203125 34.421875 6.203125 
Q 39.59375 6.203125 44.453125 7.46875 
Q 49.3125 8.734375 54.109375 11.28125 
L 54.109375 2.78125 
Q 49.265625 0.734375 44.1875 -0.34375 
Q 39.109375 -1.421875 33.890625 -1.421875 
Q 20.796875 -1.421875 13.15625 6.1875 
Q 5.515625 13.8125 5.515625 26.8125 
Q 5.515625 40.234375 12.765625 48.109375 
Q 20.015625 56 32.328125 56 
Q 43.359375 56 49.78125 48.890625 
Q 56.203125 41.796875 56.203125 29.59375 
z
M 47.21875 32.234375 
Q 47.125 39.59375 43.09375 43.984375 
Q 39.0625 48.390625 32.421875 48.390625 
Q 24.90625 48.390625 20.390625 44.140625 
Q 15.875 39.890625 15.1875 32.171875 
z
" id="DejaVuSans-65"/>
      <path d="M 44.28125 53.078125 
L 44.28125 44.578125 
Q 40.484375 46.53125 36.375 47.5 
Q 32.28125 48.484375 27.875 48.484375 
Q 21.1875 48.484375 17.84375 46.4375 
Q 14.5 44.390625 14.5 40.28125 
Q 14.5 37.15625 16.890625 35.375 
Q 19.28125 33.59375 26.515625 31.984375 
L 29.59375 31.296875 
Q 39.15625 29.25 43.1875 25.515625 
Q 47.21875 21.78125 47.21875 15.09375 
Q 47.21875 7.46875 41.1875 3.015625 
Q 35.15625 -1.421875 24.609375 -1.421875 
Q 20.21875 -1.421875 15.453125 -0.5625 
Q 10.6875 0.296875 5.421875 2 
L 5.421875 11.28125 
Q 10.40625 8.6875 15.234375 7.390625 
Q 20.0625 6.109375 24.8125 6.109375 
Q 31.15625 6.109375 34.5625 8.28125 
Q 37.984375 10.453125 37.984375 14.40625 
Q 37.984375 18.0625 35.515625 20.015625 
Q 33.0625 21.96875 24.703125 23.78125 
L 21.578125 24.515625 
Q 13.234375 26.265625 9.515625 29.90625 
Q 5.8125 33.546875 5.8125 39.890625 
Q 5.8125 47.609375 11.28125 51.796875 
Q 16.75 56 26.8125 56 
Q 31.78125 56 36.171875 55.265625 
Q 40.578125 54.546875 44.28125 53.078125 
z
" id="DejaVuSans-73"/>
      <path d="M 9.421875 54.6875 
L 18.40625 54.6875 
L 18.40625 0 
L 9.421875 0 
z
M 9.421875 75.984375 
L 18.40625 75.984375 
L 18.40625 64.59375 
L 9.421875 64.59375 
z
" id="DejaVuSans-69"/>
      <path d="M 45.40625 46.390625 
L 45.40625 75.984375 
L 54.390625 75.984375 
L 54.390625 0 
L 45.40625 0 
L 45.40625 8.203125 
Q 42.578125 3.328125 38.25 0.953125 
Q 33.9375 -1.421875 27.875 -1.421875 
Q 17.96875 -1.421875 11.734375 6.484375 
Q 5.515625 14.40625 5.515625 27.296875 
Q 5.515625 40.1875 11.734375 48.09375 
Q 17.96875 56 27.875 56 
Q 33.9375 56 38.25 53.625 
Q 42.578125 51.265625 45.40625 46.390625 
z
M 14.796875 27.296875 
Q 14.796875 17.390625 18.875 11.75 
Q 22.953125 6.109375 30.078125 6.109375 
Q 37.203125 6.109375 41.296875 11.75 
Q 45.40625 17.390625 45.40625 27.296875 
Q 45.40625 37.203125 41.296875 42.84375 
Q 37.203125 48.484375 30.078125 48.484375 
Q 22.953125 48.484375 18.875 42.84375 
Q 14.796875 37.203125 14.796875 27.296875 
z
" id="DejaVuSans-64"/>
      <path d="M 8.5 21.578125 
L 8.5 54.6875 
L 17.484375 54.6875 
L 17.484375 21.921875 
Q 17.484375 14.15625 20.5 10.265625 
Q 23.53125 6.390625 29.59375 6.390625 
Q 36.859375 6.390625 41.078125 11.03125 
Q 45.3125 15.671875 45.3125 23.6875 
L 45.3125 54.6875 
L 54.296875 54.6875 
L 54.296875 0 
L 45.3125 0 
L 45.3125 8.40625 
Q 42.046875 3.421875 37.71875 1 
Q 33.40625 -1.421875 27.6875 -1.421875 
Q 18.265625 -1.421875 13.375 4.4375 
Q 8.5 10.296875 8.5 21.578125 
z
M 31.109375 56 
z
" id="DejaVuSans-75"/>
      <path id="DejaVuSans-20"/>
      <path d="M 51.125 44 
L 36.921875 44 
L 32.8125 27.6875 
L 47.125 27.6875 
z
M 43.796875 71.78125 
L 38.71875 51.515625 
L 52.984375 51.515625 
L 58.109375 71.78125 
L 65.921875 71.78125 
L 60.890625 51.515625 
L 76.125 51.515625 
L 76.125 44 
L 58.984375 44 
L 54.984375 27.6875 
L 70.515625 27.6875 
L 70.515625 20.21875 
L 53.078125 20.21875 
L 48 0 
L 40.1875 0 
L 45.21875 20.21875 
L 30.90625 20.21875 
L 25.875 0 
L 18.015625 0 
L 23.09375 20.21875 
L 7.71875 20.21875 
L 7.71875 27.6875 
L 24.90625 27.6875 
L 29 44 
L 13.28125 44 
L 13.28125 51.515625 
L 30.90625 51.515625 
L 35.890625 71.78125 
z
" id="DejaVuSans-23"/>
     </defs>
     <g transform="translate(185.280312 280.567229)scale(0.2 -0.2)">
      <use xlink:href="#DejaVuSans-52"/>
      <use x="69.419922" xlink:href="#DejaVuSans-65"/>
      <use x="130.943359" xlink:href="#DejaVuSans-73"/>
      <use x="183.042969" xlink:href="#DejaVuSans-69"/>
      <use x="210.826172" xlink:href="#DejaVuSans-64"/>
      <use x="274.302734" xlink:href="#DejaVuSans-75"/>
      <use x="337.681641" xlink:href="#DejaVuSans-65"/>
      <use x="399.205078" xlink:href="#DejaVuSans-20"/>
      <use x="430.992188" xlink:href="#DejaVuSans-23"/>
     </g>
    </g>
   </g>
   <g id="matplotlib.axis_2">
    <g id="ytick_1">
     <g id="line2d_11">
      <defs>
       <path d="M 0 0 
L 3.5 0 
" id="m8011bbcbff" style="stroke:#000000;stroke-width:0.8;"/>
      </defs>
      <g>
       <use style="stroke:#000000;stroke-width:0.8;" x="44.354646" xlink:href="#m8011bbcbff" y="242.385354"/>
      </g>
     </g>
     <g id="text_11">
      <!-- 0 -->
      <g transform="translate(30.674646 248.464104)scale(0.16 -0.16)">
       <use xlink:href="#DejaVuSans-30"/>
      </g>
     </g>
    </g>
    <g id="ytick_2">
     <g id="line2d_12">
      <g>
       <use style="stroke:#000000;stroke-width:0.8;" x="44.354646" xlink:href="#m8011bbcbff" y="179.345694"/>
      </g>
     </g>
     <g id="text_12">
      <!-- 1 -->
      <g transform="translate(30.674646 185.424444)scale(0.16 -0.16)">
       <use xlink:href="#DejaVuSans-31"/>
      </g>
     </g>
    </g>
    <g id="ytick_3">
     <g id="line2d_13">
      <g>
       <use style="stroke:#000000;stroke-width:0.8;" x="44.354646" xlink:href="#m8011bbcbff" y="116.306034"/>
      </g>
     </g>
     <g id="text_13">
      <!-- 2 -->
      <g transform="translate(30.674646 122.384784)scale(0.16 -0.16)">
       <use xlink:href="#DejaVuSans-32"/>
      </g>
     </g>
    </g>
    <g id="ytick_4">
     <g id="line2d_14">
      <g>
       <use style="stroke:#000000;stroke-width:0.8;" x="44.354646" xlink:href="#m8011bbcbff" y="53.266374"/>
      </g>
     </g>
     <g id="text_14">
      <!-- 3 -->
      <g transform="translate(30.674646 59.345124)scale(0.16 -0.16)">
       <use xlink:href="#DejaVuSans-33"/>
      </g>
     </g>
    </g>
    <g id="text_15">
     <!-- Fluctuation $[\AA]$ -->
     <defs>
      <path d="M 9.8125 72.90625 
L 51.703125 72.90625 
L 51.703125 64.59375 
L 19.671875 64.59375 
L 19.671875 43.109375 
L 48.578125 43.109375 
L 48.578125 34.8125 
L 19.671875 34.8125 
L 19.671875 0 
L 9.8125 0 
z
" id="DejaVuSans-46"/>
      <path d="M 9.421875 75.984375 
L 18.40625 75.984375 
L 18.40625 0 
L 9.421875 0 
z
" id="DejaVuSans-6c"/>
      <path d="M 48.78125 52.59375 
L 48.78125 44.1875 
Q 44.96875 46.296875 41.140625 47.34375 
Q 37.3125 48.390625 33.40625 48.390625 
Q 24.65625 48.390625 19.8125 42.84375 
Q 14.984375 37.3125 14.984375 27.296875 
Q 14.984375 17.28125 19.8125 11.734375 
Q 24.65625 6.203125 33.40625 6.203125 
Q 37.3125 6.203125 41.140625 7.25 
Q 44.96875 8.296875 48.78125 10.40625 
L 48.78125 2.09375 
Q 45.015625 0.34375 40.984375 -0.53125 
Q 36.96875 -1.421875 32.421875 -1.421875 
Q 20.0625 -1.421875 12.78125 6.34375 
Q 5.515625 14.109375 5.515625 27.296875 
Q 5.515625 40.671875 12.859375 48.328125 
Q 20.21875 56 33.015625 56 
Q 37.15625 56 41.109375 55.140625 
Q 45.0625 54.296875 48.78125 52.59375 
z
" id="DejaVuSans-63"/>
      <path d="M 18.3125 70.21875 
L 18.3125 54.6875 
L 36.8125 54.6875 
L 36.8125 47.703125 
L 18.3125 47.703125 
L 18.3125 18.015625 
Q 18.3125 11.328125 20.140625 9.421875 
Q 21.96875 7.515625 27.59375 7.515625 
L 36.8125 7.515625 
L 36.8125 0 
L 27.59375 0 
Q 17.1875 0 13.234375 3.875 
Q 9.28125 7.765625 9.28125 18.015625 
L 9.28125 47.703125 
L 2.6875 47.703125 
L 2.6875 54.6875 
L 9.28125 54.6875 
L 9.28125 70.21875 
z
" id="DejaVuSans-74"/>
      <path d="M 34.28125 27.484375 
Q 23.390625 27.484375 19.1875 25 
Q 14.984375 22.515625 14.984375 16.5 
Q 14.984375 11.71875 18.140625 8.90625 
Q 21.296875 6.109375 26.703125 6.109375 
Q 34.1875 6.109375 38.703125 11.40625 
Q 43.21875 16.703125 43.21875 25.484375 
L 43.21875 27.484375 
z
M 52.203125 31.203125 
L 52.203125 0 
L 43.21875 0 
L 43.21875 8.296875 
Q 40.140625 3.328125 35.546875 0.953125 
Q 30.953125 -1.421875 24.3125 -1.421875 
Q 15.921875 -1.421875 10.953125 3.296875 
Q 6 8.015625 6 15.921875 
Q 6 25.140625 12.171875 29.828125 
Q 18.359375 34.515625 30.609375 34.515625 
L 43.21875 34.515625 
L 43.21875 35.40625 
Q 43.21875 41.609375 39.140625 45 
Q 35.0625 48.390625 27.6875 48.390625 
Q 23 48.390625 18.546875 47.265625 
Q 14.109375 46.140625 10.015625 43.890625 
L 10.015625 52.203125 
Q 14.9375 54.109375 19.578125 55.046875 
Q 24.21875 56 28.609375 56 
Q 40.484375 56 46.34375 49.84375 
Q 52.203125 43.703125 52.203125 31.203125 
z
" id="DejaVuSans-61"/>
      <path d="M 30.609375 48.390625 
Q 23.390625 48.390625 19.1875 42.75 
Q 14.984375 37.109375 14.984375 27.296875 
Q 14.984375 17.484375 19.15625 11.84375 
Q 23.34375 6.203125 30.609375 6.203125 
Q 37.796875 6.203125 41.984375 11.859375 
Q 46.1875 17.53125 46.1875 27.296875 
Q 46.1875 37.015625 41.984375 42.703125 
Q 37.796875 48.390625 30.609375 48.390625 
z
M 30.609375 56 
Q 42.328125 56 49.015625 48.375 
Q 55.71875 40.765625 55.71875 27.296875 
Q 55.71875 13.875 49.015625 6.21875 
Q 42.328125 -1.421875 30.609375 -1.421875 
Q 18.84375 -1.421875 12.171875 6.21875 
Q 5.515625 13.875 5.515625 27.296875 
Q 5.515625 40.765625 12.171875 48.375 
Q 18.84375 56 30.609375 56 
z
" id="DejaVuSans-6f"/>
      <path d="M 54.890625 33.015625 
L 54.890625 0 
L 45.90625 0 
L 45.90625 32.71875 
Q 45.90625 40.484375 42.875 44.328125 
Q 39.84375 48.1875 33.796875 48.1875 
Q 26.515625 48.1875 22.3125 43.546875 
Q 18.109375 38.921875 18.109375 30.90625 
L 18.109375 0 
L 9.078125 0 
L 9.078125 54.6875 
L 18.109375 54.6875 
L 18.109375 46.1875 
Q 21.34375 51.125 25.703125 53.5625 
Q 30.078125 56 35.796875 56 
Q 45.21875 56 50.046875 50.171875 
Q 54.890625 44.34375 54.890625 33.015625 
z
" id="DejaVuSans-6e"/>
      <path d="M 8.59375 75.984375 
L 29.296875 75.984375 
L 29.296875 69 
L 17.578125 69 
L 17.578125 -6.203125 
L 29.296875 -6.203125 
L 29.296875 -13.1875 
L 8.59375 -13.1875 
z
" id="DejaVuSans-5b"/>
      <path d="M 49.8125 79.390625 
Q 49.8125 82.46875 47.625 84.640625 
Q 45.453125 86.8125 42.390625 86.8125 
Q 39.265625 86.8125 37.140625 84.6875 
Q 35.015625 82.5625 35.015625 79.390625 
Q 35.015625 76.3125 37.140625 74.15625 
Q 39.265625 72.015625 42.390625 72.015625 
Q 45.453125 72.015625 47.625 74.15625 
Q 49.8125 76.3125 49.8125 79.390625 
z
M 34.421875 68.703125 
Q 31.78125 70.515625 30.390625 73.265625 
Q 29 76.03125 29 79.390625 
Q 29 84.96875 32.90625 88.890625 
Q 36.8125 92.828125 42.390625 92.828125 
Q 47.953125 92.828125 51.875 88.890625 
Q 55.8125 84.96875 55.8125 79.390625 
Q 55.8125 75.53125 54.03125 72.546875 
Q 52.25 69.578125 48.875 67.828125 
L 61.53125 0 
L 51.21875 0 
L 48.1875 18.703125 
L 15.375 18.703125 
L 5.078125 0 
L -5.328125 0 
z
M 40.375 63.1875 
L 19.921875 26.90625 
L 46.6875 26.90625 
z
" id="DejaVuSans-Oblique-c5"/>
      <path d="M 30.421875 75.984375 
L 30.421875 -13.1875 
L 9.71875 -13.1875 
L 9.71875 -6.203125 
L 21.390625 -6.203125 
L 21.390625 69 
L 9.71875 69 
L 9.71875 75.984375 
z
" id="DejaVuSans-5d"/>
     </defs>
     <g transform="translate(22.515271 196.41)rotate(-90)scale(0.2 -0.2)">
      <use transform="translate(0 0.171875)" xlink:href="#DejaVuSans-46"/>
      <use transform="translate(57.519531 0.171875)" xlink:href="#DejaVuSans-6c"/>
      <use transform="translate(85.302734 0.171875)" xlink:href="#DejaVuSans-75"/>
      <use transform="translate(148.681641 0.171875)" xlink:href="#DejaVuSans-63"/>
      <use transform="translate(203.662109 0.171875)" xlink:href="#DejaVuSans-74"/>
      <use transform="translate(242.871094 0.171875)" xlink:href="#DejaVuSans-75"/>
      <use transform="translate(306.25 0.171875)" xlink:href="#DejaVuSans-61"/>
      <use transform="translate(367.529297 0.171875)" xlink:href="#DejaVuSans-74"/>
      <use transform="translate(406.738281 0.171875)" xlink:href="#DejaVuSans-69"/>
      <use transform="translate(434.521484 0.171875)" xlink:href="#DejaVuSans-6f"/>
      <use transform="translate(495.703125 0.171875)" xlink:href="#DejaVuSans-6e"/>
      <use transform="translate(559.082031 0.171875)" xlink:href="#DejaVuSans-20"/>
      <use transform="translate(590.869141 0.171875)" xlink:href="#DejaVuSans-5b"/>
      <use transform="translate(629.882812 0.171875)" xlink:href="#DejaVuSans-Oblique-c5"/>
      <use transform="translate(698.291016 0.171875)" xlink:href="#DejaVuSans-5d"/>
     </g>
    </g>
   </g>
   <g id="line2d_15">
    <path clip-path="url(#pfe13834acd)" d="M 74.478838 156.664024 
L 76.883003 153.39857 
L 79.287168 127.703605 
L 81.691334 140.557391 
L 84.095499 149.200129 
L 86.499665 140.822158 
L 88.90383 142.480101 
L 91.307995 140.324145 
L 93.712161 163.106678 
L 96.116326 170.129296 
L 98.520491 157.048566 
L 100.924657 166.000198 
L 103.328822 184.52125 
L 105.732987 175.027477 
L 108.137153 161.146144 
L 110.541318 165.848903 
L 112.945484 144.327163 
L 115.349649 140.626735 
L 117.753814 149.256864 
L 120.15798 172.72653 
L 122.562145 172.045702 
L 124.96631 174.18905 
L 127.370476 190.396547 
L 129.774641 188.385581 
L 132.178807 173.293887 
L 134.582972 177.385161 
L 136.987137 177.990341 
L 141.795468 144.730617 
L 144.199633 138.930968 
L 146.603799 135.56465 
L 149.007964 118.49351 
L 151.412129 123.580811 
L 153.816295 88.921606 
L 156.22046 112.479527 
L 158.624626 140.904109 
L 161.028791 155.68691 
L 163.432956 148.178886 
L 165.837122 168.402009 
L 168.241287 185.01296 
L 170.645452 163.888369 
L 173.049618 167.992251 
L 175.453783 189.179881 
L 177.857949 171.29553 
L 180.262114 151.809971 
L 182.666279 164.506158 
L 185.070445 166.794498 
L 187.47461 153.385962 
L 189.878775 151.47586 
L 192.282941 171.642248 
L 194.687106 183.676519 
L 197.091271 170.085168 
L 199.495437 164.594414 
L 201.899602 185.756828 
L 204.303768 188.795339 
L 206.707933 170.204943 
L 209.112098 168.452441 
L 211.516264 183.531528 
L 213.920429 182.573325 
L 216.324594 169.637586 
L 218.72876 168.156154 
L 221.132925 178.021861 
L 223.53709 181.810545 
L 225.941256 184.073669 
L 228.345421 184.193444 
L 230.749587 176.918667 
L 233.153752 178.853985 
L 235.557917 186.960885 
L 237.962083 174.132314 
L 240.366248 169.40434 
L 245.174579 196.599649 
L 249.98291 180.228249 
L 252.387075 194.544556 
L 254.79124 194.714763 
L 257.195406 181.715985 
L 259.599571 182.869611 
L 262.003736 191.865371 
L 264.407902 184.559074 
L 266.812067 176.042416 
L 269.216232 175.935249 
L 271.620398 173.842332 
L 274.024563 166.498211 
L 276.428729 170.1356 
L 278.832894 184.143012 
L 281.237059 169.03871 
L 283.641225 161.297439 
L 286.04539 153.058156 
L 288.449555 134.80187 
L 290.853721 91.304505 
L 293.257886 91.191033 
L 295.662051 24.009668 
L 298.066217 87.326702 
L 300.470382 141.60385 
L 302.874548 169.082837 
L 305.278713 164.569198 
L 307.682878 166.038022 
L 310.087044 163.138198 
L 314.895374 185.750524 
L 317.29954 181.375571 
L 319.703705 178.002949 
L 322.107871 187.439987 
L 324.512036 194.260878 
L 326.916201 187.086964 
L 329.320367 185.813563 
L 331.724532 196.895936 
L 334.128697 191.682556 
L 336.532863 181.59621 
L 338.937028 191.430397 
L 341.341193 198.087385 
L 343.745359 182.081615 
L 346.149524 178.286628 
L 348.55369 189.30596 
L 350.957855 184.193444 
L 353.36202 180.80191 
L 355.766186 184.344739 
L 358.170351 197.192222 
L 360.574516 198.629526 
L 362.978682 189.154665 
L 365.382847 193.39093 
L 367.787013 196.864416 
L 370.191178 186.80959 
L 372.595343 178.526179 
L 374.999509 181.117109 
L 377.403674 181.148628 
L 382.212005 161.745021 
L 384.61617 179.143967 
L 387.020335 185.763132 
L 389.424501 172.253732 
L 391.828666 179.812188 
L 394.232832 185.195775 
L 396.636997 166.681026 
L 396.636997 166.681026 
" style="fill:none;stroke:#ff0000;stroke-linecap:round;"/>
   </g>
   <g id="patch_3">
    <path d="M 44.354646 242.385354 
L 44.354646 2.834646 
" style="fill:none;stroke:#000000;stroke-linecap:square;stroke-linejoin:miter;"/>
   </g>
   <g id="patch_4">
    <path d="M 44.354646 242.385354 
L 429.165354 242.385354 
" style="fill:none;stroke:#000000;stroke-linecap:square;stroke-linejoin:miter;"/>
   </g>
   <g id="line2d_16">
    <path clip-path="url(#pfe13834acd)" d="M 55.245515 229.777422 
L 57.64968 229.777422 
L 60.053846 229.777422 
L 62.458011 229.777422 
L 64.862176 229.777422 
" style="fill:none;stroke:#000000;stroke-linecap:round;stroke-width:5;"/>
   </g>
   <g id="line2d_17">
    <path clip-path="url(#pfe13834acd)" d="M 67.266342 229.777422 
L 69.670507 229.777422 
L 72.074672 229.777422 
L 74.478838 229.777422 
L 76.883003 229.777422 
L 79.287168 229.777422 
" style="fill:none;stroke:#000000;stroke-linecap:round;stroke-width:5;"/>
   </g>
   <g id="line2d_18">
    <path clip-path="url(#pfe13834acd)" d="M 88.90383 229.777422 
L 91.307995 229.777422 
L 93.712161 229.777422 
L 96.116326 229.777422 
L 98.520491 229.777422 
L 100.924657 229.777422 
L 103.328822 229.777422 
L 105.732987 229.777422 
L 108.137153 229.777422 
L 110.541318 229.777422 
" style="fill:none;stroke:#000000;stroke-linecap:round;stroke-width:5;"/>
   </g>
   <g id="line2d_19">
    <path clip-path="url(#pfe13834acd)" d="M 112.945484 229.777422 
L 115.349649 229.777422 
L 117.753814 229.777422 
L 120.15798 229.777422 
L 122.562145 229.777422 
L 124.96631 229.777422 
L 127.370476 229.777422 
L 129.774641 229.777422 
L 132.178807 229.777422 
L 134.582972 229.777422 
L 136.987137 229.777422 
L 139.391303 229.777422 
L 141.795468 229.777422 
L 144.199633 229.777422 
L 146.603799 229.777422 
" style="fill:none;stroke:#000000;stroke-linecap:round;stroke-width:5;"/>
   </g>
   <g id="line2d_20">
    <path clip-path="url(#pfe13834acd)" d="M 156.22046 229.777422 
L 158.624626 229.777422 
L 161.028791 229.777422 
L 163.432956 229.777422 
L 165.837122 229.777422 
L 168.241287 229.777422 
L 170.645452 229.777422 
L 173.049618 229.777422 
L 175.453783 229.777422 
L 177.857949 229.777422 
L 180.262114 229.777422 
L 182.666279 229.777422 
L 185.070445 229.777422 
" style="fill:none;stroke:#000000;stroke-linecap:round;stroke-width:5;"/>
   </g>
   <g id="line2d_21">
    <path clip-path="url(#pfe13834acd)" d="M 185.070445 229.777422 
L 187.47461 229.777422 
L 189.878775 229.777422 
L 192.282941 229.777422 
L 194.687106 229.777422 
L 197.091271 229.777422 
L 199.495437 229.777422 
L 201.899602 229.777422 
L 204.303768 229.777422 
L 206.707933 229.777422 
L 209.112098 229.777422 
L 211.516264 229.777422 
L 213.920429 229.777422 
L 216.324594 229.777422 
L 218.72876 229.777422 
L 221.132925 229.777422 
L 223.53709 229.777422 
L 225.941256 229.777422 
L 228.345421 229.777422 
L 230.749587 229.777422 
L 233.153752 229.777422 
" style="fill:none;stroke:#000000;stroke-linecap:round;stroke-width:5;"/>
   </g>
   <g id="line2d_22">
    <path clip-path="url(#pfe13834acd)" d="M 237.962083 229.777422 
L 240.366248 229.777422 
L 242.770413 229.777422 
L 245.174579 229.777422 
L 247.578744 229.777422 
L 249.98291 229.777422 
L 252.387075 229.777422 
L 254.79124 229.777422 
L 257.195406 229.777422 
L 259.599571 229.777422 
L 262.003736 229.777422 
L 264.407902 229.777422 
L 266.812067 229.777422 
L 269.216232 229.777422 
L 271.620398 229.777422 
L 274.024563 229.777422 
L 276.428729 229.777422 
L 278.832894 229.777422 
L 281.237059 229.777422 
L 283.641225 229.777422 
L 286.04539 229.777422 
" style="fill:none;stroke:#000000;stroke-linecap:round;stroke-width:5;"/>
   </g>
   <g id="line2d_23">
    <path clip-path="url(#pfe13834acd)" d="M 305.278713 229.777422 
L 307.682878 229.777422 
L 310.087044 229.777422 
L 312.491209 229.777422 
L 314.895374 229.777422 
L 317.29954 229.777422 
L 319.703705 229.777422 
L 322.107871 229.777422 
L 324.512036 229.777422 
L 326.916201 229.777422 
L 329.320367 229.777422 
L 331.724532 229.777422 
L 334.128697 229.777422 
L 336.532863 229.777422 
L 338.937028 229.777422 
L 341.341193 229.777422 
L 343.745359 229.777422 
" style="fill:none;stroke:#000000;stroke-linecap:round;stroke-width:5;"/>
   </g>
   <g id="line2d_24">
    <path clip-path="url(#pfe13834acd)" d="M 350.957855 229.777422 
L 353.36202 229.777422 
L 355.766186 229.777422 
L 358.170351 229.777422 
L 360.574516 229.777422 
L 362.978682 229.777422 
L 365.382847 229.777422 
L 367.787013 229.777422 
L 370.191178 229.777422 
L 372.595343 229.777422 
L 374.999509 229.777422 
L 377.403674 229.777422 
" style="fill:none;stroke:#000000;stroke-linecap:round;stroke-width:5;"/>
   </g>
   <g id="line2d_25">
    <path clip-path="url(#pfe13834acd)" d="M 377.403674 229.777422 
L 379.807839 229.777422 
L 382.212005 229.777422 
L 384.61617 229.777422 
L 387.020335 229.777422 
L 389.424501 229.777422 
L 391.828666 229.777422 
L 394.232832 229.777422 
L 396.636997 229.777422 
L 399.041162 229.777422 
" style="fill:none;stroke:#000000;stroke-linecap:round;stroke-width:5;"/>
   </g>
   <g id="line2d_26">
    <path clip-path="url(#pfe13834acd)" d="M 406.253658 229.777422 
L 408.657824 229.777422 
L 411.061989 229.777422 
L 413.466154 229.777422 
L 415.87032 229.777422 
L 418.274485 229.777422 
" style="fill:none;stroke:#000000;stroke-linecap:round;stroke-width:5;"/>
   </g>
   <g id="text_16">
    <!-- α1 -->
    <defs>
     <path d="M 41.3125 25.4375 
L 39.15625 36.71875 
Q 36.96875 48.296875 28.265625 48.296875 
Q 21.734375 48.296875 18.75 42.921875 
Q 14.984375 36.1875 14.984375 27.296875 
Q 14.984375 16.546875 18.65625 11.421875 
Q 22.359375 6.203125 28.265625 6.203125 
Q 34.8125 6.203125 38.328125 16.609375 
z
M 46.34375 40.375 
L 51.171875 54.6875 
L 59.1875 54.6875 
L 49.171875 25.046875 
L 51.125 14.359375 
Q 51.5625 11.96875 53.265625 9.96875 
Q 55.28125 7.625 56.84375 7.625 
L 61.140625 7.625 
L 61.140625 0 
L 55.765625 0 
Q 51.171875 0 47.078125 4.109375 
Q 45.0625 6.15625 44.234375 10.453125 
Q 42 5.03125 37.40625 0.78125 
Q 35.25 -1.21875 28.265625 -1.21875 
Q 16.796875 -1.21875 11.234375 6.203125 
Q 5.515625 13.875 5.515625 27.296875 
Q 5.515625 41.65625 11.71875 48.390625 
Q 18.609375 55.90625 28.265625 55.90625 
Q 43.453125 55.90625 46.34375 40.375 
z
" id="DejaVuSans-3b1"/>
    </defs>
    <g transform="translate(51.633299 227.060644)scale(0.13 -0.13)">
     <use xlink:href="#DejaVuSans-3b1"/>
     <use x="65.917969" xlink:href="#DejaVuSans-31"/>
    </g>
   </g>
   <g id="text_17">
    <!-- α2 -->
    <g transform="translate(64.856208 227.060644)scale(0.13 -0.13)">
     <use xlink:href="#DejaVuSans-3b1"/>
     <use x="65.917969" xlink:href="#DejaVuSans-32"/>
    </g>
   </g>
   <g id="text_18">
    <!-- α3 -->
    <g transform="translate(91.302027 227.060644)scale(0.13 -0.13)">
     <use xlink:href="#DejaVuSans-3b1"/>
     <use x="65.917969" xlink:href="#DejaVuSans-33"/>
    </g>
   </g>
   <g id="text_19">
    <!-- α4 -->
    <g transform="translate(121.354094 227.060644)scale(0.13 -0.13)">
     <use xlink:href="#DejaVuSans-3b1"/>
     <use x="65.917969" xlink:href="#DejaVuSans-34"/>
    </g>
   </g>
   <g id="text_20">
    <!-- α5 -->
    <g transform="translate(162.224906 227.060644)scale(0.13 -0.13)">
     <use xlink:href="#DejaVuSans-3b1"/>
     <use x="65.917969" xlink:href="#DejaVuSans-35"/>
    </g>
   </g>
   <g id="text_21">
    <!-- α6 -->
    <g transform="translate(200.691551 227.060644)scale(0.13 -0.13)">
     <use xlink:href="#DejaVuSans-3b1"/>
     <use x="65.917969" xlink:href="#DejaVuSans-36"/>
    </g>
   </g>
   <g id="text_22">
    <!-- α7 -->
    <g transform="translate(253.583189 227.060644)scale(0.13 -0.13)">
     <use xlink:href="#DejaVuSans-3b1"/>
     <use x="65.917969" xlink:href="#DejaVuSans-37"/>
    </g>
   </g>
   <g id="text_23">
    <!-- α8 -->
    <defs>
     <path d="M 31.78125 34.625 
Q 24.75 34.625 20.71875 30.859375 
Q 16.703125 27.09375 16.703125 20.515625 
Q 16.703125 13.921875 20.71875 10.15625 
Q 24.75 6.390625 31.78125 6.390625 
Q 38.8125 6.390625 42.859375 10.171875 
Q 46.921875 13.96875 46.921875 20.515625 
Q 46.921875 27.09375 42.890625 30.859375 
Q 38.875 34.625 31.78125 34.625 
z
M 21.921875 38.8125 
Q 15.578125 40.375 12.03125 44.71875 
Q 8.5 49.078125 8.5 55.328125 
Q 8.5 64.0625 14.71875 69.140625 
Q 20.953125 74.21875 31.78125 74.21875 
Q 42.671875 74.21875 48.875 69.140625 
Q 55.078125 64.0625 55.078125 55.328125 
Q 55.078125 49.078125 51.53125 44.71875 
Q 48 40.375 41.703125 38.8125 
Q 48.828125 37.15625 52.796875 32.3125 
Q 56.78125 27.484375 56.78125 20.515625 
Q 56.78125 9.90625 50.3125 4.234375 
Q 43.84375 -1.421875 31.78125 -1.421875 
Q 19.734375 -1.421875 13.25 4.234375 
Q 6.78125 9.90625 6.78125 20.515625 
Q 6.78125 27.484375 10.78125 32.3125 
Q 14.796875 37.15625 21.921875 38.8125 
z
M 18.3125 54.390625 
Q 18.3125 48.734375 21.84375 45.5625 
Q 25.390625 42.390625 31.78125 42.390625 
Q 38.140625 42.390625 41.71875 45.5625 
Q 45.3125 48.734375 45.3125 54.390625 
Q 45.3125 60.0625 41.71875 63.234375 
Q 38.140625 66.40625 31.78125 66.40625 
Q 25.390625 66.40625 21.84375 63.234375 
Q 18.3125 60.0625 18.3125 54.390625 
z
" id="DejaVuSans-38"/>
    </defs>
    <g transform="translate(316.091489 227.060644)scale(0.13 -0.13)">
     <use xlink:href="#DejaVuSans-3b1"/>
     <use x="65.917969" xlink:href="#DejaVuSans-38"/>
    </g>
   </g>
   <g id="text_24">
    <!-- α9 -->
    <g transform="translate(355.760218 227.060644)scale(0.13 -0.13)">
     <use xlink:href="#DejaVuSans-3b1"/>
     <use x="65.917969" xlink:href="#DejaVuSans-39"/>
    </g>
   </g>
   <g id="text_25">
    <!-- α10 -->
    <g transform="translate(375.666246 227.060644)scale(0.13 -0.13)">
     <use xlink:href="#DejaVuSans-3b1"/>
     <use x="65.917969" xlink:href="#DejaVuSans-31"/>
     <use x="129.541016" xlink:href="#DejaVuSans-30"/>
    </g>
   </g>
   <g id="text_26">
    <!-- α11 -->
    <g transform="translate(399.7079 227.060644)scale(0.13 -0.13)">
     <use xlink:href="#DejaVuSans-3b1"/>
     <use x="65.917969" xlink:href="#DejaVuSans-31"/>
     <use x="129.541016" xlink:href="#DejaVuSans-31"/>
    </g>
   </g>
   <g id="legend_1">
    <g id="patch_5">
     <path d="M 55.554646 62.604646 
L 221.427146 62.604646 
Q 224.627146 62.604646 224.627146 59.404646 
L 224.627146 14.034646 
Q 224.627146 10.834646 221.427146 10.834646 
L 55.554646 10.834646 
Q 52.354646 10.834646 52.354646 14.034646 
L 52.354646 59.404646 
Q 52.354646 62.604646 55.554646 62.604646 
z
" style="fill:#ffffff;stroke:#000000;stroke-linejoin:miter;"/>
    </g>
    <g id="line2d_27">
     <path d="M 58.754646 23.792146 
L 90.754646 23.792146 
" style="fill:none;stroke:#0000ff;stroke-linecap:square;"/>
    </g>
    <g id="line2d_28"/>
    <g id="text_27">
     <!-- apo-Na-FAR-1 -->
     <defs>
      <path d="M 18.109375 8.203125 
L 18.109375 -20.796875 
L 9.078125 -20.796875 
L 9.078125 54.6875 
L 18.109375 54.6875 
L 18.109375 46.390625 
Q 20.953125 51.265625 25.265625 53.625 
Q 29.59375 56 35.59375 56 
Q 45.5625 56 51.78125 48.09375 
Q 58.015625 40.1875 58.015625 27.296875 
Q 58.015625 14.40625 51.78125 6.484375 
Q 45.5625 -1.421875 35.59375 -1.421875 
Q 29.59375 -1.421875 25.265625 0.953125 
Q 20.953125 3.328125 18.109375 8.203125 
z
M 48.6875 27.296875 
Q 48.6875 37.203125 44.609375 42.84375 
Q 40.53125 48.484375 33.40625 48.484375 
Q 26.265625 48.484375 22.1875 42.84375 
Q 18.109375 37.203125 18.109375 27.296875 
Q 18.109375 17.390625 22.1875 11.75 
Q 26.265625 6.109375 33.40625 6.109375 
Q 40.53125 6.109375 44.609375 11.75 
Q 48.6875 17.390625 48.6875 27.296875 
z
" id="DejaVuSans-70"/>
      <path d="M 4.890625 31.390625 
L 31.203125 31.390625 
L 31.203125 23.390625 
L 4.890625 23.390625 
z
" id="DejaVuSans-2d"/>
      <path d="M 9.8125 72.90625 
L 23.09375 72.90625 
L 55.421875 11.921875 
L 55.421875 72.90625 
L 64.984375 72.90625 
L 64.984375 0 
L 51.703125 0 
L 19.390625 60.984375 
L 19.390625 0 
L 9.8125 0 
z
" id="DejaVuSans-4e"/>
      <path d="M 34.1875 63.1875 
L 20.796875 26.90625 
L 47.609375 26.90625 
z
M 28.609375 72.90625 
L 39.796875 72.90625 
L 67.578125 0 
L 57.328125 0 
L 50.6875 18.703125 
L 17.828125 18.703125 
L 11.1875 0 
L 0.78125 0 
z
" id="DejaVuSans-41"/>
     </defs>
     <g transform="translate(103.554646 29.392146)scale(0.16 -0.16)">
      <use xlink:href="#DejaVuSans-61"/>
      <use x="61.279297" xlink:href="#DejaVuSans-70"/>
      <use x="124.755859" xlink:href="#DejaVuSans-6f"/>
      <use x="185.953125" xlink:href="#DejaVuSans-2d"/>
      <use x="222.037109" xlink:href="#DejaVuSans-4e"/>
      <use x="296.841797" xlink:href="#DejaVuSans-61"/>
      <use x="358.121094" xlink:href="#DejaVuSans-2d"/>
      <use x="394.205078" xlink:href="#DejaVuSans-46"/>
      <use x="451.583984" xlink:href="#DejaVuSans-41"/>
      <use x="519.992188" xlink:href="#DejaVuSans-52"/>
      <use x="589.412109" xlink:href="#DejaVuSans-2d"/>
      <use x="625.496094" xlink:href="#DejaVuSans-31"/>
     </g>
    </g>
    <g id="line2d_29">
     <path d="M 58.754646 47.277146 
L 90.754646 47.277146 
" style="fill:none;stroke:#ff0000;stroke-linecap:square;"/>
    </g>
    <g id="line2d_30"/>
    <g id="text_28">
     <!-- holo-Na-FAR-1 -->
     <defs>
      <path d="M 54.890625 33.015625 
L 54.890625 0 
L 45.90625 0 
L 45.90625 32.71875 
Q 45.90625 40.484375 42.875 44.328125 
Q 39.84375 48.1875 33.796875 48.1875 
Q 26.515625 48.1875 22.3125 43.546875 
Q 18.109375 38.921875 18.109375 30.90625 
L 18.109375 0 
L 9.078125 0 
L 9.078125 75.984375 
L 18.109375 75.984375 
L 18.109375 46.1875 
Q 21.34375 51.125 25.703125 53.5625 
Q 30.078125 56 35.796875 56 
Q 45.21875 56 50.046875 50.171875 
Q 54.890625 44.34375 54.890625 33.015625 
z
" id="DejaVuSans-68"/>
     </defs>
     <g transform="translate(103.554646 52.877146)scale(0.16 -0.16)">
      <use xlink:href="#DejaVuSans-68"/>
      <use x="63.378906" xlink:href="#DejaVuSans-6f"/>
      <use x="124.560547" xlink:href="#DejaVuSans-6c"/>
      <use x="152.34375" xlink:href="#DejaVuSans-6f"/>
      <use x="213.541016" xlink:href="#DejaVuSans-2d"/>
      <use x="249.625" xlink:href="#DejaVuSans-4e"/>
      <use x="324.429688" xlink:href="#DejaVuSans-61"/>
      <use x="385.708984" xlink:href="#DejaVuSans-2d"/>
      <use x="421.792969" xlink:href="#DejaVuSans-46"/>
      <use x="479.171875" xlink:href="#DejaVuSans-41"/>
      <use x="547.580078" xlink:href="#DejaVuSans-52"/>
      <use x="617" xlink:href="#DejaVuSans-2d"/>
      <use x="653.083984" xlink:href="#DejaVuSans-31"/>
     </g>
    </g>
   </g>
  </g>
 </g>
 <defs>
  <clipPath id="pfe13834acd">
   <rect height="239.550709" width="384.810709" x="44.354646" y="2.834646"/>
  </clipPath>
 </defs>
</svg>
