<?xml version="1.0" encoding="utf-8" standalone="no"?>
<!DOCTYPE svg PUBLIC "-//W3C//DTD SVG 1.1//EN"
  "http://www.w3.org/Graphics/SVG/1.1/DTD/svg11.dtd">
<!-- Created with matplotlib (http://matplotlib.org/) -->
<svg height="288pt" version="1.1" viewBox="0 0 432 288" width="432pt" xmlns="http://www.w3.org/2000/svg" xmlns:xlink="http://www.w3.org/1999/xlink">
 <defs>
  <style type="text/css">
*{stroke-linecap:butt;stroke-linejoin:round;}
  </style>
 </defs>
 <g id="figure_1">
  <g id="patch_1">
   <path d="M 0 288 
L 432 288 
L 432 0 
L 0 0 
z
" style="fill:#ffffff;"/>
  </g>
  <g id="axes_1">
   <g id="patch_2">
    <path d="M 44.354646 242.385354 
L 429.165354 242.385354 
L 429.165354 2.834646 
L 44.354646 2.834646 
z
" style="fill:#ffffff;"/>
   </g>
   <g id="line2d_1">
    <path clip-path="url(#p5967e2809d)" d="M 66.59017 206.036686 
L 69.426334 208.249378 
L 72.262498 204.233752 
L 75.098662 201.119593 
L 77.934825 201.523047 
L 80.770989 207.946788 
L 83.607153 206.704907 
L 86.443317 205.299122 
L 89.279481 193.870032 
L 92.115645 197.387645 
L 94.951808 203.540316 
L 97.787972 195.565799 
L 100.624136 193.258547 
L 103.4603 190.270467 
L 106.296464 181.62773 
L 109.132628 177.788615 
L 111.968791 178.847681 
L 114.804955 161.284832 
L 117.641119 160.257285 
L 120.477283 148.002375 
L 123.313447 161.083105 
L 126.149611 178.059685 
L 128.985774 143.70307 
L 131.821938 127.262327 
L 134.658102 147.718697 
L 137.494266 157.811346 
L 140.33043 173.936891 
L 143.166594 193.598961 
L 146.002757 194.544556 
L 148.838921 199.278835 
L 151.675085 196.908543 
L 154.511249 197.393949 
L 157.347413 196.120548 
L 160.183577 197.494812 
L 163.01974 189.513991 
L 165.855904 183.701735 
L 168.692068 152.289072 
L 171.528232 121.796788 
L 174.364396 139.876563 
L 177.20056 187.975824 
L 180.036723 195.685574 
L 182.872887 193.176596 
L 185.709051 194.078063 
L 188.545215 190.440674 
L 191.381379 188.562092 
L 194.217543 181.514258 
L 197.053706 182.308558 
L 199.88987 171.364873 
L 202.726034 150.851768 
L 205.562198 152.717742 
L 208.398362 157.502452 
L 211.234526 157.691571 
L 214.070689 175.367892 
L 216.906853 174.743799 
L 219.743017 182.232911 
L 222.579181 191.846459 
L 225.415345 201.775205 
L 228.251509 206.257325 
L 231.087672 192.987477 
L 233.923836 186.217017 
L 236.76 185.64966 
L 239.596164 184.508642 
L 242.432328 167.607709 
L 245.268491 152.742958 
L 248.104655 155.239328 
L 250.940819 144.92604 
L 253.776983 105.217358 
L 256.613147 125.755679 
L 259.449311 136.125703 
L 262.285474 158.095025 
L 265.121638 173.646909 
L 267.957802 186.191801 
L 270.793966 192.035578 
L 273.63013 197.614588 
L 276.466294 196.025988 
L 279.302457 204.504823 
L 282.138621 206.477964 
L 284.974785 196.227715 
L 287.810949 173.476702 
L 290.647113 147.107212 
L 293.483277 151.980178 
L 296.31944 190.875648 
L 299.155604 203.628571 
L 301.991768 203.88073 
L 304.827932 188.499053 
L 307.664096 199.278835 
L 310.50026 203.351197 
L 313.336423 198.308024 
L 316.172587 178.589218 
L 319.008751 147.11982 
L 321.844915 134.92795 
L 324.681079 159.336906 
L 327.517243 158.996492 
L 330.353406 182.901131 
L 333.18957 198.919509 
L 336.025734 200.571148 
L 338.861898 205.431506 
L 341.698062 199.215795 
L 344.534226 203.805082 
L 347.370389 203.407932 
L 350.206553 201.693254 
L 353.042717 192.05449 
L 355.878881 171.856583 
L 358.715045 144.024573 
L 361.551209 178.948544 
L 364.387372 202.985567 
L 367.223536 206.994889 
L 370.0597 205.828655 
L 372.895864 207.253352 
L 375.732028 210.726837 
L 378.568192 208.904991 
L 381.404355 208.287202 
L 384.240519 202.374082 
L 387.076683 187.313907 
L 389.912847 177.473416 
L 392.749011 201.088073 
L 395.585175 206.427532 
L 398.421338 213.059304 
L 401.257502 210.745749 
L 404.093666 208.986942 
" style="fill:none;stroke:#0000ff;stroke-linecap:round;"/>
   </g>
   <g id="matplotlib.axis_1">
    <g id="xtick_1">
     <g id="line2d_2">
      <defs>
       <path d="M 0 0 
L 0 -3.5 
" id="m0834332e27" style="stroke:#000000;stroke-width:0.8;"/>
      </defs>
      <g>
       <use style="stroke:#000000;stroke-width:0.8;" x="49.573187" xlink:href="#m0834332e27" y="242.385354"/>
      </g>
     </g>
     <g id="text_1">
      <!-- 1 -->
      <defs>
       <path d="M 12.40625 8.296875 
L 28.515625 8.296875 
L 28.515625 63.921875 
L 10.984375 60.40625 
L 10.984375 69.390625 
L 28.421875 72.90625 
L 38.28125 72.90625 
L 38.28125 8.296875 
L 54.390625 8.296875 
L 54.390625 0 
L 12.40625 0 
z
" id="DejaVuSans-31"/>
      </defs>
      <g transform="translate(44.483187 258.042854)scale(0.16 -0.16)">
       <use xlink:href="#DejaVuSans-31"/>
      </g>
     </g>
    </g>
    <g id="xtick_2">
     <g id="line2d_3">
      <g>
       <use style="stroke:#000000;stroke-width:0.8;" x="106.296464" xlink:href="#m0834332e27" y="242.385354"/>
      </g>
     </g>
     <g id="text_2">
      <!-- 21 -->
      <defs>
       <path d="M 19.1875 8.296875 
L 53.609375 8.296875 
L 53.609375 0 
L 7.328125 0 
L 7.328125 8.296875 
Q 12.9375 14.109375 22.625 23.890625 
Q 32.328125 33.6875 34.8125 36.53125 
Q 39.546875 41.84375 41.421875 45.53125 
Q 43.3125 49.21875 43.3125 52.78125 
Q 43.3125 58.59375 39.234375 62.25 
Q 35.15625 65.921875 28.609375 65.921875 
Q 23.96875 65.921875 18.8125 64.3125 
Q 13.671875 62.703125 7.8125 59.421875 
L 7.8125 69.390625 
Q 13.765625 71.78125 18.9375 73 
Q 24.125 74.21875 28.421875 74.21875 
Q 39.75 74.21875 46.484375 68.546875 
Q 53.21875 62.890625 53.21875 53.421875 
Q 53.21875 48.921875 51.53125 44.890625 
Q 49.859375 40.875 45.40625 35.40625 
Q 44.1875 33.984375 37.640625 27.21875 
Q 31.109375 20.453125 19.1875 8.296875 
z
" id="DejaVuSans-32"/>
      </defs>
      <g transform="translate(96.116464 258.042854)scale(0.16 -0.16)">
       <use xlink:href="#DejaVuSans-32"/>
       <use x="63.623047" xlink:href="#DejaVuSans-31"/>
      </g>
     </g>
    </g>
    <g id="xtick_3">
     <g id="line2d_4">
      <g>
       <use style="stroke:#000000;stroke-width:0.8;" x="163.01974" xlink:href="#m0834332e27" y="242.385354"/>
      </g>
     </g>
     <g id="text_3">
      <!-- 41 -->
      <defs>
       <path d="M 37.796875 64.3125 
L 12.890625 25.390625 
L 37.796875 25.390625 
z
M 35.203125 72.90625 
L 47.609375 72.90625 
L 47.609375 25.390625 
L 58.015625 25.390625 
L 58.015625 17.1875 
L 47.609375 17.1875 
L 47.609375 0 
L 37.796875 0 
L 37.796875 17.1875 
L 4.890625 17.1875 
L 4.890625 26.703125 
z
" id="DejaVuSans-34"/>
      </defs>
      <g transform="translate(152.83974 258.042854)scale(0.16 -0.16)">
       <use xlink:href="#DejaVuSans-34"/>
       <use x="63.623047" xlink:href="#DejaVuSans-31"/>
      </g>
     </g>
    </g>
    <g id="xtick_4">
     <g id="line2d_5">
      <g>
       <use style="stroke:#000000;stroke-width:0.8;" x="219.743017" xlink:href="#m0834332e27" y="242.385354"/>
      </g>
     </g>
     <g id="text_4">
      <!-- 61 -->
      <defs>
       <path d="M 33.015625 40.375 
Q 26.375 40.375 22.484375 35.828125 
Q 18.609375 31.296875 18.609375 23.390625 
Q 18.609375 15.53125 22.484375 10.953125 
Q 26.375 6.390625 33.015625 6.390625 
Q 39.65625 6.390625 43.53125 10.953125 
Q 47.40625 15.53125 47.40625 23.390625 
Q 47.40625 31.296875 43.53125 35.828125 
Q 39.65625 40.375 33.015625 40.375 
z
M 52.59375 71.296875 
L 52.59375 62.3125 
Q 48.875 64.0625 45.09375 64.984375 
Q 41.3125 65.921875 37.59375 65.921875 
Q 27.828125 65.921875 22.671875 59.328125 
Q 17.53125 52.734375 16.796875 39.40625 
Q 19.671875 43.65625 24.015625 45.921875 
Q 28.375 48.1875 33.59375 48.1875 
Q 44.578125 48.1875 50.953125 41.515625 
Q 57.328125 34.859375 57.328125 23.390625 
Q 57.328125 12.15625 50.6875 5.359375 
Q 44.046875 -1.421875 33.015625 -1.421875 
Q 20.359375 -1.421875 13.671875 8.265625 
Q 6.984375 17.96875 6.984375 36.375 
Q 6.984375 53.65625 15.1875 63.9375 
Q 23.390625 74.21875 37.203125 74.21875 
Q 40.921875 74.21875 44.703125 73.484375 
Q 48.484375 72.75 52.59375 71.296875 
z
" id="DejaVuSans-36"/>
      </defs>
      <g transform="translate(209.563017 258.042854)scale(0.16 -0.16)">
       <use xlink:href="#DejaVuSans-36"/>
       <use x="63.623047" xlink:href="#DejaVuSans-31"/>
      </g>
     </g>
    </g>
    <g id="xtick_5">
     <g id="line2d_6">
      <g>
       <use style="stroke:#000000;stroke-width:0.8;" x="276.466294" xlink:href="#m0834332e27" y="242.385354"/>
      </g>
     </g>
     <g id="text_5">
      <!-- 81 -->
      <defs>
       <path d="M 31.78125 34.625 
Q 24.75 34.625 20.71875 30.859375 
Q 16.703125 27.09375 16.703125 20.515625 
Q 16.703125 13.921875 20.71875 10.15625 
Q 24.75 6.390625 31.78125 6.390625 
Q 38.8125 6.390625 42.859375 10.171875 
Q 46.921875 13.96875 46.921875 20.515625 
Q 46.921875 27.09375 42.890625 30.859375 
Q 38.875 34.625 31.78125 34.625 
z
M 21.921875 38.8125 
Q 15.578125 40.375 12.03125 44.71875 
Q 8.5 49.078125 8.5 55.328125 
Q 8.5 64.0625 14.71875 69.140625 
Q 20.953125 74.21875 31.78125 74.21875 
Q 42.671875 74.21875 48.875 69.140625 
Q 55.078125 64.0625 55.078125 55.328125 
Q 55.078125 49.078125 51.53125 44.71875 
Q 48 40.375 41.703125 38.8125 
Q 48.828125 37.15625 52.796875 32.3125 
Q 56.78125 27.484375 56.78125 20.515625 
Q 56.78125 9.90625 50.3125 4.234375 
Q 43.84375 -1.421875 31.78125 -1.421875 
Q 19.734375 -1.421875 13.25 4.234375 
Q 6.78125 9.90625 6.78125 20.515625 
Q 6.78125 27.484375 10.78125 32.3125 
Q 14.796875 37.15625 21.921875 38.8125 
z
M 18.3125 54.390625 
Q 18.3125 48.734375 21.84375 45.5625 
Q 25.390625 42.390625 31.78125 42.390625 
Q 38.140625 42.390625 41.71875 45.5625 
Q 45.3125 48.734375 45.3125 54.390625 
Q 45.3125 60.0625 41.71875 63.234375 
Q 38.140625 66.40625 31.78125 66.40625 
Q 25.390625 66.40625 21.84375 63.234375 
Q 18.3125 60.0625 18.3125 54.390625 
z
" id="DejaVuSans-38"/>
      </defs>
      <g transform="translate(266.286294 258.042854)scale(0.16 -0.16)">
       <use xlink:href="#DejaVuSans-38"/>
       <use x="63.623047" xlink:href="#DejaVuSans-31"/>
      </g>
     </g>
    </g>
    <g id="xtick_6">
     <g id="line2d_7">
      <g>
       <use style="stroke:#000000;stroke-width:0.8;" x="333.18957" xlink:href="#m0834332e27" y="242.385354"/>
      </g>
     </g>
     <g id="text_6">
      <!-- 101 -->
      <defs>
       <path d="M 31.78125 66.40625 
Q 24.171875 66.40625 20.328125 58.90625 
Q 16.5 51.421875 16.5 36.375 
Q 16.5 21.390625 20.328125 13.890625 
Q 24.171875 6.390625 31.78125 6.390625 
Q 39.453125 6.390625 43.28125 13.890625 
Q 47.125 21.390625 47.125 36.375 
Q 47.125 51.421875 43.28125 58.90625 
Q 39.453125 66.40625 31.78125 66.40625 
z
M 31.78125 74.21875 
Q 44.046875 74.21875 50.515625 64.515625 
Q 56.984375 54.828125 56.984375 36.375 
Q 56.984375 17.96875 50.515625 8.265625 
Q 44.046875 -1.421875 31.78125 -1.421875 
Q 19.53125 -1.421875 13.0625 8.265625 
Q 6.59375 17.96875 6.59375 36.375 
Q 6.59375 54.828125 13.0625 64.515625 
Q 19.53125 74.21875 31.78125 74.21875 
z
" id="DejaVuSans-30"/>
      </defs>
      <g transform="translate(317.91957 258.042854)scale(0.16 -0.16)">
       <use xlink:href="#DejaVuSans-31"/>
       <use x="63.623047" xlink:href="#DejaVuSans-30"/>
       <use x="127.246094" xlink:href="#DejaVuSans-31"/>
      </g>
     </g>
    </g>
    <g id="xtick_7">
     <g id="line2d_8">
      <g>
       <use style="stroke:#000000;stroke-width:0.8;" x="389.912847" xlink:href="#m0834332e27" y="242.385354"/>
      </g>
     </g>
     <g id="text_7">
      <!-- 121 -->
      <g transform="translate(374.642847 258.042854)scale(0.16 -0.16)">
       <use xlink:href="#DejaVuSans-31"/>
       <use x="63.623047" xlink:href="#DejaVuSans-32"/>
       <use x="127.246094" xlink:href="#DejaVuSans-31"/>
      </g>
     </g>
    </g>
    <g id="text_8">
     <!-- Residue # -->
     <defs>
      <path d="M 44.390625 34.1875 
Q 47.5625 33.109375 50.5625 29.59375 
Q 53.5625 26.078125 56.59375 19.921875 
L 66.609375 0 
L 56 0 
L 46.6875 18.703125 
Q 43.0625 26.03125 39.671875 28.421875 
Q 36.28125 30.8125 30.421875 30.8125 
L 19.671875 30.8125 
L 19.671875 0 
L 9.8125 0 
L 9.8125 72.90625 
L 32.078125 72.90625 
Q 44.578125 72.90625 50.734375 67.671875 
Q 56.890625 62.453125 56.890625 51.90625 
Q 56.890625 45.015625 53.6875 40.46875 
Q 50.484375 35.9375 44.390625 34.1875 
z
M 19.671875 64.796875 
L 19.671875 38.921875 
L 32.078125 38.921875 
Q 39.203125 38.921875 42.84375 42.21875 
Q 46.484375 45.515625 46.484375 51.90625 
Q 46.484375 58.296875 42.84375 61.546875 
Q 39.203125 64.796875 32.078125 64.796875 
z
" id="DejaVuSans-52"/>
      <path d="M 56.203125 29.59375 
L 56.203125 25.203125 
L 14.890625 25.203125 
Q 15.484375 15.921875 20.484375 11.0625 
Q 25.484375 6.203125 34.421875 6.203125 
Q 39.59375 6.203125 44.453125 7.46875 
Q 49.3125 8.734375 54.109375 11.28125 
L 54.109375 2.78125 
Q 49.265625 0.734375 44.1875 -0.34375 
Q 39.109375 -1.421875 33.890625 -1.421875 
Q 20.796875 -1.421875 13.15625 6.1875 
Q 5.515625 13.8125 5.515625 26.8125 
Q 5.515625 40.234375 12.765625 48.109375 
Q 20.015625 56 32.328125 56 
Q 43.359375 56 49.78125 48.890625 
Q 56.203125 41.796875 56.203125 29.59375 
z
M 47.21875 32.234375 
Q 47.125 39.59375 43.09375 43.984375 
Q 39.0625 48.390625 32.421875 48.390625 
Q 24.90625 48.390625 20.390625 44.140625 
Q 15.875 39.890625 15.1875 32.171875 
z
" id="DejaVuSans-65"/>
      <path d="M 44.28125 53.078125 
L 44.28125 44.578125 
Q 40.484375 46.53125 36.375 47.5 
Q 32.28125 48.484375 27.875 48.484375 
Q 21.1875 48.484375 17.84375 46.4375 
Q 14.5 44.390625 14.5 40.28125 
Q 14.5 37.15625 16.890625 35.375 
Q 19.28125 33.59375 26.515625 31.984375 
L 29.59375 31.296875 
Q 39.15625 29.25 43.1875 25.515625 
Q 47.21875 21.78125 47.21875 15.09375 
Q 47.21875 7.46875 41.1875 3.015625 
Q 35.15625 -1.421875 24.609375 -1.421875 
Q 20.21875 -1.421875 15.453125 -0.5625 
Q 10.6875 0.296875 5.421875 2 
L 5.421875 11.28125 
Q 10.40625 8.6875 15.234375 7.390625 
Q 20.0625 6.109375 24.8125 6.109375 
Q 31.15625 6.109375 34.5625 8.28125 
Q 37.984375 10.453125 37.984375 14.40625 
Q 37.984375 18.0625 35.515625 20.015625 
Q 33.0625 21.96875 24.703125 23.78125 
L 21.578125 24.515625 
Q 13.234375 26.265625 9.515625 29.90625 
Q 5.8125 33.546875 5.8125 39.890625 
Q 5.8125 47.609375 11.28125 51.796875 
Q 16.75 56 26.8125 56 
Q 31.78125 56 36.171875 55.265625 
Q 40.578125 54.546875 44.28125 53.078125 
z
" id="DejaVuSans-73"/>
      <path d="M 9.421875 54.6875 
L 18.40625 54.6875 
L 18.40625 0 
L 9.421875 0 
z
M 9.421875 75.984375 
L 18.40625 75.984375 
L 18.40625 64.59375 
L 9.421875 64.59375 
z
" id="DejaVuSans-69"/>
      <path d="M 45.40625 46.390625 
L 45.40625 75.984375 
L 54.390625 75.984375 
L 54.390625 0 
L 45.40625 0 
L 45.40625 8.203125 
Q 42.578125 3.328125 38.25 0.953125 
Q 33.9375 -1.421875 27.875 -1.421875 
Q 17.96875 -1.421875 11.734375 6.484375 
Q 5.515625 14.40625 5.515625 27.296875 
Q 5.515625 40.1875 11.734375 48.09375 
Q 17.96875 56 27.875 56 
Q 33.9375 56 38.25 53.625 
Q 42.578125 51.265625 45.40625 46.390625 
z
M 14.796875 27.296875 
Q 14.796875 17.390625 18.875 11.75 
Q 22.953125 6.109375 30.078125 6.109375 
Q 37.203125 6.109375 41.296875 11.75 
Q 45.40625 17.390625 45.40625 27.296875 
Q 45.40625 37.203125 41.296875 42.84375 
Q 37.203125 48.484375 30.078125 48.484375 
Q 22.953125 48.484375 18.875 42.84375 
Q 14.796875 37.203125 14.796875 27.296875 
z
" id="DejaVuSans-64"/>
      <path d="M 8.5 21.578125 
L 8.5 54.6875 
L 17.484375 54.6875 
L 17.484375 21.921875 
Q 17.484375 14.15625 20.5 10.265625 
Q 23.53125 6.390625 29.59375 6.390625 
Q 36.859375 6.390625 41.078125 11.03125 
Q 45.3125 15.671875 45.3125 23.6875 
L 45.3125 54.6875 
L 54.296875 54.6875 
L 54.296875 0 
L 45.3125 0 
L 45.3125 8.40625 
Q 42.046875 3.421875 37.71875 1 
Q 33.40625 -1.421875 27.6875 -1.421875 
Q 18.265625 -1.421875 13.375 4.4375 
Q 8.5 10.296875 8.5 21.578125 
z
M 31.109375 56 
z
" id="DejaVuSans-75"/>
      <path id="DejaVuSans-20"/>
      <path d="M 51.125 44 
L 36.921875 44 
L 32.8125 27.6875 
L 47.125 27.6875 
z
M 43.796875 71.78125 
L 38.71875 51.515625 
L 52.984375 51.515625 
L 58.109375 71.78125 
L 65.921875 71.78125 
L 60.890625 51.515625 
L 76.125 51.515625 
L 76.125 44 
L 58.984375 44 
L 54.984375 27.6875 
L 70.515625 27.6875 
L 70.515625 20.21875 
L 53.078125 20.21875 
L 48 0 
L 40.1875 0 
L 45.21875 20.21875 
L 30.90625 20.21875 
L 25.875 0 
L 18.015625 0 
L 23.09375 20.21875 
L 7.71875 20.21875 
L 7.71875 27.6875 
L 24.90625 27.6875 
L 29 44 
L 13.28125 44 
L 13.28125 51.515625 
L 30.90625 51.515625 
L 35.890625 71.78125 
z
" id="DejaVuSans-23"/>
     </defs>
     <g transform="translate(185.280312 280.567229)scale(0.2 -0.2)">
      <use xlink:href="#DejaVuSans-52"/>
      <use x="69.419922" xlink:href="#DejaVuSans-65"/>
      <use x="130.943359" xlink:href="#DejaVuSans-73"/>
      <use x="183.042969" xlink:href="#DejaVuSans-69"/>
      <use x="210.826172" xlink:href="#DejaVuSans-64"/>
      <use x="274.302734" xlink:href="#DejaVuSans-75"/>
      <use x="337.681641" xlink:href="#DejaVuSans-65"/>
      <use x="399.205078" xlink:href="#DejaVuSans-20"/>
      <use x="430.992188" xlink:href="#DejaVuSans-23"/>
     </g>
    </g>
   </g>
   <g id="matplotlib.axis_2">
    <g id="ytick_1">
     <g id="line2d_9">
      <defs>
       <path d="M 0 0 
L 3.5 0 
" id="mfdbb600369" style="stroke:#000000;stroke-width:0.8;"/>
      </defs>
      <g>
       <use style="stroke:#000000;stroke-width:0.8;" x="44.354646" xlink:href="#mfdbb600369" y="242.385354"/>
      </g>
     </g>
     <g id="text_9">
      <!-- 0 -->
      <g transform="translate(30.674646 248.464104)scale(0.16 -0.16)">
       <use xlink:href="#DejaVuSans-30"/>
      </g>
     </g>
    </g>
    <g id="ytick_2">
     <g id="line2d_10">
      <g>
       <use style="stroke:#000000;stroke-width:0.8;" x="44.354646" xlink:href="#mfdbb600369" y="179.345694"/>
      </g>
     </g>
     <g id="text_10">
      <!-- 1 -->
      <g transform="translate(30.674646 185.424444)scale(0.16 -0.16)">
       <use xlink:href="#DejaVuSans-31"/>
      </g>
     </g>
    </g>
    <g id="ytick_3">
     <g id="line2d_11">
      <g>
       <use style="stroke:#000000;stroke-width:0.8;" x="44.354646" xlink:href="#mfdbb600369" y="116.306034"/>
      </g>
     </g>
     <g id="text_11">
      <!-- 2 -->
      <g transform="translate(30.674646 122.384784)scale(0.16 -0.16)">
       <use xlink:href="#DejaVuSans-32"/>
      </g>
     </g>
    </g>
    <g id="ytick_4">
     <g id="line2d_12">
      <g>
       <use style="stroke:#000000;stroke-width:0.8;" x="44.354646" xlink:href="#mfdbb600369" y="53.266374"/>
      </g>
     </g>
     <g id="text_12">
      <!-- 3 -->
      <defs>
       <path d="M 40.578125 39.3125 
Q 47.65625 37.796875 51.625 33 
Q 55.609375 28.21875 55.609375 21.1875 
Q 55.609375 10.40625 48.1875 4.484375 
Q 40.765625 -1.421875 27.09375 -1.421875 
Q 22.515625 -1.421875 17.65625 -0.515625 
Q 12.796875 0.390625 7.625 2.203125 
L 7.625 11.71875 
Q 11.71875 9.328125 16.59375 8.109375 
Q 21.484375 6.890625 26.8125 6.890625 
Q 36.078125 6.890625 40.9375 10.546875 
Q 45.796875 14.203125 45.796875 21.1875 
Q 45.796875 27.640625 41.28125 31.265625 
Q 36.765625 34.90625 28.71875 34.90625 
L 20.21875 34.90625 
L 20.21875 43.015625 
L 29.109375 43.015625 
Q 36.375 43.015625 40.234375 45.921875 
Q 44.09375 48.828125 44.09375 54.296875 
Q 44.09375 59.90625 40.109375 62.90625 
Q 36.140625 65.921875 28.71875 65.921875 
Q 24.65625 65.921875 20.015625 65.03125 
Q 15.375 64.15625 9.8125 62.3125 
L 9.8125 71.09375 
Q 15.4375 72.65625 20.34375 73.4375 
Q 25.25 74.21875 29.59375 74.21875 
Q 40.828125 74.21875 47.359375 69.109375 
Q 53.90625 64.015625 53.90625 55.328125 
Q 53.90625 49.265625 50.4375 45.09375 
Q 46.96875 40.921875 40.578125 39.3125 
z
" id="DejaVuSans-33"/>
      </defs>
      <g transform="translate(30.674646 59.345124)scale(0.16 -0.16)">
       <use xlink:href="#DejaVuSans-33"/>
      </g>
     </g>
    </g>
    <g id="text_13">
     <!-- Fluctuation $[\AA]$ -->
     <defs>
      <path d="M 9.8125 72.90625 
L 51.703125 72.90625 
L 51.703125 64.59375 
L 19.671875 64.59375 
L 19.671875 43.109375 
L 48.578125 43.109375 
L 48.578125 34.8125 
L 19.671875 34.8125 
L 19.671875 0 
L 9.8125 0 
z
" id="DejaVuSans-46"/>
      <path d="M 9.421875 75.984375 
L 18.40625 75.984375 
L 18.40625 0 
L 9.421875 0 
z
" id="DejaVuSans-6c"/>
      <path d="M 48.78125 52.59375 
L 48.78125 44.1875 
Q 44.96875 46.296875 41.140625 47.34375 
Q 37.3125 48.390625 33.40625 48.390625 
Q 24.65625 48.390625 19.8125 42.84375 
Q 14.984375 37.3125 14.984375 27.296875 
Q 14.984375 17.28125 19.8125 11.734375 
Q 24.65625 6.203125 33.40625 6.203125 
Q 37.3125 6.203125 41.140625 7.25 
Q 44.96875 8.296875 48.78125 10.40625 
L 48.78125 2.09375 
Q 45.015625 0.34375 40.984375 -0.53125 
Q 36.96875 -1.421875 32.421875 -1.421875 
Q 20.0625 -1.421875 12.78125 6.34375 
Q 5.515625 14.109375 5.515625 27.296875 
Q 5.515625 40.671875 12.859375 48.328125 
Q 20.21875 56 33.015625 56 
Q 37.15625 56 41.109375 55.140625 
Q 45.0625 54.296875 48.78125 52.59375 
z
" id="DejaVuSans-63"/>
      <path d="M 18.3125 70.21875 
L 18.3125 54.6875 
L 36.8125 54.6875 
L 36.8125 47.703125 
L 18.3125 47.703125 
L 18.3125 18.015625 
Q 18.3125 11.328125 20.140625 9.421875 
Q 21.96875 7.515625 27.59375 7.515625 
L 36.8125 7.515625 
L 36.8125 0 
L 27.59375 0 
Q 17.1875 0 13.234375 3.875 
Q 9.28125 7.765625 9.28125 18.015625 
L 9.28125 47.703125 
L 2.6875 47.703125 
L 2.6875 54.6875 
L 9.28125 54.6875 
L 9.28125 70.21875 
z
" id="DejaVuSans-74"/>
      <path d="M 34.28125 27.484375 
Q 23.390625 27.484375 19.1875 25 
Q 14.984375 22.515625 14.984375 16.5 
Q 14.984375 11.71875 18.140625 8.90625 
Q 21.296875 6.109375 26.703125 6.109375 
Q 34.1875 6.109375 38.703125 11.40625 
Q 43.21875 16.703125 43.21875 25.484375 
L 43.21875 27.484375 
z
M 52.203125 31.203125 
L 52.203125 0 
L 43.21875 0 
L 43.21875 8.296875 
Q 40.140625 3.328125 35.546875 0.953125 
Q 30.953125 -1.421875 24.3125 -1.421875 
Q 15.921875 -1.421875 10.953125 3.296875 
Q 6 8.015625 6 15.921875 
Q 6 25.140625 12.171875 29.828125 
Q 18.359375 34.515625 30.609375 34.515625 
L 43.21875 34.515625 
L 43.21875 35.40625 
Q 43.21875 41.609375 39.140625 45 
Q 35.0625 48.390625 27.6875 48.390625 
Q 23 48.390625 18.546875 47.265625 
Q 14.109375 46.140625 10.015625 43.890625 
L 10.015625 52.203125 
Q 14.9375 54.109375 19.578125 55.046875 
Q 24.21875 56 28.609375 56 
Q 40.484375 56 46.34375 49.84375 
Q 52.203125 43.703125 52.203125 31.203125 
z
" id="DejaVuSans-61"/>
      <path d="M 30.609375 48.390625 
Q 23.390625 48.390625 19.1875 42.75 
Q 14.984375 37.109375 14.984375 27.296875 
Q 14.984375 17.484375 19.15625 11.84375 
Q 23.34375 6.203125 30.609375 6.203125 
Q 37.796875 6.203125 41.984375 11.859375 
Q 46.1875 17.53125 46.1875 27.296875 
Q 46.1875 37.015625 41.984375 42.703125 
Q 37.796875 48.390625 30.609375 48.390625 
z
M 30.609375 56 
Q 42.328125 56 49.015625 48.375 
Q 55.71875 40.765625 55.71875 27.296875 
Q 55.71875 13.875 49.015625 6.21875 
Q 42.328125 -1.421875 30.609375 -1.421875 
Q 18.84375 -1.421875 12.171875 6.21875 
Q 5.515625 13.875 5.515625 27.296875 
Q 5.515625 40.765625 12.171875 48.375 
Q 18.84375 56 30.609375 56 
z
" id="DejaVuSans-6f"/>
      <path d="M 54.890625 33.015625 
L 54.890625 0 
L 45.90625 0 
L 45.90625 32.71875 
Q 45.90625 40.484375 42.875 44.328125 
Q 39.84375 48.1875 33.796875 48.1875 
Q 26.515625 48.1875 22.3125 43.546875 
Q 18.109375 38.921875 18.109375 30.90625 
L 18.109375 0 
L 9.078125 0 
L 9.078125 54.6875 
L 18.109375 54.6875 
L 18.109375 46.1875 
Q 21.34375 51.125 25.703125 53.5625 
Q 30.078125 56 35.796875 56 
Q 45.21875 56 50.046875 50.171875 
Q 54.890625 44.34375 54.890625 33.015625 
z
" id="DejaVuSans-6e"/>
      <path d="M 8.59375 75.984375 
L 29.296875 75.984375 
L 29.296875 69 
L 17.578125 69 
L 17.578125 -6.203125 
L 29.296875 -6.203125 
L 29.296875 -13.1875 
L 8.59375 -13.1875 
z
" id="DejaVuSans-5b"/>
      <path d="M 49.8125 79.390625 
Q 49.8125 82.46875 47.625 84.640625 
Q 45.453125 86.8125 42.390625 86.8125 
Q 39.265625 86.8125 37.140625 84.6875 
Q 35.015625 82.5625 35.015625 79.390625 
Q 35.015625 76.3125 37.140625 74.15625 
Q 39.265625 72.015625 42.390625 72.015625 
Q 45.453125 72.015625 47.625 74.15625 
Q 49.8125 76.3125 49.8125 79.390625 
z
M 34.421875 68.703125 
Q 31.78125 70.515625 30.390625 73.265625 
Q 29 76.03125 29 79.390625 
Q 29 84.96875 32.90625 88.890625 
Q 36.8125 92.828125 42.390625 92.828125 
Q 47.953125 92.828125 51.875 88.890625 
Q 55.8125 84.96875 55.8125 79.390625 
Q 55.8125 75.53125 54.03125 72.546875 
Q 52.25 69.578125 48.875 67.828125 
L 61.53125 0 
L 51.21875 0 
L 48.1875 18.703125 
L 15.375 18.703125 
L 5.078125 0 
L -5.328125 0 
z
M 40.375 63.1875 
L 19.921875 26.90625 
L 46.6875 26.90625 
z
" id="DejaVuSans-Oblique-c5"/>
      <path d="M 30.421875 75.984375 
L 30.421875 -13.1875 
L 9.71875 -13.1875 
L 9.71875 -6.203125 
L 21.390625 -6.203125 
L 21.390625 69 
L 9.71875 69 
L 9.71875 75.984375 
z
" id="DejaVuSans-5d"/>
     </defs>
     <g transform="translate(22.515271 196.41)rotate(-90)scale(0.2 -0.2)">
      <use transform="translate(0 0.171875)" xlink:href="#DejaVuSans-46"/>
      <use transform="translate(57.519531 0.171875)" xlink:href="#DejaVuSans-6c"/>
      <use transform="translate(85.302734 0.171875)" xlink:href="#DejaVuSans-75"/>
      <use transform="translate(148.681641 0.171875)" xlink:href="#DejaVuSans-63"/>
      <use transform="translate(203.662109 0.171875)" xlink:href="#DejaVuSans-74"/>
      <use transform="translate(242.871094 0.171875)" xlink:href="#DejaVuSans-75"/>
      <use transform="translate(306.25 0.171875)" xlink:href="#DejaVuSans-61"/>
      <use transform="translate(367.529297 0.171875)" xlink:href="#DejaVuSans-74"/>
      <use transform="translate(406.738281 0.171875)" xlink:href="#DejaVuSans-69"/>
      <use transform="translate(434.521484 0.171875)" xlink:href="#DejaVuSans-6f"/>
      <use transform="translate(495.703125 0.171875)" xlink:href="#DejaVuSans-6e"/>
      <use transform="translate(559.082031 0.171875)" xlink:href="#DejaVuSans-20"/>
      <use transform="translate(590.869141 0.171875)" xlink:href="#DejaVuSans-5b"/>
      <use transform="translate(629.882812 0.171875)" xlink:href="#DejaVuSans-Oblique-c5"/>
      <use transform="translate(698.291016 0.171875)" xlink:href="#DejaVuSans-5d"/>
     </g>
    </g>
   </g>
   <g id="line2d_13">
    <path clip-path="url(#p5967e2809d)" d="M 66.59017 212.926921 
L 69.426334 215.416988 
L 72.262498 211.231154 
L 75.098662 211.332018 
L 77.934825 212.126317 
L 80.770989 213.721221 
L 83.607153 212.939529 
L 86.443317 214.118371 
L 89.279481 203.855514 
L 92.115645 203.565532 
L 94.951808 209.087806 
L 97.787972 205.601713 
L 100.624136 199.928143 
L 103.4603 196.536609 
L 106.296464 189.394216 
L 109.132628 182.270734 
L 111.968791 184.458211 
L 114.804955 167.651837 
L 117.641119 167.538366 
L 120.477283 159.601673 
L 123.313447 173.634301 
L 126.149611 188.20907 
L 128.985774 173.684733 
L 131.821938 174.195354 
L 134.658102 190.314595 
L 137.494266 188.725996 
L 140.33043 194.008719 
L 143.166594 208.911295 
L 146.002757 204.738069 
L 148.838921 211.395057 
L 151.675085 208.904991 
L 154.511249 205.721488 
L 157.347413 207.410951 
L 160.183577 207.587462 
L 163.01974 199.776848 
L 165.855904 198.036953 
L 168.692068 185.933339 
L 171.528232 173.627997 
L 174.364396 191.587996 
L 177.20056 205.217171 
L 180.036723 210.203608 
L 182.872887 205.790832 
L 185.709051 206.528396 
L 188.545215 204.466999 
L 191.381379 204.618294 
L 194.217543 203.615963 
L 197.053706 203.489884 
L 199.88987 194.260878 
L 202.726034 174.800535 
L 205.562198 174.989654 
L 208.398362 183.065034 
L 211.234526 186.450264 
L 214.070689 197.854138 
L 216.906853 200.325293 
L 219.743017 204.64351 
L 222.579181 207.713541 
L 225.415345 209.976665 
L 228.251509 211.792207 
L 231.087672 207.152488 
L 233.923836 205.046964 
L 236.76 206.698603 
L 239.596164 207.076841 
L 242.432328 199.499474 
L 245.268491 202.891007 
L 248.104655 198.705174 
L 250.940819 188.858379 
L 253.776983 169.385428 
L 256.613147 157.199862 
L 259.449311 162.589752 
L 262.285474 184.962528 
L 265.121638 195.862085 
L 267.957802 200.905258 
L 270.793966 207.60007 
L 273.63013 190.743265 
L 276.466294 211.71656 
L 279.302457 216.299543 
L 282.138621 214.080547 
L 284.974785 202.827968 
L 287.810949 182.945259 
L 290.647113 157.723091 
L 293.483277 161.366783 
L 296.31944 197.438077 
L 299.155604 212.536075 
L 301.991768 214.433569 
L 304.827932 202.68928 
L 307.664096 205.324338 
L 310.50026 205.002836 
L 313.336423 205.267602 
L 316.172587 196.391618 
L 319.008751 178.980064 
L 321.844915 158.876716 
L 324.681079 162.482585 
L 327.517243 186.204409 
L 330.353406 194.443693 
L 333.18957 202.033668 
L 336.025734 205.954735 
L 338.861898 209.176061 
L 341.698062 208.879775 
L 344.534226 213.424934 
L 347.370389 210.058617 
L 350.206553 208.955423 
L 353.042717 200.350509 
L 355.878881 186.147673 
L 358.715045 176.546733 
L 361.551209 187.471506 
L 364.387372 209.705594 
L 367.223536 214.786591 
L 370.0597 213.538406 
L 372.895864 214.597472 
L 375.732028 216.16716 
L 378.568192 211.28789 
L 381.404355 211.105075 
L 384.240519 206.780554 
L 387.076683 195.641446 
L 389.912847 183.15329 
L 392.749011 207.13988 
L 395.585175 210.871828 
L 398.421338 217.245138 
L 401.257502 216.766036 
L 404.093666 217.093843 
" style="fill:none;stroke:#ff0000;stroke-linecap:round;"/>
   </g>
   <g id="patch_3">
    <path d="M 44.354646 242.385354 
L 44.354646 2.834646 
" style="fill:none;stroke:#000000;stroke-linecap:square;stroke-linejoin:miter;"/>
   </g>
   <g id="patch_4">
    <path d="M 44.354646 242.385354 
L 429.165354 242.385354 
" style="fill:none;stroke:#000000;stroke-linecap:square;stroke-linejoin:miter;"/>
   </g>
   <g id="line2d_14">
    <path clip-path="url(#p5967e2809d)" d="M 83.607153 236.081388 
L 86.443317 236.081388 
L 89.279481 236.081388 
L 92.115645 236.081388 
L 94.951808 236.081388 
L 97.787972 236.081388 
L 100.624136 236.081388 
L 103.4603 236.081388 
L 106.296464 236.081388 
" style="fill:none;stroke:#000000;stroke-linecap:round;stroke-width:5;"/>
   </g>
   <g id="line2d_15">
    <path clip-path="url(#p5967e2809d)" d="M 114.804955 236.081388 
L 117.641119 236.081388 
L 120.477283 236.081388 
L 123.313447 236.081388 
L 126.149611 236.081388 
L 128.985774 236.081388 
L 131.821938 236.081388 
L 134.658102 236.081388 
L 137.494266 236.081388 
L 140.33043 236.081388 
" style="fill:none;stroke:#000000;stroke-linecap:round;stroke-width:5;"/>
   </g>
   <g id="PathCollection_1">
    <defs>
     <path d="M 0 0.5 
C 0.132602 0.5 0.25979 0.447317 0.353553 0.353553 
C 0.447317 0.25979 0.5 0.132602 0.5 0 
C 0.5 -0.132602 0.447317 -0.25979 0.353553 -0.353553 
C 0.25979 -0.447317 0.132602 -0.5 0 -0.5 
C -0.132602 -0.5 -0.25979 -0.447317 -0.353553 -0.353553 
C -0.447317 -0.25979 -0.5 -0.132602 -0.5 0 
C -0.5 0.132602 -0.447317 0.25979 -0.353553 0.353553 
C -0.25979 0.447317 -0.132602 0.5 0 0.5 
z
" id="m1d98028d4e" style="stroke:#000000;"/>
    </defs>
    <g clip-path="url(#p5967e2809d)">
     <use style="fill:#ac8e18;stroke:#000000;" x="55.245515" xlink:href="#m1d98028d4e" y="236.081388"/>
     <use style="fill:#ac8e18;stroke:#000000;" x="58.081679" xlink:href="#m1d98028d4e" y="236.081388"/>
     <use style="fill:#ac8e18;stroke:#000000;" x="60.917842" xlink:href="#m1d98028d4e" y="236.081388"/>
     <use style="fill:#ac8e18;stroke:#000000;" x="63.754006" xlink:href="#m1d98028d4e" y="236.081388"/>
     <use style="fill:#ac8e18;stroke:#000000;" x="66.59017" xlink:href="#m1d98028d4e" y="236.081388"/>
     <use style="fill:#ac8e18;stroke:#000000;" x="69.426334" xlink:href="#m1d98028d4e" y="236.081388"/>
     <use style="fill:#ac8e18;stroke:#000000;" x="72.262498" xlink:href="#m1d98028d4e" y="236.081388"/>
     <use style="fill:#ac8e18;stroke:#000000;" x="75.098662" xlink:href="#m1d98028d4e" y="236.081388"/>
     <use style="fill:#ac8e18;stroke:#000000;" x="77.934825" xlink:href="#m1d98028d4e" y="236.081388"/>
     <use style="fill:#ac8e18;stroke:#000000;" x="80.770989" xlink:href="#m1d98028d4e" y="236.081388"/>
    </g>
   </g>
   <g id="PathCollection_2">
    <defs>
     <path d="M 0 0.5 
C 0.132602 0.5 0.25979 0.447317 0.353553 0.353553 
C 0.447317 0.25979 0.5 0.132602 0.5 0 
C 0.5 -0.132602 0.447317 -0.25979 0.353553 -0.353553 
C 0.25979 -0.447317 0.132602 -0.5 0 -0.5 
C -0.132602 -0.5 -0.25979 -0.447317 -0.353553 -0.353553 
C -0.447317 -0.25979 -0.5 -0.132602 -0.5 0 
C -0.5 0.132602 -0.447317 0.25979 -0.353553 0.353553 
C -0.25979 0.447317 -0.132602 0.5 0 0.5 
z
" id="m9d4cbf78bd" style="stroke:#000000;"/>
    </defs>
    <g clip-path="url(#p5967e2809d)">
     <use style="fill:#00aaae;stroke:#000000;" x="143.166594" xlink:href="#m9d4cbf78bd" y="236.081388"/>
     <use style="fill:#00aaae;stroke:#000000;" x="146.002757" xlink:href="#m9d4cbf78bd" y="236.081388"/>
     <use style="fill:#00aaae;stroke:#000000;" x="148.838921" xlink:href="#m9d4cbf78bd" y="236.081388"/>
     <use style="fill:#00aaae;stroke:#000000;" x="151.675085" xlink:href="#m9d4cbf78bd" y="236.081388"/>
     <use style="fill:#00aaae;stroke:#000000;" x="154.511249" xlink:href="#m9d4cbf78bd" y="236.081388"/>
     <use style="fill:#00aaae;stroke:#000000;" x="157.347413" xlink:href="#m9d4cbf78bd" y="236.081388"/>
     <use style="fill:#00aaae;stroke:#000000;" x="160.183577" xlink:href="#m9d4cbf78bd" y="236.081388"/>
     <use style="fill:#00aaae;stroke:#000000;" x="163.01974" xlink:href="#m9d4cbf78bd" y="236.081388"/>
     <use style="fill:#00aaae;stroke:#000000;" x="165.855904" xlink:href="#m9d4cbf78bd" y="236.081388"/>
     <use style="fill:#00aaae;stroke:#000000;" x="168.692068" xlink:href="#m9d4cbf78bd" y="236.081388"/>
    </g>
   </g>
   <g id="PathCollection_3">
    <defs>
     <path d="M 0 0.5 
C 0.132602 0.5 0.25979 0.447317 0.353553 0.353553 
C 0.447317 0.25979 0.5 0.132602 0.5 0 
C 0.5 -0.132602 0.447317 -0.25979 0.353553 -0.353553 
C 0.25979 -0.447317 0.132602 -0.5 0 -0.5 
C -0.132602 -0.5 -0.25979 -0.447317 -0.353553 -0.353553 
C -0.447317 -0.25979 -0.5 -0.132602 -0.5 0 
C -0.5 0.132602 -0.447317 0.25979 -0.353553 0.353553 
C -0.25979 0.447317 -0.132602 0.5 0 0.5 
z
" id="m21d4b83bf7" style="stroke:#000000;"/>
    </defs>
    <g clip-path="url(#p5967e2809d)">
     <use style="fill:#ed5e93;stroke:#000000;" x="177.20056" xlink:href="#m21d4b83bf7" y="236.081388"/>
     <use style="fill:#ed5e93;stroke:#000000;" x="180.036723" xlink:href="#m21d4b83bf7" y="236.081388"/>
     <use style="fill:#ed5e93;stroke:#000000;" x="182.872887" xlink:href="#m21d4b83bf7" y="236.081388"/>
     <use style="fill:#ed5e93;stroke:#000000;" x="185.709051" xlink:href="#m21d4b83bf7" y="236.081388"/>
     <use style="fill:#ed5e93;stroke:#000000;" x="188.545215" xlink:href="#m21d4b83bf7" y="236.081388"/>
     <use style="fill:#ed5e93;stroke:#000000;" x="191.381379" xlink:href="#m21d4b83bf7" y="236.081388"/>
     <use style="fill:#ed5e93;stroke:#000000;" x="194.217543" xlink:href="#m21d4b83bf7" y="236.081388"/>
     <use style="fill:#ed5e93;stroke:#000000;" x="197.053706" xlink:href="#m21d4b83bf7" y="236.081388"/>
    </g>
   </g>
   <g id="PathCollection_4">
    <defs>
     <path d="M 0 0.5 
C 0.132602 0.5 0.25979 0.447317 0.353553 0.353553 
C 0.447317 0.25979 0.5 0.132602 0.5 0 
C 0.5 -0.132602 0.447317 -0.25979 0.353553 -0.353553 
C 0.25979 -0.447317 0.132602 -0.5 0 -0.5 
C -0.132602 -0.5 -0.25979 -0.447317 -0.353553 -0.353553 
C -0.447317 -0.25979 -0.5 -0.132602 -0.5 0 
C -0.5 0.132602 -0.447317 0.25979 -0.353553 0.353553 
C -0.25979 0.447317 -0.132602 0.5 0 0.5 
z
" id="me9196aba2d" style="stroke:#000000;"/>
    </defs>
    <g clip-path="url(#p5967e2809d)">
     <use style="fill:#c68225;stroke:#000000;" x="202.726034" xlink:href="#me9196aba2d" y="236.081388"/>
     <use style="fill:#c68225;stroke:#000000;" x="205.562198" xlink:href="#me9196aba2d" y="236.081388"/>
     <use style="fill:#c68225;stroke:#000000;" x="208.398362" xlink:href="#me9196aba2d" y="236.081388"/>
     <use style="fill:#c68225;stroke:#000000;" x="211.234526" xlink:href="#me9196aba2d" y="236.081388"/>
     <use style="fill:#c68225;stroke:#000000;" x="214.070689" xlink:href="#me9196aba2d" y="236.081388"/>
     <use style="fill:#c68225;stroke:#000000;" x="216.906853" xlink:href="#me9196aba2d" y="236.081388"/>
     <use style="fill:#c68225;stroke:#000000;" x="219.743017" xlink:href="#me9196aba2d" y="236.081388"/>
     <use style="fill:#c68225;stroke:#000000;" x="222.579181" xlink:href="#me9196aba2d" y="236.081388"/>
     <use style="fill:#c68225;stroke:#000000;" x="225.415345" xlink:href="#me9196aba2d" y="236.081388"/>
    </g>
   </g>
   <g id="PathCollection_5">
    <defs>
     <path d="M 0 0.5 
C 0.132602 0.5 0.25979 0.447317 0.353553 0.353553 
C 0.447317 0.25979 0.5 0.132602 0.5 0 
C 0.5 -0.132602 0.447317 -0.25979 0.353553 -0.353553 
C 0.25979 -0.447317 0.132602 -0.5 0 -0.5 
C -0.132602 -0.5 -0.25979 -0.447317 -0.353553 -0.353553 
C -0.447317 -0.25979 -0.5 -0.132602 -0.5 0 
C -0.5 0.132602 -0.447317 0.25979 -0.353553 0.353553 
C -0.25979 0.447317 -0.132602 0.5 0 0.5 
z
" id="m193ca9b858" style="stroke:#000000;"/>
    </defs>
    <g clip-path="url(#p5967e2809d)">
     <use style="fill:#00a98d;stroke:#000000;" x="236.76" xlink:href="#m193ca9b858" y="236.081388"/>
     <use style="fill:#00a98d;stroke:#000000;" x="239.596164" xlink:href="#m193ca9b858" y="236.081388"/>
     <use style="fill:#00a98d;stroke:#000000;" x="242.432328" xlink:href="#m193ca9b858" y="236.081388"/>
     <use style="fill:#00a98d;stroke:#000000;" x="245.268491" xlink:href="#m193ca9b858" y="236.081388"/>
     <use style="fill:#00a98d;stroke:#000000;" x="248.104655" xlink:href="#m193ca9b858" y="236.081388"/>
     <use style="fill:#00a98d;stroke:#000000;" x="250.940819" xlink:href="#m193ca9b858" y="236.081388"/>
     <use style="fill:#00a98d;stroke:#000000;" x="253.776983" xlink:href="#m193ca9b858" y="236.081388"/>
    </g>
   </g>
   <g id="PathCollection_6">
    <defs>
     <path d="M 0 0.5 
C 0.132602 0.5 0.25979 0.447317 0.353553 0.353553 
C 0.447317 0.25979 0.5 0.132602 0.5 0 
C 0.5 -0.132602 0.447317 -0.25979 0.353553 -0.353553 
C 0.25979 -0.447317 0.132602 -0.5 0 -0.5 
C -0.132602 -0.5 -0.25979 -0.447317 -0.353553 -0.353553 
C -0.447317 -0.25979 -0.5 -0.132602 -0.5 0 
C -0.5 0.132602 -0.447317 0.25979 -0.353553 0.353553 
C -0.25979 0.447317 -0.132602 0.5 0 0.5 
z
" id="mc07d9a572b" style="stroke:#000000;"/>
    </defs>
    <g clip-path="url(#p5967e2809d)">
     <use style="fill:#8e971e;stroke:#000000;" x="259.449311" xlink:href="#mc07d9a572b" y="236.081388"/>
     <use style="fill:#8e971e;stroke:#000000;" x="262.285474" xlink:href="#mc07d9a572b" y="236.081388"/>
     <use style="fill:#8e971e;stroke:#000000;" x="265.121638" xlink:href="#mc07d9a572b" y="236.081388"/>
     <use style="fill:#8e971e;stroke:#000000;" x="267.957802" xlink:href="#mc07d9a572b" y="236.081388"/>
     <use style="fill:#8e971e;stroke:#000000;" x="270.793966" xlink:href="#mc07d9a572b" y="236.081388"/>
     <use style="fill:#8e971e;stroke:#000000;" x="273.63013" xlink:href="#mc07d9a572b" y="236.081388"/>
    </g>
   </g>
   <g id="PathCollection_7">
    <defs>
     <path d="M 0 0.5 
C 0.132602 0.5 0.25979 0.447317 0.353553 0.353553 
C 0.447317 0.25979 0.5 0.132602 0.5 0 
C 0.5 -0.132602 0.447317 -0.25979 0.353553 -0.353553 
C 0.25979 -0.447317 0.132602 -0.5 0 -0.5 
C -0.132602 -0.5 -0.25979 -0.447317 -0.353553 -0.353553 
C -0.447317 -0.25979 -0.5 -0.132602 -0.5 0 
C -0.5 0.132602 -0.447317 0.25979 -0.353553 0.353553 
C -0.25979 0.447317 -0.132602 0.5 0 0.5 
z
" id="mf1b23cd93b" style="stroke:#000000;"/>
    </defs>
    <g clip-path="url(#p5967e2809d)">
     <use style="fill:#00a9cc;stroke:#000000;" x="276.466294" xlink:href="#mf1b23cd93b" y="236.081388"/>
     <use style="fill:#00a9cc;stroke:#000000;" x="279.302457" xlink:href="#mf1b23cd93b" y="236.081388"/>
     <use style="fill:#00a9cc;stroke:#000000;" x="282.138621" xlink:href="#mf1b23cd93b" y="236.081388"/>
     <use style="fill:#00a9cc;stroke:#000000;" x="284.974785" xlink:href="#mf1b23cd93b" y="236.081388"/>
     <use style="fill:#00a9cc;stroke:#000000;" x="287.810949" xlink:href="#mf1b23cd93b" y="236.081388"/>
    </g>
   </g>
   <g id="PathCollection_8">
    <defs>
     <path d="M 0 0.5 
C 0.132602 0.5 0.25979 0.447317 0.353553 0.353553 
C 0.447317 0.25979 0.5 0.132602 0.5 0 
C 0.5 -0.132602 0.447317 -0.25979 0.353553 -0.353553 
C 0.25979 -0.447317 0.132602 -0.5 0 -0.5 
C -0.132602 -0.5 -0.25979 -0.447317 -0.353553 -0.353553 
C -0.447317 -0.25979 -0.5 -0.132602 -0.5 0 
C -0.5 0.132602 -0.447317 0.25979 -0.353553 0.353553 
C -0.25979 0.447317 -0.132602 0.5 0 0.5 
z
" id="m95c7b3e53e" style="stroke:#000000;"/>
    </defs>
    <g clip-path="url(#p5967e2809d)">
     <use style="fill:#9b7fe9;stroke:#000000;" x="296.31944" xlink:href="#m95c7b3e53e" y="236.081388"/>
     <use style="fill:#9b7fe9;stroke:#000000;" x="299.155604" xlink:href="#m95c7b3e53e" y="236.081388"/>
     <use style="fill:#9b7fe9;stroke:#000000;" x="301.991768" xlink:href="#m95c7b3e53e" y="236.081388"/>
     <use style="fill:#9b7fe9;stroke:#000000;" x="304.827932" xlink:href="#m95c7b3e53e" y="236.081388"/>
     <use style="fill:#9b7fe9;stroke:#000000;" x="307.664096" xlink:href="#m95c7b3e53e" y="236.081388"/>
     <use style="fill:#9b7fe9;stroke:#000000;" x="310.50026" xlink:href="#m95c7b3e53e" y="236.081388"/>
     <use style="fill:#9b7fe9;stroke:#000000;" x="313.336423" xlink:href="#m95c7b3e53e" y="236.081388"/>
     <use style="fill:#9b7fe9;stroke:#000000;" x="316.172587" xlink:href="#m95c7b3e53e" y="236.081388"/>
     <use style="fill:#9b7fe9;stroke:#000000;" x="319.008751" xlink:href="#m95c7b3e53e" y="236.081388"/>
    </g>
   </g>
   <g id="PathCollection_9">
    <defs>
     <path d="M 0 0.5 
C 0.132602 0.5 0.25979 0.447317 0.353553 0.353553 
C 0.447317 0.25979 0.5 0.132602 0.5 0 
C 0.5 -0.132602 0.447317 -0.25979 0.353553 -0.353553 
C 0.25979 -0.447317 0.132602 -0.5 0 -0.5 
C -0.132602 -0.5 -0.25979 -0.447317 -0.353553 -0.353553 
C -0.447317 -0.25979 -0.5 -0.132602 -0.5 0 
C -0.5 0.132602 -0.447317 0.25979 -0.353553 0.353553 
C -0.25979 0.447317 -0.132602 0.5 0 0.5 
z
" id="m4b048426d1" style="stroke:#000000;"/>
    </defs>
    <g clip-path="url(#p5967e2809d)">
     <use style="fill:#618df6;stroke:#000000;" x="330.353406" xlink:href="#m4b048426d1" y="236.081388"/>
     <use style="fill:#618df6;stroke:#000000;" x="333.18957" xlink:href="#m4b048426d1" y="236.081388"/>
     <use style="fill:#618df6;stroke:#000000;" x="336.025734" xlink:href="#m4b048426d1" y="236.081388"/>
     <use style="fill:#618df6;stroke:#000000;" x="338.861898" xlink:href="#m4b048426d1" y="236.081388"/>
     <use style="fill:#618df6;stroke:#000000;" x="341.698062" xlink:href="#m4b048426d1" y="236.081388"/>
     <use style="fill:#618df6;stroke:#000000;" x="344.534226" xlink:href="#m4b048426d1" y="236.081388"/>
     <use style="fill:#618df6;stroke:#000000;" x="347.370389" xlink:href="#m4b048426d1" y="236.081388"/>
     <use style="fill:#618df6;stroke:#000000;" x="350.206553" xlink:href="#m4b048426d1" y="236.081388"/>
     <use style="fill:#618df6;stroke:#000000;" x="353.042717" xlink:href="#m4b048426d1" y="236.081388"/>
     <use style="fill:#618df6;stroke:#000000;" x="355.878881" xlink:href="#m4b048426d1" y="236.081388"/>
    </g>
   </g>
   <g id="PathCollection_10">
    <defs>
     <path d="M 0 0.5 
C 0.132602 0.5 0.25979 0.447317 0.353553 0.353553 
C 0.447317 0.25979 0.5 0.132602 0.5 0 
C 0.5 -0.132602 0.447317 -0.25979 0.353553 -0.353553 
C 0.25979 -0.447317 0.132602 -0.5 0 -0.5 
C -0.132602 -0.5 -0.25979 -0.447317 -0.353553 -0.353553 
C -0.447317 -0.25979 -0.5 -0.132602 -0.5 0 
C -0.5 0.132602 -0.447317 0.25979 -0.353553 0.353553 
C -0.25979 0.447317 -0.132602 0.5 0 0.5 
z
" id="mf412b7d811" style="stroke:#000000;"/>
    </defs>
    <g clip-path="url(#p5967e2809d)">
     <use style="fill:#f06073;stroke:#000000;" x="361.551209" xlink:href="#mf412b7d811" y="236.081388"/>
     <use style="fill:#f06073;stroke:#000000;" x="364.387372" xlink:href="#mf412b7d811" y="236.081388"/>
     <use style="fill:#f06073;stroke:#000000;" x="367.223536" xlink:href="#mf412b7d811" y="236.081388"/>
     <use style="fill:#f06073;stroke:#000000;" x="370.0597" xlink:href="#mf412b7d811" y="236.081388"/>
     <use style="fill:#f06073;stroke:#000000;" x="372.895864" xlink:href="#mf412b7d811" y="236.081388"/>
     <use style="fill:#f06073;stroke:#000000;" x="375.732028" xlink:href="#mf412b7d811" y="236.081388"/>
     <use style="fill:#f06073;stroke:#000000;" x="378.568192" xlink:href="#mf412b7d811" y="236.081388"/>
     <use style="fill:#f06073;stroke:#000000;" x="381.404355" xlink:href="#mf412b7d811" y="236.081388"/>
     <use style="fill:#f06073;stroke:#000000;" x="384.240519" xlink:href="#mf412b7d811" y="236.081388"/>
    </g>
   </g>
   <g id="PathCollection_11">
    <defs>
     <path d="M 0 0.5 
C 0.132602 0.5 0.25979 0.447317 0.353553 0.353553 
C 0.447317 0.25979 0.5 0.132602 0.5 0 
C 0.5 -0.132602 0.447317 -0.25979 0.353553 -0.353553 
C 0.25979 -0.447317 0.132602 -0.5 0 -0.5 
C -0.132602 -0.5 -0.25979 -0.447317 -0.353553 -0.353553 
C -0.447317 -0.25979 -0.5 -0.132602 -0.5 0 
C -0.5 0.132602 -0.447317 0.25979 -0.353553 0.353553 
C -0.25979 0.447317 -0.132602 0.5 0 0.5 
z
" id="m7a54314414" style="stroke:#000000;"/>
    </defs>
    <g clip-path="url(#p5967e2809d)">
     <use style="fill:#dd65b6;stroke:#000000;" x="392.749011" xlink:href="#m7a54314414" y="236.081388"/>
     <use style="fill:#dd65b6;stroke:#000000;" x="395.585175" xlink:href="#m7a54314414" y="236.081388"/>
     <use style="fill:#dd65b6;stroke:#000000;" x="398.421338" xlink:href="#m7a54314414" y="236.081388"/>
     <use style="fill:#dd65b6;stroke:#000000;" x="401.257502" xlink:href="#m7a54314414" y="236.081388"/>
     <use style="fill:#dd65b6;stroke:#000000;" x="404.093666" xlink:href="#m7a54314414" y="236.081388"/>
     <use style="fill:#dd65b6;stroke:#000000;" x="406.92983" xlink:href="#m7a54314414" y="236.081388"/>
     <use style="fill:#dd65b6;stroke:#000000;" x="409.765994" xlink:href="#m7a54314414" y="236.081388"/>
     <use style="fill:#dd65b6;stroke:#000000;" x="412.602158" xlink:href="#m7a54314414" y="236.081388"/>
     <use style="fill:#dd65b6;stroke:#000000;" x="415.438321" xlink:href="#m7a54314414" y="236.081388"/>
     <use style="fill:#dd65b6;stroke:#000000;" x="418.274485" xlink:href="#m7a54314414" y="236.081388"/>
    </g>
   </g>
   <g id="text_14">
    <!-- α1 -->
    <defs>
     <path d="M 41.3125 25.4375 
L 39.15625 36.71875 
Q 36.96875 48.296875 28.265625 48.296875 
Q 21.734375 48.296875 18.75 42.921875 
Q 14.984375 36.1875 14.984375 27.296875 
Q 14.984375 16.546875 18.65625 11.421875 
Q 22.359375 6.203125 28.265625 6.203125 
Q 34.8125 6.203125 38.328125 16.609375 
z
M 46.34375 40.375 
L 51.171875 54.6875 
L 59.1875 54.6875 
L 49.171875 25.046875 
L 51.125 14.359375 
Q 51.5625 11.96875 53.265625 9.96875 
Q 55.28125 7.625 56.84375 7.625 
L 61.140625 7.625 
L 61.140625 0 
L 55.765625 0 
Q 51.171875 0 47.078125 4.109375 
Q 45.0625 6.15625 44.234375 10.453125 
Q 42 5.03125 37.40625 0.78125 
Q 35.25 -1.21875 28.265625 -1.21875 
Q 16.796875 -1.21875 11.234375 6.203125 
Q 5.515625 13.875 5.515625 27.296875 
Q 5.515625 41.65625 11.71875 48.390625 
Q 18.609375 55.90625 28.265625 55.90625 
Q 43.453125 55.90625 46.34375 40.375 
z
" id="DejaVuSans-3b1"/>
    </defs>
    <g transform="translate(86.531262 233.36461)scale(0.13 -0.13)">
     <use xlink:href="#DejaVuSans-3b1"/>
     <use x="65.917969" xlink:href="#DejaVuSans-31"/>
    </g>
   </g>
   <g id="text_15">
    <!-- α2 -->
    <g transform="translate(119.147146 233.36461)scale(0.13 -0.13)">
     <use xlink:href="#DejaVuSans-3b1"/>
     <use x="65.917969" xlink:href="#DejaVuSans-32"/>
    </g>
   </g>
   <g id="text_16">
    <!-- β1 -->
    <defs>
     <path d="M 18.40625 3.375 
L 18.40625 -20.796875 
L 9.375 -20.796875 
L 9.375 54.34375 
Q 9.375 76.609375 30.171875 76.609375 
Q 51.375 76.609375 51.375 57.8125 
Q 51.375 44.4375 42.96875 39.546875 
Q 56.640625 35.15625 56.640625 22.125 
Q 56.640625 -1.03125 33.109375 -1.03125 
Q 22.75 -1.03125 18.40625 3.375 
z
M 18.40625 15.09375 
Q 23.828125 6.640625 33.453125 6.640625 
Q 47.515625 6.640625 47.515625 21.96875 
Q 47.515625 35.75 24.859375 34.671875 
L 24.859375 42.96875 
Q 42.578125 42.96875 42.578125 58.59375 
Q 42.578125 69.28125 31.15625 69.28125 
Q 18.40625 69.28125 18.40625 54.046875 
z
" id="DejaVuSans-3b2"/>
    </defs>
    <g transform="translate(59.724815 233.405235)scale(0.13 -0.13)">
     <use xlink:href="#DejaVuSans-3b2"/>
     <use x="63.818359" xlink:href="#DejaVuSans-31"/>
    </g>
   </g>
   <g id="text_17">
    <!-- β2 -->
    <g transform="translate(147.645893 233.405235)scale(0.13 -0.13)">
     <use xlink:href="#DejaVuSans-3b2"/>
     <use x="63.818359" xlink:href="#DejaVuSans-32"/>
    </g>
   </g>
   <g id="text_18">
    <!-- β3 -->
    <g transform="translate(178.843695 233.405235)scale(0.13 -0.13)">
     <use xlink:href="#DejaVuSans-3b2"/>
     <use x="63.818359" xlink:href="#DejaVuSans-33"/>
    </g>
   </g>
   <g id="text_19">
    <!-- β4 -->
    <g transform="translate(205.787252 233.405235)scale(0.13 -0.13)">
     <use xlink:href="#DejaVuSans-3b2"/>
     <use x="63.818359" xlink:href="#DejaVuSans-34"/>
    </g>
   </g>
   <g id="text_20">
    <!-- β5 -->
    <defs>
     <path d="M 10.796875 72.90625 
L 49.515625 72.90625 
L 49.515625 64.59375 
L 19.828125 64.59375 
L 19.828125 46.734375 
Q 21.96875 47.46875 24.109375 47.828125 
Q 26.265625 48.1875 28.421875 48.1875 
Q 40.625 48.1875 47.75 41.5 
Q 54.890625 34.8125 54.890625 23.390625 
Q 54.890625 11.625 47.5625 5.09375 
Q 40.234375 -1.421875 26.90625 -1.421875 
Q 22.3125 -1.421875 17.546875 -0.640625 
Q 12.796875 0.140625 7.71875 1.703125 
L 7.71875 11.625 
Q 12.109375 9.234375 16.796875 8.0625 
Q 21.484375 6.890625 26.703125 6.890625 
Q 35.15625 6.890625 40.078125 11.328125 
Q 45.015625 15.765625 45.015625 23.390625 
Q 45.015625 31 40.078125 35.4375 
Q 35.15625 39.890625 26.703125 39.890625 
Q 22.75 39.890625 18.8125 39.015625 
Q 14.890625 38.140625 10.796875 36.28125 
z
" id="DejaVuSans-35"/>
    </defs>
    <g transform="translate(236.985054 233.405235)scale(0.13 -0.13)">
     <use xlink:href="#DejaVuSans-3b2"/>
     <use x="63.818359" xlink:href="#DejaVuSans-35"/>
    </g>
   </g>
   <g id="text_21">
    <!-- β6 -->
    <g transform="translate(258.256283 233.405235)scale(0.13 -0.13)">
     <use xlink:href="#DejaVuSans-3b2"/>
     <use x="63.818359" xlink:href="#DejaVuSans-36"/>
    </g>
   </g>
   <g id="text_22">
    <!-- β7 -->
    <defs>
     <path d="M 8.203125 72.90625 
L 55.078125 72.90625 
L 55.078125 68.703125 
L 28.609375 0 
L 18.3125 0 
L 43.21875 64.59375 
L 8.203125 64.59375 
z
" id="DejaVuSans-37"/>
    </defs>
    <g transform="translate(273.855184 233.405235)scale(0.13 -0.13)">
     <use xlink:href="#DejaVuSans-3b2"/>
     <use x="63.818359" xlink:href="#DejaVuSans-37"/>
    </g>
   </g>
   <g id="text_23">
    <!-- β8 -->
    <g transform="translate(299.380658 233.405235)scale(0.13 -0.13)">
     <use xlink:href="#DejaVuSans-3b2"/>
     <use x="63.818359" xlink:href="#DejaVuSans-38"/>
    </g>
   </g>
   <g id="text_24">
    <!-- β9 -->
    <defs>
     <path d="M 10.984375 1.515625 
L 10.984375 10.5 
Q 14.703125 8.734375 18.5 7.8125 
Q 22.3125 6.890625 25.984375 6.890625 
Q 35.75 6.890625 40.890625 13.453125 
Q 46.046875 20.015625 46.78125 33.40625 
Q 43.953125 29.203125 39.59375 26.953125 
Q 35.25 24.703125 29.984375 24.703125 
Q 19.046875 24.703125 12.671875 31.3125 
Q 6.296875 37.9375 6.296875 49.421875 
Q 6.296875 60.640625 12.9375 67.421875 
Q 19.578125 74.21875 30.609375 74.21875 
Q 43.265625 74.21875 49.921875 64.515625 
Q 56.59375 54.828125 56.59375 36.375 
Q 56.59375 19.140625 48.40625 8.859375 
Q 40.234375 -1.421875 26.421875 -1.421875 
Q 22.703125 -1.421875 18.890625 -0.6875 
Q 15.09375 0.046875 10.984375 1.515625 
z
M 30.609375 32.421875 
Q 37.25 32.421875 41.125 36.953125 
Q 45.015625 41.5 45.015625 49.421875 
Q 45.015625 57.28125 41.125 61.84375 
Q 37.25 66.40625 30.609375 66.40625 
Q 23.96875 66.40625 20.09375 61.84375 
Q 16.21875 57.28125 16.21875 49.421875 
Q 16.21875 41.5 20.09375 36.953125 
Q 23.96875 32.421875 30.609375 32.421875 
z
" id="DejaVuSans-39"/>
    </defs>
    <g transform="translate(334.832706 233.405235)scale(0.13 -0.13)">
     <use xlink:href="#DejaVuSans-3b2"/>
     <use x="63.818359" xlink:href="#DejaVuSans-39"/>
    </g>
   </g>
   <g id="text_25">
    <!-- β10 -->
    <g transform="translate(360.476801 233.405235)scale(0.13 -0.13)">
     <use xlink:href="#DejaVuSans-3b2"/>
     <use x="63.818359" xlink:href="#DejaVuSans-31"/>
     <use x="127.441406" xlink:href="#DejaVuSans-30"/>
    </g>
   </g>
   <g id="text_26">
    <!-- β11 -->
    <g transform="translate(393.092685 233.405235)scale(0.13 -0.13)">
     <use xlink:href="#DejaVuSans-3b2"/>
     <use x="63.818359" xlink:href="#DejaVuSans-31"/>
     <use x="127.441406" xlink:href="#DejaVuSans-31"/>
    </g>
   </g>
   <g id="legend_1">
    <g id="patch_5">
     <path d="M 275.582854 62.604646 
L 417.965354 62.604646 
Q 421.165354 62.604646 421.165354 59.404646 
L 421.165354 14.034646 
Q 421.165354 10.834646 417.965354 10.834646 
L 275.582854 10.834646 
Q 272.382854 10.834646 272.382854 14.034646 
L 272.382854 59.404646 
Q 272.382854 62.604646 275.582854 62.604646 
z
" style="fill:#ffffff;stroke:#000000;stroke-linejoin:miter;"/>
    </g>
    <g id="line2d_16">
     <path d="M 278.782854 23.792146 
L 310.782854 23.792146 
" style="fill:none;stroke:#0000ff;stroke-linecap:square;"/>
    </g>
    <g id="line2d_17"/>
    <g id="text_27">
     <!-- apo-I-FABP -->
     <defs>
      <path d="M 18.109375 8.203125 
L 18.109375 -20.796875 
L 9.078125 -20.796875 
L 9.078125 54.6875 
L 18.109375 54.6875 
L 18.109375 46.390625 
Q 20.953125 51.265625 25.265625 53.625 
Q 29.59375 56 35.59375 56 
Q 45.5625 56 51.78125 48.09375 
Q 58.015625 40.1875 58.015625 27.296875 
Q 58.015625 14.40625 51.78125 6.484375 
Q 45.5625 -1.421875 35.59375 -1.421875 
Q 29.59375 -1.421875 25.265625 0.953125 
Q 20.953125 3.328125 18.109375 8.203125 
z
M 48.6875 27.296875 
Q 48.6875 37.203125 44.609375 42.84375 
Q 40.53125 48.484375 33.40625 48.484375 
Q 26.265625 48.484375 22.1875 42.84375 
Q 18.109375 37.203125 18.109375 27.296875 
Q 18.109375 17.390625 22.1875 11.75 
Q 26.265625 6.109375 33.40625 6.109375 
Q 40.53125 6.109375 44.609375 11.75 
Q 48.6875 17.390625 48.6875 27.296875 
z
" id="DejaVuSans-70"/>
      <path d="M 4.890625 31.390625 
L 31.203125 31.390625 
L 31.203125 23.390625 
L 4.890625 23.390625 
z
" id="DejaVuSans-2d"/>
      <path d="M 9.8125 72.90625 
L 19.671875 72.90625 
L 19.671875 0 
L 9.8125 0 
z
" id="DejaVuSans-49"/>
      <path d="M 34.1875 63.1875 
L 20.796875 26.90625 
L 47.609375 26.90625 
z
M 28.609375 72.90625 
L 39.796875 72.90625 
L 67.578125 0 
L 57.328125 0 
L 50.6875 18.703125 
L 17.828125 18.703125 
L 11.1875 0 
L 0.78125 0 
z
" id="DejaVuSans-41"/>
      <path d="M 19.671875 34.8125 
L 19.671875 8.109375 
L 35.5 8.109375 
Q 43.453125 8.109375 47.28125 11.40625 
Q 51.125 14.703125 51.125 21.484375 
Q 51.125 28.328125 47.28125 31.5625 
Q 43.453125 34.8125 35.5 34.8125 
z
M 19.671875 64.796875 
L 19.671875 42.828125 
L 34.28125 42.828125 
Q 41.5 42.828125 45.03125 45.53125 
Q 48.578125 48.25 48.578125 53.8125 
Q 48.578125 59.328125 45.03125 62.0625 
Q 41.5 64.796875 34.28125 64.796875 
z
M 9.8125 72.90625 
L 35.015625 72.90625 
Q 46.296875 72.90625 52.390625 68.21875 
Q 58.5 63.53125 58.5 54.890625 
Q 58.5 48.1875 55.375 44.234375 
Q 52.25 40.28125 46.1875 39.3125 
Q 53.46875 37.75 57.5 32.78125 
Q 61.53125 27.828125 61.53125 20.40625 
Q 61.53125 10.640625 54.890625 5.3125 
Q 48.25 0 35.984375 0 
L 9.8125 0 
z
" id="DejaVuSans-42"/>
      <path d="M 19.671875 64.796875 
L 19.671875 37.40625 
L 32.078125 37.40625 
Q 38.96875 37.40625 42.71875 40.96875 
Q 46.484375 44.53125 46.484375 51.125 
Q 46.484375 57.671875 42.71875 61.234375 
Q 38.96875 64.796875 32.078125 64.796875 
z
M 9.8125 72.90625 
L 32.078125 72.90625 
Q 44.34375 72.90625 50.609375 67.359375 
Q 56.890625 61.8125 56.890625 51.125 
Q 56.890625 40.328125 50.609375 34.8125 
Q 44.34375 29.296875 32.078125 29.296875 
L 19.671875 29.296875 
L 19.671875 0 
L 9.8125 0 
z
" id="DejaVuSans-50"/>
     </defs>
     <g transform="translate(323.582854 29.392146)scale(0.16 -0.16)">
      <use xlink:href="#DejaVuSans-61"/>
      <use x="61.279297" xlink:href="#DejaVuSans-70"/>
      <use x="124.755859" xlink:href="#DejaVuSans-6f"/>
      <use x="185.953125" xlink:href="#DejaVuSans-2d"/>
      <use x="222.037109" xlink:href="#DejaVuSans-49"/>
      <use x="251.529297" xlink:href="#DejaVuSans-2d"/>
      <use x="287.613281" xlink:href="#DejaVuSans-46"/>
      <use x="344.992188" xlink:href="#DejaVuSans-41"/>
      <use x="413.400391" xlink:href="#DejaVuSans-42"/>
      <use x="482.003906" xlink:href="#DejaVuSans-50"/>
     </g>
    </g>
    <g id="line2d_18">
     <path d="M 278.782854 47.277146 
L 310.782854 47.277146 
" style="fill:none;stroke:#ff0000;stroke-linecap:square;"/>
    </g>
    <g id="line2d_19"/>
    <g id="text_28">
     <!-- holo-I-FABP -->
     <defs>
      <path d="M 54.890625 33.015625 
L 54.890625 0 
L 45.90625 0 
L 45.90625 32.71875 
Q 45.90625 40.484375 42.875 44.328125 
Q 39.84375 48.1875 33.796875 48.1875 
Q 26.515625 48.1875 22.3125 43.546875 
Q 18.109375 38.921875 18.109375 30.90625 
L 18.109375 0 
L 9.078125 0 
L 9.078125 75.984375 
L 18.109375 75.984375 
L 18.109375 46.1875 
Q 21.34375 51.125 25.703125 53.5625 
Q 30.078125 56 35.796875 56 
Q 45.21875 56 50.046875 50.171875 
Q 54.890625 44.34375 54.890625 33.015625 
z
" id="DejaVuSans-68"/>
     </defs>
     <g transform="translate(323.582854 52.877146)scale(0.16 -0.16)">
      <use xlink:href="#DejaVuSans-68"/>
      <use x="63.378906" xlink:href="#DejaVuSans-6f"/>
      <use x="124.560547" xlink:href="#DejaVuSans-6c"/>
      <use x="152.34375" xlink:href="#DejaVuSans-6f"/>
      <use x="213.541016" xlink:href="#DejaVuSans-2d"/>
      <use x="249.625" xlink:href="#DejaVuSans-49"/>
      <use x="279.117188" xlink:href="#DejaVuSans-2d"/>
      <use x="315.201172" xlink:href="#DejaVuSans-46"/>
      <use x="372.580078" xlink:href="#DejaVuSans-41"/>
      <use x="440.988281" xlink:href="#DejaVuSans-42"/>
      <use x="509.591797" xlink:href="#DejaVuSans-50"/>
     </g>
    </g>
   </g>
  </g>
 </g>
 <defs>
  <clipPath id="p5967e2809d">
   <rect height="239.550709" width="384.810709" x="44.354646" y="2.834646"/>
  </clipPath>
 </defs>
</svg>
