<?xml version="1.0" encoding="utf-8" standalone="no"?>
<!DOCTYPE svg PUBLIC "-//W3C//DTD SVG 1.1//EN"
  "http://www.w3.org/Graphics/SVG/1.1/DTD/svg11.dtd">
<!-- Created with matplotlib (http://matplotlib.org/) -->
<svg height="288pt" version="1.1" viewBox="0 0 432 288" width="432pt" xmlns="http://www.w3.org/2000/svg" xmlns:xlink="http://www.w3.org/1999/xlink">
 <defs>
  <style type="text/css">
*{stroke-linecap:butt;stroke-linejoin:round;}
  </style>
 </defs>
 <g id="figure_1">
  <g id="patch_1">
   <path d="M 0 288 
L 432 288 
L 432 0 
L 0 0 
z
" style="fill:#ffffff;"/>
  </g>
  <g id="axes_1">
   <g id="patch_2">
    <path d="M 44.354646 242.385354 
L 429.165354 242.385354 
L 429.165354 2.834646 
L 44.354646 2.834646 
z
" style="fill:#ffffff;"/>
   </g>
   <g id="line2d_1">
    <path clip-path="url(#pc7aaa15df4)" d="M 62.705014 182.718316 
L 65.191514 179.351998 
L 67.678014 169.624979 
L 70.164514 177.063658 
L 72.651013 175.374196 
L 75.137513 160.717475 
L 77.624013 156.821624 
L 80.110513 144.83148 
L 82.597013 165.962374 
L 85.083512 179.270047 
L 87.570012 175.689394 
L 90.056512 181.602514 
L 92.543012 189.116841 
L 95.029512 184.1241 
L 97.516011 176.332398 
L 100.002511 176.77998 
L 102.489011 163.09407 
L 104.975511 159.097355 
L 107.462011 172.247428 
L 109.94851 190.491106 
L 112.43501 182.585933 
L 114.92151 182.333774 
L 117.40801 196.536609 
L 119.89451 195.048874 
L 122.381009 180.549752 
L 124.867509 182.157263 
L 127.354009 185.233598 
L 129.840509 169.763666 
L 132.327009 146.911789 
L 134.813508 140.10981 
L 137.300008 128.062931 
L 139.786508 112.788421 
L 142.273008 124.810084 
L 144.759507 91.064954 
L 147.246007 118.682629 
L 149.732507 141.900136 
L 152.219007 161.96566 
L 154.705507 157.950033 
L 157.192006 173.949499 
L 159.678506 191.644732 
L 162.165006 177.328425 
L 164.651506 179.112447 
L 167.138006 198.226072 
L 169.624505 187.666929 
L 172.111005 170.412974 
L 174.597505 181.514258 
L 177.084005 186.135066 
L 179.570505 177.687751 
L 182.057004 176.508909 
L 184.543504 192.312952 
L 187.030004 200.300077 
L 189.516504 190.156996 
L 192.003004 184.893184 
L 194.489503 196.877024 
L 196.976003 196.74464 
L 199.462503 184.073669 
L 201.949003 181.65925 
L 204.435503 189.394216 
L 206.922002 185.296638 
L 209.408502 182.730924 
L 211.895002 189.614855 
L 214.381502 188.019951 
L 216.868002 188.833163 
L 219.354501 195.269512 
L 221.841001 194.866058 
L 224.327501 186.576343 
L 226.814001 191.985146 
L 229.300501 200.375725 
L 231.787 190.358723 
L 234.2735 182.516589 
L 236.76 187.919088 
L 239.2465 204.889364 
L 241.733 198.887989 
L 244.219499 187.919088 
L 246.705999 201.516743 
L 249.192499 201.705862 
L 251.678999 187.60389 
L 254.165499 189.09793 
L 256.651998 194.021327 
L 259.138498 177.126698 
L 261.624998 169.67541 
L 264.111498 175.178773 
L 266.597998 165.792167 
L 269.084497 150.284411 
L 271.570997 159.746664 
L 274.057497 180.959509 
L 276.543997 168.24441 
L 279.030497 161.770237 
L 281.516996 168.30745 
L 284.003496 163.131894 
L 286.489996 119.95603 
L 288.976496 113.64576 
L 291.462996 41.490565 
L 293.949495 104.322195 
L 296.435995 159.330602 
L 298.922495 179.200703 
L 301.408995 171.944838 
L 303.895495 172.770658 
L 306.381994 170.400366 
L 308.868494 179.276351 
L 311.354994 189.268137 
L 313.841494 185.365982 
L 316.327994 181.772721 
L 318.814493 187.358035 
L 321.300993 195.660358 
L 323.787493 191.430397 
L 326.273993 189.110538 
L 328.760493 199.348178 
L 331.246992 197.368733 
L 333.733492 186.84111 
L 336.219992 194.506732 
L 338.706492 203.401628 
L 341.192991 188.070383 
L 343.679491 182.768748 
L 346.165991 193.39093 
L 348.652491 189.501383 
L 351.138991 187.17522 
L 353.62549 190.030917 
L 356.11199 203.017087 
L 358.59849 205.853871 
L 361.08499 197.097662 
L 363.57149 202.922527 
L 366.057989 209.737114 
L 368.544489 201.25828 
L 371.030989 195.666662 
L 373.517489 199.928143 
L 376.003989 200.608972 
L 378.490488 193.214419 
L 380.976988 189.438344 
L 383.463488 199.026676 
L 385.949988 202.846879 
L 388.436488 193.674609 
L 390.922987 193.340499 
L 393.409487 196.435746 
L 395.895987 185.674876 
L 395.895987 185.674876 
" style="fill:none;stroke:#0000ff;stroke-linecap:round;"/>
   </g>
   <g id="matplotlib.axis_1">
    <g id="xtick_1">
     <g id="line2d_2">
      <defs>
       <path d="M 0 0 
L 0 -3.5 
" id="me54f080205" style="stroke:#000000;stroke-width:0.8;"/>
      </defs>
      <g>
       <use style="stroke:#000000;stroke-width:0.8;" x="75.137513" xlink:href="#me54f080205" y="242.385354"/>
      </g>
     </g>
     <g id="text_1">
      <!-- 15 -->
      <defs>
       <path d="M 12.40625 8.296875 
L 28.515625 8.296875 
L 28.515625 63.921875 
L 10.984375 60.40625 
L 10.984375 69.390625 
L 28.421875 72.90625 
L 38.28125 72.90625 
L 38.28125 8.296875 
L 54.390625 8.296875 
L 54.390625 0 
L 12.40625 0 
z
" id="DejaVuSans-31"/>
       <path d="M 10.796875 72.90625 
L 49.515625 72.90625 
L 49.515625 64.59375 
L 19.828125 64.59375 
L 19.828125 46.734375 
Q 21.96875 47.46875 24.109375 47.828125 
Q 26.265625 48.1875 28.421875 48.1875 
Q 40.625 48.1875 47.75 41.5 
Q 54.890625 34.8125 54.890625 23.390625 
Q 54.890625 11.625 47.5625 5.09375 
Q 40.234375 -1.421875 26.90625 -1.421875 
Q 22.3125 -1.421875 17.546875 -0.640625 
Q 12.796875 0.140625 7.71875 1.703125 
L 7.71875 11.625 
Q 12.109375 9.234375 16.796875 8.0625 
Q 21.484375 6.890625 26.703125 6.890625 
Q 35.15625 6.890625 40.078125 11.328125 
Q 45.015625 15.765625 45.015625 23.390625 
Q 45.015625 31 40.078125 35.4375 
Q 35.15625 39.890625 26.703125 39.890625 
Q 22.75 39.890625 18.8125 39.015625 
Q 14.890625 38.140625 10.796875 36.28125 
z
" id="DejaVuSans-35"/>
      </defs>
      <g transform="translate(64.957513 258.042854)scale(0.16 -0.16)">
       <use xlink:href="#DejaVuSans-31"/>
       <use x="63.623047" xlink:href="#DejaVuSans-35"/>
      </g>
     </g>
    </g>
    <g id="xtick_2">
     <g id="line2d_3">
      <g>
       <use style="stroke:#000000;stroke-width:0.8;" x="112.43501" xlink:href="#me54f080205" y="242.385354"/>
      </g>
     </g>
     <g id="text_2">
      <!-- 30 -->
      <defs>
       <path d="M 40.578125 39.3125 
Q 47.65625 37.796875 51.625 33 
Q 55.609375 28.21875 55.609375 21.1875 
Q 55.609375 10.40625 48.1875 4.484375 
Q 40.765625 -1.421875 27.09375 -1.421875 
Q 22.515625 -1.421875 17.65625 -0.515625 
Q 12.796875 0.390625 7.625 2.203125 
L 7.625 11.71875 
Q 11.71875 9.328125 16.59375 8.109375 
Q 21.484375 6.890625 26.8125 6.890625 
Q 36.078125 6.890625 40.9375 10.546875 
Q 45.796875 14.203125 45.796875 21.1875 
Q 45.796875 27.640625 41.28125 31.265625 
Q 36.765625 34.90625 28.71875 34.90625 
L 20.21875 34.90625 
L 20.21875 43.015625 
L 29.109375 43.015625 
Q 36.375 43.015625 40.234375 45.921875 
Q 44.09375 48.828125 44.09375 54.296875 
Q 44.09375 59.90625 40.109375 62.90625 
Q 36.140625 65.921875 28.71875 65.921875 
Q 24.65625 65.921875 20.015625 65.03125 
Q 15.375 64.15625 9.8125 62.3125 
L 9.8125 71.09375 
Q 15.4375 72.65625 20.34375 73.4375 
Q 25.25 74.21875 29.59375 74.21875 
Q 40.828125 74.21875 47.359375 69.109375 
Q 53.90625 64.015625 53.90625 55.328125 
Q 53.90625 49.265625 50.4375 45.09375 
Q 46.96875 40.921875 40.578125 39.3125 
z
" id="DejaVuSans-33"/>
       <path d="M 31.78125 66.40625 
Q 24.171875 66.40625 20.328125 58.90625 
Q 16.5 51.421875 16.5 36.375 
Q 16.5 21.390625 20.328125 13.890625 
Q 24.171875 6.390625 31.78125 6.390625 
Q 39.453125 6.390625 43.28125 13.890625 
Q 47.125 21.390625 47.125 36.375 
Q 47.125 51.421875 43.28125 58.90625 
Q 39.453125 66.40625 31.78125 66.40625 
z
M 31.78125 74.21875 
Q 44.046875 74.21875 50.515625 64.515625 
Q 56.984375 54.828125 56.984375 36.375 
Q 56.984375 17.96875 50.515625 8.265625 
Q 44.046875 -1.421875 31.78125 -1.421875 
Q 19.53125 -1.421875 13.0625 8.265625 
Q 6.59375 17.96875 6.59375 36.375 
Q 6.59375 54.828125 13.0625 64.515625 
Q 19.53125 74.21875 31.78125 74.21875 
z
" id="DejaVuSans-30"/>
      </defs>
      <g transform="translate(102.25501 258.042854)scale(0.16 -0.16)">
       <use xlink:href="#DejaVuSans-33"/>
       <use x="63.623047" xlink:href="#DejaVuSans-30"/>
      </g>
     </g>
    </g>
    <g id="xtick_3">
     <g id="line2d_4">
      <g>
       <use style="stroke:#000000;stroke-width:0.8;" x="149.732507" xlink:href="#me54f080205" y="242.385354"/>
      </g>
     </g>
     <g id="text_3">
      <!-- 45 -->
      <defs>
       <path d="M 37.796875 64.3125 
L 12.890625 25.390625 
L 37.796875 25.390625 
z
M 35.203125 72.90625 
L 47.609375 72.90625 
L 47.609375 25.390625 
L 58.015625 25.390625 
L 58.015625 17.1875 
L 47.609375 17.1875 
L 47.609375 0 
L 37.796875 0 
L 37.796875 17.1875 
L 4.890625 17.1875 
L 4.890625 26.703125 
z
" id="DejaVuSans-34"/>
      </defs>
      <g transform="translate(139.552507 258.042854)scale(0.16 -0.16)">
       <use xlink:href="#DejaVuSans-34"/>
       <use x="63.623047" xlink:href="#DejaVuSans-35"/>
      </g>
     </g>
    </g>
    <g id="xtick_4">
     <g id="line2d_5">
      <g>
       <use style="stroke:#000000;stroke-width:0.8;" x="187.030004" xlink:href="#me54f080205" y="242.385354"/>
      </g>
     </g>
     <g id="text_4">
      <!-- 60 -->
      <defs>
       <path d="M 33.015625 40.375 
Q 26.375 40.375 22.484375 35.828125 
Q 18.609375 31.296875 18.609375 23.390625 
Q 18.609375 15.53125 22.484375 10.953125 
Q 26.375 6.390625 33.015625 6.390625 
Q 39.65625 6.390625 43.53125 10.953125 
Q 47.40625 15.53125 47.40625 23.390625 
Q 47.40625 31.296875 43.53125 35.828125 
Q 39.65625 40.375 33.015625 40.375 
z
M 52.59375 71.296875 
L 52.59375 62.3125 
Q 48.875 64.0625 45.09375 64.984375 
Q 41.3125 65.921875 37.59375 65.921875 
Q 27.828125 65.921875 22.671875 59.328125 
Q 17.53125 52.734375 16.796875 39.40625 
Q 19.671875 43.65625 24.015625 45.921875 
Q 28.375 48.1875 33.59375 48.1875 
Q 44.578125 48.1875 50.953125 41.515625 
Q 57.328125 34.859375 57.328125 23.390625 
Q 57.328125 12.15625 50.6875 5.359375 
Q 44.046875 -1.421875 33.015625 -1.421875 
Q 20.359375 -1.421875 13.671875 8.265625 
Q 6.984375 17.96875 6.984375 36.375 
Q 6.984375 53.65625 15.1875 63.9375 
Q 23.390625 74.21875 37.203125 74.21875 
Q 40.921875 74.21875 44.703125 73.484375 
Q 48.484375 72.75 52.59375 71.296875 
z
" id="DejaVuSans-36"/>
      </defs>
      <g transform="translate(176.850004 258.042854)scale(0.16 -0.16)">
       <use xlink:href="#DejaVuSans-36"/>
       <use x="63.623047" xlink:href="#DejaVuSans-30"/>
      </g>
     </g>
    </g>
    <g id="xtick_5">
     <g id="line2d_6">
      <g>
       <use style="stroke:#000000;stroke-width:0.8;" x="224.327501" xlink:href="#me54f080205" y="242.385354"/>
      </g>
     </g>
     <g id="text_5">
      <!-- 75 -->
      <defs>
       <path d="M 8.203125 72.90625 
L 55.078125 72.90625 
L 55.078125 68.703125 
L 28.609375 0 
L 18.3125 0 
L 43.21875 64.59375 
L 8.203125 64.59375 
z
" id="DejaVuSans-37"/>
      </defs>
      <g transform="translate(214.147501 258.042854)scale(0.16 -0.16)">
       <use xlink:href="#DejaVuSans-37"/>
       <use x="63.623047" xlink:href="#DejaVuSans-35"/>
      </g>
     </g>
    </g>
    <g id="xtick_6">
     <g id="line2d_7">
      <g>
       <use style="stroke:#000000;stroke-width:0.8;" x="261.624998" xlink:href="#me54f080205" y="242.385354"/>
      </g>
     </g>
     <g id="text_6">
      <!-- 90 -->
      <defs>
       <path d="M 10.984375 1.515625 
L 10.984375 10.5 
Q 14.703125 8.734375 18.5 7.8125 
Q 22.3125 6.890625 25.984375 6.890625 
Q 35.75 6.890625 40.890625 13.453125 
Q 46.046875 20.015625 46.78125 33.40625 
Q 43.953125 29.203125 39.59375 26.953125 
Q 35.25 24.703125 29.984375 24.703125 
Q 19.046875 24.703125 12.671875 31.3125 
Q 6.296875 37.9375 6.296875 49.421875 
Q 6.296875 60.640625 12.9375 67.421875 
Q 19.578125 74.21875 30.609375 74.21875 
Q 43.265625 74.21875 49.921875 64.515625 
Q 56.59375 54.828125 56.59375 36.375 
Q 56.59375 19.140625 48.40625 8.859375 
Q 40.234375 -1.421875 26.421875 -1.421875 
Q 22.703125 -1.421875 18.890625 -0.6875 
Q 15.09375 0.046875 10.984375 1.515625 
z
M 30.609375 32.421875 
Q 37.25 32.421875 41.125 36.953125 
Q 45.015625 41.5 45.015625 49.421875 
Q 45.015625 57.28125 41.125 61.84375 
Q 37.25 66.40625 30.609375 66.40625 
Q 23.96875 66.40625 20.09375 61.84375 
Q 16.21875 57.28125 16.21875 49.421875 
Q 16.21875 41.5 20.09375 36.953125 
Q 23.96875 32.421875 30.609375 32.421875 
z
" id="DejaVuSans-39"/>
      </defs>
      <g transform="translate(251.444998 258.042854)scale(0.16 -0.16)">
       <use xlink:href="#DejaVuSans-39"/>
       <use x="63.623047" xlink:href="#DejaVuSans-30"/>
      </g>
     </g>
    </g>
    <g id="xtick_7">
     <g id="line2d_8">
      <g>
       <use style="stroke:#000000;stroke-width:0.8;" x="298.922495" xlink:href="#me54f080205" y="242.385354"/>
      </g>
     </g>
     <g id="text_7">
      <!-- 105 -->
      <g transform="translate(283.652495 258.042854)scale(0.16 -0.16)">
       <use xlink:href="#DejaVuSans-31"/>
       <use x="63.623047" xlink:href="#DejaVuSans-30"/>
       <use x="127.246094" xlink:href="#DejaVuSans-35"/>
      </g>
     </g>
    </g>
    <g id="xtick_8">
     <g id="line2d_9">
      <g>
       <use style="stroke:#000000;stroke-width:0.8;" x="336.219992" xlink:href="#me54f080205" y="242.385354"/>
      </g>
     </g>
     <g id="text_8">
      <!-- 120 -->
      <defs>
       <path d="M 19.1875 8.296875 
L 53.609375 8.296875 
L 53.609375 0 
L 7.328125 0 
L 7.328125 8.296875 
Q 12.9375 14.109375 22.625 23.890625 
Q 32.328125 33.6875 34.8125 36.53125 
Q 39.546875 41.84375 41.421875 45.53125 
Q 43.3125 49.21875 43.3125 52.78125 
Q 43.3125 58.59375 39.234375 62.25 
Q 35.15625 65.921875 28.609375 65.921875 
Q 23.96875 65.921875 18.8125 64.3125 
Q 13.671875 62.703125 7.8125 59.421875 
L 7.8125 69.390625 
Q 13.765625 71.78125 18.9375 73 
Q 24.125 74.21875 28.421875 74.21875 
Q 39.75 74.21875 46.484375 68.546875 
Q 53.21875 62.890625 53.21875 53.421875 
Q 53.21875 48.921875 51.53125 44.890625 
Q 49.859375 40.875 45.40625 35.40625 
Q 44.1875 33.984375 37.640625 27.21875 
Q 31.109375 20.453125 19.1875 8.296875 
z
" id="DejaVuSans-32"/>
      </defs>
      <g transform="translate(320.949992 258.042854)scale(0.16 -0.16)">
       <use xlink:href="#DejaVuSans-31"/>
       <use x="63.623047" xlink:href="#DejaVuSans-32"/>
       <use x="127.246094" xlink:href="#DejaVuSans-30"/>
      </g>
     </g>
    </g>
    <g id="xtick_9">
     <g id="line2d_10">
      <g>
       <use style="stroke:#000000;stroke-width:0.8;" x="373.517489" xlink:href="#me54f080205" y="242.385354"/>
      </g>
     </g>
     <g id="text_9">
      <!-- 135 -->
      <g transform="translate(358.247489 258.042854)scale(0.16 -0.16)">
       <use xlink:href="#DejaVuSans-31"/>
       <use x="63.623047" xlink:href="#DejaVuSans-33"/>
       <use x="127.246094" xlink:href="#DejaVuSans-35"/>
      </g>
     </g>
    </g>
    <g id="text_10">
     <!-- Residue # -->
     <defs>
      <path d="M 44.390625 34.1875 
Q 47.5625 33.109375 50.5625 29.59375 
Q 53.5625 26.078125 56.59375 19.921875 
L 66.609375 0 
L 56 0 
L 46.6875 18.703125 
Q 43.0625 26.03125 39.671875 28.421875 
Q 36.28125 30.8125 30.421875 30.8125 
L 19.671875 30.8125 
L 19.671875 0 
L 9.8125 0 
L 9.8125 72.90625 
L 32.078125 72.90625 
Q 44.578125 72.90625 50.734375 67.671875 
Q 56.890625 62.453125 56.890625 51.90625 
Q 56.890625 45.015625 53.6875 40.46875 
Q 50.484375 35.9375 44.390625 34.1875 
z
M 19.671875 64.796875 
L 19.671875 38.921875 
L 32.078125 38.921875 
Q 39.203125 38.921875 42.84375 42.21875 
Q 46.484375 45.515625 46.484375 51.90625 
Q 46.484375 58.296875 42.84375 61.546875 
Q 39.203125 64.796875 32.078125 64.796875 
z
" id="DejaVuSans-52"/>
      <path d="M 56.203125 29.59375 
L 56.203125 25.203125 
L 14.890625 25.203125 
Q 15.484375 15.921875 20.484375 11.0625 
Q 25.484375 6.203125 34.421875 6.203125 
Q 39.59375 6.203125 44.453125 7.46875 
Q 49.3125 8.734375 54.109375 11.28125 
L 54.109375 2.78125 
Q 49.265625 0.734375 44.1875 -0.34375 
Q 39.109375 -1.421875 33.890625 -1.421875 
Q 20.796875 -1.421875 13.15625 6.1875 
Q 5.515625 13.8125 5.515625 26.8125 
Q 5.515625 40.234375 12.765625 48.109375 
Q 20.015625 56 32.328125 56 
Q 43.359375 56 49.78125 48.890625 
Q 56.203125 41.796875 56.203125 29.59375 
z
M 47.21875 32.234375 
Q 47.125 39.59375 43.09375 43.984375 
Q 39.0625 48.390625 32.421875 48.390625 
Q 24.90625 48.390625 20.390625 44.140625 
Q 15.875 39.890625 15.1875 32.171875 
z
" id="DejaVuSans-65"/>
      <path d="M 44.28125 53.078125 
L 44.28125 44.578125 
Q 40.484375 46.53125 36.375 47.5 
Q 32.28125 48.484375 27.875 48.484375 
Q 21.1875 48.484375 17.84375 46.4375 
Q 14.5 44.390625 14.5 40.28125 
Q 14.5 37.15625 16.890625 35.375 
Q 19.28125 33.59375 26.515625 31.984375 
L 29.59375 31.296875 
Q 39.15625 29.25 43.1875 25.515625 
Q 47.21875 21.78125 47.21875 15.09375 
Q 47.21875 7.46875 41.1875 3.015625 
Q 35.15625 -1.421875 24.609375 -1.421875 
Q 20.21875 -1.421875 15.453125 -0.5625 
Q 10.6875 0.296875 5.421875 2 
L 5.421875 11.28125 
Q 10.40625 8.6875 15.234375 7.390625 
Q 20.0625 6.109375 24.8125 6.109375 
Q 31.15625 6.109375 34.5625 8.28125 
Q 37.984375 10.453125 37.984375 14.40625 
Q 37.984375 18.0625 35.515625 20.015625 
Q 33.0625 21.96875 24.703125 23.78125 
L 21.578125 24.515625 
Q 13.234375 26.265625 9.515625 29.90625 
Q 5.8125 33.546875 5.8125 39.890625 
Q 5.8125 47.609375 11.28125 51.796875 
Q 16.75 56 26.8125 56 
Q 31.78125 56 36.171875 55.265625 
Q 40.578125 54.546875 44.28125 53.078125 
z
" id="DejaVuSans-73"/>
      <path d="M 9.421875 54.6875 
L 18.40625 54.6875 
L 18.40625 0 
L 9.421875 0 
z
M 9.421875 75.984375 
L 18.40625 75.984375 
L 18.40625 64.59375 
L 9.421875 64.59375 
z
" id="DejaVuSans-69"/>
      <path d="M 45.40625 46.390625 
L 45.40625 75.984375 
L 54.390625 75.984375 
L 54.390625 0 
L 45.40625 0 
L 45.40625 8.203125 
Q 42.578125 3.328125 38.25 0.953125 
Q 33.9375 -1.421875 27.875 -1.421875 
Q 17.96875 -1.421875 11.734375 6.484375 
Q 5.515625 14.40625 5.515625 27.296875 
Q 5.515625 40.1875 11.734375 48.09375 
Q 17.96875 56 27.875 56 
Q 33.9375 56 38.25 53.625 
Q 42.578125 51.265625 45.40625 46.390625 
z
M 14.796875 27.296875 
Q 14.796875 17.390625 18.875 11.75 
Q 22.953125 6.109375 30.078125 6.109375 
Q 37.203125 6.109375 41.296875 11.75 
Q 45.40625 17.390625 45.40625 27.296875 
Q 45.40625 37.203125 41.296875 42.84375 
Q 37.203125 48.484375 30.078125 48.484375 
Q 22.953125 48.484375 18.875 42.84375 
Q 14.796875 37.203125 14.796875 27.296875 
z
" id="DejaVuSans-64"/>
      <path d="M 8.5 21.578125 
L 8.5 54.6875 
L 17.484375 54.6875 
L 17.484375 21.921875 
Q 17.484375 14.15625 20.5 10.265625 
Q 23.53125 6.390625 29.59375 6.390625 
Q 36.859375 6.390625 41.078125 11.03125 
Q 45.3125 15.671875 45.3125 23.6875 
L 45.3125 54.6875 
L 54.296875 54.6875 
L 54.296875 0 
L 45.3125 0 
L 45.3125 8.40625 
Q 42.046875 3.421875 37.71875 1 
Q 33.40625 -1.421875 27.6875 -1.421875 
Q 18.265625 -1.421875 13.375 4.4375 
Q 8.5 10.296875 8.5 21.578125 
z
M 31.109375 56 
z
" id="DejaVuSans-75"/>
      <path id="DejaVuSans-20"/>
      <path d="M 51.125 44 
L 36.921875 44 
L 32.8125 27.6875 
L 47.125 27.6875 
z
M 43.796875 71.78125 
L 38.71875 51.515625 
L 52.984375 51.515625 
L 58.109375 71.78125 
L 65.921875 71.78125 
L 60.890625 51.515625 
L 76.125 51.515625 
L 76.125 44 
L 58.984375 44 
L 54.984375 27.6875 
L 70.515625 27.6875 
L 70.515625 20.21875 
L 53.078125 20.21875 
L 48 0 
L 40.1875 0 
L 45.21875 20.21875 
L 30.90625 20.21875 
L 25.875 0 
L 18.015625 0 
L 23.09375 20.21875 
L 7.71875 20.21875 
L 7.71875 27.6875 
L 24.90625 27.6875 
L 29 44 
L 13.28125 44 
L 13.28125 51.515625 
L 30.90625 51.515625 
L 35.890625 71.78125 
z
" id="DejaVuSans-23"/>
     </defs>
     <g transform="translate(185.280312 280.567229)scale(0.2 -0.2)">
      <use xlink:href="#DejaVuSans-52"/>
      <use x="69.419922" xlink:href="#DejaVuSans-65"/>
      <use x="130.943359" xlink:href="#DejaVuSans-73"/>
      <use x="183.042969" xlink:href="#DejaVuSans-69"/>
      <use x="210.826172" xlink:href="#DejaVuSans-64"/>
      <use x="274.302734" xlink:href="#DejaVuSans-75"/>
      <use x="337.681641" xlink:href="#DejaVuSans-65"/>
      <use x="399.205078" xlink:href="#DejaVuSans-20"/>
      <use x="430.992188" xlink:href="#DejaVuSans-23"/>
     </g>
    </g>
   </g>
   <g id="matplotlib.axis_2">
    <g id="ytick_1">
     <g id="line2d_11">
      <defs>
       <path d="M 0 0 
L 3.5 0 
" id="m2b43a409d4" style="stroke:#000000;stroke-width:0.8;"/>
      </defs>
      <g>
       <use style="stroke:#000000;stroke-width:0.8;" x="44.354646" xlink:href="#m2b43a409d4" y="242.385354"/>
      </g>
     </g>
     <g id="text_11">
      <!-- 0 -->
      <g transform="translate(30.674646 248.464104)scale(0.16 -0.16)">
       <use xlink:href="#DejaVuSans-30"/>
      </g>
     </g>
    </g>
    <g id="ytick_2">
     <g id="line2d_12">
      <g>
       <use style="stroke:#000000;stroke-width:0.8;" x="44.354646" xlink:href="#m2b43a409d4" y="179.345694"/>
      </g>
     </g>
     <g id="text_12">
      <!-- 1 -->
      <g transform="translate(30.674646 185.424444)scale(0.16 -0.16)">
       <use xlink:href="#DejaVuSans-31"/>
      </g>
     </g>
    </g>
    <g id="ytick_3">
     <g id="line2d_13">
      <g>
       <use style="stroke:#000000;stroke-width:0.8;" x="44.354646" xlink:href="#m2b43a409d4" y="116.306034"/>
      </g>
     </g>
     <g id="text_13">
      <!-- 2 -->
      <g transform="translate(30.674646 122.384784)scale(0.16 -0.16)">
       <use xlink:href="#DejaVuSans-32"/>
      </g>
     </g>
    </g>
    <g id="ytick_4">
     <g id="line2d_14">
      <g>
       <use style="stroke:#000000;stroke-width:0.8;" x="44.354646" xlink:href="#m2b43a409d4" y="53.266374"/>
      </g>
     </g>
     <g id="text_14">
      <!-- 3 -->
      <g transform="translate(30.674646 59.345124)scale(0.16 -0.16)">
       <use xlink:href="#DejaVuSans-33"/>
      </g>
     </g>
    </g>
    <g id="text_15">
     <!-- Fluctuation $[\AA]$ -->
     <defs>
      <path d="M 9.8125 72.90625 
L 51.703125 72.90625 
L 51.703125 64.59375 
L 19.671875 64.59375 
L 19.671875 43.109375 
L 48.578125 43.109375 
L 48.578125 34.8125 
L 19.671875 34.8125 
L 19.671875 0 
L 9.8125 0 
z
" id="DejaVuSans-46"/>
      <path d="M 9.421875 75.984375 
L 18.40625 75.984375 
L 18.40625 0 
L 9.421875 0 
z
" id="DejaVuSans-6c"/>
      <path d="M 48.78125 52.59375 
L 48.78125 44.1875 
Q 44.96875 46.296875 41.140625 47.34375 
Q 37.3125 48.390625 33.40625 48.390625 
Q 24.65625 48.390625 19.8125 42.84375 
Q 14.984375 37.3125 14.984375 27.296875 
Q 14.984375 17.28125 19.8125 11.734375 
Q 24.65625 6.203125 33.40625 6.203125 
Q 37.3125 6.203125 41.140625 7.25 
Q 44.96875 8.296875 48.78125 10.40625 
L 48.78125 2.09375 
Q 45.015625 0.34375 40.984375 -0.53125 
Q 36.96875 -1.421875 32.421875 -1.421875 
Q 20.0625 -1.421875 12.78125 6.34375 
Q 5.515625 14.109375 5.515625 27.296875 
Q 5.515625 40.671875 12.859375 48.328125 
Q 20.21875 56 33.015625 56 
Q 37.15625 56 41.109375 55.140625 
Q 45.0625 54.296875 48.78125 52.59375 
z
" id="DejaVuSans-63"/>
      <path d="M 18.3125 70.21875 
L 18.3125 54.6875 
L 36.8125 54.6875 
L 36.8125 47.703125 
L 18.3125 47.703125 
L 18.3125 18.015625 
Q 18.3125 11.328125 20.140625 9.421875 
Q 21.96875 7.515625 27.59375 7.515625 
L 36.8125 7.515625 
L 36.8125 0 
L 27.59375 0 
Q 17.1875 0 13.234375 3.875 
Q 9.28125 7.765625 9.28125 18.015625 
L 9.28125 47.703125 
L 2.6875 47.703125 
L 2.6875 54.6875 
L 9.28125 54.6875 
L 9.28125 70.21875 
z
" id="DejaVuSans-74"/>
      <path d="M 34.28125 27.484375 
Q 23.390625 27.484375 19.1875 25 
Q 14.984375 22.515625 14.984375 16.5 
Q 14.984375 11.71875 18.140625 8.90625 
Q 21.296875 6.109375 26.703125 6.109375 
Q 34.1875 6.109375 38.703125 11.40625 
Q 43.21875 16.703125 43.21875 25.484375 
L 43.21875 27.484375 
z
M 52.203125 31.203125 
L 52.203125 0 
L 43.21875 0 
L 43.21875 8.296875 
Q 40.140625 3.328125 35.546875 0.953125 
Q 30.953125 -1.421875 24.3125 -1.421875 
Q 15.921875 -1.421875 10.953125 3.296875 
Q 6 8.015625 6 15.921875 
Q 6 25.140625 12.171875 29.828125 
Q 18.359375 34.515625 30.609375 34.515625 
L 43.21875 34.515625 
L 43.21875 35.40625 
Q 43.21875 41.609375 39.140625 45 
Q 35.0625 48.390625 27.6875 48.390625 
Q 23 48.390625 18.546875 47.265625 
Q 14.109375 46.140625 10.015625 43.890625 
L 10.015625 52.203125 
Q 14.9375 54.109375 19.578125 55.046875 
Q 24.21875 56 28.609375 56 
Q 40.484375 56 46.34375 49.84375 
Q 52.203125 43.703125 52.203125 31.203125 
z
" id="DejaVuSans-61"/>
      <path d="M 30.609375 48.390625 
Q 23.390625 48.390625 19.1875 42.75 
Q 14.984375 37.109375 14.984375 27.296875 
Q 14.984375 17.484375 19.15625 11.84375 
Q 23.34375 6.203125 30.609375 6.203125 
Q 37.796875 6.203125 41.984375 11.859375 
Q 46.1875 17.53125 46.1875 27.296875 
Q 46.1875 37.015625 41.984375 42.703125 
Q 37.796875 48.390625 30.609375 48.390625 
z
M 30.609375 56 
Q 42.328125 56 49.015625 48.375 
Q 55.71875 40.765625 55.71875 27.296875 
Q 55.71875 13.875 49.015625 6.21875 
Q 42.328125 -1.421875 30.609375 -1.421875 
Q 18.84375 -1.421875 12.171875 6.21875 
Q 5.515625 13.875 5.515625 27.296875 
Q 5.515625 40.765625 12.171875 48.375 
Q 18.84375 56 30.609375 56 
z
" id="DejaVuSans-6f"/>
      <path d="M 54.890625 33.015625 
L 54.890625 0 
L 45.90625 0 
L 45.90625 32.71875 
Q 45.90625 40.484375 42.875 44.328125 
Q 39.84375 48.1875 33.796875 48.1875 
Q 26.515625 48.1875 22.3125 43.546875 
Q 18.109375 38.921875 18.109375 30.90625 
L 18.109375 0 
L 9.078125 0 
L 9.078125 54.6875 
L 18.109375 54.6875 
L 18.109375 46.1875 
Q 21.34375 51.125 25.703125 53.5625 
Q 30.078125 56 35.796875 56 
Q 45.21875 56 50.046875 50.171875 
Q 54.890625 44.34375 54.890625 33.015625 
z
" id="DejaVuSans-6e"/>
      <path d="M 8.59375 75.984375 
L 29.296875 75.984375 
L 29.296875 69 
L 17.578125 69 
L 17.578125 -6.203125 
L 29.296875 -6.203125 
L 29.296875 -13.1875 
L 8.59375 -13.1875 
z
" id="DejaVuSans-5b"/>
      <path d="M 49.8125 79.390625 
Q 49.8125 82.46875 47.625 84.640625 
Q 45.453125 86.8125 42.390625 86.8125 
Q 39.265625 86.8125 37.140625 84.6875 
Q 35.015625 82.5625 35.015625 79.390625 
Q 35.015625 76.3125 37.140625 74.15625 
Q 39.265625 72.015625 42.390625 72.015625 
Q 45.453125 72.015625 47.625 74.15625 
Q 49.8125 76.3125 49.8125 79.390625 
z
M 34.421875 68.703125 
Q 31.78125 70.515625 30.390625 73.265625 
Q 29 76.03125 29 79.390625 
Q 29 84.96875 32.90625 88.890625 
Q 36.8125 92.828125 42.390625 92.828125 
Q 47.953125 92.828125 51.875 88.890625 
Q 55.8125 84.96875 55.8125 79.390625 
Q 55.8125 75.53125 54.03125 72.546875 
Q 52.25 69.578125 48.875 67.828125 
L 61.53125 0 
L 51.21875 0 
L 48.1875 18.703125 
L 15.375 18.703125 
L 5.078125 0 
L -5.328125 0 
z
M 40.375 63.1875 
L 19.921875 26.90625 
L 46.6875 26.90625 
z
" id="DejaVuSans-Oblique-c5"/>
      <path d="M 30.421875 75.984375 
L 30.421875 -13.1875 
L 9.71875 -13.1875 
L 9.71875 -6.203125 
L 21.390625 -6.203125 
L 21.390625 69 
L 9.71875 69 
L 9.71875 75.984375 
z
" id="DejaVuSans-5d"/>
     </defs>
     <g transform="translate(22.515271 196.41)rotate(-90)scale(0.2 -0.2)">
      <use transform="translate(0 0.171875)" xlink:href="#DejaVuSans-46"/>
      <use transform="translate(57.519531 0.171875)" xlink:href="#DejaVuSans-6c"/>
      <use transform="translate(85.302734 0.171875)" xlink:href="#DejaVuSans-75"/>
      <use transform="translate(148.681641 0.171875)" xlink:href="#DejaVuSans-63"/>
      <use transform="translate(203.662109 0.171875)" xlink:href="#DejaVuSans-74"/>
      <use transform="translate(242.871094 0.171875)" xlink:href="#DejaVuSans-75"/>
      <use transform="translate(306.25 0.171875)" xlink:href="#DejaVuSans-61"/>
      <use transform="translate(367.529297 0.171875)" xlink:href="#DejaVuSans-74"/>
      <use transform="translate(406.738281 0.171875)" xlink:href="#DejaVuSans-69"/>
      <use transform="translate(434.521484 0.171875)" xlink:href="#DejaVuSans-6f"/>
      <use transform="translate(495.703125 0.171875)" xlink:href="#DejaVuSans-6e"/>
      <use transform="translate(559.082031 0.171875)" xlink:href="#DejaVuSans-20"/>
      <use transform="translate(590.869141 0.171875)" xlink:href="#DejaVuSans-5b"/>
      <use transform="translate(629.882812 0.171875)" xlink:href="#DejaVuSans-Oblique-c5"/>
      <use transform="translate(698.291016 0.171875)" xlink:href="#DejaVuSans-5d"/>
     </g>
    </g>
   </g>
   <g id="line2d_15">
    <path clip-path="url(#pc7aaa15df4)" d="M 62.705014 156.664024 
L 65.191514 153.39857 
L 67.678014 127.703605 
L 70.164514 140.557391 
L 72.651013 149.200129 
L 75.137513 140.822158 
L 77.624013 142.480101 
L 80.110513 140.324145 
L 82.597013 163.106678 
L 85.083512 170.129296 
L 87.570012 157.048566 
L 90.056512 166.000198 
L 92.543012 184.52125 
L 95.029512 175.027477 
L 97.516011 161.146144 
L 100.002511 165.848903 
L 102.489011 144.327163 
L 104.975511 140.626735 
L 107.462011 149.256864 
L 109.94851 172.72653 
L 112.43501 172.045702 
L 114.92151 174.18905 
L 117.40801 190.396547 
L 119.89451 188.385581 
L 122.381009 173.293887 
L 124.867509 177.385161 
L 127.354009 177.990341 
L 132.327009 144.730617 
L 134.813508 138.930968 
L 137.300008 135.56465 
L 139.786508 118.49351 
L 142.273008 123.580811 
L 144.759507 88.921606 
L 147.246007 112.479527 
L 149.732507 140.904109 
L 152.219007 155.68691 
L 154.705507 148.178886 
L 157.192006 168.402009 
L 159.678506 185.01296 
L 162.165006 163.888369 
L 164.651506 167.992251 
L 167.138006 189.179881 
L 169.624505 171.29553 
L 172.111005 151.809971 
L 174.597505 164.506158 
L 177.084005 166.794498 
L 179.570505 153.385962 
L 182.057004 151.47586 
L 184.543504 171.642248 
L 187.030004 183.676519 
L 189.516504 170.085168 
L 192.003004 164.594414 
L 194.489503 185.756828 
L 196.976003 188.795339 
L 199.462503 170.204943 
L 201.949003 168.452441 
L 204.435503 183.531528 
L 206.922002 182.573325 
L 209.408502 169.637586 
L 211.895002 168.156154 
L 214.381502 178.021861 
L 216.868002 181.810545 
L 219.354501 184.073669 
L 221.841001 184.193444 
L 224.327501 176.918667 
L 226.814001 178.853985 
L 229.300501 186.960885 
L 231.787 174.132314 
L 234.2735 169.40434 
L 239.2465 196.599649 
L 244.219499 180.228249 
L 246.705999 194.544556 
L 249.192499 194.714763 
L 251.678999 181.715985 
L 254.165499 182.869611 
L 256.651998 191.865371 
L 259.138498 184.559074 
L 261.624998 176.042416 
L 264.111498 175.935249 
L 266.597998 173.842332 
L 269.084497 166.498211 
L 271.570997 170.1356 
L 274.057497 184.143012 
L 276.543997 169.03871 
L 279.030497 161.297439 
L 281.516996 153.058156 
L 284.003496 134.80187 
L 286.489996 91.304505 
L 288.976496 91.191033 
L 291.462996 24.009668 
L 293.949495 87.326702 
L 296.435995 141.60385 
L 298.922495 169.082837 
L 301.408995 164.569198 
L 303.895495 166.038022 
L 306.381994 163.138198 
L 311.354994 185.750524 
L 313.841494 181.375571 
L 316.327994 178.002949 
L 318.814493 187.439987 
L 321.300993 194.260878 
L 323.787493 187.086964 
L 326.273993 185.813563 
L 328.760493 196.895936 
L 331.246992 191.682556 
L 333.733492 181.59621 
L 336.219992 191.430397 
L 338.706492 198.087385 
L 341.192991 182.081615 
L 343.679491 178.286628 
L 346.165991 189.30596 
L 348.652491 184.193444 
L 351.138991 180.80191 
L 353.62549 184.344739 
L 356.11199 197.192222 
L 358.59849 198.629526 
L 361.08499 189.154665 
L 363.57149 193.39093 
L 366.057989 196.864416 
L 368.544489 186.80959 
L 371.030989 178.526179 
L 373.517489 181.117109 
L 376.003989 181.148628 
L 380.976988 161.745021 
L 383.463488 179.143967 
L 385.949988 185.763132 
L 388.436488 172.253732 
L 390.922987 179.812188 
L 393.409487 185.195775 
L 395.895987 166.681026 
L 395.895987 166.681026 
" style="fill:none;stroke:#ff0000;stroke-linecap:round;"/>
   </g>
   <g id="patch_3">
    <path d="M 44.354646 242.385354 
L 44.354646 2.834646 
" style="fill:none;stroke:#000000;stroke-linecap:square;stroke-linejoin:miter;"/>
   </g>
   <g id="patch_4">
    <path d="M 44.354646 242.385354 
L 429.165354 242.385354 
" style="fill:none;stroke:#000000;stroke-linecap:square;stroke-linejoin:miter;"/>
   </g>
   <g id="line2d_16">
    <path clip-path="url(#pc7aaa15df4)" d="M 55.245515 229.777422 
L 57.732015 229.777422 
L 60.218514 229.777422 
L 62.705014 229.777422 
L 65.191514 229.777422 
L 67.678014 229.777422 
" style="fill:none;stroke:#000000;stroke-linecap:round;stroke-width:5;"/>
   </g>
   <g id="line2d_17">
    <path clip-path="url(#pc7aaa15df4)" d="M 77.624013 229.777422 
L 80.110513 229.777422 
L 82.597013 229.777422 
L 85.083512 229.777422 
L 87.570012 229.777422 
L 90.056512 229.777422 
L 92.543012 229.777422 
L 95.029512 229.777422 
L 97.516011 229.777422 
L 100.002511 229.777422 
" style="fill:none;stroke:#000000;stroke-linecap:round;stroke-width:5;"/>
   </g>
   <g id="line2d_18">
    <path clip-path="url(#pc7aaa15df4)" d="M 102.489011 229.777422 
L 104.975511 229.777422 
L 107.462011 229.777422 
L 109.94851 229.777422 
L 112.43501 229.777422 
L 114.92151 229.777422 
L 117.40801 229.777422 
L 119.89451 229.777422 
L 122.381009 229.777422 
L 124.867509 229.777422 
L 127.354009 229.777422 
L 129.840509 229.777422 
L 132.327009 229.777422 
L 134.813508 229.777422 
L 137.300008 229.777422 
" style="fill:none;stroke:#000000;stroke-linecap:round;stroke-width:5;"/>
   </g>
   <g id="line2d_19">
    <path clip-path="url(#pc7aaa15df4)" d="M 147.246007 229.777422 
L 149.732507 229.777422 
L 152.219007 229.777422 
L 154.705507 229.777422 
L 157.192006 229.777422 
L 159.678506 229.777422 
L 162.165006 229.777422 
L 164.651506 229.777422 
L 167.138006 229.777422 
L 169.624505 229.777422 
L 172.111005 229.777422 
L 174.597505 229.777422 
L 177.084005 229.777422 
" style="fill:none;stroke:#000000;stroke-linecap:round;stroke-width:5;"/>
   </g>
   <g id="line2d_20">
    <path clip-path="url(#pc7aaa15df4)" d="M 177.084005 229.777422 
L 179.570505 229.777422 
L 182.057004 229.777422 
L 184.543504 229.777422 
L 187.030004 229.777422 
L 189.516504 229.777422 
L 192.003004 229.777422 
L 194.489503 229.777422 
L 196.976003 229.777422 
L 199.462503 229.777422 
L 201.949003 229.777422 
L 204.435503 229.777422 
L 206.922002 229.777422 
L 209.408502 229.777422 
L 211.895002 229.777422 
L 214.381502 229.777422 
L 216.868002 229.777422 
L 219.354501 229.777422 
L 221.841001 229.777422 
L 224.327501 229.777422 
L 226.814001 229.777422 
" style="fill:none;stroke:#000000;stroke-linecap:round;stroke-width:5;"/>
   </g>
   <g id="line2d_21">
    <path clip-path="url(#pc7aaa15df4)" d="M 231.787 229.777422 
L 234.2735 229.777422 
L 236.76 229.777422 
L 239.2465 229.777422 
L 241.733 229.777422 
L 244.219499 229.777422 
L 246.705999 229.777422 
L 249.192499 229.777422 
L 251.678999 229.777422 
L 254.165499 229.777422 
L 256.651998 229.777422 
L 259.138498 229.777422 
L 261.624998 229.777422 
L 264.111498 229.777422 
L 266.597998 229.777422 
L 269.084497 229.777422 
L 271.570997 229.777422 
L 274.057497 229.777422 
L 276.543997 229.777422 
L 279.030497 229.777422 
L 281.516996 229.777422 
" style="fill:none;stroke:#000000;stroke-linecap:round;stroke-width:5;"/>
   </g>
   <g id="line2d_22">
    <path clip-path="url(#pc7aaa15df4)" d="M 301.408995 229.777422 
L 303.895495 229.777422 
L 306.381994 229.777422 
L 308.868494 229.777422 
L 311.354994 229.777422 
L 313.841494 229.777422 
L 316.327994 229.777422 
L 318.814493 229.777422 
L 321.300993 229.777422 
L 323.787493 229.777422 
L 326.273993 229.777422 
L 328.760493 229.777422 
L 331.246992 229.777422 
L 333.733492 229.777422 
L 336.219992 229.777422 
L 338.706492 229.777422 
L 341.192991 229.777422 
" style="fill:none;stroke:#000000;stroke-linecap:round;stroke-width:5;"/>
   </g>
   <g id="line2d_23">
    <path clip-path="url(#pc7aaa15df4)" d="M 348.652491 229.777422 
L 351.138991 229.777422 
L 353.62549 229.777422 
L 356.11199 229.777422 
L 358.59849 229.777422 
L 361.08499 229.777422 
L 363.57149 229.777422 
L 366.057989 229.777422 
L 368.544489 229.777422 
L 371.030989 229.777422 
L 373.517489 229.777422 
L 376.003989 229.777422 
" style="fill:none;stroke:#000000;stroke-linecap:round;stroke-width:5;"/>
   </g>
   <g id="line2d_24">
    <path clip-path="url(#pc7aaa15df4)" d="M 376.003989 229.777422 
L 378.490488 229.777422 
L 380.976988 229.777422 
L 383.463488 229.777422 
L 385.949988 229.777422 
L 388.436488 229.777422 
L 390.922987 229.777422 
L 393.409487 229.777422 
L 395.895987 229.777422 
L 398.382487 229.777422 
" style="fill:none;stroke:#000000;stroke-linecap:round;stroke-width:5;"/>
   </g>
   <g id="line2d_25">
    <path clip-path="url(#pc7aaa15df4)" d="M 405.841986 229.777422 
L 408.328486 229.777422 
L 410.814986 229.777422 
L 413.301486 229.777422 
L 415.787985 229.777422 
L 418.274485 229.777422 
" style="fill:none;stroke:#000000;stroke-linecap:round;stroke-width:5;"/>
   </g>
   <g id="text_16">
    <!-- α1 -->
    <defs>
     <path d="M 41.3125 25.4375 
L 39.15625 36.71875 
Q 36.96875 48.296875 28.265625 48.296875 
Q 21.734375 48.296875 18.75 42.921875 
Q 14.984375 36.1875 14.984375 27.296875 
Q 14.984375 16.546875 18.65625 11.421875 
Q 22.359375 6.203125 28.265625 6.203125 
Q 34.8125 6.203125 38.328125 16.609375 
z
M 46.34375 40.375 
L 51.171875 54.6875 
L 59.1875 54.6875 
L 49.171875 25.046875 
L 51.125 14.359375 
Q 51.5625 11.96875 53.265625 9.96875 
Q 55.28125 7.625 56.84375 7.625 
L 61.140625 7.625 
L 61.140625 0 
L 55.765625 0 
Q 51.171875 0 47.078125 4.109375 
Q 45.0625 6.15625 44.234375 10.453125 
Q 42 5.03125 37.40625 0.78125 
Q 35.25 -1.21875 28.265625 -1.21875 
Q 16.796875 -1.21875 11.234375 6.203125 
Q 5.515625 13.875 5.515625 27.296875 
Q 5.515625 41.65625 11.71875 48.390625 
Q 18.609375 55.90625 28.265625 55.90625 
Q 43.453125 55.90625 46.34375 40.375 
z
" id="DejaVuSans-3b1"/>
    </defs>
    <g transform="translate(53.041217 227.060644)scale(0.13 -0.13)">
     <use xlink:href="#DejaVuSans-3b1"/>
     <use x="65.917969" xlink:href="#DejaVuSans-31"/>
    </g>
   </g>
   <g id="text_17">
    <!-- α2 -->
    <g transform="translate(80.392715 227.060644)scale(0.13 -0.13)">
     <use xlink:href="#DejaVuSans-3b1"/>
     <use x="65.917969" xlink:href="#DejaVuSans-32"/>
    </g>
   </g>
   <g id="text_18">
    <!-- α3 -->
    <g transform="translate(111.473963 227.060644)scale(0.13 -0.13)">
     <use xlink:href="#DejaVuSans-3b1"/>
     <use x="65.917969" xlink:href="#DejaVuSans-33"/>
    </g>
   </g>
   <g id="text_19">
    <!-- α4 -->
    <g transform="translate(153.744459 227.060644)scale(0.13 -0.13)">
     <use xlink:href="#DejaVuSans-3b1"/>
     <use x="65.917969" xlink:href="#DejaVuSans-34"/>
    </g>
   </g>
   <g id="text_20">
    <!-- α5 -->
    <g transform="translate(193.528456 227.060644)scale(0.13 -0.13)">
     <use xlink:href="#DejaVuSans-3b1"/>
     <use x="65.917969" xlink:href="#DejaVuSans-35"/>
    </g>
   </g>
   <g id="text_21">
    <!-- α6 -->
    <g transform="translate(248.231452 227.060644)scale(0.13 -0.13)">
     <use xlink:href="#DejaVuSans-3b1"/>
     <use x="65.917969" xlink:href="#DejaVuSans-36"/>
    </g>
   </g>
   <g id="text_22">
    <!-- α7 -->
    <g transform="translate(312.880446 227.060644)scale(0.13 -0.13)">
     <use xlink:href="#DejaVuSans-3b1"/>
     <use x="65.917969" xlink:href="#DejaVuSans-37"/>
    </g>
   </g>
   <g id="text_23">
    <!-- α8 -->
    <defs>
     <path d="M 31.78125 34.625 
Q 24.75 34.625 20.71875 30.859375 
Q 16.703125 27.09375 16.703125 20.515625 
Q 16.703125 13.921875 20.71875 10.15625 
Q 24.75 6.390625 31.78125 6.390625 
Q 38.8125 6.390625 42.859375 10.171875 
Q 46.921875 13.96875 46.921875 20.515625 
Q 46.921875 27.09375 42.890625 30.859375 
Q 38.875 34.625 31.78125 34.625 
z
M 21.921875 38.8125 
Q 15.578125 40.375 12.03125 44.71875 
Q 8.5 49.078125 8.5 55.328125 
Q 8.5 64.0625 14.71875 69.140625 
Q 20.953125 74.21875 31.78125 74.21875 
Q 42.671875 74.21875 48.875 69.140625 
Q 55.078125 64.0625 55.078125 55.328125 
Q 55.078125 49.078125 51.53125 44.71875 
Q 48 40.375 41.703125 38.8125 
Q 48.828125 37.15625 52.796875 32.3125 
Q 56.78125 27.484375 56.78125 20.515625 
Q 56.78125 9.90625 50.3125 4.234375 
Q 43.84375 -1.421875 31.78125 -1.421875 
Q 19.734375 -1.421875 13.25 4.234375 
Q 6.78125 9.90625 6.78125 20.515625 
Q 6.78125 27.484375 10.78125 32.3125 
Q 14.796875 37.15625 21.921875 38.8125 
z
M 18.3125 54.390625 
Q 18.3125 48.734375 21.84375 45.5625 
Q 25.390625 42.390625 31.78125 42.390625 
Q 38.140625 42.390625 41.71875 45.5625 
Q 45.3125 48.734375 45.3125 54.390625 
Q 45.3125 60.0625 41.71875 63.234375 
Q 38.140625 66.40625 31.78125 66.40625 
Q 25.390625 66.40625 21.84375 63.234375 
Q 18.3125 60.0625 18.3125 54.390625 
z
" id="DejaVuSans-38"/>
    </defs>
    <g transform="translate(353.907693 227.060644)scale(0.13 -0.13)">
     <use xlink:href="#DejaVuSans-3b1"/>
     <use x="65.917969" xlink:href="#DejaVuSans-38"/>
    </g>
   </g>
   <g id="text_24">
    <!-- α9 -->
    <g transform="translate(378.772691 227.060644)scale(0.13 -0.13)">
     <use xlink:href="#DejaVuSans-3b1"/>
     <use x="65.917969" xlink:href="#DejaVuSans-39"/>
    </g>
   </g>
   <g id="text_25">
    <!-- α10 -->
    <g transform="translate(399.502064 227.060644)scale(0.13 -0.13)">
     <use xlink:href="#DejaVuSans-3b1"/>
     <use x="65.917969" xlink:href="#DejaVuSans-31"/>
     <use x="129.541016" xlink:href="#DejaVuSans-30"/>
    </g>
   </g>
   <g id="legend_1">
    <g id="patch_5">
     <path d="M 55.554646 62.604646 
L 221.427146 62.604646 
Q 224.627146 62.604646 224.627146 59.404646 
L 224.627146 14.034646 
Q 224.627146 10.834646 221.427146 10.834646 
L 55.554646 10.834646 
Q 52.354646 10.834646 52.354646 14.034646 
L 52.354646 59.404646 
Q 52.354646 62.604646 55.554646 62.604646 
z
" style="fill:#ffffff;stroke:#000000;stroke-linejoin:miter;"/>
    </g>
    <g id="line2d_26">
     <path d="M 58.754646 23.792146 
L 90.754646 23.792146 
" style="fill:none;stroke:#0000ff;stroke-linecap:square;"/>
    </g>
    <g id="line2d_27"/>
    <g id="text_26">
     <!-- apo-Na-FAR-1 -->
     <defs>
      <path d="M 18.109375 8.203125 
L 18.109375 -20.796875 
L 9.078125 -20.796875 
L 9.078125 54.6875 
L 18.109375 54.6875 
L 18.109375 46.390625 
Q 20.953125 51.265625 25.265625 53.625 
Q 29.59375 56 35.59375 56 
Q 45.5625 56 51.78125 48.09375 
Q 58.015625 40.1875 58.015625 27.296875 
Q 58.015625 14.40625 51.78125 6.484375 
Q 45.5625 -1.421875 35.59375 -1.421875 
Q 29.59375 -1.421875 25.265625 0.953125 
Q 20.953125 3.328125 18.109375 8.203125 
z
M 48.6875 27.296875 
Q 48.6875 37.203125 44.609375 42.84375 
Q 40.53125 48.484375 33.40625 48.484375 
Q 26.265625 48.484375 22.1875 42.84375 
Q 18.109375 37.203125 18.109375 27.296875 
Q 18.109375 17.390625 22.1875 11.75 
Q 26.265625 6.109375 33.40625 6.109375 
Q 40.53125 6.109375 44.609375 11.75 
Q 48.6875 17.390625 48.6875 27.296875 
z
" id="DejaVuSans-70"/>
      <path d="M 4.890625 31.390625 
L 31.203125 31.390625 
L 31.203125 23.390625 
L 4.890625 23.390625 
z
" id="DejaVuSans-2d"/>
      <path d="M 9.8125 72.90625 
L 23.09375 72.90625 
L 55.421875 11.921875 
L 55.421875 72.90625 
L 64.984375 72.90625 
L 64.984375 0 
L 51.703125 0 
L 19.390625 60.984375 
L 19.390625 0 
L 9.8125 0 
z
" id="DejaVuSans-4e"/>
      <path d="M 34.1875 63.1875 
L 20.796875 26.90625 
L 47.609375 26.90625 
z
M 28.609375 72.90625 
L 39.796875 72.90625 
L 67.578125 0 
L 57.328125 0 
L 50.6875 18.703125 
L 17.828125 18.703125 
L 11.1875 0 
L 0.78125 0 
z
" id="DejaVuSans-41"/>
     </defs>
     <g transform="translate(103.554646 29.392146)scale(0.16 -0.16)">
      <use xlink:href="#DejaVuSans-61"/>
      <use x="61.279297" xlink:href="#DejaVuSans-70"/>
      <use x="124.755859" xlink:href="#DejaVuSans-6f"/>
      <use x="185.953125" xlink:href="#DejaVuSans-2d"/>
      <use x="222.037109" xlink:href="#DejaVuSans-4e"/>
      <use x="296.841797" xlink:href="#DejaVuSans-61"/>
      <use x="358.121094" xlink:href="#DejaVuSans-2d"/>
      <use x="394.205078" xlink:href="#DejaVuSans-46"/>
      <use x="451.583984" xlink:href="#DejaVuSans-41"/>
      <use x="519.992188" xlink:href="#DejaVuSans-52"/>
      <use x="589.412109" xlink:href="#DejaVuSans-2d"/>
      <use x="625.496094" xlink:href="#DejaVuSans-31"/>
     </g>
    </g>
    <g id="line2d_28">
     <path d="M 58.754646 47.277146 
L 90.754646 47.277146 
" style="fill:none;stroke:#ff0000;stroke-linecap:square;"/>
    </g>
    <g id="line2d_29"/>
    <g id="text_27">
     <!-- holo-Na-FAR-1 -->
     <defs>
      <path d="M 54.890625 33.015625 
L 54.890625 0 
L 45.90625 0 
L 45.90625 32.71875 
Q 45.90625 40.484375 42.875 44.328125 
Q 39.84375 48.1875 33.796875 48.1875 
Q 26.515625 48.1875 22.3125 43.546875 
Q 18.109375 38.921875 18.109375 30.90625 
L 18.109375 0 
L 9.078125 0 
L 9.078125 75.984375 
L 18.109375 75.984375 
L 18.109375 46.1875 
Q 21.34375 51.125 25.703125 53.5625 
Q 30.078125 56 35.796875 56 
Q 45.21875 56 50.046875 50.171875 
Q 54.890625 44.34375 54.890625 33.015625 
z
" id="DejaVuSans-68"/>
     </defs>
     <g transform="translate(103.554646 52.877146)scale(0.16 -0.16)">
      <use xlink:href="#DejaVuSans-68"/>
      <use x="63.378906" xlink:href="#DejaVuSans-6f"/>
      <use x="124.560547" xlink:href="#DejaVuSans-6c"/>
      <use x="152.34375" xlink:href="#DejaVuSans-6f"/>
      <use x="213.541016" xlink:href="#DejaVuSans-2d"/>
      <use x="249.625" xlink:href="#DejaVuSans-4e"/>
      <use x="324.429688" xlink:href="#DejaVuSans-61"/>
      <use x="385.708984" xlink:href="#DejaVuSans-2d"/>
      <use x="421.792969" xlink:href="#DejaVuSans-46"/>
      <use x="479.171875" xlink:href="#DejaVuSans-41"/>
      <use x="547.580078" xlink:href="#DejaVuSans-52"/>
      <use x="617" xlink:href="#DejaVuSans-2d"/>
      <use x="653.083984" xlink:href="#DejaVuSans-31"/>
     </g>
    </g>
   </g>
  </g>
 </g>
 <defs>
  <clipPath id="pc7aaa15df4">
   <rect height="239.550709" width="384.810709" x="44.354646" y="2.834646"/>
  </clipPath>
 </defs>
</svg>
