<?xml version="1.0" encoding="utf-8" standalone="no"?>
<!DOCTYPE svg PUBLIC "-//W3C//DTD SVG 1.1//EN"
  "http://www.w3.org/Graphics/SVG/1.1/DTD/svg11.dtd">
<!-- Created with matplotlib (http://matplotlib.org/) -->
<svg height="288pt" version="1.1" viewBox="0 0 432 288" width="432pt" xmlns="http://www.w3.org/2000/svg" xmlns:xlink="http://www.w3.org/1999/xlink">
 <defs>
  <style type="text/css">
*{stroke-linecap:butt;stroke-linejoin:round;}
  </style>
 </defs>
 <g id="figure_1">
  <g id="patch_1">
   <path d="M 0 288 
L 432 288 
L 432 0 
L 0 0 
z
" style="fill:#ffffff;"/>
  </g>
  <g id="axes_1">
   <g id="patch_2">
    <path d="M 36.794646 251.745354 
L 429.165354 251.745354 
L 429.165354 2.834646 
L 36.794646 2.834646 
z
" style="fill:#ffffff;"/>
   </g>
   <g id="line2d_1">
    <path clip-path="url(#pc6bdf5b207)" d="M 67.510658 189.746937 
L 69.962056 186.249087 
L 72.413454 176.142002 
L 74.864851 183.871334 
L 77.316249 182.115859 
L 79.767647 166.886454 
L 82.219044 162.838379 
L 84.670442 150.379743 
L 87.12184 172.336288 
L 89.573237 186.163933 
L 92.024635 182.443373 
L 94.476032 188.587537 
L 96.92743 196.395473 
L 99.378828 191.20765 
L 101.830225 183.111502 
L 104.281623 183.576572 
L 106.733021 169.35591 
L 109.184418 165.203031 
L 111.635816 178.866919 
L 114.087214 197.823434 
L 116.538611 189.609381 
L 118.990009 189.34737 
L 121.441407 204.105155 
L 123.892804 202.559288 
L 126.344202 187.49364 
L 128.7956 189.163962 
L 131.246997 192.360499 
L 133.698395 176.286108 
L 136.149793 152.541336 
L 138.60119 145.473582 
L 141.052588 132.955994 
L 143.503986 117.084661 
L 145.955383 129.576048 
L 148.406781 94.51239 
L 150.858179 123.209174 
L 153.309576 147.333862 
L 155.760974 168.183409 
L 158.212372 164.01088 
L 160.663769 180.635495 
L 163.115167 199.022136 
L 165.566564 184.146446 
L 168.017962 186.000176 
L 170.46936 205.86063 
L 172.920757 194.888908 
L 175.372155 176.960787 
L 177.823553 188.495833 
L 180.27495 193.29719 
L 182.726348 184.519812 
L 185.177746 183.294909 
L 187.629143 199.716466 
L 190.080541 208.015673 
L 192.531939 197.47627 
L 194.983336 192.006784 
L 197.434734 204.45887 
L 199.886132 204.321314 
L 202.337529 191.155248 
L 204.788927 188.64649 
L 207.240325 196.683685 
L 209.691722 192.426002 
L 212.14312 189.760038 
L 214.594518 196.912945 
L 217.045915 195.255724 
L 219.497313 196.10071 
L 221.948711 202.788548 
L 224.400108 202.36933 
L 226.851506 193.755709 
L 229.302904 199.375851 
L 231.754301 208.094276 
L 234.205699 197.685879 
L 236.657096 189.537328 
L 239.108494 195.15092 
L 241.559892 212.784278 
L 244.011289 206.54841 
L 246.462687 195.15092 
L 248.914085 209.279877 
L 251.365482 209.476386 
L 253.81688 194.823405 
L 256.268278 196.375822 
L 258.719675 201.491592 
L 261.171073 183.936837 
L 263.622471 176.194404 
L 266.073868 181.9128 
L 268.525266 172.15943 
L 270.976664 156.045737 
L 273.428061 165.87771 
L 275.879459 187.919408 
L 278.330857 174.70749 
L 280.782254 167.980351 
L 283.233652 174.772993 
L 285.68505 169.395211 
L 288.136447 124.532331 
L 290.587845 117.975499 
L 293.039243 43.000974 
L 295.49064 108.287632 
L 297.942038 165.445392 
L 300.393436 186.09188 
L 302.844833 178.552505 
L 305.296231 179.410592 
L 307.747628 176.947686 
L 310.199026 186.170483 
L 312.650424 196.55268 
L 315.101821 192.498055 
L 317.553219 188.764395 
L 320.004617 194.567944 
L 322.456014 203.194666 
L 324.907412 198.799426 
L 327.35881 196.388923 
L 329.810207 207.02658 
L 332.261605 204.969792 
L 334.713003 194.030821 
L 337.1644 201.995964 
L 339.615798 211.238412 
L 342.067196 195.308126 
L 344.518593 189.799339 
L 346.969991 200.836564 
L 349.421389 196.79504 
L 351.872786 194.377986 
L 354.324184 197.345264 
L 356.775582 210.838844 
L 359.226979 213.786471 
L 361.678377 204.68813 
L 364.129775 210.74059 
L 366.581172 217.821445 
L 369.03257 209.011316 
L 371.483968 203.201216 
L 373.935365 207.629206 
L 376.386763 208.336637 
L 378.83816 200.653156 
L 381.289558 196.729537 
L 383.740956 206.692516 
L 386.192353 210.661987 
L 388.643751 201.131327 
L 391.095149 200.784162 
L 393.546546 204.00035 
L 395.997944 192.819019 
L 395.997944 192.819019 
" style="fill:none;stroke:#0000ff;stroke-linecap:round;"/>
   </g>
   <g id="matplotlib.axis_1">
    <g id="xtick_1">
     <g id="line2d_2">
      <defs>
       <path d="M 0 0 
L 0 -3.5 
" id="m14b8e28edb" style="stroke:#000000;stroke-width:0.8;"/>
      </defs>
      <g>
       <use style="stroke:#000000;stroke-width:0.8;" x="45.448079" xlink:href="#m14b8e28edb" y="251.745354"/>
      </g>
     </g>
     <g id="text_1">
      <!-- 1 -->
      <defs>
       <path d="M 12.40625 8.296875 
L 28.515625 8.296875 
L 28.515625 63.921875 
L 10.984375 60.40625 
L 10.984375 69.390625 
L 28.421875 72.90625 
L 38.28125 72.90625 
L 38.28125 8.296875 
L 54.390625 8.296875 
L 54.390625 0 
L 12.40625 0 
z
" id="DejaVuSans-31"/>
      </defs>
      <g transform="translate(41.948704 263.603636)scale(0.11 -0.11)">
       <use xlink:href="#DejaVuSans-31"/>
      </g>
     </g>
    </g>
    <g id="xtick_2">
     <g id="line2d_3">
      <g>
       <use style="stroke:#000000;stroke-width:0.8;" x="94.476032" xlink:href="#m14b8e28edb" y="251.745354"/>
      </g>
     </g>
     <g id="text_2">
      <!-- 21 -->
      <defs>
       <path d="M 19.1875 8.296875 
L 53.609375 8.296875 
L 53.609375 0 
L 7.328125 0 
L 7.328125 8.296875 
Q 12.9375 14.109375 22.625 23.890625 
Q 32.328125 33.6875 34.8125 36.53125 
Q 39.546875 41.84375 41.421875 45.53125 
Q 43.3125 49.21875 43.3125 52.78125 
Q 43.3125 58.59375 39.234375 62.25 
Q 35.15625 65.921875 28.609375 65.921875 
Q 23.96875 65.921875 18.8125 64.3125 
Q 13.671875 62.703125 7.8125 59.421875 
L 7.8125 69.390625 
Q 13.765625 71.78125 18.9375 73 
Q 24.125 74.21875 28.421875 74.21875 
Q 39.75 74.21875 46.484375 68.546875 
Q 53.21875 62.890625 53.21875 53.421875 
Q 53.21875 48.921875 51.53125 44.890625 
Q 49.859375 40.875 45.40625 35.40625 
Q 44.1875 33.984375 37.640625 27.21875 
Q 31.109375 20.453125 19.1875 8.296875 
z
" id="DejaVuSans-32"/>
      </defs>
      <g transform="translate(87.477282 263.603636)scale(0.11 -0.11)">
       <use xlink:href="#DejaVuSans-32"/>
       <use x="63.623047" xlink:href="#DejaVuSans-31"/>
      </g>
     </g>
    </g>
    <g id="xtick_3">
     <g id="line2d_4">
      <g>
       <use style="stroke:#000000;stroke-width:0.8;" x="143.503986" xlink:href="#m14b8e28edb" y="251.745354"/>
      </g>
     </g>
     <g id="text_3">
      <!-- 41 -->
      <defs>
       <path d="M 37.796875 64.3125 
L 12.890625 25.390625 
L 37.796875 25.390625 
z
M 35.203125 72.90625 
L 47.609375 72.90625 
L 47.609375 25.390625 
L 58.015625 25.390625 
L 58.015625 17.1875 
L 47.609375 17.1875 
L 47.609375 0 
L 37.796875 0 
L 37.796875 17.1875 
L 4.890625 17.1875 
L 4.890625 26.703125 
z
" id="DejaVuSans-34"/>
      </defs>
      <g transform="translate(136.505236 263.603636)scale(0.11 -0.11)">
       <use xlink:href="#DejaVuSans-34"/>
       <use x="63.623047" xlink:href="#DejaVuSans-31"/>
      </g>
     </g>
    </g>
    <g id="xtick_4">
     <g id="line2d_5">
      <g>
       <use style="stroke:#000000;stroke-width:0.8;" x="192.531939" xlink:href="#m14b8e28edb" y="251.745354"/>
      </g>
     </g>
     <g id="text_4">
      <!-- 61 -->
      <defs>
       <path d="M 33.015625 40.375 
Q 26.375 40.375 22.484375 35.828125 
Q 18.609375 31.296875 18.609375 23.390625 
Q 18.609375 15.53125 22.484375 10.953125 
Q 26.375 6.390625 33.015625 6.390625 
Q 39.65625 6.390625 43.53125 10.953125 
Q 47.40625 15.53125 47.40625 23.390625 
Q 47.40625 31.296875 43.53125 35.828125 
Q 39.65625 40.375 33.015625 40.375 
z
M 52.59375 71.296875 
L 52.59375 62.3125 
Q 48.875 64.0625 45.09375 64.984375 
Q 41.3125 65.921875 37.59375 65.921875 
Q 27.828125 65.921875 22.671875 59.328125 
Q 17.53125 52.734375 16.796875 39.40625 
Q 19.671875 43.65625 24.015625 45.921875 
Q 28.375 48.1875 33.59375 48.1875 
Q 44.578125 48.1875 50.953125 41.515625 
Q 57.328125 34.859375 57.328125 23.390625 
Q 57.328125 12.15625 50.6875 5.359375 
Q 44.046875 -1.421875 33.015625 -1.421875 
Q 20.359375 -1.421875 13.671875 8.265625 
Q 6.984375 17.96875 6.984375 36.375 
Q 6.984375 53.65625 15.1875 63.9375 
Q 23.390625 74.21875 37.203125 74.21875 
Q 40.921875 74.21875 44.703125 73.484375 
Q 48.484375 72.75 52.59375 71.296875 
z
" id="DejaVuSans-36"/>
      </defs>
      <g transform="translate(185.533189 263.603636)scale(0.11 -0.11)">
       <use xlink:href="#DejaVuSans-36"/>
       <use x="63.623047" xlink:href="#DejaVuSans-31"/>
      </g>
     </g>
    </g>
    <g id="xtick_5">
     <g id="line2d_6">
      <g>
       <use style="stroke:#000000;stroke-width:0.8;" x="241.559892" xlink:href="#m14b8e28edb" y="251.745354"/>
      </g>
     </g>
     <g id="text_5">
      <!-- 81 -->
      <defs>
       <path d="M 31.78125 34.625 
Q 24.75 34.625 20.71875 30.859375 
Q 16.703125 27.09375 16.703125 20.515625 
Q 16.703125 13.921875 20.71875 10.15625 
Q 24.75 6.390625 31.78125 6.390625 
Q 38.8125 6.390625 42.859375 10.171875 
Q 46.921875 13.96875 46.921875 20.515625 
Q 46.921875 27.09375 42.890625 30.859375 
Q 38.875 34.625 31.78125 34.625 
z
M 21.921875 38.8125 
Q 15.578125 40.375 12.03125 44.71875 
Q 8.5 49.078125 8.5 55.328125 
Q 8.5 64.0625 14.71875 69.140625 
Q 20.953125 74.21875 31.78125 74.21875 
Q 42.671875 74.21875 48.875 69.140625 
Q 55.078125 64.0625 55.078125 55.328125 
Q 55.078125 49.078125 51.53125 44.71875 
Q 48 40.375 41.703125 38.8125 
Q 48.828125 37.15625 52.796875 32.3125 
Q 56.78125 27.484375 56.78125 20.515625 
Q 56.78125 9.90625 50.3125 4.234375 
Q 43.84375 -1.421875 31.78125 -1.421875 
Q 19.734375 -1.421875 13.25 4.234375 
Q 6.78125 9.90625 6.78125 20.515625 
Q 6.78125 27.484375 10.78125 32.3125 
Q 14.796875 37.15625 21.921875 38.8125 
z
M 18.3125 54.390625 
Q 18.3125 48.734375 21.84375 45.5625 
Q 25.390625 42.390625 31.78125 42.390625 
Q 38.140625 42.390625 41.71875 45.5625 
Q 45.3125 48.734375 45.3125 54.390625 
Q 45.3125 60.0625 41.71875 63.234375 
Q 38.140625 66.40625 31.78125 66.40625 
Q 25.390625 66.40625 21.84375 63.234375 
Q 18.3125 60.0625 18.3125 54.390625 
z
" id="DejaVuSans-38"/>
      </defs>
      <g transform="translate(234.561142 263.603636)scale(0.11 -0.11)">
       <use xlink:href="#DejaVuSans-38"/>
       <use x="63.623047" xlink:href="#DejaVuSans-31"/>
      </g>
     </g>
    </g>
    <g id="xtick_6">
     <g id="line2d_7">
      <g>
       <use style="stroke:#000000;stroke-width:0.8;" x="290.587845" xlink:href="#m14b8e28edb" y="251.745354"/>
      </g>
     </g>
     <g id="text_6">
      <!-- 101 -->
      <defs>
       <path d="M 31.78125 66.40625 
Q 24.171875 66.40625 20.328125 58.90625 
Q 16.5 51.421875 16.5 36.375 
Q 16.5 21.390625 20.328125 13.890625 
Q 24.171875 6.390625 31.78125 6.390625 
Q 39.453125 6.390625 43.28125 13.890625 
Q 47.125 21.390625 47.125 36.375 
Q 47.125 51.421875 43.28125 58.90625 
Q 39.453125 66.40625 31.78125 66.40625 
z
M 31.78125 74.21875 
Q 44.046875 74.21875 50.515625 64.515625 
Q 56.984375 54.828125 56.984375 36.375 
Q 56.984375 17.96875 50.515625 8.265625 
Q 44.046875 -1.421875 31.78125 -1.421875 
Q 19.53125 -1.421875 13.0625 8.265625 
Q 6.59375 17.96875 6.59375 36.375 
Q 6.59375 54.828125 13.0625 64.515625 
Q 19.53125 74.21875 31.78125 74.21875 
z
" id="DejaVuSans-30"/>
      </defs>
      <g transform="translate(280.08972 263.603636)scale(0.11 -0.11)">
       <use xlink:href="#DejaVuSans-31"/>
       <use x="63.623047" xlink:href="#DejaVuSans-30"/>
       <use x="127.246094" xlink:href="#DejaVuSans-31"/>
      </g>
     </g>
    </g>
    <g id="xtick_7">
     <g id="line2d_8">
      <g>
       <use style="stroke:#000000;stroke-width:0.8;" x="339.615798" xlink:href="#m14b8e28edb" y="251.745354"/>
      </g>
     </g>
     <g id="text_7">
      <!-- 121 -->
      <g transform="translate(329.117673 263.603636)scale(0.11 -0.11)">
       <use xlink:href="#DejaVuSans-31"/>
       <use x="63.623047" xlink:href="#DejaVuSans-32"/>
       <use x="127.246094" xlink:href="#DejaVuSans-31"/>
      </g>
     </g>
    </g>
    <g id="text_8">
     <!-- Residue # -->
     <defs>
      <path d="M 44.390625 34.1875 
Q 47.5625 33.109375 50.5625 29.59375 
Q 53.5625 26.078125 56.59375 19.921875 
L 66.609375 0 
L 56 0 
L 46.6875 18.703125 
Q 43.0625 26.03125 39.671875 28.421875 
Q 36.28125 30.8125 30.421875 30.8125 
L 19.671875 30.8125 
L 19.671875 0 
L 9.8125 0 
L 9.8125 72.90625 
L 32.078125 72.90625 
Q 44.578125 72.90625 50.734375 67.671875 
Q 56.890625 62.453125 56.890625 51.90625 
Q 56.890625 45.015625 53.6875 40.46875 
Q 50.484375 35.9375 44.390625 34.1875 
z
M 19.671875 64.796875 
L 19.671875 38.921875 
L 32.078125 38.921875 
Q 39.203125 38.921875 42.84375 42.21875 
Q 46.484375 45.515625 46.484375 51.90625 
Q 46.484375 58.296875 42.84375 61.546875 
Q 39.203125 64.796875 32.078125 64.796875 
z
" id="DejaVuSans-52"/>
      <path d="M 56.203125 29.59375 
L 56.203125 25.203125 
L 14.890625 25.203125 
Q 15.484375 15.921875 20.484375 11.0625 
Q 25.484375 6.203125 34.421875 6.203125 
Q 39.59375 6.203125 44.453125 7.46875 
Q 49.3125 8.734375 54.109375 11.28125 
L 54.109375 2.78125 
Q 49.265625 0.734375 44.1875 -0.34375 
Q 39.109375 -1.421875 33.890625 -1.421875 
Q 20.796875 -1.421875 13.15625 6.1875 
Q 5.515625 13.8125 5.515625 26.8125 
Q 5.515625 40.234375 12.765625 48.109375 
Q 20.015625 56 32.328125 56 
Q 43.359375 56 49.78125 48.890625 
Q 56.203125 41.796875 56.203125 29.59375 
z
M 47.21875 32.234375 
Q 47.125 39.59375 43.09375 43.984375 
Q 39.0625 48.390625 32.421875 48.390625 
Q 24.90625 48.390625 20.390625 44.140625 
Q 15.875 39.890625 15.1875 32.171875 
z
" id="DejaVuSans-65"/>
      <path d="M 44.28125 53.078125 
L 44.28125 44.578125 
Q 40.484375 46.53125 36.375 47.5 
Q 32.28125 48.484375 27.875 48.484375 
Q 21.1875 48.484375 17.84375 46.4375 
Q 14.5 44.390625 14.5 40.28125 
Q 14.5 37.15625 16.890625 35.375 
Q 19.28125 33.59375 26.515625 31.984375 
L 29.59375 31.296875 
Q 39.15625 29.25 43.1875 25.515625 
Q 47.21875 21.78125 47.21875 15.09375 
Q 47.21875 7.46875 41.1875 3.015625 
Q 35.15625 -1.421875 24.609375 -1.421875 
Q 20.21875 -1.421875 15.453125 -0.5625 
Q 10.6875 0.296875 5.421875 2 
L 5.421875 11.28125 
Q 10.40625 8.6875 15.234375 7.390625 
Q 20.0625 6.109375 24.8125 6.109375 
Q 31.15625 6.109375 34.5625 8.28125 
Q 37.984375 10.453125 37.984375 14.40625 
Q 37.984375 18.0625 35.515625 20.015625 
Q 33.0625 21.96875 24.703125 23.78125 
L 21.578125 24.515625 
Q 13.234375 26.265625 9.515625 29.90625 
Q 5.8125 33.546875 5.8125 39.890625 
Q 5.8125 47.609375 11.28125 51.796875 
Q 16.75 56 26.8125 56 
Q 31.78125 56 36.171875 55.265625 
Q 40.578125 54.546875 44.28125 53.078125 
z
" id="DejaVuSans-73"/>
      <path d="M 9.421875 54.6875 
L 18.40625 54.6875 
L 18.40625 0 
L 9.421875 0 
z
M 9.421875 75.984375 
L 18.40625 75.984375 
L 18.40625 64.59375 
L 9.421875 64.59375 
z
" id="DejaVuSans-69"/>
      <path d="M 45.40625 46.390625 
L 45.40625 75.984375 
L 54.390625 75.984375 
L 54.390625 0 
L 45.40625 0 
L 45.40625 8.203125 
Q 42.578125 3.328125 38.25 0.953125 
Q 33.9375 -1.421875 27.875 -1.421875 
Q 17.96875 -1.421875 11.734375 6.484375 
Q 5.515625 14.40625 5.515625 27.296875 
Q 5.515625 40.1875 11.734375 48.09375 
Q 17.96875 56 27.875 56 
Q 33.9375 56 38.25 53.625 
Q 42.578125 51.265625 45.40625 46.390625 
z
M 14.796875 27.296875 
Q 14.796875 17.390625 18.875 11.75 
Q 22.953125 6.109375 30.078125 6.109375 
Q 37.203125 6.109375 41.296875 11.75 
Q 45.40625 17.390625 45.40625 27.296875 
Q 45.40625 37.203125 41.296875 42.84375 
Q 37.203125 48.484375 30.078125 48.484375 
Q 22.953125 48.484375 18.875 42.84375 
Q 14.796875 37.203125 14.796875 27.296875 
z
" id="DejaVuSans-64"/>
      <path d="M 8.5 21.578125 
L 8.5 54.6875 
L 17.484375 54.6875 
L 17.484375 21.921875 
Q 17.484375 14.15625 20.5 10.265625 
Q 23.53125 6.390625 29.59375 6.390625 
Q 36.859375 6.390625 41.078125 11.03125 
Q 45.3125 15.671875 45.3125 23.6875 
L 45.3125 54.6875 
L 54.296875 54.6875 
L 54.296875 0 
L 45.3125 0 
L 45.3125 8.40625 
Q 42.046875 3.421875 37.71875 1 
Q 33.40625 -1.421875 27.6875 -1.421875 
Q 18.265625 -1.421875 13.375 4.4375 
Q 8.5 10.296875 8.5 21.578125 
z
M 31.109375 56 
z
" id="DejaVuSans-75"/>
      <path id="DejaVuSans-20"/>
      <path d="M 51.125 44 
L 36.921875 44 
L 32.8125 27.6875 
L 47.125 27.6875 
z
M 43.796875 71.78125 
L 38.71875 51.515625 
L 52.984375 51.515625 
L 58.109375 71.78125 
L 65.921875 71.78125 
L 60.890625 51.515625 
L 76.125 51.515625 
L 76.125 44 
L 58.984375 44 
L 54.984375 27.6875 
L 70.515625 27.6875 
L 70.515625 20.21875 
L 53.078125 20.21875 
L 48 0 
L 40.1875 0 
L 45.21875 20.21875 
L 30.90625 20.21875 
L 25.875 0 
L 18.015625 0 
L 23.09375 20.21875 
L 7.71875 20.21875 
L 7.71875 27.6875 
L 24.90625 27.6875 
L 29 44 
L 13.28125 44 
L 13.28125 51.515625 
L 30.90625 51.515625 
L 35.890625 71.78125 
z
" id="DejaVuSans-23"/>
     </defs>
     <g transform="translate(191.79625 282.048792)scale(0.16 -0.16)">
      <use xlink:href="#DejaVuSans-52"/>
      <use x="69.419922" xlink:href="#DejaVuSans-65"/>
      <use x="130.943359" xlink:href="#DejaVuSans-73"/>
      <use x="183.042969" xlink:href="#DejaVuSans-69"/>
      <use x="210.826172" xlink:href="#DejaVuSans-64"/>
      <use x="274.302734" xlink:href="#DejaVuSans-75"/>
      <use x="337.681641" xlink:href="#DejaVuSans-65"/>
      <use x="399.205078" xlink:href="#DejaVuSans-20"/>
      <use x="430.992188" xlink:href="#DejaVuSans-23"/>
     </g>
    </g>
   </g>
   <g id="matplotlib.axis_2">
    <g id="ytick_1">
     <g id="line2d_9">
      <defs>
       <path d="M 0 0 
L 3.5 0 
" id="mc5f0e485ab" style="stroke:#000000;stroke-width:0.8;"/>
      </defs>
      <g>
       <use style="stroke:#000000;stroke-width:0.8;" x="36.794646" xlink:href="#mc5f0e485ab" y="251.745354"/>
      </g>
     </g>
     <g id="text_9">
      <!-- 0 -->
      <g transform="translate(26.295896 255.924495)scale(0.11 -0.11)">
       <use xlink:href="#DejaVuSans-30"/>
      </g>
     </g>
    </g>
    <g id="ytick_2">
     <g id="line2d_10">
      <g>
       <use style="stroke:#000000;stroke-width:0.8;" x="36.794646" xlink:href="#mc5f0e485ab" y="186.242536"/>
      </g>
     </g>
     <g id="text_10">
      <!-- 1 -->
      <g transform="translate(26.295896 190.421677)scale(0.11 -0.11)">
       <use xlink:href="#DejaVuSans-31"/>
      </g>
     </g>
    </g>
    <g id="ytick_3">
     <g id="line2d_11">
      <g>
       <use style="stroke:#000000;stroke-width:0.8;" x="36.794646" xlink:href="#mc5f0e485ab" y="120.739718"/>
      </g>
     </g>
     <g id="text_11">
      <!-- 2 -->
      <g transform="translate(26.295896 124.918859)scale(0.11 -0.11)">
       <use xlink:href="#DejaVuSans-32"/>
      </g>
     </g>
    </g>
    <g id="ytick_4">
     <g id="line2d_12">
      <g>
       <use style="stroke:#000000;stroke-width:0.8;" x="36.794646" xlink:href="#mc5f0e485ab" y="55.2369"/>
      </g>
     </g>
     <g id="text_12">
      <!-- 3 -->
      <defs>
       <path d="M 40.578125 39.3125 
Q 47.65625 37.796875 51.625 33 
Q 55.609375 28.21875 55.609375 21.1875 
Q 55.609375 10.40625 48.1875 4.484375 
Q 40.765625 -1.421875 27.09375 -1.421875 
Q 22.515625 -1.421875 17.65625 -0.515625 
Q 12.796875 0.390625 7.625 2.203125 
L 7.625 11.71875 
Q 11.71875 9.328125 16.59375 8.109375 
Q 21.484375 6.890625 26.8125 6.890625 
Q 36.078125 6.890625 40.9375 10.546875 
Q 45.796875 14.203125 45.796875 21.1875 
Q 45.796875 27.640625 41.28125 31.265625 
Q 36.765625 34.90625 28.71875 34.90625 
L 20.21875 34.90625 
L 20.21875 43.015625 
L 29.109375 43.015625 
Q 36.375 43.015625 40.234375 45.921875 
Q 44.09375 48.828125 44.09375 54.296875 
Q 44.09375 59.90625 40.109375 62.90625 
Q 36.140625 65.921875 28.71875 65.921875 
Q 24.65625 65.921875 20.015625 65.03125 
Q 15.375 64.15625 9.8125 62.3125 
L 9.8125 71.09375 
Q 15.4375 72.65625 20.34375 73.4375 
Q 25.25 74.21875 29.59375 74.21875 
Q 40.828125 74.21875 47.359375 69.109375 
Q 53.90625 64.015625 53.90625 55.328125 
Q 53.90625 49.265625 50.4375 45.09375 
Q 46.96875 40.921875 40.578125 39.3125 
z
" id="DejaVuSans-33"/>
      </defs>
      <g transform="translate(26.295896 59.416041)scale(0.11 -0.11)">
       <use xlink:href="#DejaVuSans-33"/>
      </g>
     </g>
    </g>
    <g id="text_13">
     <!-- Fluctuation $[\AA]$ -->
     <defs>
      <path d="M 9.8125 72.90625 
L 51.703125 72.90625 
L 51.703125 64.59375 
L 19.671875 64.59375 
L 19.671875 43.109375 
L 48.578125 43.109375 
L 48.578125 34.8125 
L 19.671875 34.8125 
L 19.671875 0 
L 9.8125 0 
z
" id="DejaVuSans-46"/>
      <path d="M 9.421875 75.984375 
L 18.40625 75.984375 
L 18.40625 0 
L 9.421875 0 
z
" id="DejaVuSans-6c"/>
      <path d="M 48.78125 52.59375 
L 48.78125 44.1875 
Q 44.96875 46.296875 41.140625 47.34375 
Q 37.3125 48.390625 33.40625 48.390625 
Q 24.65625 48.390625 19.8125 42.84375 
Q 14.984375 37.3125 14.984375 27.296875 
Q 14.984375 17.28125 19.8125 11.734375 
Q 24.65625 6.203125 33.40625 6.203125 
Q 37.3125 6.203125 41.140625 7.25 
Q 44.96875 8.296875 48.78125 10.40625 
L 48.78125 2.09375 
Q 45.015625 0.34375 40.984375 -0.53125 
Q 36.96875 -1.421875 32.421875 -1.421875 
Q 20.0625 -1.421875 12.78125 6.34375 
Q 5.515625 14.109375 5.515625 27.296875 
Q 5.515625 40.671875 12.859375 48.328125 
Q 20.21875 56 33.015625 56 
Q 37.15625 56 41.109375 55.140625 
Q 45.0625 54.296875 48.78125 52.59375 
z
" id="DejaVuSans-63"/>
      <path d="M 18.3125 70.21875 
L 18.3125 54.6875 
L 36.8125 54.6875 
L 36.8125 47.703125 
L 18.3125 47.703125 
L 18.3125 18.015625 
Q 18.3125 11.328125 20.140625 9.421875 
Q 21.96875 7.515625 27.59375 7.515625 
L 36.8125 7.515625 
L 36.8125 0 
L 27.59375 0 
Q 17.1875 0 13.234375 3.875 
Q 9.28125 7.765625 9.28125 18.015625 
L 9.28125 47.703125 
L 2.6875 47.703125 
L 2.6875 54.6875 
L 9.28125 54.6875 
L 9.28125 70.21875 
z
" id="DejaVuSans-74"/>
      <path d="M 34.28125 27.484375 
Q 23.390625 27.484375 19.1875 25 
Q 14.984375 22.515625 14.984375 16.5 
Q 14.984375 11.71875 18.140625 8.90625 
Q 21.296875 6.109375 26.703125 6.109375 
Q 34.1875 6.109375 38.703125 11.40625 
Q 43.21875 16.703125 43.21875 25.484375 
L 43.21875 27.484375 
z
M 52.203125 31.203125 
L 52.203125 0 
L 43.21875 0 
L 43.21875 8.296875 
Q 40.140625 3.328125 35.546875 0.953125 
Q 30.953125 -1.421875 24.3125 -1.421875 
Q 15.921875 -1.421875 10.953125 3.296875 
Q 6 8.015625 6 15.921875 
Q 6 25.140625 12.171875 29.828125 
Q 18.359375 34.515625 30.609375 34.515625 
L 43.21875 34.515625 
L 43.21875 35.40625 
Q 43.21875 41.609375 39.140625 45 
Q 35.0625 48.390625 27.6875 48.390625 
Q 23 48.390625 18.546875 47.265625 
Q 14.109375 46.140625 10.015625 43.890625 
L 10.015625 52.203125 
Q 14.9375 54.109375 19.578125 55.046875 
Q 24.21875 56 28.609375 56 
Q 40.484375 56 46.34375 49.84375 
Q 52.203125 43.703125 52.203125 31.203125 
z
" id="DejaVuSans-61"/>
      <path d="M 30.609375 48.390625 
Q 23.390625 48.390625 19.1875 42.75 
Q 14.984375 37.109375 14.984375 27.296875 
Q 14.984375 17.484375 19.15625 11.84375 
Q 23.34375 6.203125 30.609375 6.203125 
Q 37.796875 6.203125 41.984375 11.859375 
Q 46.1875 17.53125 46.1875 27.296875 
Q 46.1875 37.015625 41.984375 42.703125 
Q 37.796875 48.390625 30.609375 48.390625 
z
M 30.609375 56 
Q 42.328125 56 49.015625 48.375 
Q 55.71875 40.765625 55.71875 27.296875 
Q 55.71875 13.875 49.015625 6.21875 
Q 42.328125 -1.421875 30.609375 -1.421875 
Q 18.84375 -1.421875 12.171875 6.21875 
Q 5.515625 13.875 5.515625 27.296875 
Q 5.515625 40.765625 12.171875 48.375 
Q 18.84375 56 30.609375 56 
z
" id="DejaVuSans-6f"/>
      <path d="M 54.890625 33.015625 
L 54.890625 0 
L 45.90625 0 
L 45.90625 32.71875 
Q 45.90625 40.484375 42.875 44.328125 
Q 39.84375 48.1875 33.796875 48.1875 
Q 26.515625 48.1875 22.3125 43.546875 
Q 18.109375 38.921875 18.109375 30.90625 
L 18.109375 0 
L 9.078125 0 
L 9.078125 54.6875 
L 18.109375 54.6875 
L 18.109375 46.1875 
Q 21.34375 51.125 25.703125 53.5625 
Q 30.078125 56 35.796875 56 
Q 45.21875 56 50.046875 50.171875 
Q 54.890625 44.34375 54.890625 33.015625 
z
" id="DejaVuSans-6e"/>
      <path d="M 8.59375 75.984375 
L 29.296875 75.984375 
L 29.296875 69 
L 17.578125 69 
L 17.578125 -6.203125 
L 29.296875 -6.203125 
L 29.296875 -13.1875 
L 8.59375 -13.1875 
z
" id="DejaVuSans-5b"/>
      <path d="M 49.8125 79.390625 
Q 49.8125 82.46875 47.625 84.640625 
Q 45.453125 86.8125 42.390625 86.8125 
Q 39.265625 86.8125 37.140625 84.6875 
Q 35.015625 82.5625 35.015625 79.390625 
Q 35.015625 76.3125 37.140625 74.15625 
Q 39.265625 72.015625 42.390625 72.015625 
Q 45.453125 72.015625 47.625 74.15625 
Q 49.8125 76.3125 49.8125 79.390625 
z
M 34.421875 68.703125 
Q 31.78125 70.515625 30.390625 73.265625 
Q 29 76.03125 29 79.390625 
Q 29 84.96875 32.90625 88.890625 
Q 36.8125 92.828125 42.390625 92.828125 
Q 47.953125 92.828125 51.875 88.890625 
Q 55.8125 84.96875 55.8125 79.390625 
Q 55.8125 75.53125 54.03125 72.546875 
Q 52.25 69.578125 48.875 67.828125 
L 61.53125 0 
L 51.21875 0 
L 48.1875 18.703125 
L 15.375 18.703125 
L 5.078125 0 
L -5.328125 0 
z
M 40.375 63.1875 
L 19.921875 26.90625 
L 46.6875 26.90625 
z
" id="DejaVuSans-Oblique-c5"/>
      <path d="M 30.421875 75.984375 
L 30.421875 -13.1875 
L 9.71875 -13.1875 
L 9.71875 -6.203125 
L 21.390625 -6.203125 
L 21.390625 69 
L 9.71875 69 
L 9.71875 75.984375 
z
" id="DejaVuSans-5d"/>
     </defs>
     <g transform="translate(18.968396 186.33)rotate(-90)scale(0.16 -0.16)">
      <use transform="translate(0 0.171875)" xlink:href="#DejaVuSans-46"/>
      <use transform="translate(57.519531 0.171875)" xlink:href="#DejaVuSans-6c"/>
      <use transform="translate(85.302734 0.171875)" xlink:href="#DejaVuSans-75"/>
      <use transform="translate(148.681641 0.171875)" xlink:href="#DejaVuSans-63"/>
      <use transform="translate(203.662109 0.171875)" xlink:href="#DejaVuSans-74"/>
      <use transform="translate(242.871094 0.171875)" xlink:href="#DejaVuSans-75"/>
      <use transform="translate(306.25 0.171875)" xlink:href="#DejaVuSans-61"/>
      <use transform="translate(367.529297 0.171875)" xlink:href="#DejaVuSans-74"/>
      <use transform="translate(406.738281 0.171875)" xlink:href="#DejaVuSans-69"/>
      <use transform="translate(434.521484 0.171875)" xlink:href="#DejaVuSans-6f"/>
      <use transform="translate(495.703125 0.171875)" xlink:href="#DejaVuSans-6e"/>
      <use transform="translate(559.082031 0.171875)" xlink:href="#DejaVuSans-20"/>
      <use transform="translate(590.869141 0.171875)" xlink:href="#DejaVuSans-5b"/>
      <use transform="translate(629.882812 0.171875)" xlink:href="#DejaVuSans-Oblique-c5"/>
      <use transform="translate(698.291016 0.171875)" xlink:href="#DejaVuSans-5d"/>
     </g>
    </g>
   </g>
   <g id="line2d_13">
    <path clip-path="url(#pc6bdf5b207)" d="M 67.510658 162.674622 
L 69.962056 159.281576 
L 72.413454 132.582628 
L 74.864851 145.938652 
L 77.316249 154.919089 
L 79.767647 146.213764 
L 82.219044 147.936488 
L 84.670442 145.696292 
L 87.12184 169.36901 
L 89.573237 176.666024 
L 92.024635 163.07419 
L 94.476032 172.37559 
L 96.92743 191.620318 
L 99.378828 181.755593 
L 101.830225 167.331873 
L 104.281623 172.218383 
L 106.733021 149.855721 
L 109.184418 146.010705 
L 111.635816 154.978041 
L 114.087214 179.36474 
L 116.538611 178.65731 
L 118.990009 180.884406 
L 121.441407 197.72518 
L 123.892804 195.63564 
L 126.344202 179.954266 
L 128.7956 184.205399 
L 131.246997 184.834226 
L 136.149793 150.274939 
L 138.60119 144.24868 
L 141.052588 140.750829 
L 143.503986 123.012666 
L 145.955383 128.298743 
L 148.406781 92.285294 
L 150.858179 116.763697 
L 153.309576 146.298918 
L 155.760974 161.659329 
L 158.212372 153.857943 
L 160.663769 174.871247 
L 163.115167 192.13124 
L 165.566564 170.181245 
L 168.017962 174.445479 
L 170.46936 196.460976 
L 172.920757 177.877826 
L 175.372155 157.630905 
L 177.823553 170.823173 
L 180.27495 173.200925 
L 182.726348 159.268476 
L 185.177746 157.28374 
L 187.629143 178.238092 
L 190.080541 190.74258 
L 192.531939 176.620172 
L 194.983336 170.914877 
L 197.434734 192.904173 
L 199.886132 196.061409 
L 202.337529 176.744628 
L 204.788927 174.923649 
L 207.240325 190.591923 
L 209.691722 189.596281 
L 212.14312 176.155102 
L 214.594518 174.615786 
L 217.045915 184.866977 
L 219.497313 188.803696 
L 221.948711 191.155248 
L 224.400108 191.279703 
L 226.851506 183.720678 
L 229.302904 185.731614 
L 231.754301 194.155277 
L 234.205699 180.825453 
L 236.657096 175.912742 
L 241.559892 204.170658 
L 246.462687 187.159576 
L 248.914085 202.035266 
L 251.365482 202.212123 
L 253.81688 188.705442 
L 256.268278 189.904144 
L 258.719675 199.251396 
L 261.171073 191.659619 
L 263.622471 182.810189 
L 266.073868 182.698834 
L 268.525266 180.52414 
L 270.976664 172.893062 
L 273.428061 176.672575 
L 275.879459 191.227301 
L 278.330857 175.532826 
L 280.782254 167.489079 
L 283.233652 158.927861 
L 285.68505 139.958245 
L 288.136447 94.761301 
L 290.587845 94.643395 
L 293.039243 24.837042 
L 295.49064 90.628073 
L 297.942038 147.025999 
L 300.393436 175.578677 
L 302.844833 170.888676 
L 305.296231 172.414891 
L 307.747628 169.401762 
L 312.650424 192.897623 
L 315.101821 188.351727 
L 317.553219 184.847326 
L 320.004617 194.653098 
L 322.456014 201.740503 
L 324.907412 194.286282 
L 327.35881 192.963125 
L 329.810207 204.478521 
L 332.261605 199.061438 
L 334.713003 188.580987 
L 337.1644 198.799426 
L 339.615798 205.716524 
L 342.067196 189.085359 
L 344.518593 185.142089 
L 346.969991 196.591982 
L 349.421389 191.279703 
L 351.872786 187.755651 
L 354.324184 191.43691 
L 356.775582 204.786384 
L 359.226979 206.279848 
L 361.678377 196.434775 
L 364.129775 200.836564 
L 366.581172 204.445769 
L 369.03257 193.99807 
L 371.483968 185.391 
L 373.935365 188.083165 
L 376.386763 188.115917 
L 381.289558 167.954149 
L 383.740956 186.032927 
L 386.192353 192.910723 
L 388.643751 178.873469 
L 391.095149 186.727257 
L 393.546546 192.321198 
L 395.997944 173.08302 
L 395.997944 173.08302 
" style="fill:none;stroke:#ff0000;stroke-linecap:round;"/>
   </g>
   <g id="patch_3">
    <path d="M 36.794646 251.745354 
L 36.794646 2.834646 
" style="fill:none;stroke:#000000;stroke-linecap:square;stroke-linejoin:miter;"/>
   </g>
   <g id="patch_4">
    <path d="M 36.794646 251.745354 
L 429.165354 251.745354 
" style="fill:none;stroke:#000000;stroke-linecap:square;stroke-linejoin:miter;"/>
   </g>
   <g id="line2d_14">
    <path clip-path="url(#pc6bdf5b207)" d="M 47.899477 238.644791 
L 50.350875 238.644791 
L 52.802272 238.644791 
L 55.25367 238.644791 
L 57.705068 238.644791 
" style="fill:none;stroke:#000000;stroke-linecap:round;stroke-width:5;"/>
   </g>
   <g id="line2d_15">
    <path clip-path="url(#pc6bdf5b207)" d="M 60.156465 238.644791 
L 62.607863 238.644791 
L 65.059261 238.644791 
L 67.510658 238.644791 
L 69.962056 238.644791 
L 72.413454 238.644791 
" style="fill:none;stroke:#000000;stroke-linecap:round;stroke-width:5;"/>
   </g>
   <g id="line2d_16">
    <path clip-path="url(#pc6bdf5b207)" d="M 82.219044 238.644791 
L 84.670442 238.644791 
L 87.12184 238.644791 
L 89.573237 238.644791 
L 92.024635 238.644791 
L 94.476032 238.644791 
L 96.92743 238.644791 
L 99.378828 238.644791 
L 101.830225 238.644791 
L 104.281623 238.644791 
" style="fill:none;stroke:#000000;stroke-linecap:round;stroke-width:5;"/>
   </g>
   <g id="line2d_17">
    <path clip-path="url(#pc6bdf5b207)" d="M 106.733021 238.644791 
L 109.184418 238.644791 
L 111.635816 238.644791 
L 114.087214 238.644791 
L 116.538611 238.644791 
L 118.990009 238.644791 
L 121.441407 238.644791 
L 123.892804 238.644791 
L 126.344202 238.644791 
L 128.7956 238.644791 
L 131.246997 238.644791 
L 133.698395 238.644791 
L 136.149793 238.644791 
L 138.60119 238.644791 
L 141.052588 238.644791 
" style="fill:none;stroke:#000000;stroke-linecap:round;stroke-width:5;"/>
   </g>
   <g id="line2d_18">
    <path clip-path="url(#pc6bdf5b207)" d="M 150.858179 238.644791 
L 153.309576 238.644791 
L 155.760974 238.644791 
L 158.212372 238.644791 
L 160.663769 238.644791 
L 163.115167 238.644791 
L 165.566564 238.644791 
L 168.017962 238.644791 
L 170.46936 238.644791 
L 172.920757 238.644791 
L 175.372155 238.644791 
L 177.823553 238.644791 
L 180.27495 238.644791 
" style="fill:none;stroke:#000000;stroke-linecap:round;stroke-width:5;"/>
   </g>
   <g id="line2d_19">
    <path clip-path="url(#pc6bdf5b207)" d="M 180.27495 238.644791 
L 182.726348 238.644791 
L 185.177746 238.644791 
L 187.629143 238.644791 
L 190.080541 238.644791 
L 192.531939 238.644791 
L 194.983336 238.644791 
L 197.434734 238.644791 
L 199.886132 238.644791 
L 202.337529 238.644791 
L 204.788927 238.644791 
L 207.240325 238.644791 
L 209.691722 238.644791 
L 212.14312 238.644791 
L 214.594518 238.644791 
L 217.045915 238.644791 
L 219.497313 238.644791 
L 221.948711 238.644791 
L 224.400108 238.644791 
L 226.851506 238.644791 
L 229.302904 238.644791 
" style="fill:none;stroke:#000000;stroke-linecap:round;stroke-width:5;"/>
   </g>
   <g id="line2d_20">
    <path clip-path="url(#pc6bdf5b207)" d="M 234.205699 238.644791 
L 236.657096 238.644791 
L 239.108494 238.644791 
L 241.559892 238.644791 
L 244.011289 238.644791 
L 246.462687 238.644791 
L 248.914085 238.644791 
L 251.365482 238.644791 
L 253.81688 238.644791 
L 256.268278 238.644791 
L 258.719675 238.644791 
L 261.171073 238.644791 
L 263.622471 238.644791 
L 266.073868 238.644791 
L 268.525266 238.644791 
L 270.976664 238.644791 
L 273.428061 238.644791 
L 275.879459 238.644791 
L 278.330857 238.644791 
L 280.782254 238.644791 
L 283.233652 238.644791 
" style="fill:none;stroke:#000000;stroke-linecap:round;stroke-width:5;"/>
   </g>
   <g id="line2d_21">
    <path clip-path="url(#pc6bdf5b207)" d="M 302.844833 238.644791 
L 305.296231 238.644791 
L 307.747628 238.644791 
L 310.199026 238.644791 
L 312.650424 238.644791 
L 315.101821 238.644791 
L 317.553219 238.644791 
L 320.004617 238.644791 
L 322.456014 238.644791 
L 324.907412 238.644791 
L 327.35881 238.644791 
L 329.810207 238.644791 
L 332.261605 238.644791 
L 334.713003 238.644791 
L 337.1644 238.644791 
L 339.615798 238.644791 
L 342.067196 238.644791 
" style="fill:none;stroke:#000000;stroke-linecap:round;stroke-width:5;"/>
   </g>
   <g id="line2d_22">
    <path clip-path="url(#pc6bdf5b207)" d="M 349.421389 238.644791 
L 351.872786 238.644791 
L 354.324184 238.644791 
L 356.775582 238.644791 
L 359.226979 238.644791 
L 361.678377 238.644791 
L 364.129775 238.644791 
L 366.581172 238.644791 
L 369.03257 238.644791 
L 371.483968 238.644791 
L 373.935365 238.644791 
L 376.386763 238.644791 
" style="fill:none;stroke:#000000;stroke-linecap:round;stroke-width:5;"/>
   </g>
   <g id="line2d_23">
    <path clip-path="url(#pc6bdf5b207)" d="M 376.386763 238.644791 
L 378.83816 238.644791 
L 381.289558 238.644791 
L 383.740956 238.644791 
L 386.192353 238.644791 
L 388.643751 238.644791 
L 391.095149 238.644791 
L 393.546546 238.644791 
L 395.997944 238.644791 
L 398.449342 238.644791 
" style="fill:none;stroke:#000000;stroke-linecap:round;stroke-width:5;"/>
   </g>
   <g id="line2d_24">
    <path clip-path="url(#pc6bdf5b207)" d="M 405.803535 238.644791 
L 408.254932 238.644791 
L 410.70633 238.644791 
L 413.157728 238.644791 
L 415.609125 238.644791 
L 418.060523 238.644791 
" style="fill:none;stroke:#000000;stroke-linecap:round;stroke-width:5;"/>
   </g>
   <g id="text_14">
    <!-- α1 -->
    <defs>
     <path d="M 41.3125 25.4375 
L 39.15625 36.71875 
Q 36.96875 48.296875 28.265625 48.296875 
Q 21.734375 48.296875 18.75 42.921875 
Q 14.984375 36.1875 14.984375 27.296875 
Q 14.984375 16.546875 18.65625 11.421875 
Q 22.359375 6.203125 28.265625 6.203125 
Q 34.8125 6.203125 38.328125 16.609375 
z
M 46.34375 40.375 
L 51.171875 54.6875 
L 59.1875 54.6875 
L 49.171875 25.046875 
L 51.125 14.359375 
Q 51.5625 11.96875 53.265625 9.96875 
Q 55.28125 7.625 56.84375 7.625 
L 61.140625 7.625 
L 61.140625 0 
L 55.765625 0 
Q 51.171875 0 47.078125 4.109375 
Q 45.0625 6.15625 44.234375 10.453125 
Q 42 5.03125 37.40625 0.78125 
Q 35.25 -1.21875 28.265625 -1.21875 
Q 16.796875 -1.21875 11.234375 6.203125 
Q 5.515625 13.875 5.515625 27.296875 
Q 5.515625 41.65625 11.71875 48.390625 
Q 18.609375 55.90625 28.265625 55.90625 
Q 43.453125 55.90625 46.34375 40.375 
z
" id="DejaVuSans-3b1"/>
    </defs>
    <g transform="translate(46.324929 234.853884)scale(0.1 -0.1)">
     <use xlink:href="#DejaVuSans-3b1"/>
     <use x="65.917969" xlink:href="#DejaVuSans-31"/>
    </g>
   </g>
   <g id="text_15">
    <!-- α2 -->
    <g transform="translate(59.807616 234.853884)scale(0.1 -0.1)">
     <use xlink:href="#DejaVuSans-3b1"/>
     <use x="65.917969" xlink:href="#DejaVuSans-32"/>
    </g>
   </g>
   <g id="text_16">
    <!-- α3 -->
    <g transform="translate(86.77299 234.853884)scale(0.1 -0.1)">
     <use xlink:href="#DejaVuSans-3b1"/>
     <use x="65.917969" xlink:href="#DejaVuSans-33"/>
    </g>
   </g>
   <g id="text_17">
    <!-- α4 -->
    <g transform="translate(117.415461 234.853884)scale(0.1 -0.1)">
     <use xlink:href="#DejaVuSans-3b1"/>
     <use x="65.917969" xlink:href="#DejaVuSans-34"/>
    </g>
   </g>
   <g id="text_18">
    <!-- α5 -->
    <defs>
     <path d="M 10.796875 72.90625 
L 49.515625 72.90625 
L 49.515625 64.59375 
L 19.828125 64.59375 
L 19.828125 46.734375 
Q 21.96875 47.46875 24.109375 47.828125 
Q 26.265625 48.1875 28.421875 48.1875 
Q 40.625 48.1875 47.75 41.5 
Q 54.890625 34.8125 54.890625 23.390625 
Q 54.890625 11.625 47.5625 5.09375 
Q 40.234375 -1.421875 26.90625 -1.421875 
Q 22.3125 -1.421875 17.546875 -0.640625 
Q 12.796875 0.140625 7.71875 1.703125 
L 7.71875 11.625 
Q 12.109375 9.234375 16.796875 8.0625 
Q 21.484375 6.890625 26.703125 6.890625 
Q 35.15625 6.890625 40.078125 11.328125 
Q 45.015625 15.765625 45.015625 23.390625 
Q 45.015625 31 40.078125 35.4375 
Q 35.15625 39.890625 26.703125 39.890625 
Q 22.75 39.890625 18.8125 39.015625 
Q 14.890625 38.140625 10.796875 36.28125 
z
" id="DejaVuSans-35"/>
    </defs>
    <g transform="translate(159.089221 234.853884)scale(0.1 -0.1)">
     <use xlink:href="#DejaVuSans-3b1"/>
     <use x="65.917969" xlink:href="#DejaVuSans-35"/>
    </g>
   </g>
   <g id="text_19">
    <!-- α6 -->
    <g transform="translate(198.311583 234.853884)scale(0.1 -0.1)">
     <use xlink:href="#DejaVuSans-3b1"/>
     <use x="65.917969" xlink:href="#DejaVuSans-36"/>
    </g>
   </g>
   <g id="text_20">
    <!-- α7 -->
    <defs>
     <path d="M 8.203125 72.90625 
L 55.078125 72.90625 
L 55.078125 68.703125 
L 28.609375 0 
L 18.3125 0 
L 43.21875 64.59375 
L 8.203125 64.59375 
z
" id="DejaVuSans-37"/>
    </defs>
    <g transform="translate(252.242332 234.853884)scale(0.1 -0.1)">
     <use xlink:href="#DejaVuSans-3b1"/>
     <use x="65.917969" xlink:href="#DejaVuSans-37"/>
    </g>
   </g>
   <g id="text_21">
    <!-- α8 -->
    <g transform="translate(315.978671 234.853884)scale(0.1 -0.1)">
     <use xlink:href="#DejaVuSans-3b1"/>
     <use x="65.917969" xlink:href="#DejaVuSans-38"/>
    </g>
   </g>
   <g id="text_22">
    <!-- α9 -->
    <defs>
     <path d="M 10.984375 1.515625 
L 10.984375 10.5 
Q 14.703125 8.734375 18.5 7.8125 
Q 22.3125 6.890625 25.984375 6.890625 
Q 35.75 6.890625 40.890625 13.453125 
Q 46.046875 20.015625 46.78125 33.40625 
Q 43.953125 29.203125 39.59375 26.953125 
Q 35.25 24.703125 29.984375 24.703125 
Q 19.046875 24.703125 12.671875 31.3125 
Q 6.296875 37.9375 6.296875 49.421875 
Q 6.296875 60.640625 12.9375 67.421875 
Q 19.578125 74.21875 30.609375 74.21875 
Q 43.265625 74.21875 49.921875 64.515625 
Q 56.59375 54.828125 56.59375 36.375 
Q 56.59375 19.140625 48.40625 8.859375 
Q 40.234375 -1.421875 26.421875 -1.421875 
Q 22.703125 -1.421875 18.890625 -0.6875 
Q 15.09375 0.046875 10.984375 1.515625 
z
M 30.609375 32.421875 
Q 37.25 32.421875 41.125 36.953125 
Q 45.015625 41.5 45.015625 49.421875 
Q 45.015625 57.28125 41.125 61.84375 
Q 37.25 66.40625 30.609375 66.40625 
Q 23.96875 66.40625 20.09375 61.84375 
Q 16.21875 57.28125 16.21875 49.421875 
Q 16.21875 41.5 20.09375 36.953125 
Q 23.96875 32.421875 30.609375 32.421875 
z
" id="DejaVuSans-39"/>
    </defs>
    <g transform="translate(356.426732 234.853884)scale(0.1 -0.1)">
     <use xlink:href="#DejaVuSans-3b1"/>
     <use x="65.917969" xlink:href="#DejaVuSans-39"/>
    </g>
   </g>
   <g id="text_23">
    <!-- α10 -->
    <g transform="translate(377.759459 234.853884)scale(0.1 -0.1)">
     <use xlink:href="#DejaVuSans-3b1"/>
     <use x="65.917969" xlink:href="#DejaVuSans-31"/>
     <use x="129.541016" xlink:href="#DejaVuSans-30"/>
    </g>
   </g>
   <g id="text_24">
    <!-- α11 -->
    <g transform="translate(402.273435 234.853884)scale(0.1 -0.1)">
     <use xlink:href="#DejaVuSans-3b1"/>
     <use x="65.917969" xlink:href="#DejaVuSans-31"/>
     <use x="129.541016" xlink:href="#DejaVuSans-31"/>
    </g>
   </g>
   <g id="legend_1">
    <g id="patch_5">
     <path d="M 376.994104 32.719646 
L 423.565354 32.719646 
Q 425.165354 32.719646 425.165354 31.119646 
L 425.165354 8.434646 
Q 425.165354 6.834646 423.565354 6.834646 
L 376.994104 6.834646 
Q 375.394104 6.834646 375.394104 8.434646 
L 375.394104 31.119646 
Q 375.394104 32.719646 376.994104 32.719646 
z
" style="fill:#ffffff;stroke:#000000;stroke-linejoin:miter;"/>
    </g>
    <g id="line2d_25">
     <path d="M 378.594104 13.313396 
L 394.594104 13.313396 
" style="fill:none;stroke:#0000ff;stroke-linecap:square;"/>
    </g>
    <g id="line2d_26"/>
    <g id="text_25">
     <!-- 4UET -->
     <defs>
      <path d="M 8.6875 72.90625 
L 18.609375 72.90625 
L 18.609375 28.609375 
Q 18.609375 16.890625 22.84375 11.734375 
Q 27.09375 6.59375 36.625 6.59375 
Q 46.09375 6.59375 50.34375 11.734375 
Q 54.59375 16.890625 54.59375 28.609375 
L 54.59375 72.90625 
L 64.5 72.90625 
L 64.5 27.390625 
Q 64.5 13.140625 57.4375 5.859375 
Q 50.390625 -1.421875 36.625 -1.421875 
Q 22.796875 -1.421875 15.734375 5.859375 
Q 8.6875 13.140625 8.6875 27.390625 
z
" id="DejaVuSans-55"/>
      <path d="M 9.8125 72.90625 
L 55.90625 72.90625 
L 55.90625 64.59375 
L 19.671875 64.59375 
L 19.671875 43.015625 
L 54.390625 43.015625 
L 54.390625 34.71875 
L 19.671875 34.71875 
L 19.671875 8.296875 
L 56.78125 8.296875 
L 56.78125 0 
L 9.8125 0 
z
" id="DejaVuSans-45"/>
      <path d="M -0.296875 72.90625 
L 61.375 72.90625 
L 61.375 64.59375 
L 35.5 64.59375 
L 35.5 0 
L 25.59375 0 
L 25.59375 64.59375 
L -0.296875 64.59375 
z
" id="DejaVuSans-54"/>
     </defs>
     <g transform="translate(400.994104 16.113396)scale(0.08 -0.08)">
      <use xlink:href="#DejaVuSans-34"/>
      <use x="63.623047" xlink:href="#DejaVuSans-55"/>
      <use x="136.816406" xlink:href="#DejaVuSans-45"/>
      <use x="200" xlink:href="#DejaVuSans-54"/>
     </g>
    </g>
    <g id="line2d_27">
     <path d="M 378.594104 25.055896 
L 394.594104 25.055896 
" style="fill:none;stroke:#ff0000;stroke-linecap:square;"/>
    </g>
    <g id="line2d_28"/>
    <g id="text_26">
     <!-- 4XCP -->
     <defs>
      <path d="M 6.296875 72.90625 
L 16.890625 72.90625 
L 35.015625 45.796875 
L 53.21875 72.90625 
L 63.8125 72.90625 
L 40.375 37.890625 
L 65.375 0 
L 54.78125 0 
L 34.28125 31 
L 13.625 0 
L 2.984375 0 
L 29 38.921875 
z
" id="DejaVuSans-58"/>
      <path d="M 64.40625 67.28125 
L 64.40625 56.890625 
Q 59.421875 61.53125 53.78125 63.8125 
Q 48.140625 66.109375 41.796875 66.109375 
Q 29.296875 66.109375 22.65625 58.46875 
Q 16.015625 50.828125 16.015625 36.375 
Q 16.015625 21.96875 22.65625 14.328125 
Q 29.296875 6.6875 41.796875 6.6875 
Q 48.140625 6.6875 53.78125 8.984375 
Q 59.421875 11.28125 64.40625 15.921875 
L 64.40625 5.609375 
Q 59.234375 2.09375 53.4375 0.328125 
Q 47.65625 -1.421875 41.21875 -1.421875 
Q 24.65625 -1.421875 15.125 8.703125 
Q 5.609375 18.84375 5.609375 36.375 
Q 5.609375 53.953125 15.125 64.078125 
Q 24.65625 74.21875 41.21875 74.21875 
Q 47.75 74.21875 53.53125 72.484375 
Q 59.328125 70.75 64.40625 67.28125 
z
" id="DejaVuSans-43"/>
      <path d="M 19.671875 64.796875 
L 19.671875 37.40625 
L 32.078125 37.40625 
Q 38.96875 37.40625 42.71875 40.96875 
Q 46.484375 44.53125 46.484375 51.125 
Q 46.484375 57.671875 42.71875 61.234375 
Q 38.96875 64.796875 32.078125 64.796875 
z
M 9.8125 72.90625 
L 32.078125 72.90625 
Q 44.34375 72.90625 50.609375 67.359375 
Q 56.890625 61.8125 56.890625 51.125 
Q 56.890625 40.328125 50.609375 34.8125 
Q 44.34375 29.296875 32.078125 29.296875 
L 19.671875 29.296875 
L 19.671875 0 
L 9.8125 0 
z
" id="DejaVuSans-50"/>
     </defs>
     <g transform="translate(400.994104 27.855896)scale(0.08 -0.08)">
      <use xlink:href="#DejaVuSans-34"/>
      <use x="63.623047" xlink:href="#DejaVuSans-58"/>
      <use x="132.019531" xlink:href="#DejaVuSans-43"/>
      <use x="201.84375" xlink:href="#DejaVuSans-50"/>
     </g>
    </g>
   </g>
  </g>
 </g>
 <defs>
  <clipPath id="pc6bdf5b207">
   <rect height="248.910709" width="392.370709" x="36.794646" y="2.834646"/>
  </clipPath>
 </defs>
</svg>
